<?xml version="1.0" encoding="UTF-8" standalone="no"?>
<!-- Created with Inkscape (http://www.inkscape.org/) -->

<svg
   width="96.566093mm"
   height="128.64302mm"
   viewBox="0 0 96.566095 128.64302"
   version="1.1"
   id="svg1"
   sodipodi:docname="encrypt_lock.svg"
   inkscape:version="1.4.2 (f4327f4, 2025-05-13)"
   xmlns:inkscape="http://www.inkscape.org/namespaces/inkscape"
   xmlns:sodipodi="http://sodipodi.sourceforge.net/DTD/sodipodi-0.dtd"
   xmlns="http://www.w3.org/2000/svg"
   xmlns:svg="http://www.w3.org/2000/svg">
  <sodipodi:namedview
     id="namedview1"
     pagecolor="#505050"
     bordercolor="#eeeeee"
     borderopacity="1"
     inkscape:showpageshadow="0"
     inkscape:pageopacity="0"
     inkscape:pagecheckerboard="0"
     inkscape:deskcolor="#505050"
     inkscape:document-units="mm"
     inkscape:zoom="0.95403673"
     inkscape:cx="176.61794"
     inkscape:cy="242.12904"
     inkscape:window-width="1384"
     inkscape:window-height="878"
     inkscape:window-x="49"
     inkscape:window-y="-6"
     inkscape:window-maximized="1"
     inkscape:current-layer="svg1" />
  <defs
     id="defs1">
    <clipPath
       clipPathUnits="userSpaceOnUse"
       id="clipPath140">
      <path
         d="M 0,1080 H 1920 V 0 H 0 Z"
         transform="matrix(1.3333333,0,0,-1.3333333,0,1440)"
         id="path140" />
    </clipPath>
    <clipPath
       clipPathUnits="userSpaceOnUse"
       id="clipPath63">
      <path
         d="M 147.058,1009.6 H 822.602 V 608.689 H 147.058 Z"
         transform="translate(-581.84971,-643.21252)"
         id="path63" />
    </clipPath>
    <clipPath
       clipPathUnits="userSpaceOnUse"
       id="clipPath64">
      <path
         d="M 147.058,1009.6 H 822.602 V 608.689 H 147.058 Z"
         transform="translate(-554.00401,-881.64112)"
         id="path64" />
    </clipPath>
    <clipPath
       clipPathUnits="userSpaceOnUse"
       id="clipPath65">
      <path
         d="M 147.058,1009.6 H 822.602 V 608.689 H 147.058 Z"
         transform="translate(-659.85941,-842.47442)"
         id="path65" />
    </clipPath>
    <clipPath
       clipPathUnits="userSpaceOnUse"
       id="clipPath66">
      <path
         d="M 147.058,1009.6 H 822.602 V 608.689 H 147.058 Z"
         transform="translate(-663.88931,-812.76862)"
         id="path66" />
    </clipPath>
    <clipPath
       clipPathUnits="userSpaceOnUse"
       id="clipPath67">
      <path
         d="M 147.058,1009.6 H 822.602 V 608.689 H 147.058 Z"
         transform="translate(-672.73282,-780.20562)"
         id="path67" />
    </clipPath>
    <clipPath
       clipPathUnits="userSpaceOnUse"
       id="clipPath68">
      <path
         d="M 147.058,1009.6 H 822.602 V 608.689 H 147.058 Z"
         transform="translate(-633.31961,-846.80912)"
         id="path68" />
    </clipPath>
    <clipPath
       clipPathUnits="userSpaceOnUse"
       id="clipPath69">
      <path
         d="M 147.058,1009.6 H 822.602 V 608.689 H 147.058 Z"
         transform="translate(-456.15221,-908.29382)"
         id="path69" />
    </clipPath>
    <clipPath
       clipPathUnits="userSpaceOnUse"
       id="clipPath70">
      <path
         d="M 147.058,1009.6 H 822.602 V 608.689 H 147.058 Z"
         transform="translate(-484.32901,-900.17292)"
         id="path70" />
    </clipPath>
    <clipPath
       clipPathUnits="userSpaceOnUse"
       id="clipPath73">
      <path
         d="M 147.058,1009.6 H 822.602 V 608.689 H 147.058 Z"
         transform="translate(-591.87922,-662.52232)"
         id="path73" />
    </clipPath>
    <clipPath
       clipPathUnits="userSpaceOnUse"
       id="clipPath74">
      <path
         d="M 147.058,1009.6 H 822.602 V 608.689 H 147.058 Z"
         transform="translate(-581.12951,-697.04711)"
         id="path74" />
    </clipPath>
    <clipPath
       clipPathUnits="userSpaceOnUse"
       id="clipPath76">
      <path
         d="M 147.058,1009.6 H 822.602 V 608.689 H 147.058 Z"
         transform="translate(-587.79751,-810.34062)"
         id="path76" />
    </clipPath>
    <clipPath
       clipPathUnits="userSpaceOnUse"
       id="clipPath78">
      <path
         d="M 147.058,1009.6 H 822.602 V 608.689 H 147.058 Z"
         transform="translate(-581.84971,-643.21252)"
         id="path78" />
    </clipPath>
    <clipPath
       clipPathUnits="userSpaceOnUse"
       id="clipPath79">
      <path
         d="M 147.058,1009.6 H 822.602 V 608.689 H 147.058 Z"
         transform="translate(-493.40261,-659.01221)"
         id="path79" />
    </clipPath>
    <clipPath
       clipPathUnits="userSpaceOnUse"
       id="clipPath80">
      <path
         d="M 147.058,1009.6 H 822.602 V 608.689 H 147.058 Z"
         transform="translate(-591.79091,-654.55631)"
         id="path80" />
    </clipPath>
    <clipPath
       clipPathUnits="userSpaceOnUse"
       id="clipPath81">
      <path
         d="M 147.058,1009.6 H 822.602 V 608.689 H 147.058 Z"
         transform="translate(-617.28881,-668.65192)"
         id="path81" />
    </clipPath>
    <clipPath
       clipPathUnits="userSpaceOnUse"
       id="clipPath82">
      <path
         d="M 147.058,1009.6 H 822.602 V 608.689 H 147.058 Z"
         transform="translate(-502.18301,-665.52461)"
         id="path82" />
    </clipPath>
    <clipPath
       clipPathUnits="userSpaceOnUse"
       id="clipPath84">
      <path
         d="M 147.058,1009.6 H 822.602 V 608.689 H 147.058 Z"
         transform="translate(-576.32011,-698.44012)"
         id="path84" />
    </clipPath>
    <clipPath
       clipPathUnits="userSpaceOnUse"
       id="clipPath85">
      <path
         d="M 147.058,1009.6 H 822.602 V 608.689 H 147.058 Z"
         transform="translate(-621.71912,-930.09422)"
         id="path85" />
    </clipPath>
    <clipPath
       clipPathUnits="userSpaceOnUse"
       id="clipPath86">
      <path
         d="M 147.058,1009.6 H 822.602 V 608.689 H 147.058 Z"
         transform="translate(-585.22691,-896.13972)"
         id="path86" />
    </clipPath>
    <clipPath
       clipPathUnits="userSpaceOnUse"
       id="clipPath87">
      <path
         d="M 147.058,1009.6 H 822.602 V 608.689 H 147.058 Z"
         transform="translate(-605.41382,-913.16562)"
         id="path87" />
    </clipPath>
    <clipPath
       clipPathUnits="userSpaceOnUse"
       id="clipPath88">
      <path
         d="M 147.058,1009.6 H 822.602 V 608.689 H 147.058 Z"
         transform="translate(-570.20401,-912.95513)"
         id="path88" />
    </clipPath>
    <clipPath
       clipPathUnits="userSpaceOnUse"
       id="clipPath89">
      <path
         d="M 147.058,1009.6 H 822.602 V 608.689 H 147.058 Z"
         transform="translate(-553.78162,-932.59373)"
         id="path89" />
    </clipPath>
    <clipPath
       clipPathUnits="userSpaceOnUse"
       id="clipPath90">
      <path
         d="M 147.058,1009.6 H 822.602 V 608.689 H 147.058 Z"
         transform="translate(-603.58462,-899.69922)"
         id="path90" />
    </clipPath>
    <clipPath
       clipPathUnits="userSpaceOnUse"
       id="clipPath91">
      <path
         d="M 147.058,1009.6 H 822.602 V 608.689 H 147.058 Z"
         transform="translate(-588.75052,-916.82012)"
         id="path91" />
    </clipPath>
    <clipPath
       clipPathUnits="userSpaceOnUse"
       id="clipPath92">
      <path
         d="M 147.058,1009.6 H 822.602 V 608.689 H 147.058 Z"
         transform="translate(-568.06061,-933.20342)"
         id="path92" />
    </clipPath>
    <clipPath
       clipPathUnits="userSpaceOnUse"
       id="clipPath93">
      <path
         d="M 147.058,1009.6 H 822.602 V 608.689 H 147.058 Z"
         transform="translate(-545.70151,-743.74722)"
         id="path93" />
    </clipPath>
    <clipPath
       clipPathUnits="userSpaceOnUse"
       id="clipPath94">
      <path
         d="M 147.058,1009.6 H 822.602 V 608.689 H 147.058 Z"
         transform="translate(-576.66121,-757.01302)"
         id="path94" />
    </clipPath>
    <clipPath
       clipPathUnits="userSpaceOnUse"
       id="clipPath95">
      <path
         d="M 147.058,1009.6 H 822.602 V 608.689 H 147.058 Z"
         transform="translate(-576.32011,-698.44012)"
         id="path95" />
    </clipPath>
    <clipPath
       clipPathUnits="userSpaceOnUse"
       id="clipPath96">
      <path
         d="M 147.058,1009.6 H 822.602 V 608.689 H 147.058 Z"
         transform="translate(-530.35891,-731.39402)"
         id="path96" />
    </clipPath>
    <clipPath
       clipPathUnits="userSpaceOnUse"
       id="clipPath97">
      <path
         d="M 147.058,1009.6 H 822.602 V 608.689 H 147.058 Z"
         transform="translate(-521.12231,-721.87412)"
         id="path97" />
    </clipPath>
    <clipPath
       clipPathUnits="userSpaceOnUse"
       id="clipPath98">
      <path
         d="M 147.058,1009.6 H 822.602 V 608.689 H 147.058 Z"
         transform="translate(-525.53231,-736.87572)"
         id="path98" />
    </clipPath>
    <clipPath
       clipPathUnits="userSpaceOnUse"
       id="clipPath99">
      <path
         d="M 147.058,1009.6 H 822.602 V 608.689 H 147.058 Z"
         transform="translate(-521.12231,-721.87412)"
         id="path99" />
    </clipPath>
    <clipPath
       clipPathUnits="userSpaceOnUse"
       id="clipPath100">
      <path
         d="M 147.058,1009.6 H 822.602 V 608.689 H 147.058 Z"
         transform="translate(-525.53231,-736.87572)"
         id="path100" />
    </clipPath>
    <clipPath
       clipPathUnits="userSpaceOnUse"
       id="clipPath183">
      <path
         d="M 0,1080 H 1920 V 0 H 0 Z"
         transform="matrix(1.3333333,0,0,-1.3333333,0,1440)"
         id="path183" />
    </clipPath>
    <clipPath
       clipPathUnits="userSpaceOnUse"
       id="clipPath142">
      <path
         d="M 26.406,587.919 H 556.067 V 273.585 H 26.406 Z"
         transform="translate(-293.50231,-318.02813)"
         id="path142" />
    </clipPath>
    <clipPath
       clipPathUnits="userSpaceOnUse"
       id="clipPath143">
      <path
         d="M 26.406,587.919 H 556.067 V 273.585 H 26.406 Z"
         transform="translate(-257.59251,-273.58501)"
         id="path143" />
    </clipPath>
    <clipPath
       clipPathUnits="userSpaceOnUse"
       id="clipPath144">
      <path
         d="M 26.406,587.919 H 556.067 V 273.585 H 26.406 Z"
         transform="translate(-206.6545,-316.38511)"
         id="path144" />
    </clipPath>
    <clipPath
       clipPathUnits="userSpaceOnUse"
       id="clipPath145">
      <path
         d="M 26.406,587.919 H 556.067 V 273.585 H 26.406 Z"
         transform="translate(-297.1555,-477.71551)"
         id="path145" />
    </clipPath>
    <clipPath
       clipPathUnits="userSpaceOnUse"
       id="clipPath146">
      <path
         d="M 26.406,587.919 H 556.067 V 273.585 H 26.406 Z"
         transform="translate(-192.1899,-375.89681)"
         id="path146" />
    </clipPath>
    <clipPath
       clipPathUnits="userSpaceOnUse"
       id="clipPath147">
      <path
         d="M 26.406,587.919 H 556.067 V 273.585 H 26.406 Z"
         transform="translate(-210.89481,-440.13341)"
         id="path147" />
    </clipPath>
    <clipPath
       clipPathUnits="userSpaceOnUse"
       id="clipPath148">
      <path
         d="M 26.406,587.919 H 556.067 V 273.585 H 26.406 Z"
         transform="translate(-208.72891,-412.19141)"
         id="path148" />
    </clipPath>
    <clipPath
       clipPathUnits="userSpaceOnUse"
       id="clipPath149">
      <path
         d="M 26.406,587.919 H 556.067 V 273.585 H 26.406 Z"
         transform="translate(-213.65781,-359.83681)"
         id="path149" />
    </clipPath>
    <clipPath
       clipPathUnits="userSpaceOnUse"
       id="clipPath150">
      <path
         d="M 26.406,587.919 H 556.067 V 273.585 H 26.406 Z"
         transform="translate(-240.4702,-330.51231)"
         id="path150" />
    </clipPath>
    <clipPath
       clipPathUnits="userSpaceOnUse"
       id="clipPath151">
      <path
         d="M 26.406,587.919 H 556.067 V 273.585 H 26.406 Z"
         transform="translate(-281.16751,-511.34362)"
         id="path151" />
    </clipPath>
    <clipPath
       clipPathUnits="userSpaceOnUse"
       id="clipPath152">
      <path
         d="M 26.406,587.919 H 556.067 V 273.585 H 26.406 Z"
         transform="translate(-306.08471,-513.41032)"
         id="path152" />
    </clipPath>
    <clipPath
       clipPathUnits="userSpaceOnUse"
       id="clipPath154">
      <path
         d="M 26.406,587.919 H 556.067 V 273.585 H 26.406 Z"
         transform="translate(-255.18391,-354.37441)"
         id="path154" />
    </clipPath>
    <clipPath
       clipPathUnits="userSpaceOnUse"
       id="clipPath157">
      <path
         d="M 26.406,587.919 H 556.067 V 273.585 H 26.406 Z"
         transform="translate(-265.8598,-464.59491)"
         id="path157" />
    </clipPath>
  </defs>
  <g
     id="layer1"
     transform="matrix(1.0626289,0,0,1,-68.815278,-24.875741)">
    <g
       id="g182"
       clip-path="url(#clipPath183)"
       transform="matrix(0.33722691,0,0,0.33722691,-15.411826,-209.07436)">
      <path
         d="m 0,0 2.37,16.878 c 0.349,2.482 1.912,4.043 4.443,4.279 3.536,0.33 7.346,0.366 10.795,0.398 3.33,0.03 3.881,-2.072 4.421,-4.742 2.433,-12.029 4.508,-23.858 5.884,-36.099 l 1.879,-16.717 c 13.116,-1.586 23.935,-2.798 36.668,-0.056 -2.492,7.043 -9.624,8.55 -15.216,10.394 -2.305,0.76 -2.087,2.573 -2.181,4.601 -0.834,17.914 -1.547,35.621 -0.919,53.641 -2.835,-0.104 -5.34,-0.775 -8.29,-1.218 C 17.03,27.928 -4.69,28.034 -27.709,30.954 l -0.017,-19.77 -0.649,-33.815 c -0.092,-4.772 -3.827,-4.143 -8.307,-6.325 -3.699,-1.803 -7.16,-4.069 -9.266,-8.041 6.096,-2.338 18.481,-1.93 24.798,-1.186 6.025,0.711 11.8,1.062 17.781,2.133 0.215,6.31 0.762,12.162 1.428,18.268 z m 29.849,36.259 14.714,2.002 c 2.132,0.289 4.106,0.948 6.269,1.105 0.806,0.058 1.501,0.658 1.444,1.516 l -0.639,9.751 c -4.418,1.05 -8.341,2.6 -12.376,4.482 l -8.809,4.109 c -4.011,1.871 -7.291,4.505 -11.623,6.356 1.175,-3.035 1.604,-5.863 2.244,-8.477 1.105,-4.511 -1.327,-7.089 -5.231,-8.57 L -4.56,40.792 -14.116,37.553 c -1.907,-0.646 -3.758,-0.982 -5.117,-2.092 l 15.302,-0.644 c 11.318,-0.476 22.393,-0.107 33.78,1.442 m -77.202,37.344 c -2.106,1.239 -11.856,-2.286 -13.362,-2.998 -1.181,-0.559 -2.363,-0.358 -2.917,0.741 -1.966,3.897 4.917,3.98 11.34,11.064 0.336,0.371 0.673,1.099 0.329,1.339 -0.279,0.194 -0.753,0.476 -1.236,0.478 -4.46,0.025 -8.553,-1.809 -11.881,-4.698 -0.774,-0.672 -2.374,-0.412 -2.582,0.575 -0.418,1.984 0.919,3.392 2.673,4.32 -0.745,1.555 -0.526,3.144 -1.829,4.505 -5.847,-13.223 -5.667,-18.273 0.044,-30.69 0.698,-1.517 2.107,-2.06 3.298,-2.841 2.785,-1.825 5.83,-1.876 8.692,-0.115 2.166,1.331 4.535,2.662 6.211,4.67 0.456,0.545 1.713,2.115 0.912,2.638 -3.898,2.541 -13.026,-5.55 -12.708,0.658 0.05,0.966 0.819,1.711 1.947,2.055 2.795,0.853 10.492,4.785 11.069,8.299 m 70.838,-4.281 c 2.305,-1.825 18.976,-9.373 22.262,-10.628 7.787,-2.974 20.098,-6.809 27.54,-2.232 1.599,0.983 2.633,2.259 4.621,2.602 0.55,0.095 1.268,0.989 1.513,1.552 5.346,12.309 0.003,25.799 -4.425,38.074 -5.864,-2.277 -11.109,-5.005 -16.55,-7.834 -1.176,-0.612 -2.931,-0.842 -3.779,-1.828 -0.507,-0.588 0.041,-2.687 0.789,-2.954 3.323,-1.187 10.86,-1.995 9.931,-5.71 -0.946,-3.786 -9.787,-0.403 -12.656,0.31 l -8.467,2.102 c -5.235,1.301 -10.04,3.219 -15.031,5.255 -11.441,4.668 -8.659,11.744 -20.527,18.529 l 1.747,-7.915 c 0.908,-0.47 2.385,-0.543 2.251,-1.938 -0.26,-2.701 -2.81,-2.608 -5.008,-2.624 -4.788,-0.034 -9.424,0.193 -14.128,-0.294 -1.6,-0.166 -3.174,-0.643 -4.195,-2.259 4.879,-2.527 10.268,-3.427 15.688,-3.306 1.238,0.028 2.021,-0.571 2.514,-1.34 0.518,-0.81 0.684,-1.837 -0.012,-2.667 -1.604,-1.914 -6.897,-0.673 -13.016,-1.959 -2.362,-0.496 -4.778,-0.33 -7.051,-2.269 5.505,-2.549 11.798,-3.076 17.702,-2.046 1.146,0.201 1.999,0.044 2.719,-0.94 C 8.305,76.471 8.508,75.415 7.867,74.616 6.965,73.49 5.488,72.964 4.061,72.759 0.852,72.297 -2.01,71.32 -4.779,69.551 c 3.922,-3.514 18.441,-0.514 22.606,1.31 2.579,1.13 3.724,-0.007 5.658,-1.539 M -38.318,36.346 c 17.102,5.045 33.537,10.76 49.868,17.482 1.558,0.641 3.101,0.715 4.167,2.047 l -1.933,8.472 c -6.319,-1.879 -17.183,-2.902 -22.147,1.547 -1.443,1.293 -1.618,3.834 -0.873,5.515 0.416,0.938 1.518,1.179 1.8,2.114 l -5.59,1.6 c -1.827,0.523 -3.208,1.896 -3.565,3.363 -1.117,4.593 2.686,5.843 6.053,7.46 -1.276,1.118 -2.621,1.836 -3.489,3.102 -1.877,2.739 -0.549,6.156 2.363,7.713 2.645,1.415 5.746,1.691 8.834,1.681 l 7.869,-0.027 c -2.415,7.544 -4.367,14.957 -5.909,22.626 -1.4,0.009 -2.117,-1.03 -3.213,-1.364 l -21.831,-6.665 -15.602,-4.744 -6.824,-2.212 -16.202,-5.583 c -0.088,-1.371 0.671,-2.243 0.929,-3.326 l 2.416,-10.119 c 3.06,1.316 6.005,1.901 9.113,1.565 3.211,-0.348 5.146,-3.141 4.418,-6.336 -0.282,-1.237 -1.294,-2.222 -1.878,-3.574 1.757,-0.613 4.209,-0.706 5.341,-2.397 1.975,-2.949 0.418,-6.454 -2.4,-8.625 3.388,-1.69 4.713,-5.112 3.076,-8.405 -1.801,-3.622 -5.067,-6.06 -8.671,-8.227 1.974,-5.67 3.948,-11.053 5.371,-16.902 3.024,0.468 5.447,1.316 8.509,2.219 m 7.394,81.537 c 2.889,0.886 5.675,1.56 8.593,2.935 -2.61,4.955 -2.438,8.474 -4.621,14.041 -7.016,-5.029 -12.671,-14.068 -17.184,-21.055 2.682,0.232 4.429,1.384 6.584,2.045 z M 39.402,89.677 50.061,86.954 c -1.333,3.513 -2.163,6.478 -3.04,9.824 -0.663,2.526 -3.244,8.322 -1.923,9.897 0.278,0.331 1.483,0.613 1.795,0.066 2.344,-4.107 4.205,-8.368 5.721,-12.898 5.674,3.894 11.135,6.968 16.973,9.96 2.021,1.036 4.116,1.65 5.816,3.23 -3.061,5.323 -6.451,10.062 -9.79,15.105 -5.773,8.717 -16.557,21.028 -27.5,23.002 -5.718,-4.481 -10.107,-7.498 -17.357,-9.346 -10.78,-2.748 -21.982,-1.562 -32.239,2.85 1.421,-4.461 2.737,-8.701 3.636,-13.482 2.498,0.96 4.766,1.354 6.907,0.547 0.663,-0.249 2.164,0.97 2.74,-0.074 2.467,-4.468 3.785,-9.259 5.288,-14.332 8.148,-1.252 15.224,-10.325 18.484,-17.52 2.326,-0.531 4.347,-1.391 6.593,-2.034 z m -71.131,47.447 c 0.923,0.745 2.159,0.736 3.107,1.617 -2.078,5.845 -6.435,12.023 -13.529,9.827 -4.463,-1.381 -7.525,-5.602 -7.955,-10.282 -1.078,-5.803 0.966,-16.5 2.926,-21.933 4.162,9.404 7.715,14.524 15.451,20.771 m 4.087,9.443 c 3.384,-5.198 8.756,-18.53 8.365,-24.993 l 6.572,2.248 c 0.694,0.496 -0.249,1.933 -0.435,2.558 l -4.397,14.756 c -1.99,6.677 -6.865,15.71 -13.255,18.735 -6.252,2.96 -13.203,1.875 -19.041,-1.625 -6.413,-3.845 -10.246,-10.456 -11.067,-17.932 -1.124,-10.234 1.966,-21.443 4.601,-31.436 2.533,0.828 4.448,1.847 6.5,2.803 -4.755,11.734 -9.523,31.786 3.119,39.637 7.213,4.479 14.405,2.364 19.038,-4.751 m 3.01,-191.01 H -35.91 c -0.244,0.556 -0.996,0.394 -1.503,0.376 -3.706,-0.13 -7.687,0.193 -11.042,2.2 -2.779,1.664 -2.999,5.233 -1.667,7.953 2.865,5.849 10.098,10.417 16.515,11.655 -0.019,18.341 0.625,36.277 1.92,54.581 -5.258,-1.488 -9.625,-2.756 -14.456,-2.818 -1.072,-0.62 -2.283,-0.598 -3.006,0.437 -3.589,1.145 -6.249,15.343 -7.144,19.347 -6.471,-0.859 -12.717,2.288 -15.356,8.445 -1.933,4.511 -3.325,9.382 -3.637,14.36 -0.167,2.661 0.523,5.295 0.882,7.875 0.425,3.051 1.98,5.695 3.009,8.485 0.733,1.988 3.037,3.12 3.752,4.72 0.462,1.746 -1.739,8.993 0.362,10.307 2.516,1.575 5.215,2.749 7.813,4.168 -4.988,13.444 -9.017,29.218 -3.349,42.662 4.36,10.341 15.105,16.347 26.515,16.278 -6.888,20.1 -1.899,42.738 13.745,56.412 7.496,6.553 19.768,11.193 29.674,8.609 0.812,-0.212 3.369,-2.021 2.112,-3.658 -1.504,-1.959 -10.067,2.982 -24.132,-6.51 -14.824,-10.002 -21.548,-29.528 -17.379,-46.749 0.669,-2.764 1.357,-5.429 2.4,-8.036 1.748,-4.37 6.04,-3.07 11.382,-12.017 l 3.247,-5.439 c 1.084,-1.815 3.155,-2.725 5.117,-3.684 11.835,-5.781 28.13,-6.165 39.245,1.372 2.251,1.526 4.496,2.915 6.541,4.87 10.642,10.17 16.162,24.751 15.27,39.499 -0.303,5.006 -1.721,9.375 -3.197,14.093 -4.563,14.579 -17.41,24.616 -31.909,28.429 -6.337,1.666 -12.826,1.777 -19.382,1.143 -2.037,-0.197 -7.402,-0.987 -7.979,0.418 -1.031,2.509 3.834,3.841 4.811,4.198 7.547,2.761 15.175,2.577 22.95,0.891 10.172,-2.205 19.537,-7.51 26.82,-14.976 5.346,-5.481 8.842,-12.243 11.108,-19.593 1.903,-6.174 3.203,-12.187 3.106,-18.685 -0.212,-14.194 -5.328,-27.091 -14.741,-38.021 5.774,-1.028 13.725,-6.783 17.398,-10.522 2.655,-2.703 5.137,-5.3 7.473,-8.379 5.024,-6.623 9.5,-13.436 13.913,-20.492 1.952,-3.122 0.984,-6.83 -2.272,-8.865 3.247,-5.041 6.462,-16.461 7.247,-22.358 1.459,-10.948 0.407,-12.517 -2.919,-22.059 -0.6,-1.722 -2.926,-2.464 -4.343,-3.331 -7.953,-4.862 -11.56,-5.09 -21.355,-3.989 l 0.038,-10.546 c 0.011,-2.948 -2.187,-5.06 -5.248,-5.281 0.559,-4.518 0.689,-8.775 0.816,-13.359 l 1.126,-40.494 c 7.799,-1.828 15.812,-6.519 17.345,-14.696 0.517,-2.757 -0.476,-5.479 -3.335,-6.371 -9.977,-3.113 -23.953,-2.339 -34.452,-0.95 l -4.718,0.624 c -1.846,0.244 -4.059,1.726 -4.575,3.738 -1.128,4.405 -1.197,8.762 -1.679,13.336 -1.14,10.81 -2.841,21.261 -4.52,31.976 -0.461,2.941 -0.924,5.556 -0.97,8.717 L 7.383,16.147 5.332,-1.207 C 4.424,-8.883 3.507,-16.243 2.916,-23.904 c -0.324,-4.204 -0.561,-8.288 -1.154,-12.42 -0.496,-3.446 -3.053,-5.43 -6.39,-5.925 -4.484,-0.665 -8.849,-1.23 -13.392,-1.623 z"
         style="fill:#070907;fill-opacity:1;fill-rule:nonzero;stroke:none"
         transform="matrix(1.3333333,0,0,-1.3333333,391.3364,1015.9625)"
         clip-path="url(#clipPath142)"
         id="path163" />
      <path
         d="M 0,0 H -1.504 V 0.376 C -0.996,0.394 -0.245,0.556 0,0"
         style="fill:#09a877;fill-opacity:1;fill-rule:nonzero;stroke:none"
         transform="matrix(1.3333333,0,0,-1.3333333,343.45667,1075.22)"
         clip-path="url(#clipPath143)"
         id="path164" />
      <path
         d="m 0,0 c -0.681,2.061 0.116,3.966 1.067,5.623 2.318,4.04 4.741,8.085 7.227,11.991 l 5.969,9.378 c 0.92,1.446 3.434,4.924 5.149,4.151 3.331,-1.502 -1.057,-9.079 -2.497,-11.429 L 6.793,3.193 C 5.791,1.557 4.76,0.056 3.121,-0.964 2.124,-1.585 0.436,-1.319 0,0"
         style="fill:#09a877;fill-opacity:1;fill-rule:nonzero;stroke:none"
         transform="matrix(1.3333333,0,0,-1.3333333,275.53933,1018.1532)"
         clip-path="url(#clipPath144)"
         id="path165" />
      <path
         d="m 0,0 c -5.415,-0.764 -12.789,0.268 -16.659,4.093 -0.491,0.485 -0.701,1.321 -0.487,1.873 0.164,0.423 0.897,1.239 1.516,0.955 7.357,-3.374 15.348,-2.975 22.605,0.651 3.637,1.817 6.317,4.52 8.809,7.8 0.794,1.046 3.089,2.162 3.799,0.688 1.21,-2.511 -0.732,-5.086 -2.358,-7.076 C 12.94,3.74 6.665,0.94 0,0"
         style="fill:#070907;fill-opacity:1;fill-rule:nonzero;stroke:none"
         transform="matrix(1.3333333,0,0,-1.3333333,396.20733,803.046)"
         clip-path="url(#clipPath145)"
         id="path166" />
      <path
         d="m 0,0 c -3.646,-0.958 -7.097,-2.007 -10.896,-2.225 -1.579,-0.091 -2.812,0.517 -2.974,1.987 -0.146,1.321 0.645,2.348 2.078,2.928 l 4.224,1.711 7.209,2.21 5.685,1.527 C 8.661,9.035 12.161,10.3 15.568,9.508 16.686,9.248 16.75,7.537 16.575,6.823 15.759,3.493 3.559,0.935 0,0"
         style="fill:#09a877;fill-opacity:1;fill-rule:nonzero;stroke:none"
         transform="matrix(1.3333333,0,0,-1.3333333,256.2532,938.80427)"
         clip-path="url(#clipPath146)"
         id="path167" />
      <path
         d="m 0,0 c 1.585,-1.464 7.018,-7.129 5.473,-9.356 -1.859,-2.678 -8.815,3.944 -10.634,5.648 -2.624,2.457 -10.998,10.514 -12.398,12.993 -0.601,1.064 -0.473,2.332 0.164,3.138 0.651,0.825 2.166,1.124 3.165,0.282 2.184,-1.841 4.341,-3.571 6.443,-5.513 z"
         style="fill:#09a877;fill-opacity:1;fill-rule:nonzero;stroke:none"
         transform="matrix(1.3333333,0,0,-1.3333333,281.19307,853.15547)"
         clip-path="url(#clipPath147)"
         id="path168" />
      <path
         d="m 0,0 c -2.192,-0.821 -4.358,0.028 -6.363,0.537 -1.934,0.491 -9.551,2.54 -9.766,4.388 -0.115,0.98 -0.075,2.72 1.101,2.953 2.383,0.474 4.686,-0.245 6.912,-0.883 C -5.682,6.298 0.539,4.803 0.997,2.457 1.142,1.715 0.992,0.372 0,0"
         style="fill:#09a877;fill-opacity:1;fill-rule:nonzero;stroke:none"
         transform="matrix(1.3333333,0,0,-1.3333333,278.3052,890.41147)"
         clip-path="url(#clipPath148)"
         id="path169" />
      <path
         d="m 0,0 c -2.433,-2.005 -10.189,-9.443 -12.321,-6.677 -2.383,3.091 7.87,9.963 10.247,11.515 C -1.134,5.452 0.803,5.79 1.439,4.817 2.509,3.183 1.422,1.172 0,0"
         style="fill:#09a877;fill-opacity:1;fill-rule:nonzero;stroke:none"
         transform="matrix(1.3333333,0,0,-1.3333333,284.87707,960.2176)"
         clip-path="url(#clipPath149)"
         id="path170" />
      <path
         d="m 0,0 c -0.587,-3.551 -1.354,-13.062 -5.168,-12.713 -1.038,0.094 -1.785,1.186 -1.691,2.435 0.347,4.621 1.208,9.122 2.575,13.506 0.413,1.324 1.947,2.486 3.148,1.652 C 0.427,3.795 0.281,1.696 0,0"
         style="fill:#09a877;fill-opacity:1;fill-rule:nonzero;stroke:none"
         transform="matrix(1.3333333,0,0,-1.3333333,320.62693,999.31693)"
         clip-path="url(#clipPath150)"
         id="path171" />
      <path
         d="m 0,0 c 3.315,-4.586 2.553,-11.921 -0.503,-12.371 -1.468,-0.216 -2.574,0.217 -3.327,1.506 C -6.383,-6.497 -6.086,0.454 -2.57,1.15 -1.822,1.298 -0.612,0.847 0,0"
         style="fill:#070907;fill-opacity:1;fill-rule:nonzero;stroke:none"
         transform="matrix(1.3333333,0,0,-1.3333333,374.89,758.20853)"
         clip-path="url(#clipPath151)"
         id="path172" />
      <path
         d="m 0,0 c 2.814,-3.949 2.086,-10.724 -0.54,-11.584 -0.88,-0.288 -2.387,-0.172 -3.111,0.603 C -6.545,-7.886 -6.796,-0.076 -3.52,1.09 -2.489,1.457 -0.863,1.211 0,0"
         style="fill:#070907;fill-opacity:1;fill-rule:nonzero;stroke:none"
         transform="matrix(1.3333333,0,0,-1.3333333,408.11293,755.45293)"
         clip-path="url(#clipPath152)"
         id="path173" />
      <path
         d="m 0,0 c -3.062,-0.903 -5.485,-1.751 -8.509,-2.22 -1.423,5.85 -3.397,11.232 -5.371,16.903 3.604,2.167 6.871,4.605 8.672,8.227 1.637,3.292 0.311,6.715 -3.076,8.405 2.818,2.171 4.375,5.676 2.4,8.625 -1.132,1.691 -3.584,1.784 -5.342,2.397 0.584,1.352 1.597,2.336 1.878,3.573 0.728,3.196 -1.206,5.989 -4.418,6.337 -3.108,0.336 -6.053,-0.249 -9.113,-1.566 L -25.294,60.8 c -0.259,1.084 -1.018,1.955 -0.93,3.326 l 16.202,5.584 6.825,2.211 15.602,4.744 21.831,6.665 c 1.096,0.335 1.812,1.373 3.212,1.365 1.542,-7.67 3.494,-15.082 5.91,-22.626 l -7.869,0.026 c -3.088,0.011 -6.189,-0.265 -8.834,-1.68 -2.912,-1.557 -4.241,-4.975 -2.363,-7.713 0.868,-1.266 2.212,-1.984 3.489,-3.102 -3.368,-1.617 -7.17,-2.867 -6.053,-7.461 0.357,-1.466 1.737,-2.839 3.564,-3.362 l 5.591,-1.6 c -0.282,-0.935 -1.384,-1.176 -1.8,-2.114 -0.746,-1.681 -0.57,-4.222 0.873,-5.515 4.963,-4.449 15.828,-3.426 22.147,-1.547 l 1.933,-8.473 C 52.97,18.197 51.426,18.123 49.869,17.482 33.537,10.76 17.102,5.045 0,0"
         style="fill:#09a877;fill-opacity:1;fill-rule:nonzero;stroke:none"
         transform="matrix(1.3333333,0,0,-1.3333333,340.2452,967.5008)"
         clip-path="url(#clipPath154)"
         id="path175" />
      <path
         d="m 0,0 c -4.633,7.115 -11.825,9.23 -19.037,4.751 -12.642,-7.851 -7.874,-27.903 -3.119,-39.637 -2.052,-0.956 -3.967,-1.975 -6.5,-2.803 -2.636,9.993 -5.725,21.202 -4.601,31.436 0.821,7.476 4.654,14.088 11.066,17.932 5.838,3.5 12.79,4.586 19.042,1.625 C 3.241,10.279 8.116,1.246 10.105,-5.431 l 4.397,-14.756 c 0.186,-0.624 1.129,-2.062 0.435,-2.558 L 8.366,-24.993 C 8.756,-18.53 3.384,-5.197 0,0"
         style="fill:#09a877;fill-opacity:1;fill-rule:nonzero;stroke:none"
         transform="matrix(1.3333333,0,0,-1.3333333,354.47973,820.54013)"
         clip-path="url(#clipPath157)"
         id="path178" />
    </g>
  </g>
</svg>
