<?xml version="1.0" encoding="UTF-8" standalone="no"?>
<!-- Created with Inkscape (http://www.inkscape.org/) -->

<svg
   width="351.19244mm"
   height="74.79631mm"
   viewBox="0 0 351.19245 74.79631"
   version="1.1"
   id="svg1"
   xml:space="preserve"
   xmlns="http://www.w3.org/2000/svg"
   xmlns:svg="http://www.w3.org/2000/svg"><defs
     id="defs1" /><g
     id="layer1"
     transform="translate(-25.650929,-111.10185)"><g
       style="fill:none;stroke:#00bc7d;stroke-opacity:1"
       id="g1"
       transform="matrix(3.7395256,0,0,3.7395256,14.438142,103.62279)"><path
         d="M 16,8.00169 V 7 C 16,4.79086 14.2091,3 12,3 9.79086,3 8,4.79086 8,7 v 1.00169 m 8,0 C 15.7563,8 15.4907,8 15.2,8 H 8.8 C 8.50929,8 8.24373,8 8,8.00169 m 8,0 c 1.1649,0.0081 1.8313,0.05489 2.362,0.32529 0.5645,0.28762 1.0234,0.74656 1.311,1.31105 C 20,10.2798 20,11.1198 20,12.8 v 3.4 c 0,1.6802 0,2.5202 -0.327,3.162 -0.2876,0.5645 -0.7465,1.0234 -1.311,1.311 C 17.7202,21 16.8802,21 15.2,21 H 8.8 C 7.11984,21 6.27976,21 5.63803,20.673 5.07354,20.3854 4.6146,19.9265 4.32698,19.362 4,18.7202 4,17.8802 4,16.2 V 12.8 C 4,11.1198 4,10.2798 4.32698,9.63803 4.6146,9.07354 5.07354,8.6146 5.63803,8.32698 6.16873,8.05658 6.83507,8.00979 8,8.00169 M 10,11 v 7 m 4,-7 v 7 M 8.5,12.5 h 7 m -7,4 h 7"
         stroke="#000000"
         stroke-width="2"
         stroke-linecap="round"
         stroke-linejoin="round"
         id="path1"
         style="stroke:#00bc7d;stroke-opacity:1" /></g><path
       style="font-weight:bold;font-size:35.4258px;line-height:31.936px;font-family:'FiraCode Nerd Font';-inkscape-font-specification:'FiraCode Nerd Font Bold';letter-spacing:-1.16962px;fill:#00bc7d;stroke-width:0.837511"
       d="m 115.41122,151.17966 q 0.29067,2.36172 1.5442,3.39724 1.25353,1.01736 3.0884,1.01736 1.3262,0 2.56156,-0.43601 1.23536,-0.43601 2.37989,-1.1627 l 2.30722,3.12474 q -1.36254,1.16269 -3.30641,1.90754 -1.92571,0.74485 -4.39644,0.74485 -3.3064,0 -5.54095,-1.30803 -2.23455,-1.32619 -3.36091,-3.63341 -1.12636,-2.30722 -1.12636,-5.30479 0,-2.85223 1.09002,-5.17761 1.09003,-2.34356 3.17924,-3.72426 2.10738,-1.39886 5.14128,-1.39886 2.7614,0 4.77795,1.18086 2.03471,1.18086 3.1429,3.39724 1.12636,2.21639 1.12636,5.32296 0,0.49051 -0.0363,1.05369 -0.0182,0.56318 -0.0727,0.99919 z m 3.56074,-8.10252 q -1.5442,0 -2.48889,1.10819 -0.94468,1.10819 -1.14452,3.54258 h 7.08516 q -0.0182,-2.10738 -0.81752,-3.37907 -0.79935,-1.2717 -2.63423,-1.2717 z m 12.09237,16.07786 v -19.29343 h 5.01411 l 0.39967,2.23455 q 1.28987,-1.45337 2.72507,-2.16188 1.4352,-0.70852 3.27007,-0.70852 2.47072,0 3.88775,1.50787 1.41704,1.50786 1.41704,4.25109 V 159.155 h -5.7408 v -12.51711 q 0,-1.78038 -0.39968,-2.47073 -0.3815,-0.70851 -1.45336,-0.70851 -0.90836,0 -1.74404,0.58135 -0.81752,0.58134 -1.63504,1.61687 V 159.155 Z m 30.85895,-3.90592 q 1.18086,0 2.21638,-0.45417 1.05369,-0.47235 2.08922,-1.19903 l 2.56155,3.63341 q -1.27169,1.09003 -3.10657,1.81671 -1.8167,0.72668 -4.06942,0.72668 -3.10657,0 -5.34112,-1.27169 -2.23455,-1.28986 -3.43358,-3.56075 -1.19903,-2.28905 -1.19903,-5.30478 0,-3.01574 1.2172,-5.35929 1.23536,-2.36172 3.48808,-3.70609 2.27088,-1.34436 5.37745,-1.34436 2.19822,0 3.90592,0.61768 1.72587,0.59951 3.16107,1.79854 l -2.48889,3.45175 q -0.98102,-0.69035 -2.07104,-1.07186 -1.09003,-0.38151 -2.27089,-0.38151 -1.94388,0 -3.1429,1.3807 -1.18086,1.36253 -1.18086,4.61444 0,2.12554 0.56318,3.3609 0.56318,1.2172 1.52603,1.74404 0.98102,0.50868 2.19822,0.50868 z m 10.58449,3.90592 v -3.85142 h 2.5434 v -11.62693 h -2.5434 v -3.81508 h 6.92166 l 1.05369,4.34193 q 1.03552,-2.48889 2.63423,-3.70608 1.61687,-1.2172 3.94225,-1.2172 0.98103,0 1.74404,0.1635 0.76302,0.14534 1.4352,0.41785 l -1.07186,8.06618 H 185.5699 V 144.367 q -1.63503,0.29068 -2.8704,1.78038 -1.23536,1.47153 -1.90754,3.63341 v 5.52279 h 3.81509 v 3.85142 z m 38.68896,-19.29343 -6.43114,19.29343 q -1.2717,3.83326 -3.85142,5.83164 -2.56156,1.99837 -6.95799,2.25271 l -0.65402,-4.05126 q 1.90755,-0.23617 3.07024,-0.70851 1.18086,-0.47235 1.88938,-1.28986 0.72668,-0.79936 1.25352,-2.03472 h -1.96204 l -6.1223,-19.29343 h 6.0678 l 3.74242,15.62368 4.06942,-15.62368 z m 13.07339,-0.63585 q 2.52522,0 4.06943,1.25353 1.5442,1.25353 2.25271,3.54258 0.72669,2.28905 0.72669,5.43195 0,2.9794 -0.87202,5.32296 -0.87202,2.32538 -2.52523,3.66975 -1.6532,1.32619 -4.01492,1.32619 -2.8159,0 -4.5781,-2.01654 v 8.84737 l -5.7408,0.59951 v -27.34145 h 5.08678 l 0.25434,2.16188 q 1.18086,-1.50787 2.57973,-2.14372 1.39886,-0.65401 2.76139,-0.65401 z m -1.78037,4.23293 q -0.99919,0 -1.76221,0.59951 -0.76302,0.59952 -1.39886,1.63504 v 8.13885 q 0.59951,0.89019 1.25352,1.30803 0.67219,0.41784 1.58054,0.41784 1.52603,0 2.37989,-1.3807 0.85385,-1.39886 0.85385,-4.65077 0,-2.39805 -0.34517,-3.70608 -0.34518,-1.3262 -0.99919,-1.83488 -0.65402,-0.52684 -1.56237,-0.52684 z m 29.09675,14.56999 q -1.12636,0.72669 -2.72507,1.23537 -1.5987,0.50867 -3.59708,0.50867 -3.77875,0 -5.61362,-1.92571 -1.83488,-1.94387 -1.83488,-5.26845 v -8.75653 h -4.05126 v -3.96042 h 4.05126 v -4.17843 l 5.7408,-0.69035 v 4.86878 h 6.21314 l -0.56318,3.96042 h -5.64996 v 8.75653 q 0,1.4352 0.65401,2.05288 0.65402,0.61768 2.08922,0.61768 1.01735,0 1.85304,-0.23617 0.85385,-0.25434 1.52603,-0.63585 z m 7.56875,-2.30721 q 0,-1.1082 0.54501,-2.01655 0.54501,-0.92652 1.47153,-1.47153 0.92653,-0.56318 2.03472,-0.56318 1.12636,0 2.03471,0.56318 0.92652,0.54501 1.47153,1.47153 0.54502,0.90835 0.54502,2.01655 0,1.09002 -0.54502,2.01654 -0.54501,0.92652 -1.47153,1.47153 -0.90835,0.56318 -2.03471,0.56318 -1.10819,0 -2.03472,-0.56318 -0.92652,-0.54501 -1.47153,-1.47153 -0.54501,-0.92652 -0.54501,-2.01654 z m 26.55336,-0.47235 q 1.18086,0 2.21638,-0.45417 1.05369,-0.47235 2.08921,-1.19903 l 2.56156,3.63341 q -1.27169,1.09003 -3.10657,1.81671 -1.81671,0.72668 -4.06942,0.72668 -3.10657,0 -5.34113,-1.27169 -2.23455,-1.28986 -3.43357,-3.56075 -1.19903,-2.28905 -1.19903,-5.30478 0,-3.01574 1.21719,-5.35929 1.23537,-2.36172 3.48808,-3.70609 2.27089,-1.34436 5.37746,-1.34436 2.19821,0 3.90592,0.61768 1.72587,0.59951 3.16107,1.79854 l -2.48889,3.45175 q -0.98102,-0.69035 -2.07105,-1.07186 -1.09002,-0.38151 -2.27088,-0.38151 -1.94388,0 -3.1429,1.3807 -1.18086,1.36253 -1.18086,4.61444 0,2.12554 0.56318,3.3609 0.56317,1.2172 1.52603,1.74404 0.98102,0.50868 2.19822,0.50868 z m 20.46738,-23.05402 v 20.89214 q 0,1.16269 0.65402,1.67137 0.67218,0.49051 1.83487,0.49051 0.74485,0 1.4352,-0.1635 0.69035,-0.18167 1.28986,-0.41784 l 1.3807,3.83325 q -0.98102,0.50868 -2.36172,0.89019 -1.3807,0.3815 -3.21557,0.3815 -3.48808,0 -5.12312,-1.99837 -1.63503,-2.01655 -1.63503,-5.39563 v -16.25953 h -5.6863 v -3.92409 z m 18.88685,-2.43439 q 1.4897,0 2.43439,0.92652 0.94469,0.92652 0.94469,2.30722 0,1.3807 -0.94469,2.32539 -0.94469,0.92652 -2.43439,0.92652 -1.50786,0 -2.47072,-0.92652 -0.94469,-0.94469 -0.94469,-2.32539 0,-1.3807 0.94469,-2.30722 0.96286,-0.92652 2.47072,-0.92652 z m 3.46991,10.1009 v 15.36934 h 4.90512 v 3.92409 h -16.1142 v -3.92409 h 5.46829 v -11.44525 h -5.28662 v -3.92409 z m 19.06853,15.38751 q 1.18086,0 2.21638,-0.45417 1.05369,-0.47235 2.08921,-1.19903 l 2.56156,3.63341 q -1.27169,1.09003 -3.10657,1.81671 -1.81671,0.72668 -4.06942,0.72668 -3.10657,0 -5.34113,-1.27169 -2.23455,-1.28986 -3.43357,-3.56075 -1.19903,-2.28905 -1.19903,-5.30478 0,-3.01574 1.21719,-5.35929 1.23537,-2.36172 3.48808,-3.70609 2.27089,-1.34436 5.37746,-1.34436 2.19821,0 3.90592,0.61768 1.72587,0.59951 3.16107,1.79854 l -2.48889,3.45175 q -0.98102,-0.69035 -2.07105,-1.07186 -1.09002,-0.38151 -2.27088,-0.38151 -1.94388,0 -3.1429,1.3807 -1.18086,1.36253 -1.18086,4.61444 0,2.12554 0.56317,3.3609 0.56318,1.2172 1.52604,1.74404 0.98102,0.50868 2.19822,0.50868 z M 363.7449,131.59555 V 159.155 h -5.7408 v -26.95994 z m 12.57161,8.26602 -6.34031,8.53852 6.86716,10.75491 h -6.54015 l -6.34031,-10.57324 6.34031,-8.72019 z"
       id="text1"
       aria-label="encrypt.click" /></g></svg>
