<?xml version="1.0" encoding="UTF-8" standalone="no"?>
<!-- Created with Inkscape (http://www.inkscape.org/) -->

<svg
   width="77.752213mm"
   height="133.17355mm"
   viewBox="0 0 77.752212 133.17356"
   version="1.1"
   id="svg1"
   xmlns="http://www.w3.org/2000/svg"
   xmlns:svg="http://www.w3.org/2000/svg">
  <defs
     id="defs1">
    <clipPath
       clipPathUnits="userSpaceOnUse"
       id="clipPath140">
      <path
         d="M 0,1080 H 1920 V 0 H 0 Z"
         transform="matrix(1.3333333,0,0,-1.3333333,0,1440)"
         id="path140" />
    </clipPath>
    <clipPath
       clipPathUnits="userSpaceOnUse"
       id="clipPath63">
      <path
         d="M 147.058,1009.6 H 822.602 V 608.689 H 147.058 Z"
         transform="translate(-581.84971,-643.21252)"
         id="path63" />
    </clipPath>
    <clipPath
       clipPathUnits="userSpaceOnUse"
       id="clipPath64">
      <path
         d="M 147.058,1009.6 H 822.602 V 608.689 H 147.058 Z"
         transform="translate(-554.00401,-881.64112)"
         id="path64" />
    </clipPath>
    <clipPath
       clipPathUnits="userSpaceOnUse"
       id="clipPath65">
      <path
         d="M 147.058,1009.6 H 822.602 V 608.689 H 147.058 Z"
         transform="translate(-659.85941,-842.47442)"
         id="path65" />
    </clipPath>
    <clipPath
       clipPathUnits="userSpaceOnUse"
       id="clipPath66">
      <path
         d="M 147.058,1009.6 H 822.602 V 608.689 H 147.058 Z"
         transform="translate(-663.88931,-812.76862)"
         id="path66" />
    </clipPath>
    <clipPath
       clipPathUnits="userSpaceOnUse"
       id="clipPath67">
      <path
         d="M 147.058,1009.6 H 822.602 V 608.689 H 147.058 Z"
         transform="translate(-672.73282,-780.20562)"
         id="path67" />
    </clipPath>
    <clipPath
       clipPathUnits="userSpaceOnUse"
       id="clipPath68">
      <path
         d="M 147.058,1009.6 H 822.602 V 608.689 H 147.058 Z"
         transform="translate(-633.31961,-846.80912)"
         id="path68" />
    </clipPath>
    <clipPath
       clipPathUnits="userSpaceOnUse"
       id="clipPath69">
      <path
         d="M 147.058,1009.6 H 822.602 V 608.689 H 147.058 Z"
         transform="translate(-456.15221,-908.29382)"
         id="path69" />
    </clipPath>
    <clipPath
       clipPathUnits="userSpaceOnUse"
       id="clipPath70">
      <path
         d="M 147.058,1009.6 H 822.602 V 608.689 H 147.058 Z"
         transform="translate(-484.32901,-900.17292)"
         id="path70" />
    </clipPath>
    <clipPath
       clipPathUnits="userSpaceOnUse"
       id="clipPath73">
      <path
         d="M 147.058,1009.6 H 822.602 V 608.689 H 147.058 Z"
         transform="translate(-591.87922,-662.52232)"
         id="path73" />
    </clipPath>
    <clipPath
       clipPathUnits="userSpaceOnUse"
       id="clipPath74">
      <path
         d="M 147.058,1009.6 H 822.602 V 608.689 H 147.058 Z"
         transform="translate(-581.12951,-697.04711)"
         id="path74" />
    </clipPath>
    <clipPath
       clipPathUnits="userSpaceOnUse"
       id="clipPath76">
      <path
         d="M 147.058,1009.6 H 822.602 V 608.689 H 147.058 Z"
         transform="translate(-587.79751,-810.34062)"
         id="path76" />
    </clipPath>
    <clipPath
       clipPathUnits="userSpaceOnUse"
       id="clipPath78">
      <path
         d="M 147.058,1009.6 H 822.602 V 608.689 H 147.058 Z"
         transform="translate(-581.84971,-643.21252)"
         id="path78" />
    </clipPath>
    <clipPath
       clipPathUnits="userSpaceOnUse"
       id="clipPath79">
      <path
         d="M 147.058,1009.6 H 822.602 V 608.689 H 147.058 Z"
         transform="translate(-493.40261,-659.01221)"
         id="path79" />
    </clipPath>
    <clipPath
       clipPathUnits="userSpaceOnUse"
       id="clipPath80">
      <path
         d="M 147.058,1009.6 H 822.602 V 608.689 H 147.058 Z"
         transform="translate(-591.79091,-654.55631)"
         id="path80" />
    </clipPath>
    <clipPath
       clipPathUnits="userSpaceOnUse"
       id="clipPath81">
      <path
         d="M 147.058,1009.6 H 822.602 V 608.689 H 147.058 Z"
         transform="translate(-617.28881,-668.65192)"
         id="path81" />
    </clipPath>
    <clipPath
       clipPathUnits="userSpaceOnUse"
       id="clipPath82">
      <path
         d="M 147.058,1009.6 H 822.602 V 608.689 H 147.058 Z"
         transform="translate(-502.18301,-665.52461)"
         id="path82" />
    </clipPath>
    <clipPath
       clipPathUnits="userSpaceOnUse"
       id="clipPath84">
      <path
         d="M 147.058,1009.6 H 822.602 V 608.689 H 147.058 Z"
         transform="translate(-576.32011,-698.44012)"
         id="path84" />
    </clipPath>
    <clipPath
       clipPathUnits="userSpaceOnUse"
       id="clipPath85">
      <path
         d="M 147.058,1009.6 H 822.602 V 608.689 H 147.058 Z"
         transform="translate(-621.71912,-930.09422)"
         id="path85" />
    </clipPath>
    <clipPath
       clipPathUnits="userSpaceOnUse"
       id="clipPath86">
      <path
         d="M 147.058,1009.6 H 822.602 V 608.689 H 147.058 Z"
         transform="translate(-585.22691,-896.13972)"
         id="path86" />
    </clipPath>
    <clipPath
       clipPathUnits="userSpaceOnUse"
       id="clipPath87">
      <path
         d="M 147.058,1009.6 H 822.602 V 608.689 H 147.058 Z"
         transform="translate(-605.41382,-913.16562)"
         id="path87" />
    </clipPath>
    <clipPath
       clipPathUnits="userSpaceOnUse"
       id="clipPath88">
      <path
         d="M 147.058,1009.6 H 822.602 V 608.689 H 147.058 Z"
         transform="translate(-570.20401,-912.95513)"
         id="path88" />
    </clipPath>
    <clipPath
       clipPathUnits="userSpaceOnUse"
       id="clipPath89">
      <path
         d="M 147.058,1009.6 H 822.602 V 608.689 H 147.058 Z"
         transform="translate(-553.78162,-932.59373)"
         id="path89" />
    </clipPath>
    <clipPath
       clipPathUnits="userSpaceOnUse"
       id="clipPath90">
      <path
         d="M 147.058,1009.6 H 822.602 V 608.689 H 147.058 Z"
         transform="translate(-603.58462,-899.69922)"
         id="path90" />
    </clipPath>
    <clipPath
       clipPathUnits="userSpaceOnUse"
       id="clipPath91">
      <path
         d="M 147.058,1009.6 H 822.602 V 608.689 H 147.058 Z"
         transform="translate(-588.75052,-916.82012)"
         id="path91" />
    </clipPath>
    <clipPath
       clipPathUnits="userSpaceOnUse"
       id="clipPath92">
      <path
         d="M 147.058,1009.6 H 822.602 V 608.689 H 147.058 Z"
         transform="translate(-568.06061,-933.20342)"
         id="path92" />
    </clipPath>
    <clipPath
       clipPathUnits="userSpaceOnUse"
       id="clipPath93">
      <path
         d="M 147.058,1009.6 H 822.602 V 608.689 H 147.058 Z"
         transform="translate(-545.70151,-743.74722)"
         id="path93" />
    </clipPath>
    <clipPath
       clipPathUnits="userSpaceOnUse"
       id="clipPath94">
      <path
         d="M 147.058,1009.6 H 822.602 V 608.689 H 147.058 Z"
         transform="translate(-576.66121,-757.01302)"
         id="path94" />
    </clipPath>
    <clipPath
       clipPathUnits="userSpaceOnUse"
       id="clipPath95">
      <path
         d="M 147.058,1009.6 H 822.602 V 608.689 H 147.058 Z"
         transform="translate(-576.32011,-698.44012)"
         id="path95" />
    </clipPath>
    <clipPath
       clipPathUnits="userSpaceOnUse"
       id="clipPath96">
      <path
         d="M 147.058,1009.6 H 822.602 V 608.689 H 147.058 Z"
         transform="translate(-530.35891,-731.39402)"
         id="path96" />
    </clipPath>
    <clipPath
       clipPathUnits="userSpaceOnUse"
       id="clipPath97">
      <path
         d="M 147.058,1009.6 H 822.602 V 608.689 H 147.058 Z"
         transform="translate(-521.12231,-721.87412)"
         id="path97" />
    </clipPath>
    <clipPath
       clipPathUnits="userSpaceOnUse"
       id="clipPath98">
      <path
         d="M 147.058,1009.6 H 822.602 V 608.689 H 147.058 Z"
         transform="translate(-525.53231,-736.87572)"
         id="path98" />
    </clipPath>
    <clipPath
       clipPathUnits="userSpaceOnUse"
       id="clipPath99">
      <path
         d="M 147.058,1009.6 H 822.602 V 608.689 H 147.058 Z"
         transform="translate(-521.12231,-721.87412)"
         id="path99" />
    </clipPath>
    <clipPath
       clipPathUnits="userSpaceOnUse"
       id="clipPath100">
      <path
         d="M 147.058,1009.6 H 822.602 V 608.689 H 147.058 Z"
         transform="translate(-525.53231,-736.87572)"
         id="path100" />
    </clipPath>
    <clipPath
       clipPathUnits="userSpaceOnUse"
       id="clipPath183">
      <path
         d="M 0,1080 H 1920 V 0 H 0 Z"
         transform="matrix(1.3333333,0,0,-1.3333333,0,1440)"
         id="path183" />
    </clipPath>
    <clipPath
       clipPathUnits="userSpaceOnUse"
       id="clipPath142">
      <path
         d="M 26.406,587.919 H 556.067 V 273.585 H 26.406 Z"
         transform="translate(-293.50231,-318.02813)"
         id="path142" />
    </clipPath>
    <clipPath
       clipPathUnits="userSpaceOnUse"
       id="clipPath143">
      <path
         d="M 26.406,587.919 H 556.067 V 273.585 H 26.406 Z"
         transform="translate(-257.59251,-273.58501)"
         id="path143" />
    </clipPath>
    <clipPath
       clipPathUnits="userSpaceOnUse"
       id="clipPath144">
      <path
         d="M 26.406,587.919 H 556.067 V 273.585 H 26.406 Z"
         transform="translate(-206.6545,-316.38511)"
         id="path144" />
    </clipPath>
    <clipPath
       clipPathUnits="userSpaceOnUse"
       id="clipPath145">
      <path
         d="M 26.406,587.919 H 556.067 V 273.585 H 26.406 Z"
         transform="translate(-297.1555,-477.71551)"
         id="path145" />
    </clipPath>
    <clipPath
       clipPathUnits="userSpaceOnUse"
       id="clipPath146">
      <path
         d="M 26.406,587.919 H 556.067 V 273.585 H 26.406 Z"
         transform="translate(-192.1899,-375.89681)"
         id="path146" />
    </clipPath>
    <clipPath
       clipPathUnits="userSpaceOnUse"
       id="clipPath147">
      <path
         d="M 26.406,587.919 H 556.067 V 273.585 H 26.406 Z"
         transform="translate(-210.89481,-440.13341)"
         id="path147" />
    </clipPath>
    <clipPath
       clipPathUnits="userSpaceOnUse"
       id="clipPath148">
      <path
         d="M 26.406,587.919 H 556.067 V 273.585 H 26.406 Z"
         transform="translate(-208.72891,-412.19141)"
         id="path148" />
    </clipPath>
    <clipPath
       clipPathUnits="userSpaceOnUse"
       id="clipPath149">
      <path
         d="M 26.406,587.919 H 556.067 V 273.585 H 26.406 Z"
         transform="translate(-213.65781,-359.83681)"
         id="path149" />
    </clipPath>
    <clipPath
       clipPathUnits="userSpaceOnUse"
       id="clipPath150">
      <path
         d="M 26.406,587.919 H 556.067 V 273.585 H 26.406 Z"
         transform="translate(-240.4702,-330.51231)"
         id="path150" />
    </clipPath>
    <clipPath
       clipPathUnits="userSpaceOnUse"
       id="clipPath151">
      <path
         d="M 26.406,587.919 H 556.067 V 273.585 H 26.406 Z"
         transform="translate(-281.16751,-511.34362)"
         id="path151" />
    </clipPath>
    <clipPath
       clipPathUnits="userSpaceOnUse"
       id="clipPath152">
      <path
         d="M 26.406,587.919 H 556.067 V 273.585 H 26.406 Z"
         transform="translate(-306.08471,-513.41032)"
         id="path152" />
    </clipPath>
    <clipPath
       clipPathUnits="userSpaceOnUse"
       id="clipPath154">
      <path
         d="M 26.406,587.919 H 556.067 V 273.585 H 26.406 Z"
         transform="translate(-255.18391,-354.37441)"
         id="path154" />
    </clipPath>
    <clipPath
       clipPathUnits="userSpaceOnUse"
       id="clipPath157">
      <path
         d="M 26.406,587.919 H 556.067 V 273.585 H 26.406 Z"
         transform="translate(-265.8598,-464.59491)"
         id="path157" />
    </clipPath>
    <clipPath
       clipPathUnits="userSpaceOnUse"
       id="clipPath61">
      <path
         d="M 0,1080 H 1920 V 0 H 0 Z"
         transform="matrix(1.3333333,0,0,-1.3333333,0,1440)"
         id="path61" />
    </clipPath>
    <clipPath
       clipPathUnits="userSpaceOnUse"
       id="clipPath2">
      <path
         d="M 522.484,629.654 H 984.17 V 355.661 H 522.484 Z"
         transform="translate(-711.94962,-430.46931)"
         id="path2" />
    </clipPath>
    <clipPath
       clipPathUnits="userSpaceOnUse"
       id="clipPath3">
      <path
         d="M 522.484,629.654 H 984.17 V 355.661 H 522.484 Z"
         transform="translate(-731.52812,-531.29461)"
         id="path3" />
    </clipPath>
    <clipPath
       clipPathUnits="userSpaceOnUse"
       id="clipPath4">
      <path
         d="M 522.484,629.654 H 984.17 V 355.661 H 522.484 Z"
         transform="translate(-630.76091,-537.15802)"
         id="path4" />
    </clipPath>
    <clipPath
       clipPathUnits="userSpaceOnUse"
       id="clipPath5">
      <path
         d="M 522.484,629.654 H 984.17 V 355.661 H 522.484 Z"
         transform="translate(-602.86952,-414.77581)"
         id="path5" />
    </clipPath>
    <clipPath
       clipPathUnits="userSpaceOnUse"
       id="clipPath6">
      <path
         d="M 522.484,629.654 H 984.17 V 355.661 H 522.484 Z"
         transform="translate(-599.96561,-482.77891)"
         id="path6" />
    </clipPath>
    <clipPath
       clipPathUnits="userSpaceOnUse"
       id="clipPath7">
      <path
         d="M 522.484,629.654 H 984.17 V 355.661 H 522.484 Z"
         transform="translate(-591.50641,-446.42881)"
         id="path7" />
    </clipPath>
    <clipPath
       clipPathUnits="userSpaceOnUse"
       id="clipPath8">
      <path
         d="M 522.484,629.654 H 984.17 V 355.661 H 522.484 Z"
         transform="translate(-611.58782,-527.02421)"
         id="path8" />
    </clipPath>
    <clipPath
       clipPathUnits="userSpaceOnUse"
       id="clipPath9">
      <path
         d="M 522.484,629.654 H 984.17 V 355.661 H 522.484 Z"
         transform="translate(-625.00751,-394.89511)"
         id="path9" />
    </clipPath>
    <clipPath
       clipPathUnits="userSpaceOnUse"
       id="clipPath10">
      <path
         d="M 522.484,629.654 H 984.17 V 355.661 H 522.484 Z"
         transform="translate(-646.41202,-542.66911)"
         id="path10" />
    </clipPath>
    <clipPath
       clipPathUnits="userSpaceOnUse"
       id="clipPath11">
      <path
         d="M 522.484,629.654 H 984.17 V 355.661 H 522.484 Z"
         transform="translate(-730.83402,-551.26942)"
         id="path11" />
    </clipPath>
    <clipPath
       clipPathUnits="userSpaceOnUse"
       id="clipPath12">
      <path
         d="M 522.484,629.654 H 984.17 V 355.661 H 522.484 Z"
         transform="translate(-752.69934,-554.98111)"
         id="path12" />
    </clipPath>
    <clipPath
       clipPathUnits="userSpaceOnUse"
       id="clipPath18">
      <path
         d="M 522.484,629.654 H 984.17 V 355.661 H 522.484 Z"
         transform="translate(-836.7826,-488.72561)"
         id="path18" />
    </clipPath>
    <clipPath
       clipPathUnits="userSpaceOnUse"
       id="clipPath19">
      <path
         d="M 522.484,629.654 H 984.17 V 355.661 H 522.484 Z"
         transform="translate(-799.80144,-450.93661)"
         id="path19" />
    </clipPath>
    <clipPath
       clipPathUnits="userSpaceOnUse"
       id="clipPath23">
      <path
         d="M 522.484,629.654 H 984.17 V 355.661 H 522.484 Z"
         transform="translate(-800.67842,-457.79221)"
         id="path23" />
    </clipPath>
    <clipPath
       clipPathUnits="userSpaceOnUse"
       id="clipPath24">
      <path
         d="M 522.484,629.654 H 984.17 V 355.661 H 522.484 Z"
         transform="translate(-800.6122,-461.98761)"
         id="path24" />
    </clipPath>
    <clipPath
       clipPathUnits="userSpaceOnUse"
       id="clipPath25">
      <path
         d="M 522.484,629.654 H 984.17 V 355.661 H 522.484 Z"
         transform="translate(-802.89475,-473.16971)"
         id="path25" />
    </clipPath>
    <clipPath
       clipPathUnits="userSpaceOnUse"
       id="clipPath27">
      <path
         d="M 522.484,629.654 H 984.17 V 355.661 H 522.484 Z"
         transform="translate(-656.51381,-416.07011)"
         id="path27" />
    </clipPath>
    <clipPath
       clipPathUnits="userSpaceOnUse"
       id="clipPath28">
      <path
         d="M 522.484,629.654 H 984.17 V 355.661 H 522.484 Z"
         transform="translate(-821.32682,-510.70361)"
         id="path28" />
    </clipPath>
    <clipPath
       clipPathUnits="userSpaceOnUse"
       id="clipPath29">
      <path
         d="M 522.484,629.654 H 984.17 V 355.661 H 522.484 Z"
         transform="translate(-657.41692,-426.35641)"
         id="path29" />
    </clipPath>
    <clipPath
       clipPathUnits="userSpaceOnUse"
       id="clipPath30">
      <path
         d="M 522.484,629.654 H 984.17 V 355.661 H 522.484 Z"
         transform="translate(-657.41692,-426.35641)"
         id="path30" />
    </clipPath>
    <clipPath
       clipPathUnits="userSpaceOnUse"
       id="clipPath502">
      <path
         d="M 0,1080 H 1920 V 0 H 0 Z"
         transform="matrix(1.3333333,0,0,-1.3333333,0,1440)"
         id="path502" />
    </clipPath>
    <clipPath
       clipPathUnits="userSpaceOnUse"
       id="clipPath185">
      <path
         d="M 842.166,958.344 H 1339.27 V 659.943 H 842.166 Z"
         transform="translate(-1181.1595,-690.18952)"
         id="path185" />
    </clipPath>
    <clipPath
       clipPathUnits="userSpaceOnUse"
       id="clipPath186">
      <path
         d="M 842.166,958.344 H 1339.27 V 659.943 H 842.166 Z"
         transform="translate(-1179.9789,-818.24572)"
         id="path186" />
    </clipPath>
    <clipPath
       clipPathUnits="userSpaceOnUse"
       id="clipPath187">
      <path
         d="M 842.166,958.344 H 1339.27 V 659.943 H 842.166 Z"
         transform="translate(-1153.6761,-877.75032)"
         id="path187" />
    </clipPath>
    <clipPath
       clipPathUnits="userSpaceOnUse"
       id="clipPath188">
      <path
         d="M 842.166,958.344 H 1339.27 V 659.943 H 842.166 Z"
         transform="translate(-1020.8686,-902.13042)"
         id="path188" />
    </clipPath>
    <clipPath
       clipPathUnits="userSpaceOnUse"
       id="clipPath189">
      <path
         d="M 842.166,958.344 H 1339.27 V 659.943 H 842.166 Z"
         transform="translate(-988.22815,-802.98812)"
         id="path189" />
    </clipPath>
    <clipPath
       clipPathUnits="userSpaceOnUse"
       id="clipPath190">
      <path
         d="M 842.166,958.344 H 1339.27 V 659.943 H 842.166 Z"
         transform="translate(-944.6266,-755.59172)"
         id="path190" />
    </clipPath>
    <clipPath
       clipPathUnits="userSpaceOnUse"
       id="clipPath191">
      <path
         d="M 842.166,958.344 H 1339.27 V 659.943 H 842.166 Z"
         transform="translate(-1233.1986,-765.02952)"
         id="path191" />
    </clipPath>
    <clipPath
       clipPathUnits="userSpaceOnUse"
       id="clipPath192">
      <path
         d="M 842.166,958.344 H 1339.27 V 659.943 H 842.166 Z"
         transform="translate(-951.6499,-778.36932)"
         id="path192" />
    </clipPath>
    <clipPath
       clipPathUnits="userSpaceOnUse"
       id="clipPath193">
      <path
         d="M 842.166,958.344 H 1339.27 V 659.943 H 842.166 Z"
         transform="translate(-1227.2281,-792.32612)"
         id="path193" />
    </clipPath>
    <clipPath
       clipPathUnits="userSpaceOnUse"
       id="clipPath194">
      <path
         d="M 842.166,958.344 H 1339.27 V 659.943 H 842.166 Z"
         transform="translate(-1249.5391,-743.82142)"
         id="path194" />
    </clipPath>
    <clipPath
       clipPathUnits="userSpaceOnUse"
       id="clipPath195">
      <path
         d="M 842.166,958.344 H 1339.27 V 659.943 H 842.166 Z"
         transform="translate(-941.6221,-732.14032)"
         id="path195" />
    </clipPath>
    <clipPath
       clipPathUnits="userSpaceOnUse"
       id="clipPath196">
      <path
         d="M 842.166,958.344 H 1339.27 V 659.943 H 842.166 Z"
         transform="translate(-982.915,-879.14252)"
         id="path196" />
    </clipPath>
    <clipPath
       clipPathUnits="userSpaceOnUse"
       id="clipPath197">
      <path
         d="M 842.166,958.344 H 1339.27 V 659.943 H 842.166 Z"
         transform="translate(-1160.6533,-869.08922)"
         id="path197" />
    </clipPath>
    <clipPath
       clipPathUnits="userSpaceOnUse"
       id="clipPath198">
      <path
         d="M 842.166,958.344 H 1339.27 V 659.943 H 842.166 Z"
         transform="translate(-1149.7383,-831.63172)"
         id="path198" />
    </clipPath>
    <clipPath
       clipPathUnits="userSpaceOnUse"
       id="clipPath199">
      <path
         d="M 842.166,958.344 H 1339.27 V 659.943 H 842.166 Z"
         transform="translate(-1022.229,-819.76582)"
         id="path199" />
    </clipPath>
    <clipPath
       clipPathUnits="userSpaceOnUse"
       id="clipPath200">
      <path
         d="M 842.166,958.344 H 1339.27 V 659.943 H 842.166 Z"
         transform="translate(-972.76202,-892.64872)"
         id="path200" />
    </clipPath>
    <clipPath
       clipPathUnits="userSpaceOnUse"
       id="clipPath201">
      <path
         d="M 842.166,958.344 H 1339.27 V 659.943 H 842.166 Z"
         transform="translate(-1157.7615,-862.15812)"
         id="path201" />
    </clipPath>
    <clipPath
       clipPathUnits="userSpaceOnUse"
       id="clipPath202">
      <path
         d="M 842.166,958.344 H 1339.27 V 659.943 H 842.166 Z"
         transform="translate(-1019.784,-811.22352)"
         id="path202" />
    </clipPath>
    <clipPath
       clipPathUnits="userSpaceOnUse"
       id="clipPath203">
      <path
         d="M 842.166,958.344 H 1339.27 V 659.943 H 842.166 Z"
         transform="translate(-1137.7887,-817.44322)"
         id="path203" />
    </clipPath>
    <clipPath
       clipPathUnits="userSpaceOnUse"
       id="clipPath204">
      <path
         d="M 842.166,958.344 H 1339.27 V 659.943 H 842.166 Z"
         transform="translate(-1199.8065,-750.44372)"
         id="path204" />
    </clipPath>
    <clipPath
       clipPathUnits="userSpaceOnUse"
       id="clipPath205">
      <path
         d="M 842.166,958.344 H 1339.27 V 659.943 H 842.166 Z"
         transform="translate(-1019.784,-811.22352)"
         id="path205" />
    </clipPath>
    <clipPath
       clipPathUnits="userSpaceOnUse"
       id="clipPath232">
      <path
         d="M 842.166,958.344 H 1339.27 V 659.943 H 842.166 Z"
         transform="translate(-1063.5187,-746.52902)"
         id="path232" />
    </clipPath>
    <clipPath
       clipPathUnits="userSpaceOnUse"
       id="clipPath234">
      <path
         d="M 842.166,958.344 H 1339.27 V 659.943 H 842.166 Z"
         transform="translate(-1068.7689,-688.35161)"
         id="path234" />
    </clipPath>
    <clipPath
       clipPathUnits="userSpaceOnUse"
       id="clipPath237">
      <path
         d="M 842.166,958.344 H 1339.27 V 659.943 H 842.166 Z"
         transform="translate(-1164.4927,-702.84582)"
         id="path237" />
    </clipPath>
    <clipPath
       clipPathUnits="userSpaceOnUse"
       id="clipPath246">
      <path
         d="M 842.166,958.344 H 1339.27 V 659.943 H 842.166 Z"
         transform="translate(-1093.875,-743.04302)"
         id="path246" />
    </clipPath>
    <clipPath
       clipPathUnits="userSpaceOnUse"
       id="clipPath256">
      <path
         d="M 842.166,958.344 H 1339.27 V 659.943 H 842.166 Z"
         transform="translate(-1113.6333,-733.00062)"
         id="path256" />
    </clipPath>
    <clipPath
       clipPathUnits="userSpaceOnUse"
       id="clipPath257">
      <path
         d="M 842.166,958.344 H 1339.27 V 659.943 H 842.166 Z"
         transform="translate(-1094.3926,-691.51652)"
         id="path257" />
    </clipPath>
    <clipPath
       clipPathUnits="userSpaceOnUse"
       id="clipPath258">
      <path
         d="M 842.166,958.344 H 1339.27 V 659.943 H 842.166 Z"
         transform="translate(-1194.3735,-736.34342)"
         id="path258" />
    </clipPath>
    <clipPath
       clipPathUnits="userSpaceOnUse"
       id="clipPath260">
      <path
         d="M 842.166,958.344 H 1339.27 V 659.943 H 842.166 Z"
         transform="translate(-1224.5356,-847.83922)"
         id="path260" />
    </clipPath>
    <clipPath
       clipPathUnits="userSpaceOnUse"
       id="clipPath261">
      <path
         d="M 842.166,958.344 H 1339.27 V 659.943 H 842.166 Z"
         transform="translate(-1179.088,-818.67022)"
         id="path261" />
    </clipPath>
    <clipPath
       clipPathUnits="userSpaceOnUse"
       id="clipPath264">
      <path
         d="M 842.166,958.344 H 1339.27 V 659.943 H 842.166 Z"
         transform="translate(-1153.6761,-877.75032)"
         id="path264" />
    </clipPath>
    <clipPath
       clipPathUnits="userSpaceOnUse"
       id="clipPath268">
      <path
         d="M 842.166,958.344 H 1339.27 V 659.943 H 842.166 Z"
         transform="translate(-1102.1533,-845.46142)"
         id="path268" />
    </clipPath>
    <clipPath
       clipPathUnits="userSpaceOnUse"
       id="clipPath269">
      <path
         d="M 842.166,958.344 H 1339.27 V 659.943 H 842.166 Z"
         transform="translate(-1096.6146,-862.66212)"
         id="path269" />
    </clipPath>
    <clipPath
       clipPathUnits="userSpaceOnUse"
       id="clipPath270">
      <path
         d="M 842.166,958.344 H 1339.27 V 659.943 H 842.166 Z"
         transform="translate(-1109.9508,-860.49182)"
         id="path270" />
    </clipPath>
    <clipPath
       clipPathUnits="userSpaceOnUse"
       id="clipPath271">
      <path
         d="M 842.166,958.344 H 1339.27 V 659.943 H 842.166 Z"
         transform="translate(-1076.5096,-716.52562)"
         id="path271" />
    </clipPath>
    <clipPath
       clipPathUnits="userSpaceOnUse"
       id="clipPath272">
      <path
         d="M 842.166,958.344 H 1339.27 V 659.943 H 842.166 Z"
         transform="translate(-1070.2632,-710.59342)"
         id="path272" />
    </clipPath>
    <clipPath
       clipPathUnits="userSpaceOnUse"
       id="clipPath273">
      <path
         d="M 842.166,958.344 H 1339.27 V 659.943 H 842.166 Z"
         transform="translate(-1093.0071,-721.87992)"
         id="path273" />
    </clipPath>
    <clipPath
       clipPathUnits="userSpaceOnUse"
       id="clipPath274">
      <path
         d="M 842.166,958.344 H 1339.27 V 659.943 H 842.166 Z"
         transform="translate(-1087.3119,-717.29082)"
         id="path274" />
    </clipPath>
    <clipPath
       clipPathUnits="userSpaceOnUse"
       id="clipPath275">
      <path
         d="M 842.166,958.344 H 1339.27 V 659.943 H 842.166 Z"
         transform="translate(-1084.0969,-732.86992)"
         id="path275" />
    </clipPath>
    <clipPath
       clipPathUnits="userSpaceOnUse"
       id="clipPath276">
      <path
         d="M 842.166,958.344 H 1339.27 V 659.943 H 842.166 Z"
         transform="translate(-1068.1206,-705.14862)"
         id="path276" />
    </clipPath>
    <clipPath
       clipPathUnits="userSpaceOnUse"
       id="clipPath277">
      <path
         d="M 842.166,958.344 H 1339.27 V 659.943 H 842.166 Z"
         transform="translate(-1056.6049,-711.49902)"
         id="path277" />
    </clipPath>
    <clipPath
       clipPathUnits="userSpaceOnUse"
       id="clipPath278">
      <path
         d="M 842.166,958.344 H 1339.27 V 659.943 H 842.166 Z"
         transform="translate(-1142.5815,-770.01112)"
         id="path278" />
    </clipPath>
    <clipPath
       clipPathUnits="userSpaceOnUse"
       id="clipPath279">
      <path
         d="M 842.166,958.344 H 1339.27 V 659.943 H 842.166 Z"
         transform="translate(-1136.2617,-770.05072)"
         id="path279" />
    </clipPath>
    <clipPath
       clipPathUnits="userSpaceOnUse"
       id="clipPath280">
      <path
         d="M 842.166,958.344 H 1339.27 V 659.943 H 842.166 Z"
         transform="translate(-1124.7585,-770.60802)"
         id="path280" />
    </clipPath>
    <clipPath
       clipPathUnits="userSpaceOnUse"
       id="clipPath281">
      <path
         d="M 842.166,958.344 H 1339.27 V 659.943 H 842.166 Z"
         transform="translate(-1136.2747,-784.46892)"
         id="path281" />
    </clipPath>
    <clipPath
       clipPathUnits="userSpaceOnUse"
       id="clipPath282">
      <path
         d="M 842.166,958.344 H 1339.27 V 659.943 H 842.166 Z"
         transform="translate(-1121.0289,-774.20562)"
         id="path282" />
    </clipPath>
    <clipPath
       clipPathUnits="userSpaceOnUse"
       id="clipPath283">
      <path
         d="M 842.166,958.344 H 1339.27 V 659.943 H 842.166 Z"
         transform="translate(-1125.9198,-785.75732)"
         id="path283" />
    </clipPath>
    <clipPath
       clipPathUnits="userSpaceOnUse"
       id="clipPath285">
      <path
         d="M 842.166,958.344 H 1339.27 V 659.943 H 842.166 Z"
         transform="translate(-1014.3015,-771.68392)"
         id="path285" />
    </clipPath>
    <clipPath
       clipPathUnits="userSpaceOnUse"
       id="clipPath286">
      <path
         d="M 842.166,958.344 H 1339.27 V 659.943 H 842.166 Z"
         transform="translate(-1019.1234,-759.89342)"
         id="path286" />
    </clipPath>
    <clipPath
       clipPathUnits="userSpaceOnUse"
       id="clipPath287">
      <path
         d="M 842.166,958.344 H 1339.27 V 659.943 H 842.166 Z"
         transform="translate(-1016.6913,-764.75272)"
         id="path287" />
    </clipPath>
    <clipPath
       clipPathUnits="userSpaceOnUse"
       id="clipPath288">
      <path
         d="M 842.166,958.344 H 1339.27 V 659.943 H 842.166 Z"
         transform="translate(-1010.7387,-747.05042)"
         id="path288" />
    </clipPath>
    <clipPath
       clipPathUnits="userSpaceOnUse"
       id="clipPath289">
      <path
         d="M 842.166,958.344 H 1339.27 V 659.943 H 842.166 Z"
         transform="translate(-1025.7777,-751.32602)"
         id="path289" />
    </clipPath>
    <clipPath
       clipPathUnits="userSpaceOnUse"
       id="clipPath290">
      <path
         d="M 842.166,958.344 H 1339.27 V 659.943 H 842.166 Z"
         transform="translate(-1034.1741,-686.83972)"
         id="path290" />
    </clipPath>
    <clipPath
       clipPathUnits="userSpaceOnUse"
       id="clipPath291">
      <path
         d="M 842.166,958.344 H 1339.27 V 659.943 H 842.166 Z"
         transform="translate(-1046.4747,-690.87632)"
         id="path291" />
    </clipPath>
    <clipPath
       clipPathUnits="userSpaceOnUse"
       id="clipPath292">
      <path
         d="M 842.166,958.344 H 1339.27 V 659.943 H 842.166 Z"
         transform="translate(-1038.7629,-701.64392)"
         id="path292" />
    </clipPath>
    <clipPath
       clipPathUnits="userSpaceOnUse"
       id="clipPath293">
      <path
         d="M 842.166,958.344 H 1339.27 V 659.943 H 842.166 Z"
         transform="translate(-1038.0847,-688.54492)"
         id="path293" />
    </clipPath>
    <clipPath
       clipPathUnits="userSpaceOnUse"
       id="clipPath296">
      <path
         d="M 842.166,958.344 H 1339.27 V 659.943 H 842.166 Z"
         transform="translate(-1204.1496,-714.35602)"
         id="path296" />
    </clipPath>
    <clipPath
       clipPathUnits="userSpaceOnUse"
       id="clipPath297">
      <path
         d="M 842.166,958.344 H 1339.27 V 659.943 H 842.166 Z"
         transform="translate(-975.23282,-733.10002)"
         id="path297" />
    </clipPath>
    <clipPath
       clipPathUnits="userSpaceOnUse"
       id="clipPath298">
      <path
         d="M 842.166,958.344 H 1339.27 V 659.943 H 842.166 Z"
         transform="translate(-987.571,-739.95342)"
         id="path298" />
    </clipPath>
    <clipPath
       clipPathUnits="userSpaceOnUse"
       id="clipPath299">
      <path
         d="M 842.166,958.344 H 1339.27 V 659.943 H 842.166 Z"
         transform="translate(-974.70902,-747.20512)"
         id="path299" />
    </clipPath>
    <clipPath
       clipPathUnits="userSpaceOnUse"
       id="clipPath300">
      <path
         d="M 842.166,958.344 H 1339.27 V 659.943 H 842.166 Z"
         transform="translate(-1120.3374,-692.93261)"
         id="path300" />
    </clipPath>
    <clipPath
       clipPathUnits="userSpaceOnUse"
       id="clipPath301">
      <path
         d="M 842.166,958.344 H 1339.27 V 659.943 H 842.166 Z"
         transform="translate(-1231.1406,-703.44832)"
         id="path301" />
    </clipPath>
    <clipPath
       clipPathUnits="userSpaceOnUse"
       id="clipPath304">
      <path
         d="M 842.166,958.344 H 1339.27 V 659.943 H 842.166 Z"
         transform="translate(-965.68652,-691.87901)"
         id="path304" />
    </clipPath>
    <clipPath
       clipPathUnits="userSpaceOnUse"
       id="clipPath305">
      <path
         d="M 842.166,958.344 H 1339.27 V 659.943 H 842.166 Z"
         transform="translate(-970.58065,-692.90891)"
         id="path305" />
    </clipPath>
    <clipPath
       clipPathUnits="userSpaceOnUse"
       id="clipPath306">
      <path
         d="M 842.166,958.344 H 1339.27 V 659.943 H 842.166 Z"
         transform="translate(-955.2907,-692.86991)"
         id="path306" />
    </clipPath>
    <clipPath
       clipPathUnits="userSpaceOnUse"
       id="clipPath308">
      <path
         d="M 842.166,958.344 H 1339.27 V 659.943 H 842.166 Z"
         transform="translate(-982.3771,-716.24042)"
         id="path308" />
    </clipPath>
    <clipPath
       clipPathUnits="userSpaceOnUse"
       id="clipPath309">
      <path
         d="M 842.166,958.344 H 1339.27 V 659.943 H 842.166 Z"
         transform="translate(-1000.728,-718.68992)"
         id="path309" />
    </clipPath>
    <clipPath
       clipPathUnits="userSpaceOnUse"
       id="clipPath310">
      <path
         d="M 842.166,958.344 H 1339.27 V 659.943 H 842.166 Z"
         transform="translate(-1042.2009,-723.69382)"
         id="path310" />
    </clipPath>
    <clipPath
       clipPathUnits="userSpaceOnUse"
       id="clipPath311">
      <path
         d="M 842.166,958.344 H 1339.27 V 659.943 H 842.166 Z"
         transform="translate(-1155.9012,-745.90162)"
         id="path311" />
    </clipPath>
    <clipPath
       clipPathUnits="userSpaceOnUse"
       id="clipPath312">
      <path
         d="M 842.166,958.344 H 1339.27 V 659.943 H 842.166 Z"
         transform="translate(-1016.8987,-719.56752)"
         id="path312" />
    </clipPath>
    <clipPath
       clipPathUnits="userSpaceOnUse"
       id="clipPath313">
      <path
         d="M 842.166,958.344 H 1339.27 V 659.943 H 842.166 Z"
         transform="translate(-1063.5187,-746.52902)"
         id="path313" />
    </clipPath>
    <clipPath
       clipPathUnits="userSpaceOnUse"
       id="clipPath314">
      <path
         d="M 842.166,958.344 H 1339.27 V 659.943 H 842.166 Z"
         transform="translate(-1215.22,-857.56452)"
         id="path314" />
    </clipPath>
    <clipPath
       clipPathUnits="userSpaceOnUse"
       id="clipPath315">
      <path
         d="M 842.166,958.344 H 1339.27 V 659.943 H 842.166 Z"
         transform="translate(-1207.923,-847.58472)"
         id="path315" />
    </clipPath>
    <clipPath
       clipPathUnits="userSpaceOnUse"
       id="clipPath316">
      <path
         d="M 842.166,958.344 H 1339.27 V 659.943 H 842.166 Z"
         transform="translate(-1205.5963,-839.61072)"
         id="path316" />
    </clipPath>
    <clipPath
       clipPathUnits="userSpaceOnUse"
       id="clipPath317">
      <path
         d="M 842.166,958.344 H 1339.27 V 659.943 H 842.166 Z"
         transform="translate(-1202.0686,-835.08392)"
         id="path317" />
    </clipPath>
    <clipPath
       clipPathUnits="userSpaceOnUse"
       id="clipPath319">
      <path
         d="M 842.166,958.344 H 1339.27 V 659.943 H 842.166 Z"
         transform="translate(-1190.9802,-825.05342)"
         id="path319" />
    </clipPath>
    <clipPath
       clipPathUnits="userSpaceOnUse"
       id="clipPath320">
      <path
         d="M 842.166,958.344 H 1339.27 V 659.943 H 842.166 Z"
         transform="translate(-1142.7094,-904.45782)"
         id="path320" />
    </clipPath>
    <clipPath
       clipPathUnits="userSpaceOnUse"
       id="clipPath321">
      <path
         d="M 842.166,958.344 H 1339.27 V 659.943 H 842.166 Z"
         transform="translate(-1132.3699,-913.77113)"
         id="path321" />
    </clipPath>
    <clipPath
       clipPathUnits="userSpaceOnUse"
       id="clipPath322">
      <path
         d="M 842.166,958.344 H 1339.27 V 659.943 H 842.166 Z"
         transform="translate(-1165.6965,-903.52832)"
         id="path322" />
    </clipPath>
    <clipPath
       clipPathUnits="userSpaceOnUse"
       id="clipPath323">
      <path
         d="M 842.166,958.344 H 1339.27 V 659.943 H 842.166 Z"
         transform="translate(-1158.1374,-905.23022)"
         id="path323" />
    </clipPath>
    <clipPath
       clipPathUnits="userSpaceOnUse"
       id="clipPath324">
      <path
         d="M 842.166,958.344 H 1339.27 V 659.943 H 842.166 Z"
         transform="translate(-1135.2931,-909.46212)"
         id="path324" />
    </clipPath>
    <clipPath
       clipPathUnits="userSpaceOnUse"
       id="clipPath325">
      <path
         d="M 842.166,958.344 H 1339.27 V 659.943 H 842.166 Z"
         transform="translate(-1152.5956,-895.11922)"
         id="path325" />
    </clipPath>
    <clipPath
       clipPathUnits="userSpaceOnUse"
       id="clipPath328">
      <path
         d="M 842.166,958.344 H 1339.27 V 659.943 H 842.166 Z"
         transform="translate(-1020.4584,-861.01392)"
         id="path328" />
    </clipPath>
    <clipPath
       clipPathUnits="userSpaceOnUse"
       id="clipPath329">
      <path
         d="M 842.166,958.344 H 1339.27 V 659.943 H 842.166 Z"
         transform="translate(-1011.511,-869.65092)"
         id="path329" />
    </clipPath>
    <clipPath
       clipPathUnits="userSpaceOnUse"
       id="clipPath330">
      <path
         d="M 842.166,958.344 H 1339.27 V 659.943 H 842.166 Z"
         transform="translate(-1022.5723,-887.77182)"
         id="path330" />
    </clipPath>
    <clipPath
       clipPathUnits="userSpaceOnUse"
       id="clipPath331">
      <path
         d="M 842.166,958.344 H 1339.27 V 659.943 H 842.166 Z"
         transform="translate(-1005.0652,-869.80362)"
         id="path331" />
    </clipPath>
    <clipPath
       clipPathUnits="userSpaceOnUse"
       id="clipPath332">
      <path
         d="M 842.166,958.344 H 1339.27 V 659.943 H 842.166 Z"
         transform="translate(-999.076,-889.05382)"
         id="path332" />
    </clipPath>
    <clipPath
       clipPathUnits="userSpaceOnUse"
       id="clipPath333">
      <path
         d="M 842.166,958.344 H 1339.27 V 659.943 H 842.166 Z"
         transform="translate(-1013.5854,-890.05792)"
         id="path333" />
    </clipPath>
    <clipPath
       clipPathUnits="userSpaceOnUse"
       id="clipPath334">
      <path
         d="M 842.166,958.344 H 1339.27 V 659.943 H 842.166 Z"
         transform="translate(-1030.0818,-863.69992)"
         id="path334" />
    </clipPath>
    <clipPath
       clipPathUnits="userSpaceOnUse"
       id="clipPath335">
      <path
         d="M 842.166,958.344 H 1339.27 V 659.943 H 842.166 Z"
         transform="translate(-1018.8201,-865.39442)"
         id="path335" />
    </clipPath>
    <clipPath
       clipPathUnits="userSpaceOnUse"
       id="clipPath336">
      <path
         d="M 842.166,958.344 H 1339.27 V 659.943 H 842.166 Z"
         transform="translate(-958.61875,-829.90372)"
         id="path336" />
    </clipPath>
    <clipPath
       clipPathUnits="userSpaceOnUse"
       id="clipPath337">
      <path
         d="M 842.166,958.344 H 1339.27 V 659.943 H 842.166 Z"
         transform="translate(-964.21472,-820.24172)"
         id="path337" />
    </clipPath>
    <clipPath
       clipPathUnits="userSpaceOnUse"
       id="clipPath338">
      <path
         d="M 842.166,958.344 H 1339.27 V 659.943 H 842.166 Z"
         transform="translate(-960.56252,-824.49852)"
         id="path338" />
    </clipPath>
    <clipPath
       clipPathUnits="userSpaceOnUse"
       id="clipPath339">
      <path
         d="M 842.166,958.344 H 1339.27 V 659.943 H 842.166 Z"
         transform="translate(-971.3866,-810.67822)"
         id="path339" />
    </clipPath>
    <clipPath
       clipPathUnits="userSpaceOnUse"
       id="clipPath340">
      <path
         d="M 842.166,958.344 H 1339.27 V 659.943 H 842.166 Z"
         transform="translate(-967.12885,-815.54552)"
         id="path340" />
    </clipPath>
    <clipPath
       clipPathUnits="userSpaceOnUse"
       id="clipPath341">
      <path
         d="M 842.166,958.344 H 1339.27 V 659.943 H 842.166 Z"
         transform="translate(-976.36225,-807.44822)"
         id="path341" />
    </clipPath>
    <clipPath
       clipPathUnits="userSpaceOnUse"
       id="clipPath342">
      <path
         d="M 842.166,958.344 H 1339.27 V 659.943 H 842.166 Z"
         transform="translate(-997.7713,-818.57622)"
         id="path342" />
    </clipPath>
    <clipPath
       clipPathUnits="userSpaceOnUse"
       id="clipPath543">
      <path
         d="M 0,1080 H 1920 V 0 H 0 Z"
         transform="matrix(1.3333333,0,0,-1.3333333,0,1440)"
         id="path543" />
    </clipPath>
    <clipPath
       clipPathUnits="userSpaceOnUse"
       id="clipPath507">
      <path
         d="M 916.154,627.144 H 1338.46 V 84.1779 H 916.154 Z"
         transform="translate(-1098.0996,-437.83961)"
         id="path507" />
    </clipPath>
    <clipPath
       clipPathUnits="userSpaceOnUse"
       id="clipPath504">
      <path
         d="M 916.154,627.144 H 1338.46 V 84.1779 H 916.154 Z"
         transform="translate(-1127.9508,-341.16091)"
         id="path504" />
    </clipPath>
    <clipPath
       clipPathUnits="userSpaceOnUse"
       id="clipPath511">
      <path
         d="M 916.154,627.144 H 1338.46 V 84.1779 H 916.154 Z"
         transform="translate(-1114.8258,-372.95191)"
         id="path511" />
    </clipPath>
    <clipPath
       clipPathUnits="userSpaceOnUse"
       id="clipPath515">
      <path
         d="M 916.154,627.144 H 1338.46 V 84.1779 H 916.154 Z"
         transform="translate(-1149.3036,-416.85701)"
         id="path515" />
    </clipPath>
    <clipPath
       clipPathUnits="userSpaceOnUse"
       id="clipPath516">
      <path
         d="M 916.154,627.144 H 1338.46 V 84.1779 H 916.154 Z"
         transform="translate(-1146.384,-436.49401)"
         id="path516" />
    </clipPath>
    <clipPath
       clipPathUnits="userSpaceOnUse"
       id="clipPath517">
      <path
         d="M 916.154,627.144 H 1338.46 V 84.1779 H 916.154 Z"
         transform="translate(-1121.5858,-437.10971)"
         id="path517" />
    </clipPath>
    <clipPath
       clipPathUnits="userSpaceOnUse"
       id="clipPath518">
      <path
         d="M 916.154,627.144 H 1338.46 V 84.1779 H 916.154 Z"
         transform="translate(-1074.3774,-387.08971)"
         id="path518" />
    </clipPath>
    <clipPath
       clipPathUnits="userSpaceOnUse"
       id="clipPath520">
      <path
         d="M 916.154,627.144 H 1338.46 V 84.1779 H 916.154 Z"
         transform="translate(-1086.6586,-431.98031)"
         id="path520" />
    </clipPath>
  </defs>
  <g
     id="layer1"
     transform="translate(-109.65948,-20.345202)">
    <g
       id="g542"
       clip-path="url(#clipPath543)"
       transform="matrix(0.36277024,0,0,0.36277024,-396.48696,-271.8086)">
      <path
         d="M 10.093001,-16.05395 C 8.4610007,-49.98095 -21.964,8.521 -28.376,6.501 -36.024,4.093 -41.712,-1.531 -44.324,-9.16 c -5.373,-15.693 0.823,-33.448 15.023,-41.987 11.374,-6.839 25.519,-3.178 32.34,7.894 4.113,6.675 5.3321257,26.8333 6.2571257,26.3553 C 12.139126,-26.9857 11.078,-37.403 5.494,-46.248 c -5.527,-8.755 -15.891,-13.732 -26.146,-11.388 -22.83,5.217 -35.643,33.589 -23.854,55.253 6.255,11.495 33.302355,16.56271 47.577093,2.93522426"
         style="fill:#0da375;fill-opacity:1;fill-rule:nonzero;stroke:none"
         transform="matrix(1.3333333,0,0,-1.3333333,1464.1328,856.21387)"
         clip-path="url(#clipPath507)"
         id="path527" />
      <path
         d="m 0,0 c -1.265,0.801 -5.95,4.244 -5.749,1.988 0,-10e-4 1.771,-3.344 3.251,-3.292 C -1.528,-1.27 -0.434,-0.943 0,0 m 16.095,-54.735 c -3.059,0.882 -4.881,1.246 -6.968,2.323 -4.897,4.478 11.801,-0.132 12.793,-0.576 4.288,-10.453 7.297,-20.942 10.312,-31.92 4.127,-15.032 7.148,-29.887 9.656,-45.221 0.466,-2.849 2.268,-4.824 5.083,-5.268 8.675,-1.37 17.446,-1.705 26.095,-0.315 0.988,0.159 2.111,0.664 2.308,1.434 0.715,2.789 -6.202,6.931 -8.425,8.228 -2.602,1.518 -3.933,3.427 -4.349,6.467 -1.17,8.545 -1.818,16.811 -2.318,25.582 L 56.579,-29.092 54.937,3.102 C 46.969,-5.195 40.391,-12.317 28.281,-10.65 19.268,-9.41 10.954,-6.302 2.96,-1.929 0.657,-3.442 -1.887,-4.832 -4.314,-3.698 c -2.169,1.012 -2.678,3.337 -4.76,5.045 -1.679,-14.61 -3.54,-28.57 -3.677,-43.102 -0.15,-15.938 -0.237,-31.212 0.464,-47.094 0.465,-10.543 0.797,-20.616 0.503,-31.096 -0.066,-2.372 -1.086,-3.677 -3.056,-4.861 -2.563,-1.542 -11.968,-6.386 -10.633,-9.482 1.196,-2.773 25.355,-0.858 29.674,-0.374 2.234,0.251 3.522,1.621 3.629,3.97 1.167,25.561 4.136,50.698 8.265,75.957 m -29.282,50.285 0.79,6.231 c -4.885,0.578 -12.712,9.764 -13.729,14.578 -3.587,-5.923 -5.385,-19.999 2.835,-22.624 3.5,-1.117 7.168,-0.42 10.104,1.815 m 0.062,36.241 -4.534,7.192 c -0.911,1.443 -7.57,-4.067 -8.403,-4.908 -0.152,-1.499 1.348,-3.117 2.179,-4.328 3.772,0.111 7.217,0.462 10.758,2.044 m -8.532,8.902 c -0.895,1.323 -1.068,1.999 -2.133,2.696 0.302,-2.598 -1.155,-3.933 -3.213,-5.432 2.405,-0.334 3.592,1.71 5.346,2.736 m 8.35,-2.981 c 2.604,5.146 5.552,9.723 10.117,13.291 -4.447,2.438 -7.466,5.336 -10.718,8.65 -1.893,-5.48 -4.237,-10.045 -8.279,-13.799 4.682,-7.588 3.035,0.812 8.88,-8.142 m -6.129,16.394 c 11.375,16.624 1.616,45.122 -17.14,52.119 10.778,-7.347 17.943,-18.847 19.732,-32.138 0.962,-7.145 -0.604,-13.366 -2.592,-19.981 m -1.119,25.675 c -1.117,6.471 -4.899,11.968 -9.296,16.898 -3.669,4.114 -7.577,7.681 -13.192,9.698 -12.286,4.413 -25.059,-0.586 -31.314,-12.081 -11.789,-21.664 1.024,-50.036 23.854,-55.254 10.255,-2.343 20.619,2.633 26.146,11.388 5.584,8.845 6.645,19.263 3.802,29.351 m 10.64,-49.087 c -0.173,-0.551 -0.809,-1.09 -1.501,-1.55 -4.083,-2.713 -8.739,-2.273 -13.429,-2.732 -1.79,-0.175 -1.096,-3.791 0.018,-4.555 1.649,-1.132 1.609,-2.763 1.897,-4.666 0.528,-3.489 3.362,-5.973 5.517,-8.579 2.726,-3.296 6.643,-4.589 10.827,-3.262 2.274,0.721 3.849,0.281 5.806,-0.962 8.809,-5.597 18.372,-9.662 28.67,-11.298 5.319,-0.845 10.244,0.083 14.51,3.306 12.552,9.484 21.285,23.66 17.376,39.859 -1.608,6.659 -6.235,11.589 -11.837,15.118 -0.765,0.482 -1.553,1.489 -2.544,1.046 -1.107,-0.494 -6.529,-3.178 -7.108,-1.611 -0.144,0.389 0.156,1.125 0.606,1.38 5.45,3.082 10.334,6.626 14.239,11.63 13.689,17.545 11.528,42.913 -5.255,57.64 -10.575,9.281 -24.961,12.002 -38.288,7.652 -15.78,-4.489 -26.984,-17.574 -29.192,-33.891 6.16,-9.337 8.656,-20.017 6.759,-30.997 6.326,-8.428 15.339,-13.428 25.401,-15.848 0.655,-0.347 1.24,-0.645 0.907,-1.376 -0.897,-1.969 -11.518,1.106 -13.823,2.313 -4.027,-3.055 -6.905,-7.009 -9.037,-11.261 1.525,-0.831 2.79,-0.347 4.116,-0.012 0.717,-0.415 0.469,-1.769 1.06,-2.233 3.126,-1.915 4.704,-5.396 6.873,-8.179 7.858,-4.266 16.327,-7.285 24.972,-9.348 4.809,4.221 7.703,9.106 10.521,14.441 0.338,0.639 0.896,1.094 1.24,1.391 3.042,2.625 1.369,-7.584 -8.429,-17.299 -0.497,-0.492 -0.317,-1.421 -0.924,-1.646 -0.479,-0.177 -1.098,-0.17 -1.85,-0.069 -8.483,1.133 -16.342,4.155 -23.818,8.257 -1.369,0.75 -2.483,1.389 -4.29,1.348 -1.282,5.083 -5.415,9.685 -10.899,10.497 -1.833,0.271 1.72,-1.917 0.909,-4.504 M -28.11,-137.122 c -2.477,2.823 -0.799,6.681 1.616,8.92 3.317,3.075 7.218,4.832 11.108,7.236 l -0.748,34.46 c -0.29,13.361 -0.275,26.21 -0.118,39.525 l 0.133,11.38 c 0.104,8.835 0.793,17.481 2.247,26.658 -5.75,-1.932 -12.917,-2.016 -16.239,3.425 -4.782,7.832 -2.685,18.564 2.583,25.839 -2.129,3.066 -1.963,6.228 0.738,8.844 -5.251,6.006 0.642,6.784 -4.603,10.413 -8.213,-3.901 -16.973,-5.15 -25.296,-1.384 -7.71,3.487 -14.348,9.025 -18.637,16.386 -7.678,13.175 -8.449,28.036 -1.089,41.354 4.509,8.157 11.913,12.793 20.879,14.448 5.11,0.943 9.852,1.56 15.188,0.212 6.755,-1.707 12.684,-5.695 17.579,-11.164 4.425,14.352 11.243,24.078 25.212,31.127 1.222,0.617 1.917,0.808 3.237,1.298 16.425,6.095 34.762,2.835 47.066,-9.781 C 71.288,103.137 70.417,71.613 49.152,54.687 66.77,44.818 68.385,23.675 58.145,7.877 l 2.44,-40.358 3.872,-65.747 c 0.461,-7.831 1.124,-15.123 2.367,-22.731 3.418,-3.438 9.059,-5.061 11.57,-10.117 0.849,-1.71 1.191,-3.59 0.287,-5.461 -0.612,-1.266 -2.382,-2.612 -4.436,-2.934 -7.391,-1.161 -30.355,-2.681 -34.349,3.96 -1.884,3.134 -2.162,6.382 -2.693,9.695 -0.903,5.643 -1.954,11.025 -3.148,16.603 -0.778,3.636 -1.136,7.217 -2.658,10.682 0.176,2.356 -0.93,4.255 -1.288,6.506 -3.239,12.163 -5.877,23.999 -10.766,36.647 -3.024,-19.056 -5.35,-37.566 -6.6,-56.506 l -1.279,-19.36 c -0.26,-3.943 -2.688,-6.508 -6.746,-7.043 -9.024,-1.19 -18.054,-1.399 -27.244,-0.924 -1.84,0.095 -4.337,0.667 -5.584,2.089"
         style="fill:#0c0c0c;fill-opacity:1;fill-rule:nonzero;stroke:none"
         transform="matrix(1.3333333,0,0,-1.3333333,1503.9343,985.1188)"
         clip-path="url(#clipPath504)"
         id="path524" />
      <path
         d="m 0,0 c -3.541,-1.582 -6.987,-1.933 -10.759,-2.044 -0.83,1.211 -2.331,2.829 -2.178,4.328 0.833,0.841 7.492,6.351 8.403,4.908 z"
         style="fill:#0da375;fill-opacity:1;fill-rule:nonzero;stroke:none"
         transform="matrix(1.3333333,0,0,-1.3333333,1486.4344,942.7308)"
         clip-path="url(#clipPath511)"
         id="path531" />
      <path
         d="m 0,0 c -5.414,-8.88 -20.584,-11.419 -28.128,-3.405 -0.443,0.471 -0.421,1.068 -0.449,1.478 -0.028,0.423 1.082,1.129 1.656,0.698 7.707,-5.79 18.581,-4.397 24.539,3.22 0.562,0.72 1.745,0.885 2.345,0.406 C 0.483,1.981 0.497,0.814 0,0"
         style="fill:#0c0c0c;fill-opacity:1;fill-rule:nonzero;stroke:none"
         transform="matrix(1.3333333,0,0,-1.3333333,1532.4047,884.19067)"
         clip-path="url(#clipPath515)"
         id="path535" />
      <path
         d="m 0,0 c 1.126,-3.326 0.716,-9.562 -2.558,-9.278 -3.064,0.266 -2.979,6.485 -1.837,9.429 0.421,1.087 1.289,1.681 2.264,1.636 C -1.208,1.744 -0.378,1.115 0,0"
         style="fill:#0c0c0c;fill-opacity:1;fill-rule:nonzero;stroke:none"
         transform="matrix(1.3333333,0,0,-1.3333333,1528.5119,858.008)"
         clip-path="url(#clipPath516)"
         id="path536" />
      <path
         d="M 0,0 C 1.116,-3.104 0.826,-9.307 -2.27,-9.284 -6.025,-9.256 -5.665,1.224 -2.244,1.527 -1.303,1.611 -0.39,1.085 0,0"
         style="fill:#0c0c0c;fill-opacity:1;fill-rule:nonzero;stroke:none"
         transform="matrix(1.3333333,0,0,-1.3333333,1495.4477,857.18707)"
         clip-path="url(#clipPath517)"
         id="path537" />
      <path
         d="M 0,0 C -16.47,9.271 -22.539,27.824 -15.759,45.316 -19.804,40.721 -20.189,34.735 -20.364,29.02 -19.976,17.303 -12.104,2.763 0,0 m 20.406,3.671 c 4.831,4.224 7.405,9.911 8.206,16.15 C 30.674,35.88 20.118,53.597 3.25,55.871 -1.179,56.468 -5.053,54.727 -8.076,51.748 -16.297,43.645 -18.166,32.257 -14.857,21.333 -11.242,9.4 -0.966,0.357 11.697,-0.435 c 3.148,-0.197 6.328,2.024 8.709,4.106 m 2.141,44.545 C 28.7863,39.893246 37.007567,24.126184 26.761,7.497 19.94,-3.575 5.796,-7.236 -5.579,-0.397 c -14.2,8.539 -20.395,26.294 -15.023,41.987 2.612,7.629 8.3,13.253 15.948,15.661 6.412,2.02 13.118,0.715 18.894,-2.51"
         style="fill:#0c0c0c;fill-opacity:1;fill-rule:nonzero;stroke:none"
         transform="matrix(1.3333333,0,0,-1.3333333,1432.5031,923.8804)"
         clip-path="url(#clipPath518)"
         id="path538" />
      <path
         d="m 8.125,-41.219 c -2.382,-2.082 -5.561,-4.304 -8.709,-4.107 -12.664,0.792 -22.94,9.835 -26.554,21.769 -3.31,10.924 -1.44,22.311 6.781,30.414 3.023,2.979 6.897,4.721 11.326,4.124 16.868,-2.274 27.424,-19.991 25.362,-36.05 -0.801,-6.24 -3.375,-11.927 -8.206,-16.15"
         style="fill:#0da375;fill-opacity:1;fill-rule:nonzero;stroke:none"
         transform="matrix(1.3333333,0,0,-1.3333333,1448.8781,864.02627)"
         clip-path="url(#clipPath520)"
         id="path540" />
    </g>
  </g>
</svg>
