<?xml version="1.0" encoding="UTF-8" standalone="no"?>
<!-- Created with Inkscape (http://www.inkscape.org/) -->

<svg
   width="140.43584mm"
   height="128.64302mm"
   viewBox="0 0 140.43584 128.64302"
   version="1.1"
   id="svg1"
   xmlns="http://www.w3.org/2000/svg"
   xmlns:svg="http://www.w3.org/2000/svg">
  <defs
     id="defs1">
    <clipPath
       clipPathUnits="userSpaceOnUse"
       id="clipPath140">
      <path
         d="M 0,1080 H 1920 V 0 H 0 Z"
         transform="matrix(1.3333333,0,0,-1.3333333,0,1440)"
         id="path140" />
    </clipPath>
    <clipPath
       clipPathUnits="userSpaceOnUse"
       id="clipPath63">
      <path
         d="M 147.058,1009.6 H 822.602 V 608.689 H 147.058 Z"
         transform="translate(-581.84971,-643.21252)"
         id="path63" />
    </clipPath>
    <clipPath
       clipPathUnits="userSpaceOnUse"
       id="clipPath64">
      <path
         d="M 147.058,1009.6 H 822.602 V 608.689 H 147.058 Z"
         transform="translate(-554.00401,-881.64112)"
         id="path64" />
    </clipPath>
    <clipPath
       clipPathUnits="userSpaceOnUse"
       id="clipPath65">
      <path
         d="M 147.058,1009.6 H 822.602 V 608.689 H 147.058 Z"
         transform="translate(-659.85941,-842.47442)"
         id="path65" />
    </clipPath>
    <clipPath
       clipPathUnits="userSpaceOnUse"
       id="clipPath66">
      <path
         d="M 147.058,1009.6 H 822.602 V 608.689 H 147.058 Z"
         transform="translate(-663.88931,-812.76862)"
         id="path66" />
    </clipPath>
    <clipPath
       clipPathUnits="userSpaceOnUse"
       id="clipPath67">
      <path
         d="M 147.058,1009.6 H 822.602 V 608.689 H 147.058 Z"
         transform="translate(-672.73282,-780.20562)"
         id="path67" />
    </clipPath>
    <clipPath
       clipPathUnits="userSpaceOnUse"
       id="clipPath68">
      <path
         d="M 147.058,1009.6 H 822.602 V 608.689 H 147.058 Z"
         transform="translate(-633.31961,-846.80912)"
         id="path68" />
    </clipPath>
    <clipPath
       clipPathUnits="userSpaceOnUse"
       id="clipPath69">
      <path
         d="M 147.058,1009.6 H 822.602 V 608.689 H 147.058 Z"
         transform="translate(-456.15221,-908.29382)"
         id="path69" />
    </clipPath>
    <clipPath
       clipPathUnits="userSpaceOnUse"
       id="clipPath70">
      <path
         d="M 147.058,1009.6 H 822.602 V 608.689 H 147.058 Z"
         transform="translate(-484.32901,-900.17292)"
         id="path70" />
    </clipPath>
    <clipPath
       clipPathUnits="userSpaceOnUse"
       id="clipPath73">
      <path
         d="M 147.058,1009.6 H 822.602 V 608.689 H 147.058 Z"
         transform="translate(-591.87922,-662.52232)"
         id="path73" />
    </clipPath>
    <clipPath
       clipPathUnits="userSpaceOnUse"
       id="clipPath74">
      <path
         d="M 147.058,1009.6 H 822.602 V 608.689 H 147.058 Z"
         transform="translate(-581.12951,-697.04711)"
         id="path74" />
    </clipPath>
    <clipPath
       clipPathUnits="userSpaceOnUse"
       id="clipPath76">
      <path
         d="M 147.058,1009.6 H 822.602 V 608.689 H 147.058 Z"
         transform="translate(-587.79751,-810.34062)"
         id="path76" />
    </clipPath>
    <clipPath
       clipPathUnits="userSpaceOnUse"
       id="clipPath78">
      <path
         d="M 147.058,1009.6 H 822.602 V 608.689 H 147.058 Z"
         transform="translate(-581.84971,-643.21252)"
         id="path78" />
    </clipPath>
    <clipPath
       clipPathUnits="userSpaceOnUse"
       id="clipPath79">
      <path
         d="M 147.058,1009.6 H 822.602 V 608.689 H 147.058 Z"
         transform="translate(-493.40261,-659.01221)"
         id="path79" />
    </clipPath>
    <clipPath
       clipPathUnits="userSpaceOnUse"
       id="clipPath80">
      <path
         d="M 147.058,1009.6 H 822.602 V 608.689 H 147.058 Z"
         transform="translate(-591.79091,-654.55631)"
         id="path80" />
    </clipPath>
    <clipPath
       clipPathUnits="userSpaceOnUse"
       id="clipPath81">
      <path
         d="M 147.058,1009.6 H 822.602 V 608.689 H 147.058 Z"
         transform="translate(-617.28881,-668.65192)"
         id="path81" />
    </clipPath>
    <clipPath
       clipPathUnits="userSpaceOnUse"
       id="clipPath82">
      <path
         d="M 147.058,1009.6 H 822.602 V 608.689 H 147.058 Z"
         transform="translate(-502.18301,-665.52461)"
         id="path82" />
    </clipPath>
    <clipPath
       clipPathUnits="userSpaceOnUse"
       id="clipPath84">
      <path
         d="M 147.058,1009.6 H 822.602 V 608.689 H 147.058 Z"
         transform="translate(-576.32011,-698.44012)"
         id="path84" />
    </clipPath>
    <clipPath
       clipPathUnits="userSpaceOnUse"
       id="clipPath85">
      <path
         d="M 147.058,1009.6 H 822.602 V 608.689 H 147.058 Z"
         transform="translate(-621.71912,-930.09422)"
         id="path85" />
    </clipPath>
    <clipPath
       clipPathUnits="userSpaceOnUse"
       id="clipPath86">
      <path
         d="M 147.058,1009.6 H 822.602 V 608.689 H 147.058 Z"
         transform="translate(-585.22691,-896.13972)"
         id="path86" />
    </clipPath>
    <clipPath
       clipPathUnits="userSpaceOnUse"
       id="clipPath87">
      <path
         d="M 147.058,1009.6 H 822.602 V 608.689 H 147.058 Z"
         transform="translate(-605.41382,-913.16562)"
         id="path87" />
    </clipPath>
    <clipPath
       clipPathUnits="userSpaceOnUse"
       id="clipPath88">
      <path
         d="M 147.058,1009.6 H 822.602 V 608.689 H 147.058 Z"
         transform="translate(-570.20401,-912.95513)"
         id="path88" />
    </clipPath>
    <clipPath
       clipPathUnits="userSpaceOnUse"
       id="clipPath89">
      <path
         d="M 147.058,1009.6 H 822.602 V 608.689 H 147.058 Z"
         transform="translate(-553.78162,-932.59373)"
         id="path89" />
    </clipPath>
    <clipPath
       clipPathUnits="userSpaceOnUse"
       id="clipPath90">
      <path
         d="M 147.058,1009.6 H 822.602 V 608.689 H 147.058 Z"
         transform="translate(-603.58462,-899.69922)"
         id="path90" />
    </clipPath>
    <clipPath
       clipPathUnits="userSpaceOnUse"
       id="clipPath91">
      <path
         d="M 147.058,1009.6 H 822.602 V 608.689 H 147.058 Z"
         transform="translate(-588.75052,-916.82012)"
         id="path91" />
    </clipPath>
    <clipPath
       clipPathUnits="userSpaceOnUse"
       id="clipPath92">
      <path
         d="M 147.058,1009.6 H 822.602 V 608.689 H 147.058 Z"
         transform="translate(-568.06061,-933.20342)"
         id="path92" />
    </clipPath>
    <clipPath
       clipPathUnits="userSpaceOnUse"
       id="clipPath93">
      <path
         d="M 147.058,1009.6 H 822.602 V 608.689 H 147.058 Z"
         transform="translate(-545.70151,-743.74722)"
         id="path93" />
    </clipPath>
    <clipPath
       clipPathUnits="userSpaceOnUse"
       id="clipPath94">
      <path
         d="M 147.058,1009.6 H 822.602 V 608.689 H 147.058 Z"
         transform="translate(-576.66121,-757.01302)"
         id="path94" />
    </clipPath>
    <clipPath
       clipPathUnits="userSpaceOnUse"
       id="clipPath95">
      <path
         d="M 147.058,1009.6 H 822.602 V 608.689 H 147.058 Z"
         transform="translate(-576.32011,-698.44012)"
         id="path95" />
    </clipPath>
    <clipPath
       clipPathUnits="userSpaceOnUse"
       id="clipPath96">
      <path
         d="M 147.058,1009.6 H 822.602 V 608.689 H 147.058 Z"
         transform="translate(-530.35891,-731.39402)"
         id="path96" />
    </clipPath>
    <clipPath
       clipPathUnits="userSpaceOnUse"
       id="clipPath97">
      <path
         d="M 147.058,1009.6 H 822.602 V 608.689 H 147.058 Z"
         transform="translate(-521.12231,-721.87412)"
         id="path97" />
    </clipPath>
    <clipPath
       clipPathUnits="userSpaceOnUse"
       id="clipPath98">
      <path
         d="M 147.058,1009.6 H 822.602 V 608.689 H 147.058 Z"
         transform="translate(-525.53231,-736.87572)"
         id="path98" />
    </clipPath>
    <clipPath
       clipPathUnits="userSpaceOnUse"
       id="clipPath99">
      <path
         d="M 147.058,1009.6 H 822.602 V 608.689 H 147.058 Z"
         transform="translate(-521.12231,-721.87412)"
         id="path99" />
    </clipPath>
    <clipPath
       clipPathUnits="userSpaceOnUse"
       id="clipPath100">
      <path
         d="M 147.058,1009.6 H 822.602 V 608.689 H 147.058 Z"
         transform="translate(-525.53231,-736.87572)"
         id="path100" />
    </clipPath>
  </defs>
  <g
     id="layer1"
     transform="translate(-41.094868,-25.706807)">
    <g
       id="g139"
       clip-path="url(#clipPath140)"
       transform="matrix(0.28427643,0,0,0.26458333,-78.007959,-11.633496)">
      <path
         d="m 0,0 0.017,8.78 -13.427,1.878 3.338,-9.379 C -6.636,0.752 -3.461,0.101 0,0 M 9.941,11.344 C 7.516,10.09 5.847,9.597 3.618,9.042 3.548,6.09 3.184,3.541 3.801,0.687 9.62,4.464 11.04,4.573 9.941,11.344 m -89.608,10.968 c -0.374,0.461 -0.868,0.297 -1.136,0.279 -0.631,-0.042 -1.231,-1.382 -1.084,-2.043 0.171,-0.762 2.658,1.225 2.22,1.764 m -8.78,-6.512 c 0.395,3.102 1.447,5.318 2.721,8.101 l -12.536,2.488 c -0.008,-3.234 0.425,-5.983 1.034,-9.043 z m 123.886,9.639 4.305,3.025 c 0.266,1.974 0.663,3.703 0.216,5.838 -1.843,-1.574 -3.804,-2.606 -5.038,-4.317 -0.895,-1.241 -0.265,-3.516 0.517,-4.546 m -248.281,42.43 c 1.531,-13.412 4.14,-24.551 1.464,-38.187 -1.975,-10.065 -4.884,-19.576 -8.01,-29.34 -0.245,-0.765 -0.513,-1.757 -0.015,-2.294 1.059,-1.142 13.747,-4.139 17.871,-16.925 10.788,-1.377 21.251,-1.721 31.635,0.778 -0.329,8.777 -11.353,13.178 -18.13,15.455 -1.278,0.429 -2.603,0.983 -2.873,1.916 -0.313,1.083 -0.762,2.468 -0.365,3.664 l 9.212,27.739 c 2.279,6.861 2.947,13.491 2.033,20.672 l -3.549,27.886 -14.56,2.705 c -5.067,0.941 -9.689,2.477 -14.64,4.062 -15.034,4.812 -29.133,11.248 -42.256,19.989 -1.514,1.008 -2.489,2.207 -4.479,3.08 -0.874,-8.716 -0.305,-17.12 1.535,-25.693 l 7.44,-34.671 c 0.883,-4.116 1.397,-7.921 0.998,-12.079 -0.957,-9.956 -2.86,-19.438 -4.64,-29.307 l -4.554,-25.234 c -0.152,-0.84 -0.091,-1.939 0.402,-2.447 0.325,-0.335 1.009,-0.804 1.774,-0.983 11.765,-2.752 37.688,-7.232 48.635,-2.334 -0.911,7.247 -7.139,11.898 -13.233,14.016 -1.272,0.442 -2.323,1.591 -3.836,1.969 -2.027,0.507 -3.342,2.71 -2.698,4.888 l 6.783,22.965 c 2.003,6.782 4.145,13.457 3.71,20.608 l -1.806,29.738 c -0.096,1.573 0.683,3.886 2.375,4.075 4.006,0.448 7.928,0.275 11.9,0.082 1.351,-0.066 1.974,-1.64 2.026,-2.495 0.251,-4.081 -5.933,-3.253 -10.149,-4.298 m 97.008,51.957 0.634,12.643 0.104,18.211 c -3.679,-8.32 -8.228,-15.94 -13.346,-23.482 3.671,-3.442 7.709,-6.004 12.608,-7.372 m 69.406,-96.055 16.704,-2.86 16.415,-3.124 c 4.111,-0.782 8.234,-1.553 12.39,-2.032 2.945,-0.339 4.626,1.685 4.939,4.451 0.769,6.806 1.055,13.614 0.736,20.554 -0.369,8.039 -0.001,15.438 0.013,23.561 l 0.15,85.701 c 0.007,4.178 0.101,8.174 -2.514,11.642 -1.014,1.346 -4.013,2.076 -5.784,2.243 l -27.257,2.584 -68.295,5.857 c -1.157,0.393 -2.548,0.404 -2.916,-0.819 -1.606,-5.341 -3.956,-10.298 -8.008,-14.216 l 0.295,-25.627 0.373,-41.495 0.548,-24.032 0.264,-16.277 c 0.094,-5.808 -0.65,-13.99 5.572,-15.316 l 9.443,-2.012 15.835,-2.836 15.442,-2.811 z M 10.03,19.31 40.138,43.267 c 4.61,4.567 4.697,2.917 4.718,8.549 l 0.137,36.732 0.489,46 c 0.092,8.636 0.172,16.913 -0.005,25.51 l -0.251,12.099 c -0.078,3.779 0.005,7.465 -1.886,10.915 -3.156,-3.196 -6.614,-4.951 -10.184,-7.028 -8.107,-4.718 -16.091,-8.97 -24.866,-12.786 2.015,-5.344 2.174,-10.237 2.301,-15.566 l 0.665,-28.004 C 11.595,105.42 11.585,91.534 11.1,77.253 L 10.738,66.593 10.551,28.315 C 10.536,25.214 9.367,22.382 10.03,19.31 M 5.948,167.128 c 9.562,6.924 19.307,12.249 29.663,16.861 0.929,0.414 1.517,1.133 2.348,1.368 -2.186,0.902 -4.071,0.615 -6.068,0.989 -5.104,0.958 -10.053,1.487 -15.225,2.017 l -20.426,2.09 -22.807,2.215 c -7.476,0.726 -14.708,1.779 -22.238,1.772 -3.212,-0.003 -5.78,-0.864 -8.633,-1.984 l -8.613,-3.385 -25.398,-10.395 c 1.368,-1.153 2.837,-0.875 4.24,-0.979 l 36.911,-2.732 30.653,-3.006 16.713,-1.931 c 3.206,-0.371 5.808,-1.348 8.88,-2.9 M -121.443,152.94 c 1.909,3.772 4.01,6.461 7.077,9.055 3.777,3.196 5.924,7.901 6.966,12.67 l 2.245,10.269 6.715,17.291 c 0.819,2.11 2.024,5.168 0.852,7.103 -0.815,1.347 -2.677,-0.714 -3.169,-1.595 -2.972,-5.316 -5.272,-10.617 -7.927,-16.02 -0.603,-1.228 -1.6,-1.772 -2.579,-1.529 -4.922,1.22 5.115,20.235 6.961,23.543 1.2,2.149 2.09,4.601 1.488,7.025 -0.307,1.237 -2.278,1.052 -2.989,0.225 -5.419,-6.306 -9.021,-14.829 -11.905,-22.656 -0.586,-1.592 -2.065,-4.309 -3.907,-3.19 -3.484,2.119 4.373,19.183 6.282,22.528 0.789,1.385 2.476,3.224 1.221,4.821 -0.58,0.739 -2.156,-0.476 -2.735,-0.997 -6.647,-5.977 -11.024,-20.899 -13.6,-29.585 -0.41,-1.383 -1.288,-2.151 -2.484,-1.968 -4.007,0.614 -0.497,10.6 -7.234,13.143 -1.068,-4.246 -0.201,-8.438 0.182,-12.709 0.458,-5.116 1.447,-9.832 3.06,-14.61 1.07,-3.17 0.344,-6.341 -1.477,-9.072 -4.911,-7.36 -13.575,-18.796 -21.846,-22.177 -2.241,-0.917 -4.219,0.53 -5.993,1.913 -2.966,2.85 -4.617,6.541 -6.304,10.502 -9.98,-4.544 -19.164,-9.879 -28.376,-15.783 5.876,-12.002 15.163,-25.906 27.47,-31.334 22.698,-8.644 43.505,26.342 52.006,43.137 m -98.053,23.326 c 1.078,-2.399 1.587,-4.702 2.168,-7.16 2.014,-8.514 4.295,-16.694 7.222,-24.922 12.285,8.488 24.836,15.393 38.203,21.5 l -5.579,13.97 c -2.463,6.168 -4.791,12.116 -7.689,18.071 -1.084,2.226 2.933,7.365 10.839,-9.093 3.415,-7.11 6.367,-14.296 9.043,-21.646 1.033,-2.837 0.125,-5.306 -0.887,-7.496 0.54,-2.787 2.846,-5.215 4.122,-7.722 6.373,2.557 16.28,15.596 20.005,21.3 -2.274,5.14 -2.893,10.13 -3.401,15.623 -19.129,4.217 -35.304,16.452 -44.329,33.749 -3.94,-0.346 -7.098,-2.017 -10.382,-3.786 -12.044,-6.485 -22.579,-19.175 -30.124,-30.579 -13.807,-20.872 -23.679,-43.81 -30.329,-68.109 15.986,-13.797 35.303,-21.961 54.987,-27.889 10.335,-3.117 18.821,-4.463 29.622,-5.296 l 5.338,14.12 c -16.067,3.042 -29.843,22.307 -35.897,36.61 -2.09,-1.032 -3.584,-2.293 -5.771,-1.575 -1.319,0.433 -3.102,1.856 -3.749,3.705 -3.7,10.571 -8.012,24.561 -7.026,35.684 0.096,1.078 0.655,1.996 1.443,2.051 0.801,0.056 1.541,-0.242 2.171,-1.11 M 41.163,21.728 C 34.065,16.699 35.716,15.333 22.536,20.254 L 15.159,14.585 15.147,6.273 C 15.143,3.767 14.356,1.672 12.5,-0.06 10.056,-2.341 7.498,-4.483 4.783,-6.545 c -3.3,-2.507 -13.919,0.313 -18.075,2.85 -3.115,1.901 -4.707,11.05 -5.786,14.757 l -4.654,1.077 -15.121,2.734 -30.579,5.843 c -1.339,0.256 -2.384,0.849 -3.861,0.8 -1.688,-4.011 -10.726,-12.515 -14.854,-12.255 -3.6,0.227 -7.002,1.11 -10.418,2.072 -6.497,1.829 -4.275,10.937 -5.552,16.287 -6.596,1.403 -10.241,7.763 -10.378,14.13 l -0.897,41.678 -0.54,28.236 -7.241,2.99 c -2.58,1.065 -7.114,4.882 -9.799,6.48 -7.811,-9.288 -17.628,-18.861 -30.477,-20.624 -2.194,-5.126 -3.755,-10.404 -5.659,-15.775 -1.75,-4.936 -3.047,-5.669 -8.377,-5.835 1.78,-9.288 3.398,-18.461 4.383,-28.009 0.786,-7.626 0.008,-14.73 -1.991,-22.042 -2.225,-8.142 -4.967,-15.83 -8.025,-23.691 -0.34,-0.875 -0.065,-1.804 0.825,-2.108 9.312,-3.18 19.327,-9.939 19.505,-20.702 0.057,-3.395 -1.89,-6.281 -5.018,-7.57 -9.129,-3.762 -24.017,-2.672 -33.888,-1.336 -4.301,-10.401 -32.295,-6.835 -41.315,-5.351 -4.998,0.822 -9.644,1.204 -14.458,2.693 -5.156,1.595 -9.385,5.588 -8.332,11.573 l 9.269,52.698 c 0.801,4.554 0.005,8.725 -1.069,13.145 -3.464,14.245 -6.68,28.2 -8.47,42.764 -0.967,7.869 -0.659,15.4 1.306,23.053 -2.922,2.809 -3.375,5.839 -2.389,9.535 5.504,20.645 13.767,40.289 24.563,58.739 8.731,14.923 25.633,38.145 41.984,44.173 l 7.513,2.77 c -9.198,22.639 -7.098,48.001 5.558,68.792 9.392,15.428 24.585,26.784 42.281,30.996 10.521,2.504 21.685,2.63 32.19,-0.051 7.259,-1.853 13.847,-4.533 19.555,-9.195 1.607,-1.312 3.954,-3.27 2.776,-5.452 -0.967,-1.79 -3.487,-0.403 -4.749,0.182 l -7.478,3.469 c -2.439,1.132 -4.944,1.915 -7.591,2.613 -17.113,4.515 -37.356,2.706 -52.274,-7.532 -23.663,-16.24 -33.819,-45.849 -25.966,-73.703 4.295,-15.236 14.047,-28.167 27.595,-36.12 2.009,-1.18 12.326,-6.016 14.635,-5.755 0.364,3.07 0.07,6.031 1.507,8.496 1.808,3.101 5.035,4.569 8.209,2.892 1.834,-1.199 3.161,-2.822 4.335,-4.943 1.826,5.84 3.682,11.222 7.179,16.53 -8.684,2.657 -16.078,7.276 -22.732,13.716 0.794,-7.451 5.251,-13.161 11.294,-16.518 0.768,-1.094 1.206,-2.206 0.759,-3.242 -0.432,-1.002 -1.633,-1.663 -2.943,-1.334 -16.127,4.046 -18.324,32.501 -10.822,30.612 1.868,-0.47 3.184,-2.224 4.439,-3.596 6.369,-6.962 14.495,-11.765 23.564,-14.583 1.83,1.477 3.537,2.585 5.472,3.44 2.815,1.244 5.052,-1.316 7.021,-2.774 3.216,1.712 7.248,2.724 9.856,-0.461 2.245,-2.741 2.337,-5.781 2.171,-9.934 5.56,5.459 9.015,12.275 11.675,19.69 6.074,16.932 5.09,35.194 -2.516,51.53 -2.271,4.876 -5.431,8.89 -9.114,12.829 -3.76,4.02 -8.785,6.285 -13.698,8.873 -3.629,1.911 -10.292,3.302 -10.318,6.127 -0.022,2.399 5.339,2.223 7.386,1.751 14.521,-3.342 25.953,-13.195 32.262,-26.666 12.095,-25.829 8.703,-57.57 -10.092,-79.564 0.369,-10.868 -4.763,-17.1 -7.637,-27.578 l 28.067,11.661 10.449,4.004 c 4.305,1.65 8.586,2.777 13.412,2.713 10.264,-0.136 20.144,-1.456 30.367,-2.42 l 32.605,-3.076 21.635,-2.784 c 2.981,-0.383 6.195,-1.049 8.615,-2.873 2.674,-2.015 4.358,-5.927 4.631,-9.534 1.618,-21.39 1.221,-42.491 1.053,-64.047 L 51.023,50.909 C 50.985,46.073 49.552,42.146 45.615,39.061 l -0.022,-8.836 c -0.009,-3.564 -1.585,-6.482 -4.43,-8.497"
         style="fill:#070908;fill-opacity:1;fill-rule:nonzero;stroke:none"
         transform="matrix(1.3333333,0,0,-1.3333333,775.7996,582.38333)"
         clip-path="url(#clipPath63)"
         id="path102" />
      <path
         d="m 0,0 c 4.072,-1.954 7.99,-2.943 12.231,-3.872 19.125,-4.191 44.191,-1.358 60.395,10.445 5.303,3.862 9.301,9.112 12.109,15.164 3.367,7.26 3.67,15.192 2.495,23.069 -1.745,11.698 -8.133,21.624 -18.005,28.135 -7.566,4.99 -15.804,7.403 -24.734,8.955 -15.09,2.623 -32.497,0.152 -46.195,-6.835 -10.965,-5.592 -18.993,-15.198 -22.084,-27.354 -2.979,-11.713 -0.054,-23.889 6.481,-33.825 1.234,-1.875 0.792,-3.859 -0.122,-5.675 -4.009,-7.965 -9.71,-14.427 -16.774,-20.182 3.391,-0.261 5.973,1.285 8.895,2.221 7.161,2.295 13.751,5.573 19.953,9.842 C -3.726,1.209 -1.888,0.906 0,0 m -3.488,-6.149 c -8.778,-5.349 -17.545,-9.6 -27.335,-11.867 -3.412,-0.791 -15.161,-3.853 -16.497,-0.112 -1.046,2.93 3.678,6.14 6.132,8.02 7.433,5.697 13.857,12.234 18.6,20.737 -3.766,5.11 -5.748,10.617 -7.195,16.765 -4.543,19.301 3.015,39.005 19.344,50.178 11.952,8.177 26.231,11.634 40.768,12.099 24.993,0.8 51.677,-9.018 60.604,-34.278 3.212,-9.089 4.341,-18.528 2.314,-28.037 C 90.937,16.523 84.683,7.085 75.793,0.61 57.934,-12.397 33.071,-14.285 11.994,-10.641 7.768,-9.91 4.156,-8.27 0.033,-7.314 c -0.799,0.185 -2.251,1.939 -3.521,1.165"
         style="fill:#070908;fill-opacity:1;fill-rule:nonzero;stroke:none"
         transform="matrix(1.3333333,0,0,-1.3333333,738.672,264.47853)"
         clip-path="url(#clipPath64)"
         id="path103" />
      <path
         d="m 0,0 c -4.227,-3.205 -8.183,-6.613 -12.835,-9.113 -1.363,-0.732 -3.073,-0.319 -3.73,0.57 -0.76,1.03 -0.621,3.031 0.516,4.129 8.76,8.467 18.426,16.039 28.588,22.811 1.05,0.7 2.989,-0.02 3.505,-0.68 0.516,-0.659 0.893,-2.459 0.212,-3.47 C 13.337,9.912 4.522,3.429 0,0"
         style="fill:#07a474;fill-opacity:1;fill-rule:nonzero;stroke:none"
         transform="matrix(1.3333333,0,0,-1.3333333,879.81253,316.7008)"
         clip-path="url(#clipPath65)"
         id="path104" />
      <path
         d="m 0,0 c -5.248,-0.655 -14.854,-3.255 -15.747,1.478 -0.25,1.325 0.719,2.569 2.212,3.129 5.096,1.912 10.45,2.323 15.852,3.385 3.88,0.763 16.211,3.605 18.148,-0.024 C 21.122,6.739 20.885,5.397 20.087,3.964 17.612,2.375 14.721,1.838 11.716,1.462 Z"
         style="fill:#07a474;fill-opacity:1;fill-rule:nonzero;stroke:none"
         transform="matrix(1.3333333,0,0,-1.3333333,885.18573,356.30853)"
         clip-path="url(#clipPath66)"
         id="path105" />
      <path
         d="m 0,0 c 1.26,-8.361 -21.831,4.77 -23.875,6.288 -0.56,0.417 -5.257,2.867 -3.36,5.778 1.602,2.458 8.061,-0.634 9.773,-1.357 2.059,-0.87 3.975,-1.603 5.977,-2.596 l 7.46,-3.699 C -2.113,3.466 -0.351,2.33 0,0"
         style="fill:#07a474;fill-opacity:1;fill-rule:nonzero;stroke:none"
         transform="matrix(1.3333333,0,0,-1.3333333,896.97707,399.72587)"
         clip-path="url(#clipPath67)"
         id="path106" />
      <path
         d="m 0,0 c -0.734,-1.35 -2.569,-1.344 -3.531,-1.02 -1.109,0.374 -1.499,2.005 -1.073,3.397 1.603,5.235 3.502,10.229 5.916,15.139 1.809,3.68 3.797,11.616 7.955,9.484 1.62,-0.831 1.896,-2.539 1.262,-4.428 C 7.895,14.721 4.035,7.422 0,0"
         style="fill:#07a474;fill-opacity:1;fill-rule:nonzero;stroke:none"
         transform="matrix(1.3333333,0,0,-1.3333333,844.42613,310.9212)"
         clip-path="url(#clipPath68)"
         id="path107" />
      <path
         d="m 0,0 c 1.335,-5.255 -2.026,-15.041 -7.183,-14.093 -4.579,0.842 -3.873,10.34 1.035,16.126 0.854,1.006 2.798,1.065 3.895,0.73 C -1.377,2.496 -0.342,1.347 0,0"
         style="fill:#070908;fill-opacity:1;fill-rule:nonzero;stroke:none"
         transform="matrix(1.3333333,0,0,-1.3333333,608.20293,228.9416)"
         clip-path="url(#clipPath69)"
         id="path108" />
      <path
         d="M 0,0 C 5.335,-1.453 0.792,-17.396 -4.695,-16.563 -9.086,-15.896 -9.387,-6.297 -3.95,-0.664 -2.833,0.493 -1.189,0.324 0,0"
         style="fill:#070908;fill-opacity:1;fill-rule:nonzero;stroke:none"
         transform="matrix(1.3333333,0,0,-1.3333333,645.772,239.76947)"
         clip-path="url(#clipPath70)"
         id="path109" />
      <path
         d="M 0,0 C -0.663,3.072 0.506,5.905 0.521,9.005 L 0.708,47.284 1.07,57.943 c 0.486,14.282 0.496,28.167 0.157,42.436 l -0.666,28.003 c -0.127,5.33 -0.285,10.222 -2.3,15.566 8.774,3.816 16.758,8.068 24.866,12.786 3.57,2.077 7.027,3.832 10.183,7.028 1.892,-3.45 1.808,-7.136 1.887,-10.915 l 0.25,-12.098 c 0.178,-8.597 0.098,-16.875 0.006,-25.511 l -0.49,-46 -0.137,-36.732 c -0.021,-5.632 -0.108,-3.982 -4.718,-8.549 z"
         style="fill:#07a474;fill-opacity:1;fill-rule:nonzero;stroke:none"
         transform="matrix(1.3333333,0,0,-1.3333333,789.17227,556.63693)"
         clip-path="url(#clipPath73)"
         id="path112" />
      <path
         d="m 0,0 c 0.468,6.38 0.469,12.731 -0.255,18.963 -0.308,2.651 -1.519,4.589 -4.094,5.558 l -0.08,29.76 c 2.66,0.218 4.069,2.027 4.347,4.52 C 0.594,64.87 0.459,71.166 0,77.26 c -0.23,3.064 -1.733,4.98 -4.411,6.107 -1.943,0.817 2.902,13.837 -9.11,15.31 l -16.57,2.034 -25.469,2.482 c -9.792,0.954 -27.711,2.628 -36.79,2.32 -4.18,-0.141 -6.726,-3.074 -6.806,-7.053 l -0.399,-19.852 c -0.284,-14.087 -0.338,-27.89 0.002,-41.958 l 0.466,-19.318 0.498,-15.1 c 0.149,-4.515 1.258,-10.609 6.541,-11.63 l 13.684,-2.645 31.086,-5.84 19.302,-3.267 c 5.161,-0.874 10.319,-2.018 15.421,-2.095 9.918,-0.149 7.318,12.993 8.253,18.4 C -2.206,-4.121 -0.216,-2.94 0,0 m -45.708,-30.064 -15.655,3.136 -15.442,2.811 -15.835,2.836 -9.443,2.012 c -6.222,1.326 -5.478,9.509 -5.572,15.316 l -0.264,16.278 -0.547,24.031 -0.374,41.495 -0.295,25.627 c 4.052,3.918 6.402,8.875 8.008,14.217 0.368,1.223 1.759,1.211 2.916,0.818 l 68.295,-5.857 27.257,-2.583 c 1.771,-0.168 4.77,-0.898 5.785,-2.244 2.614,-3.468 2.52,-7.463 2.513,-11.642 l -0.15,-85.7 C 5.475,2.364 5.107,-5.036 5.476,-13.075 5.795,-20.015 5.51,-26.822 4.74,-33.629 c -0.313,-2.766 -1.994,-4.789 -4.939,-4.45 -4.156,0.478 -8.279,1.249 -12.39,2.032 l -16.415,3.123 z"
         style="fill:#07a474;fill-opacity:1;fill-rule:nonzero;stroke:none"
         transform="matrix(1.3333333,0,0,-1.3333333,774.83933,510.60387)"
         clip-path="url(#clipPath74)"
         id="path113" />
      <path
         d="m 0,0 c -3.072,1.552 -5.674,2.529 -8.88,2.9 l -16.712,1.931 -30.653,3.006 -36.912,2.732 c -1.403,0.104 -2.872,-0.174 -4.24,0.979 l 25.398,10.395 8.614,3.384 c 2.852,1.121 5.42,1.982 8.632,1.985 7.53,0.007 14.762,-1.046 22.238,-1.772 l 22.807,-2.215 20.426,-2.09 c 5.172,-0.53 10.121,-1.059 15.225,-2.017 1.997,-0.374 3.882,-0.087 6.068,-0.989 C 31.18,17.994 30.592,17.275 29.663,16.861 19.307,12.249 9.562,6.923 0,0"
         style="fill:#07a474;fill-opacity:1;fill-rule:nonzero;stroke:none"
         transform="matrix(1.3333333,0,0,-1.3333333,783.73,359.54587)"
         clip-path="url(#clipPath76)"
         id="path115" />
      <path
         d="M 0,0 C -3.461,0.101 -6.636,0.752 -10.072,1.279 L -13.41,10.658 0.017,8.78 Z"
         style="fill:#07a474;fill-opacity:1;fill-rule:nonzero;stroke:none"
         transform="matrix(1.3333333,0,0,-1.3333333,775.7996,582.38333)"
         clip-path="url(#clipPath78)"
         id="path117" />
      <path
         d="m 0,0 -8.78,1.546 c -0.61,3.061 -1.043,5.809 -1.035,9.043 L 2.721,8.101 C 1.447,5.318 0.395,3.102 0,0"
         style="fill:#07a474;fill-opacity:1;fill-rule:nonzero;stroke:none"
         transform="matrix(1.3333333,0,0,-1.3333333,657.87013,561.31707)"
         clip-path="url(#clipPath79)"
         id="path118" />
      <path
         d="m 0,0 c 1.099,-6.771 -0.321,-6.88 -6.14,-10.656 -0.617,2.853 -0.253,5.402 -0.183,8.354 C -4.094,-1.747 -2.425,-1.254 0,0"
         style="fill:#07a474;fill-opacity:1;fill-rule:nonzero;stroke:none"
         transform="matrix(1.3333333,0,0,-1.3333333,789.05453,567.25827)"
         clip-path="url(#clipPath80)"
         id="path119" />
      <path
         d="M 0,0 C -0.782,1.029 -1.412,3.305 -0.517,4.546 0.716,6.257 2.678,7.289 4.521,8.862 4.968,6.727 4.57,4.998 4.305,3.024 Z"
         style="fill:#07a474;fill-opacity:1;fill-rule:nonzero;stroke:none"
         transform="matrix(1.3333333,0,0,-1.3333333,823.05173,548.46413)"
         clip-path="url(#clipPath81)"
         id="path120" />
      <path
         d="m 0,0 c 0.438,-0.539 -2.05,-2.526 -2.22,-1.764 -0.148,0.661 0.452,2.001 1.084,2.043 C -0.869,0.297 -0.374,0.461 0,0"
         style="fill:#07a474;fill-opacity:1;fill-rule:nonzero;stroke:none"
         transform="matrix(1.3333333,0,0,-1.3333333,669.57733,552.63387)"
         clip-path="url(#clipPath82)"
         id="path121" />
      <path
         d="M 0,0 -0.112,17.004 C -1.741,17.333 -3.067,17.399 -4.581,16.628 -4.231,11.167 -4.957,5.908 -4.172,0.536 -3.998,-0.652 -0.664,-0.985 0,0 m 0.341,58.573 c -0.209,5.691 0.341,11.169 -0.384,16.913 -0.159,1.26 -4.193,1.074 -4.295,-0.194 -0.451,-5.582 -0.125,-10.784 -0.107,-16.233 1.677,-0.573 2.975,-0.74 4.786,-0.486 M -8.961,0.395 c -0.529,5.881 -0.389,11.545 -0.162,17.22 0.109,2.726 1.713,4.431 4.33,5.19 l -0.113,30.368 c -2.583,0.707 -4.006,2.726 -4.15,5.394 -0.315,5.827 -0.289,11.712 -0.079,17.519 0.102,2.802 1.716,4.195 3.893,5.249 0.909,0.717 -0.019,8.665 -0.733,9.362 -0.452,0.44 -1.228,0.64 -2.025,0.719 l -11.852,1.174 -34.65,3.661 -23.809,2.133 c -3.703,0.332 -7.268,0.647 -10.915,0.344 -0.691,-3.609 -0.409,-7.04 -0.81,-10.566 -0.338,-2.979 -0.037,-5.67 -0.005,-8.651 l 0.422,-39.102 0.707,-40.965 c 0.025,-1.461 0.595,-4.26 2.075,-4.546 l 14.263,-2.752 16.043,-2.706 18.475,-3.064 16.38,-2.824 12.933,-2.312 c 1.245,-0.222 3.142,0.655 3.282,1.947 0.42,3.856 0.147,7.49 0.018,11.332 -2.406,1.101 -3.279,3.213 -3.518,5.876 m 13.77,-1.788 c -0.215,-2.94 -2.206,-4.121 -4.301,-4.845 -0.935,-5.407 1.665,-18.549 -8.254,-18.4 -5.102,0.077 -10.259,1.221 -15.42,2.095 l -19.303,3.267 -31.086,5.84 -13.684,2.645 c -5.282,1.022 -6.392,7.115 -6.541,11.63 l -0.498,15.1 -0.466,19.318 c -0.339,14.069 -0.286,27.871 -0.002,41.959 l 0.4,19.851 c 0.08,3.98 2.625,6.912 6.805,7.053 9.079,0.308 26.999,-1.366 36.79,-2.32 l 25.47,-2.482 16.57,-2.033 C 3.301,95.811 -1.544,82.791 0.398,81.974 3.076,80.847 4.579,78.931 4.81,75.867 5.269,69.773 5.404,63.477 4.727,57.408 4.45,54.915 3.041,53.106 0.38,52.888 L 0.461,23.129 C 3.035,22.159 4.246,20.221 4.554,17.57 5.279,11.338 5.278,4.987 4.809,-1.393"
         style="fill:#070908;fill-opacity:1;fill-rule:nonzero;stroke:none"
         transform="matrix(1.3333333,0,0,-1.3333333,768.4268,508.74653)"
         clip-path="url(#clipPath84)"
         id="path123" />
      <path
         d="m 0,0 -43.384,-0.007 c -1.957,0 -3.348,1.64 -3.619,3.026 -0.319,1.633 0.742,3.416 2.612,3.76 5.187,0.957 10.288,0.6 15.658,0.832 C -18.317,8.061 -8.14,8.406 2.208,7.253 3.782,7.077 4.036,4.194 3.91,3.055 3.754,1.65 2.246,0 0,0"
         style="fill:#07a474;fill-opacity:1;fill-rule:nonzero;stroke:none"
         transform="matrix(1.3333333,0,0,-1.3333333,828.9588,199.8744)"
         clip-path="url(#clipPath85)"
         id="path124" />
      <path
         d="m 0,0 -35.574,-0.016 c -2.181,0 -3.705,1.74 -3.698,3.386 0.009,2.111 1.472,3.333 3.66,3.394 l 15.72,0.439 C -13.266,7.388 -6.764,7.506 -0.187,7.282 2.081,7.204 3.788,5.982 3.763,3.879 3.742,2.217 2.503,0.001 0,0"
         style="fill:#07a474;fill-opacity:1;fill-rule:nonzero;stroke:none"
         transform="matrix(1.3333333,0,0,-1.3333333,780.30253,245.14707)"
         clip-path="url(#clipPath86)"
         id="path125" />
      <path
         d="m 0,0 c -2.729,0.245 -5.397,0.047 -8.021,0.762 -1.786,0.488 -2.271,2.184 -2.045,3.808 0.183,1.315 1.592,2.557 3.397,2.595 L 4.056,7.389 17.26,7.187 C 19.387,7.155 20.477,5.3 20.453,3.715 20.42,1.425 19.041,0.282 16.754,-0.015 11.183,-0.738 5.642,-0.507 0,0"
         style="fill:#07a474;fill-opacity:1;fill-rule:nonzero;stroke:none"
         transform="matrix(1.3333333,0,0,-1.3333333,807.2184,222.44587)"
         clip-path="url(#clipPath87)"
         id="path126" />
      <path
         d="m 0,0 c -4.185,-0.556 -16.641,-0.606 -21.291,-0.19 -2.043,0.183 -3.294,1.837 -3.17,3.559 0.118,1.654 1.582,3.348 3.687,3.452 l 10.419,0.513 C -6.192,7.54 -2.01,7.708 2.049,7.289 4.162,7.07 4.228,4.496 4.105,2.906 3.965,1.087 2.144,0.285 0,0"
         style="fill:#07a474;fill-opacity:1;fill-rule:nonzero;stroke:none"
         transform="matrix(1.3333333,0,0,-1.3333333,760.272,222.72653)"
         clip-path="url(#clipPath88)"
         id="path127" />
      <path
         d="m 0,0 c -0.53,-2.476 -2.115,-3.716 -4.166,-3.516 -2.225,0.217 -3.621,1.791 -3.643,4.319 -0.013,1.551 0.62,3.212 1.867,4.063 1.298,0.886 3.221,0.868 4.514,-0.298 C -0.353,3.598 0.402,1.878 0,0"
         style="fill:#07a474;fill-opacity:1;fill-rule:nonzero;stroke:none"
         transform="matrix(1.3333333,0,0,-1.3333333,738.37547,196.54173)"
         clip-path="url(#clipPath89)"
         id="path128" />
      <path
         d="m 0,0 c 0,-2.322 -1.882,-4.204 -4.203,-4.204 -2.321,0 -4.203,1.882 -4.203,4.204 0,2.322 1.882,4.204 4.203,4.204 C -1.882,4.204 0,2.322 0,0"
         style="fill:#07a474;fill-opacity:1;fill-rule:nonzero;stroke:none"
         transform="matrix(1.3333333,0,0,-1.3333333,804.77947,240.40107)"
         clip-path="url(#clipPath90)"
         id="path129" />
      <path
         d="m 0,0 c 0.02,-2.837 -1.809,-4.719 -4.166,-4.605 -2.234,0.108 -3.798,2.357 -3.543,4.794 0.231,2.207 1.702,3.842 3.553,3.99 C -1.863,4.363 -0.018,2.655 0,0"
         style="fill:#07a474;fill-opacity:1;fill-rule:nonzero;stroke:none"
         transform="matrix(1.3333333,0,0,-1.3333333,785.00067,217.5732)"
         clip-path="url(#clipPath91)"
         id="path130" />
      <path
         d="m 0,0 c -0.086,-1.707 -0.675,-2.715 -1.546,-3.365 -1.006,-0.75 -2.42,-0.828 -3.763,-0.204 -1.571,0.73 -2.439,2.688 -2.267,4.39 0.141,1.406 1.304,3.38 2.973,3.758 C -1.913,5.188 0.141,2.785 0,0"
         style="fill:#07a474;fill-opacity:1;fill-rule:nonzero;stroke:none"
         transform="matrix(1.3333333,0,0,-1.3333333,757.41413,195.7288)"
         clip-path="url(#clipPath92)"
         id="path131" />
      <path
         d="m 0,0 c -0.734,6.744 -2.849,13.212 -7.656,18.189 -3.791,3.923 -9.076,6.725 -14.637,7.292 -7.928,0.81 -15.386,-3.219 -19.874,-9.691 -10.459,-15.083 -5.057,-38.051 12.057,-43.928 2.067,-0.71 4.638,-1.216 6.87,-1.213 C -7.888,-29.329 1.502,-13.806 0,0 m 21.657,-44.912 c 0.24,-2.663 1.113,-4.775 3.519,-5.876 0.129,-3.842 0.401,-7.476 -0.018,-11.332 -0.141,-1.292 -2.038,-2.17 -3.283,-1.947 l -12.932,2.312 -16.381,2.824 -18.474,3.064 -16.044,2.706 -14.263,2.752 c -1.479,0.286 -2.05,3.084 -2.075,4.546 l -0.707,40.965 -0.422,39.102 c -0.032,2.981 -0.333,5.672 0.006,8.651 0.401,3.525 0.119,6.957 0.809,10.565 3.648,0.303 7.212,-0.011 10.916,-0.343 l 23.808,-2.133 34.65,-3.662 11.853,-1.173 c 0.796,-0.079 1.573,-0.279 2.024,-0.72 0.715,-0.696 1.643,-8.644 0.734,-9.361 -2.177,-1.054 -3.792,-2.447 -3.893,-5.25 -0.21,-5.806 -0.236,-11.691 0.079,-17.518 0.144,-2.669 1.567,-4.687 4.15,-5.394 l 0.113,-30.368 c -2.618,-0.759 -4.222,-2.464 -4.331,-5.19 -0.227,-5.675 -0.367,-11.339 0.162,-17.22"
         style="fill:#07a474;fill-opacity:1;fill-rule:nonzero;stroke:none"
         transform="matrix(1.3333333,0,0,-1.3333333,727.602,448.33707)"
         clip-path="url(#clipPath93)"
         id="path132" />
      <path
         d="m 0,0 c -1.811,-0.254 -3.109,-0.086 -4.786,0.486 -0.019,5.449 -0.344,10.651 0.106,16.233 0.103,1.268 4.137,1.454 4.296,0.194 C 0.341,11.169 -0.209,5.691 0,0"
         style="fill:#07a474;fill-opacity:1;fill-rule:nonzero;stroke:none"
         transform="matrix(1.3333333,0,0,-1.3333333,768.8816,430.64933)"
         clip-path="url(#clipPath94)"
         id="path133" />
      <path
         d="m 0,0 c -0.664,-0.985 -3.998,-0.652 -4.172,0.536 -0.785,5.372 -0.059,10.631 -0.409,16.092 1.514,0.771 2.84,0.705 4.469,0.376 z"
         style="fill:#07a474;fill-opacity:1;fill-rule:nonzero;stroke:none"
         transform="matrix(1.3333333,0,0,-1.3333333,768.4268,508.74653)"
         clip-path="url(#clipPath95)"
         id="path134" />
      <path
         d="m 0,0 c 2.525,0.277 3.867,-2.289 4.36,-4.389 6.51,6.1 6.812,20.737 0.945,28.123 C 4.897,21.2 1.838,17.807 0.231,19.718 c -1.351,1.607 2.35,4.859 4.595,4.6 -2.867,4.753 -7.948,7.106 -13.064,7.373 -0.169,-1.705 0.389,-6.023 -0.997,-6.549 -0.51,-0.194 -1.316,-0.302 -1.584,0.338 -0.881,2.102 -0.324,4.387 0.999,6.242 -4.468,0.148 -9.064,-2.098 -11.297,-5.907 -0.788,-1.344 2.928,-2.672 2.044,-4.773 -0.25,-0.594 -0.789,-0.9 -1.458,-0.858 -1.829,0.113 -2.117,1.957 -2.946,1.976 -1.822,0.041 -6.091,-12.696 -0.54,-22.396 0.524,-0.915 3.735,2.164 4.444,0.035 0.306,-0.922 -1.723,-2.341 -1.766,-3.293 -0.031,-0.671 0.734,-1.071 1.096,-1.55 5.402,-7.159 18,-7.493 23.98,-0.57 C 2.439,-4.835 1.403,-4.261 0.149,-3.369 -0.635,-2.812 -1.528,-0.168 0,0 m 15.343,12.353 c 1.502,-13.806 -7.888,-29.329 -23.241,-29.35 -2.232,-0.004 -4.802,0.503 -6.87,1.213 -17.113,5.876 -22.515,28.844 -12.056,43.927 4.488,6.472 11.946,10.501 19.873,9.692 5.562,-0.568 10.847,-3.369 14.637,-7.293 4.808,-4.976 6.923,-11.444 7.657,-18.189"
         style="fill:#070908;fill-opacity:1;fill-rule:nonzero;stroke:none"
         transform="matrix(1.3333333,0,0,-1.3333333,707.1452,464.808)"
         clip-path="url(#clipPath96)"
         id="path135" />
      <path
         d="M 0,0 C 0.753,1.5 0.47,3.256 0.147,4.631 -0.056,5.495 -1.234,5.425 -1.867,5.112 -2.118,3.719 -2.147,2.467 -1.96,0.977 -1.86,0.181 -0.478,-0.953 0,0 m 7.224,10.159 c 4.036,4.942 4.198,11.81 1.198,16.911 -2.167,3.684 -5.737,5.874 -9.695,5.814 -4.061,-0.061 -7.375,-2.173 -9.502,-6.101 C -13.683,21.412 -13.11,13.393 -8.368,9.372 -3.569,5.303 3.29,5.341 7.224,10.159 M 9.237,9.52 C 7.708,9.352 8.602,6.708 9.385,6.151 10.64,5.259 11.676,4.685 12.974,3.906 c -5.98,-6.924 -18.578,-6.589 -23.98,0.569 -0.362,0.48 -1.128,0.88 -1.097,1.551 0.044,0.951 2.073,2.371 1.766,3.293 -0.709,2.129 -3.919,-0.95 -4.443,-0.035 -5.551,9.7 -1.282,22.436 0.539,22.396 0.83,-0.019 1.118,-1.863 2.947,-1.977 0.669,-0.041 1.208,0.264 1.458,0.859 0.884,2.101 -2.832,3.428 -2.044,4.773 2.233,3.809 6.828,6.055 11.296,5.907 -1.323,-1.855 -1.879,-4.14 -0.998,-6.242 0.268,-0.641 1.074,-0.532 1.583,-0.338 1.387,0.526 0.829,4.843 0.997,6.549 5.117,-0.267 10.198,-2.621 13.064,-7.374 -2.245,0.26 -5.946,-2.992 -4.594,-4.599 1.606,-1.911 4.665,1.482 5.073,4.016 C 20.409,25.868 20.107,11.231 13.596,5.13 13.104,7.231 11.762,9.797 9.237,9.52"
         style="fill:#07a474;fill-opacity:1;fill-rule:nonzero;stroke:none"
         transform="matrix(1.3333333,0,0,-1.3333333,694.82973,477.5012)"
         clip-path="url(#clipPath97)"
         id="path136" />
      <path
         d="M 0,0 C 2.441,4.117 1.061,9.625 -3.059,11.908 -6.131,13.611 -9.716,11.994 -11.41,9.047 -13.626,5.194 -12.379,0.003 -8.52,-2.289 -5.542,-4.057 -1.885,-3.179 0,0 M 2.814,-4.843 C -1.12,-9.66 -7.979,-9.699 -12.778,-5.629 c -4.742,4.02 -5.315,12.039 -2.407,17.411 2.127,3.927 5.441,6.039 9.502,6.1 3.958,0.06 7.528,-2.129 9.695,-5.814 3,-5.1 2.838,-11.968 -1.198,-16.911"
         style="fill:#070908;fill-opacity:1;fill-rule:nonzero;stroke:none"
         transform="matrix(1.3333333,0,0,-1.3333333,700.70973,457.49907)"
         clip-path="url(#clipPath98)"
         id="path137" />
      <path
         d="m 0,0 c -0.478,-0.953 -1.86,0.181 -1.96,0.977 -0.187,1.49 -0.158,2.742 0.093,4.135 0.633,0.313 1.811,0.383 2.014,-0.481 C 0.47,3.256 0.753,1.5 0,0"
         style="fill:#070908;fill-opacity:1;fill-rule:nonzero;stroke:none"
         transform="matrix(1.3333333,0,0,-1.3333333,694.82973,477.5012)"
         clip-path="url(#clipPath99)"
         id="path138" />
      <path
         d="m 0,0 c -1.885,-3.179 -5.542,-4.057 -8.52,-2.289 -3.859,2.292 -5.106,7.483 -2.89,11.336 1.694,2.947 5.279,4.564 8.351,2.861 C 1.061,9.625 2.441,4.117 0,0"
         style="fill:#07a474;fill-opacity:1;fill-rule:nonzero;stroke:none"
         transform="matrix(1.3333333,0,0,-1.3333333,700.70973,457.49907)"
         clip-path="url(#clipPath100)"
         id="path139" />
    </g>
  </g>
</svg>
