<?xml version="1.0" encoding="UTF-8" standalone="no"?>
<!-- Created with Inkscape (http://www.inkscape.org/) -->

<svg
   width="1000"
   height="1000"
   viewBox="0 0 264.58335 264.58333"
   version="1.1"
   id="svg1"
   xml:space="preserve"
   inkscape:version="1.4.2 (f4327f4, 2025-05-13)"
   sodipodi:docname="encryptclick_icon.svg"
   xmlns:inkscape="http://www.inkscape.org/namespaces/inkscape"
   xmlns:sodipodi="http://sodipodi.sourceforge.net/DTD/sodipodi-0.dtd"
   xmlns="http://www.w3.org/2000/svg"
   xmlns:svg="http://www.w3.org/2000/svg"><sodipodi:namedview
     id="namedview1"
     pagecolor="#505050"
     bordercolor="#eeeeee"
     borderopacity="1"
     inkscape:showpageshadow="0"
     inkscape:pageopacity="0"
     inkscape:pagecheckerboard="0"
     inkscape:deskcolor="#505050"
     inkscape:document-units="mm"
     inkscape:zoom="0.41323289"
     inkscape:cx="648.54471"
     inkscape:cy="634.02505"
     inkscape:window-width="1384"
     inkscape:window-height="878"
     inkscape:window-x="49"
     inkscape:window-y="-6"
     inkscape:window-maximized="1"
     inkscape:current-layer="layer1" /><defs
     id="defs1" /><g
     inkscape:label="Layer 1"
     inkscape:groupmode="layer"
     id="layer1"
     transform="translate(-25.650929,-111.10185)"><g
       style="fill:none;stroke:#00bc7d;stroke-opacity:1"
       id="g1"
       transform="matrix(13.228141,0,0,13.228141,-0.79509625,84.645563)"><path
         d="M 16,8.00169 V 7 C 16,4.79086 14.2091,3 12,3 9.79086,3 8,4.79086 8,7 v 1.00169 m 8,0 C 15.7563,8 15.4907,8 15.2,8 H 8.8 C 8.50929,8 8.24373,8 8,8.00169 m 8,0 c 1.1649,0.0081 1.8313,0.05489 2.362,0.32529 0.5645,0.28762 1.0234,0.74656 1.311,1.31105 C 20,10.2798 20,11.1198 20,12.8 v 3.4 c 0,1.6802 0,2.5202 -0.327,3.162 -0.2876,0.5645 -0.7465,1.0234 -1.311,1.311 C 17.7202,21 16.8802,21 15.2,21 H 8.8 C 7.11984,21 6.27976,21 5.63803,20.673 5.07354,20.3854 4.6146,19.9265 4.32698,19.362 4,18.7202 4,17.8802 4,16.2 V 12.8 C 4,11.1198 4,10.2798 4.32698,9.63803 4.6146,9.07354 5.07354,8.6146 5.63803,8.32698 6.16873,8.05658 6.83507,8.00979 8,8.00169 M 10,11 v 7 m 4,-7 v 7 M 8.5,12.5 h 7 m -7,4 h 7"
         stroke="#000000"
         stroke-width="2"
         stroke-linecap="round"
         stroke-linejoin="round"
         id="path1"
         style="stroke:#00bc7d;stroke-opacity:1" /></g></g></svg>
