<?xml version="1.0" encoding="UTF-8" standalone="no"?>
<!-- Created with Inkscape (http://www.inkscape.org/) -->

<svg
   width="141.82086mm"
   height="110.5288mm"
   viewBox="0 0 141.82086 110.5288"
   version="1.1"
   id="svg1"
   xmlns="http://www.w3.org/2000/svg"
   xmlns:svg="http://www.w3.org/2000/svg">
  <defs
     id="defs1">
    <clipPath
       clipPathUnits="userSpaceOnUse"
       id="clipPath140">
      <path
         d="M 0,1080 H 1920 V 0 H 0 Z"
         transform="matrix(1.3333333,0,0,-1.3333333,0,1440)"
         id="path140" />
    </clipPath>
    <clipPath
       clipPathUnits="userSpaceOnUse"
       id="clipPath63">
      <path
         d="M 147.058,1009.6 H 822.602 V 608.689 H 147.058 Z"
         transform="translate(-581.84971,-643.21252)"
         id="path63" />
    </clipPath>
    <clipPath
       clipPathUnits="userSpaceOnUse"
       id="clipPath64">
      <path
         d="M 147.058,1009.6 H 822.602 V 608.689 H 147.058 Z"
         transform="translate(-554.00401,-881.64112)"
         id="path64" />
    </clipPath>
    <clipPath
       clipPathUnits="userSpaceOnUse"
       id="clipPath65">
      <path
         d="M 147.058,1009.6 H 822.602 V 608.689 H 147.058 Z"
         transform="translate(-659.85941,-842.47442)"
         id="path65" />
    </clipPath>
    <clipPath
       clipPathUnits="userSpaceOnUse"
       id="clipPath66">
      <path
         d="M 147.058,1009.6 H 822.602 V 608.689 H 147.058 Z"
         transform="translate(-663.88931,-812.76862)"
         id="path66" />
    </clipPath>
    <clipPath
       clipPathUnits="userSpaceOnUse"
       id="clipPath67">
      <path
         d="M 147.058,1009.6 H 822.602 V 608.689 H 147.058 Z"
         transform="translate(-672.73282,-780.20562)"
         id="path67" />
    </clipPath>
    <clipPath
       clipPathUnits="userSpaceOnUse"
       id="clipPath68">
      <path
         d="M 147.058,1009.6 H 822.602 V 608.689 H 147.058 Z"
         transform="translate(-633.31961,-846.80912)"
         id="path68" />
    </clipPath>
    <clipPath
       clipPathUnits="userSpaceOnUse"
       id="clipPath69">
      <path
         d="M 147.058,1009.6 H 822.602 V 608.689 H 147.058 Z"
         transform="translate(-456.15221,-908.29382)"
         id="path69" />
    </clipPath>
    <clipPath
       clipPathUnits="userSpaceOnUse"
       id="clipPath70">
      <path
         d="M 147.058,1009.6 H 822.602 V 608.689 H 147.058 Z"
         transform="translate(-484.32901,-900.17292)"
         id="path70" />
    </clipPath>
    <clipPath
       clipPathUnits="userSpaceOnUse"
       id="clipPath73">
      <path
         d="M 147.058,1009.6 H 822.602 V 608.689 H 147.058 Z"
         transform="translate(-591.87922,-662.52232)"
         id="path73" />
    </clipPath>
    <clipPath
       clipPathUnits="userSpaceOnUse"
       id="clipPath74">
      <path
         d="M 147.058,1009.6 H 822.602 V 608.689 H 147.058 Z"
         transform="translate(-581.12951,-697.04711)"
         id="path74" />
    </clipPath>
    <clipPath
       clipPathUnits="userSpaceOnUse"
       id="clipPath76">
      <path
         d="M 147.058,1009.6 H 822.602 V 608.689 H 147.058 Z"
         transform="translate(-587.79751,-810.34062)"
         id="path76" />
    </clipPath>
    <clipPath
       clipPathUnits="userSpaceOnUse"
       id="clipPath78">
      <path
         d="M 147.058,1009.6 H 822.602 V 608.689 H 147.058 Z"
         transform="translate(-581.84971,-643.21252)"
         id="path78" />
    </clipPath>
    <clipPath
       clipPathUnits="userSpaceOnUse"
       id="clipPath79">
      <path
         d="M 147.058,1009.6 H 822.602 V 608.689 H 147.058 Z"
         transform="translate(-493.40261,-659.01221)"
         id="path79" />
    </clipPath>
    <clipPath
       clipPathUnits="userSpaceOnUse"
       id="clipPath80">
      <path
         d="M 147.058,1009.6 H 822.602 V 608.689 H 147.058 Z"
         transform="translate(-591.79091,-654.55631)"
         id="path80" />
    </clipPath>
    <clipPath
       clipPathUnits="userSpaceOnUse"
       id="clipPath81">
      <path
         d="M 147.058,1009.6 H 822.602 V 608.689 H 147.058 Z"
         transform="translate(-617.28881,-668.65192)"
         id="path81" />
    </clipPath>
    <clipPath
       clipPathUnits="userSpaceOnUse"
       id="clipPath82">
      <path
         d="M 147.058,1009.6 H 822.602 V 608.689 H 147.058 Z"
         transform="translate(-502.18301,-665.52461)"
         id="path82" />
    </clipPath>
    <clipPath
       clipPathUnits="userSpaceOnUse"
       id="clipPath84">
      <path
         d="M 147.058,1009.6 H 822.602 V 608.689 H 147.058 Z"
         transform="translate(-576.32011,-698.44012)"
         id="path84" />
    </clipPath>
    <clipPath
       clipPathUnits="userSpaceOnUse"
       id="clipPath85">
      <path
         d="M 147.058,1009.6 H 822.602 V 608.689 H 147.058 Z"
         transform="translate(-621.71912,-930.09422)"
         id="path85" />
    </clipPath>
    <clipPath
       clipPathUnits="userSpaceOnUse"
       id="clipPath86">
      <path
         d="M 147.058,1009.6 H 822.602 V 608.689 H 147.058 Z"
         transform="translate(-585.22691,-896.13972)"
         id="path86" />
    </clipPath>
    <clipPath
       clipPathUnits="userSpaceOnUse"
       id="clipPath87">
      <path
         d="M 147.058,1009.6 H 822.602 V 608.689 H 147.058 Z"
         transform="translate(-605.41382,-913.16562)"
         id="path87" />
    </clipPath>
    <clipPath
       clipPathUnits="userSpaceOnUse"
       id="clipPath88">
      <path
         d="M 147.058,1009.6 H 822.602 V 608.689 H 147.058 Z"
         transform="translate(-570.20401,-912.95513)"
         id="path88" />
    </clipPath>
    <clipPath
       clipPathUnits="userSpaceOnUse"
       id="clipPath89">
      <path
         d="M 147.058,1009.6 H 822.602 V 608.689 H 147.058 Z"
         transform="translate(-553.78162,-932.59373)"
         id="path89" />
    </clipPath>
    <clipPath
       clipPathUnits="userSpaceOnUse"
       id="clipPath90">
      <path
         d="M 147.058,1009.6 H 822.602 V 608.689 H 147.058 Z"
         transform="translate(-603.58462,-899.69922)"
         id="path90" />
    </clipPath>
    <clipPath
       clipPathUnits="userSpaceOnUse"
       id="clipPath91">
      <path
         d="M 147.058,1009.6 H 822.602 V 608.689 H 147.058 Z"
         transform="translate(-588.75052,-916.82012)"
         id="path91" />
    </clipPath>
    <clipPath
       clipPathUnits="userSpaceOnUse"
       id="clipPath92">
      <path
         d="M 147.058,1009.6 H 822.602 V 608.689 H 147.058 Z"
         transform="translate(-568.06061,-933.20342)"
         id="path92" />
    </clipPath>
    <clipPath
       clipPathUnits="userSpaceOnUse"
       id="clipPath93">
      <path
         d="M 147.058,1009.6 H 822.602 V 608.689 H 147.058 Z"
         transform="translate(-545.70151,-743.74722)"
         id="path93" />
    </clipPath>
    <clipPath
       clipPathUnits="userSpaceOnUse"
       id="clipPath94">
      <path
         d="M 147.058,1009.6 H 822.602 V 608.689 H 147.058 Z"
         transform="translate(-576.66121,-757.01302)"
         id="path94" />
    </clipPath>
    <clipPath
       clipPathUnits="userSpaceOnUse"
       id="clipPath95">
      <path
         d="M 147.058,1009.6 H 822.602 V 608.689 H 147.058 Z"
         transform="translate(-576.32011,-698.44012)"
         id="path95" />
    </clipPath>
    <clipPath
       clipPathUnits="userSpaceOnUse"
       id="clipPath96">
      <path
         d="M 147.058,1009.6 H 822.602 V 608.689 H 147.058 Z"
         transform="translate(-530.35891,-731.39402)"
         id="path96" />
    </clipPath>
    <clipPath
       clipPathUnits="userSpaceOnUse"
       id="clipPath97">
      <path
         d="M 147.058,1009.6 H 822.602 V 608.689 H 147.058 Z"
         transform="translate(-521.12231,-721.87412)"
         id="path97" />
    </clipPath>
    <clipPath
       clipPathUnits="userSpaceOnUse"
       id="clipPath98">
      <path
         d="M 147.058,1009.6 H 822.602 V 608.689 H 147.058 Z"
         transform="translate(-525.53231,-736.87572)"
         id="path98" />
    </clipPath>
    <clipPath
       clipPathUnits="userSpaceOnUse"
       id="clipPath99">
      <path
         d="M 147.058,1009.6 H 822.602 V 608.689 H 147.058 Z"
         transform="translate(-521.12231,-721.87412)"
         id="path99" />
    </clipPath>
    <clipPath
       clipPathUnits="userSpaceOnUse"
       id="clipPath100">
      <path
         d="M 147.058,1009.6 H 822.602 V 608.689 H 147.058 Z"
         transform="translate(-525.53231,-736.87572)"
         id="path100" />
    </clipPath>
    <clipPath
       clipPathUnits="userSpaceOnUse"
       id="clipPath183">
      <path
         d="M 0,1080 H 1920 V 0 H 0 Z"
         transform="matrix(1.3333333,0,0,-1.3333333,0,1440)"
         id="path183" />
    </clipPath>
    <clipPath
       clipPathUnits="userSpaceOnUse"
       id="clipPath142">
      <path
         d="M 26.406,587.919 H 556.067 V 273.585 H 26.406 Z"
         transform="translate(-293.50231,-318.02813)"
         id="path142" />
    </clipPath>
    <clipPath
       clipPathUnits="userSpaceOnUse"
       id="clipPath143">
      <path
         d="M 26.406,587.919 H 556.067 V 273.585 H 26.406 Z"
         transform="translate(-257.59251,-273.58501)"
         id="path143" />
    </clipPath>
    <clipPath
       clipPathUnits="userSpaceOnUse"
       id="clipPath144">
      <path
         d="M 26.406,587.919 H 556.067 V 273.585 H 26.406 Z"
         transform="translate(-206.6545,-316.38511)"
         id="path144" />
    </clipPath>
    <clipPath
       clipPathUnits="userSpaceOnUse"
       id="clipPath145">
      <path
         d="M 26.406,587.919 H 556.067 V 273.585 H 26.406 Z"
         transform="translate(-297.1555,-477.71551)"
         id="path145" />
    </clipPath>
    <clipPath
       clipPathUnits="userSpaceOnUse"
       id="clipPath146">
      <path
         d="M 26.406,587.919 H 556.067 V 273.585 H 26.406 Z"
         transform="translate(-192.1899,-375.89681)"
         id="path146" />
    </clipPath>
    <clipPath
       clipPathUnits="userSpaceOnUse"
       id="clipPath147">
      <path
         d="M 26.406,587.919 H 556.067 V 273.585 H 26.406 Z"
         transform="translate(-210.89481,-440.13341)"
         id="path147" />
    </clipPath>
    <clipPath
       clipPathUnits="userSpaceOnUse"
       id="clipPath148">
      <path
         d="M 26.406,587.919 H 556.067 V 273.585 H 26.406 Z"
         transform="translate(-208.72891,-412.19141)"
         id="path148" />
    </clipPath>
    <clipPath
       clipPathUnits="userSpaceOnUse"
       id="clipPath149">
      <path
         d="M 26.406,587.919 H 556.067 V 273.585 H 26.406 Z"
         transform="translate(-213.65781,-359.83681)"
         id="path149" />
    </clipPath>
    <clipPath
       clipPathUnits="userSpaceOnUse"
       id="clipPath150">
      <path
         d="M 26.406,587.919 H 556.067 V 273.585 H 26.406 Z"
         transform="translate(-240.4702,-330.51231)"
         id="path150" />
    </clipPath>
    <clipPath
       clipPathUnits="userSpaceOnUse"
       id="clipPath151">
      <path
         d="M 26.406,587.919 H 556.067 V 273.585 H 26.406 Z"
         transform="translate(-281.16751,-511.34362)"
         id="path151" />
    </clipPath>
    <clipPath
       clipPathUnits="userSpaceOnUse"
       id="clipPath152">
      <path
         d="M 26.406,587.919 H 556.067 V 273.585 H 26.406 Z"
         transform="translate(-306.08471,-513.41032)"
         id="path152" />
    </clipPath>
    <clipPath
       clipPathUnits="userSpaceOnUse"
       id="clipPath154">
      <path
         d="M 26.406,587.919 H 556.067 V 273.585 H 26.406 Z"
         transform="translate(-255.18391,-354.37441)"
         id="path154" />
    </clipPath>
    <clipPath
       clipPathUnits="userSpaceOnUse"
       id="clipPath157">
      <path
         d="M 26.406,587.919 H 556.067 V 273.585 H 26.406 Z"
         transform="translate(-265.8598,-464.59491)"
         id="path157" />
    </clipPath>
    <clipPath
       clipPathUnits="userSpaceOnUse"
       id="clipPath1606">
      <path
         d="M 0,1080 H 1920 V 0 H 0 Z"
         transform="matrix(1.3333333,0,0,-1.3333333,0,1440)"
         id="path1606" />
    </clipPath>
    <clipPath
       clipPathUnits="userSpaceOnUse"
       id="clipPath1543">
      <path
         d="M 46.9879,569.636 H 393.737 V 36.1759 H 46.9879 Z"
         transform="translate(-304.84891,-113.22083)"
         id="path1543" />
    </clipPath>
    <clipPath
       clipPathUnits="userSpaceOnUse"
       id="clipPath1544">
      <path
         d="M 46.9879,569.636 H 393.737 V 36.1759 H 46.9879 Z"
         transform="translate(-127.083,-314.62838)"
         id="path1544" />
    </clipPath>
    <clipPath
       clipPathUnits="userSpaceOnUse"
       id="clipPath1546">
      <path
         d="M 46.9879,569.636 H 393.737 V 36.1759 H 46.9879 Z"
         transform="translate(-218.7298,-405.32361)"
         id="path1546" />
    </clipPath>
    <clipPath
       clipPathUnits="userSpaceOnUse"
       id="clipPath1552">
      <path
         d="M 46.9879,569.636 H 393.737 V 36.1759 H 46.9879 Z"
         transform="translate(-197.98701,-264.40651)"
         id="path1552" />
    </clipPath>
    <clipPath
       clipPathUnits="userSpaceOnUse"
       id="clipPath1553">
      <path
         d="M 46.9879,569.636 H 393.737 V 36.1759 H 46.9879 Z"
         transform="translate(-241.65031,-261.18443)"
         id="path1553" />
    </clipPath>
    <clipPath
       clipPathUnits="userSpaceOnUse"
       id="clipPath1554">
      <path
         d="M 46.9879,569.636 H 393.737 V 36.1759 H 46.9879 Z"
         transform="translate(-126.3963,-352.13201)"
         id="path1554" />
    </clipPath>
    <clipPath
       clipPathUnits="userSpaceOnUse"
       id="clipPath1555">
      <path
         d="M 46.9879,569.636 H 393.737 V 36.1759 H 46.9879 Z"
         transform="translate(-155.04411,-344.26451)"
         id="path1555" />
    </clipPath>
    <clipPath
       clipPathUnits="userSpaceOnUse"
       id="clipPath1556">
      <path
         d="M 46.9879,569.636 H 393.737 V 36.1759 H 46.9879 Z"
         transform="translate(-236.00971,-399.67051)"
         id="path1556" />
    </clipPath>
    <clipPath
       clipPathUnits="userSpaceOnUse"
       id="clipPath1557">
      <path
         d="M 46.9879,569.636 H 393.737 V 36.1759 H 46.9879 Z"
         transform="translate(-205.6105,-392.51811)"
         id="path1557" />
    </clipPath>
    <clipPath
       clipPathUnits="userSpaceOnUse"
       id="clipPath1569">
      <path
         d="M 46.9879,569.636 H 393.737 V 36.1759 H 46.9879 Z"
         transform="translate(-171.86901,-308.13338)"
         id="path1569" />
    </clipPath>
    <clipPath
       clipPathUnits="userSpaceOnUse"
       id="clipPath1571">
      <path
         d="M 46.9879,569.636 H 393.737 V 36.1759 H 46.9879 Z"
         transform="translate(-312.41401,-314.55991)"
         id="path1571" />
    </clipPath>
    <clipPath
       clipPathUnits="userSpaceOnUse"
       id="clipPath1572">
      <path
         d="M 46.9879,569.636 H 393.737 V 36.1759 H 46.9879 Z"
         transform="translate(-313.41731,-336.43441)"
         id="path1572" />
    </clipPath>
    <clipPath
       clipPathUnits="userSpaceOnUse"
       id="clipPath1573">
      <path
         d="M 46.9879,569.636 H 393.737 V 36.1759 H 46.9879 Z"
         transform="translate(-285.77821,-341.70001)"
         id="path1573" />
    </clipPath>
    <clipPath
       clipPathUnits="userSpaceOnUse"
       id="clipPath2431">
      <path
         d="M 0,1080 H 1920 V 0 H 0 Z"
         transform="matrix(1.3333333,0,0,-1.3333333,0,1440)"
         id="path2431" />
    </clipPath>
    <clipPath
       clipPathUnits="userSpaceOnUse"
       id="clipPath2210">
      <path
         d="M 405.945,581.146 H 645.733 V 212.462 H 405.945 Z"
         transform="translate(-514.29331,-307.51013)"
         id="path2210" />
    </clipPath>
    <clipPath
       clipPathUnits="userSpaceOnUse"
       id="clipPath2211">
      <path
         d="M 405.945,581.146 H 645.733 V 212.462 H 405.945 Z"
         transform="translate(-604.78612,-411.24921)"
         id="path2211" />
    </clipPath>
    <clipPath
       clipPathUnits="userSpaceOnUse"
       id="clipPath2212">
      <path
         d="M 405.945,581.146 H 645.733 V 212.462 H 405.945 Z"
         transform="translate(-443.74841,-420.00981)"
         id="path2212" />
    </clipPath>
    <clipPath
       clipPathUnits="userSpaceOnUse"
       id="clipPath2224">
      <path
         d="M 405.945,581.146 H 645.733 V 212.462 H 405.945 Z"
         transform="translate(-520.99132,-369.99791)"
         id="path2224" />
    </clipPath>
    <clipPath
       clipPathUnits="userSpaceOnUse"
       id="clipPath2226">
      <path
         d="M 405.945,581.146 H 645.733 V 212.462 H 405.945 Z"
         transform="translate(-472.00871,-323.81551)"
         id="path2226" />
    </clipPath>
    <clipPath
       clipPathUnits="userSpaceOnUse"
       id="clipPath2229">
      <path
         d="M 405.945,581.146 H 645.733 V 212.462 H 405.945 Z"
         transform="translate(-608.81582,-362.99851)"
         id="path2229" />
    </clipPath>
    <clipPath
       clipPathUnits="userSpaceOnUse"
       id="clipPath2230">
      <path
         d="M 405.945,581.146 H 645.733 V 212.462 H 405.945 Z"
         transform="translate(-472.41161,-405.21081)"
         id="path2230" />
    </clipPath>
    <clipPath
       clipPathUnits="userSpaceOnUse"
       id="clipPath2231">
      <path
         d="M 405.945,581.146 H 645.733 V 212.462 H 405.945 Z"
         transform="translate(-550.44551,-382.35341)"
         id="path2231" />
    </clipPath>
    <clipPath
       clipPathUnits="userSpaceOnUse"
       id="clipPath2232">
      <path
         d="M 405.945,581.146 H 645.733 V 212.462 H 405.945 Z"
         transform="translate(-533.37622,-340.02361)"
         id="path2232" />
    </clipPath>
    <clipPath
       clipPathUnits="userSpaceOnUse"
       id="clipPath2233">
      <path
         d="M 405.945,581.146 H 645.733 V 212.462 H 405.945 Z"
         transform="translate(-601.56722,-321.66458)"
         id="path2233" />
    </clipPath>
    <clipPath
       clipPathUnits="userSpaceOnUse"
       id="clipPath2235">
      <path
         d="M 405.945,581.146 H 645.733 V 212.462 H 405.945 Z"
         transform="translate(-583.76281,-387.00901)"
         id="path2235" />
    </clipPath>
    <clipPath
       clipPathUnits="userSpaceOnUse"
       id="clipPath2239">
      <path
         d="M 405.945,581.146 H 645.733 V 212.462 H 405.945 Z"
         transform="translate(-463.74251,-333.76901)"
         id="path2239" />
    </clipPath>
    <clipPath
       clipPathUnits="userSpaceOnUse"
       id="clipPath2241">
      <path
         d="M 405.945,581.146 H 645.733 V 212.462 H 405.945 Z"
         transform="translate(-462.21031,-359.10701)"
         id="path2241" />
    </clipPath>
    <clipPath
       clipPathUnits="userSpaceOnUse"
       id="clipPath2242">
      <path
         d="M 405.945,581.146 H 645.733 V 212.462 H 405.945 Z"
         transform="translate(-526.13741,-304.79131)"
         id="path2242" />
    </clipPath>
    <clipPath
       clipPathUnits="userSpaceOnUse"
       id="clipPath2243">
      <path
         d="M 405.945,581.146 H 645.733 V 212.462 H 405.945 Z"
         transform="translate(-497.00841,-347.79321)"
         id="path2243" />
    </clipPath>
    <clipPath
       clipPathUnits="userSpaceOnUse"
       id="clipPath2245">
      <path
         d="M 405.945,581.146 H 645.733 V 212.462 H 405.945 Z"
         transform="translate(-490.66701,-330.66971)"
         id="path2245" />
    </clipPath>
    <clipPath
       clipPathUnits="userSpaceOnUse"
       id="clipPath2250">
      <path
         d="M 405.945,581.146 H 645.733 V 212.462 H 405.945 Z"
         transform="translate(-592.52171,-323.51761)"
         id="path2250" />
    </clipPath>
    <clipPath
       clipPathUnits="userSpaceOnUse"
       id="clipPath2251">
      <path
         d="M 405.945,581.146 H 645.733 V 212.462 H 405.945 Z"
         transform="translate(-470.63591,-380.25851)"
         id="path2251" />
    </clipPath>
    <clipPath
       clipPathUnits="userSpaceOnUse"
       id="clipPath2252">
      <path
         d="M 405.945,581.146 H 645.733 V 212.462 H 405.945 Z"
         transform="translate(-582.05332,-379.12641)"
         id="path2252" />
    </clipPath>
    <clipPath
       clipPathUnits="userSpaceOnUse"
       id="clipPath2253">
      <path
         d="M 405.945,581.146 H 645.733 V 212.462 H 405.945 Z"
         transform="translate(-540.69091,-376.89421)"
         id="path2253" />
    </clipPath>
    <clipPath
       clipPathUnits="userSpaceOnUse"
       id="clipPath2256">
      <path
         d="M 405.945,581.146 H 645.733 V 212.462 H 405.945 Z"
         transform="translate(-521.34871,-315.61298)"
         id="path2256" />
    </clipPath>
    <clipPath
       clipPathUnits="userSpaceOnUse"
       id="clipPath2257">
      <path
         d="M 405.945,581.146 H 645.733 V 212.462 H 405.945 Z"
         transform="translate(-486.23181,-356.32711)"
         id="path2257" />
    </clipPath>
    <clipPath
       clipPathUnits="userSpaceOnUse"
       id="clipPath2260">
      <path
         d="M 405.945,581.146 H 645.733 V 212.462 H 405.945 Z"
         transform="translate(-545.19991,-328.66043)"
         id="path2260" />
    </clipPath>
    <clipPath
       clipPathUnits="userSpaceOnUse"
       id="clipPath2261">
      <path
         d="M 405.945,581.146 H 645.733 V 212.462 H 405.945 Z"
         transform="translate(-580.34542,-369.39981)"
         id="path2261" />
    </clipPath>
    <clipPath
       clipPathUnits="userSpaceOnUse"
       id="clipPath2262">
      <path
         d="M 405.945,581.146 H 645.733 V 212.462 H 405.945 Z"
         transform="translate(-471.59261,-365.53761)"
         id="path2262" />
    </clipPath>
    <clipPath
       clipPathUnits="userSpaceOnUse"
       id="clipPath2263">
      <path
         d="M 405.945,581.146 H 645.733 V 212.462 H 405.945 Z"
         transform="translate(-473.40641,-345.68591)"
         id="path2263" />
    </clipPath>
    <clipPath
       clipPathUnits="userSpaceOnUse"
       id="clipPath2264">
      <path
         d="M 405.945,581.146 H 645.733 V 212.462 H 405.945 Z"
         transform="translate(-462.50811,-345.69721)"
         id="path2264" />
    </clipPath>
    <clipPath
       clipPathUnits="userSpaceOnUse"
       id="clipPath2268">
      <path
         d="M 405.945,581.146 H 645.733 V 212.462 H 405.945 Z"
         transform="translate(-477.94641,-329.08853)"
         id="path2268" />
    </clipPath>
    <clipPath
       clipPathUnits="userSpaceOnUse"
       id="clipPath2272">
      <path
         d="M 405.945,581.146 H 645.733 V 212.462 H 405.945 Z"
         transform="translate(-627.96232,-338.20861)"
         id="path2272" />
    </clipPath>
    <clipPath
       clipPathUnits="userSpaceOnUse"
       id="clipPath2274">
      <path
         d="M 405.945,581.146 H 645.733 V 212.462 H 405.945 Z"
         transform="translate(-469.33351,-338.12241)"
         id="path2274" />
    </clipPath>
    <clipPath
       clipPathUnits="userSpaceOnUse"
       id="clipPath2276">
      <path
         d="M 405.945,581.146 H 645.733 V 212.462 H 405.945 Z"
         transform="translate(-435.45681,-388.67581)"
         id="path2276" />
    </clipPath>
    <clipPath
       clipPathUnits="userSpaceOnUse"
       id="clipPath2277">
      <path
         d="M 405.945,581.146 H 645.733 V 212.462 H 405.945 Z"
         transform="translate(-529.69841,-320.74501)"
         id="path2277" />
    </clipPath>
    <clipPath
       clipPathUnits="userSpaceOnUse"
       id="clipPath2278">
      <path
         d="M 405.945,581.146 H 645.733 V 212.462 H 405.945 Z"
         transform="translate(-630.45392,-320.39161)"
         id="path2278" />
    </clipPath>
    <clipPath
       clipPathUnits="userSpaceOnUse"
       id="clipPath2279">
      <path
         d="M 405.945,581.146 H 645.733 V 212.462 H 405.945 Z"
         transform="translate(-599.58761,-312.70718)"
         id="path2279" />
    </clipPath>
    <clipPath
       clipPathUnits="userSpaceOnUse"
       id="clipPath2280">
      <path
         d="M 405.945,581.146 H 645.733 V 212.462 H 405.945 Z"
         transform="translate(-612.58811,-372.80871)"
         id="path2280" />
    </clipPath>
    <clipPath
       clipPathUnits="userSpaceOnUse"
       id="clipPath2281">
      <path
         d="M 405.945,581.146 H 645.733 V 212.462 H 405.945 Z"
         transform="translate(-464.02911,-381.49601)"
         id="path2281" />
    </clipPath>
    <clipPath
       clipPathUnits="userSpaceOnUse"
       id="clipPath2283">
      <path
         d="M 405.945,581.146 H 645.733 V 212.462 H 405.945 Z"
         transform="translate(-468.64441,-382.95111)"
         id="path2283" />
    </clipPath>
    <clipPath
       clipPathUnits="userSpaceOnUse"
       id="clipPath2284">
      <path
         d="M 405.945,581.146 H 645.733 V 212.462 H 405.945 Z"
         transform="translate(-531.53332,-329.05868)"
         id="path2284" />
    </clipPath>
    <clipPath
       clipPathUnits="userSpaceOnUse"
       id="clipPath2287">
      <path
         d="M 405.945,581.146 H 645.733 V 212.462 H 405.945 Z"
         transform="translate(-584.58352,-364.69781)"
         id="path2287" />
    </clipPath>
    <clipPath
       clipPathUnits="userSpaceOnUse"
       id="clipPath2288">
      <path
         d="M 405.945,581.146 H 645.733 V 212.462 H 405.945 Z"
         transform="translate(-593.97742,-315.51803)"
         id="path2288" />
    </clipPath>
    <clipPath
       clipPathUnits="userSpaceOnUse"
       id="clipPath2289">
      <path
         d="M 405.945,581.146 H 645.733 V 212.462 H 405.945 Z"
         transform="translate(-574.98521,-330.25461)"
         id="path2289" />
    </clipPath>
    <clipPath
       clipPathUnits="userSpaceOnUse"
       id="clipPath2290">
      <path
         d="M 405.945,581.146 H 645.733 V 212.462 H 405.945 Z"
         transform="translate(-572.31271,-332.14061)"
         id="path2290" />
    </clipPath>
    <clipPath
       clipPathUnits="userSpaceOnUse"
       id="clipPath2292">
      <path
         d="M 405.945,581.146 H 645.733 V 212.462 H 405.945 Z"
         transform="translate(-446.90601,-345.18761)"
         id="path2292" />
    </clipPath>
    <clipPath
       clipPathUnits="userSpaceOnUse"
       id="clipPath2295">
      <path
         d="M 405.945,581.146 H 645.733 V 212.462 H 405.945 Z"
         transform="translate(-605.98822,-413.01721)"
         id="path2295" />
    </clipPath>
    <clipPath
       clipPathUnits="userSpaceOnUse"
       id="clipPath2296">
      <path
         d="M 405.945,581.146 H 645.733 V 212.462 H 405.945 Z"
         transform="translate(-604.78612,-411.24921)"
         id="path2296" />
    </clipPath>
    <clipPath
       clipPathUnits="userSpaceOnUse"
       id="clipPath2297">
      <path
         d="M 405.945,581.146 H 645.733 V 212.462 H 405.945 Z"
         transform="translate(-443.74841,-420.00981)"
         id="path2297" />
    </clipPath>
    <clipPath
       clipPathUnits="userSpaceOnUse"
       id="clipPath2298">
      <path
         d="M 405.945,581.146 H 645.733 V 212.462 H 405.945 Z"
         transform="translate(-519.20062,-429.10051)"
         id="path2298" />
    </clipPath>
    <clipPath
       clipPathUnits="userSpaceOnUse"
       id="clipPath2299">
      <path
         d="M 405.945,581.146 H 645.733 V 212.462 H 405.945 Z"
         transform="translate(-503.95541,-441.54861)"
         id="path2299" />
    </clipPath>
    <clipPath
       clipPathUnits="userSpaceOnUse"
       id="clipPath2300">
      <path
         d="M 405.945,581.146 H 645.733 V 212.462 H 405.945 Z"
         transform="translate(-520.63462,-437.20971)"
         id="path2300" />
    </clipPath>
    <clipPath
       clipPathUnits="userSpaceOnUse"
       id="clipPath2301">
      <path
         d="M 405.945,581.146 H 645.733 V 212.462 H 405.945 Z"
         transform="translate(-521.22421,-393.58931)"
         id="path2301" />
    </clipPath>
    <clipPath
       clipPathUnits="userSpaceOnUse"
       id="clipPath2302">
      <path
         d="M 405.945,581.146 H 645.733 V 212.462 H 405.945 Z"
         transform="translate(-516.99022,-389.03501)"
         id="path2302" />
    </clipPath>
    <clipPath
       clipPathUnits="userSpaceOnUse"
       id="clipPath2303">
      <path
         d="M 405.945,581.146 H 645.733 V 212.462 H 405.945 Z"
         transform="translate(-516.23671,-383.98571)"
         id="path2303" />
    </clipPath>
    <clipPath
       clipPathUnits="userSpaceOnUse"
       id="clipPath2304">
      <path
         d="M 405.945,581.146 H 645.733 V 212.462 H 405.945 Z"
         transform="translate(-518.35781,-380.10101)"
         id="path2304" />
    </clipPath>
    <clipPath
       clipPathUnits="userSpaceOnUse"
       id="clipPath2305">
      <path
         d="M 405.945,581.146 H 645.733 V 212.462 H 405.945 Z"
         transform="translate(-532.34531,-374.29151)"
         id="path2305" />
    </clipPath>
    <clipPath
       clipPathUnits="userSpaceOnUse"
       id="clipPath2306">
      <path
         d="M 405.945,581.146 H 645.733 V 212.462 H 405.945 Z"
         transform="translate(-538.82231,-401.52141)"
         id="path2306" />
    </clipPath>
    <clipPath
       clipPathUnits="userSpaceOnUse"
       id="clipPath2307">
      <path
         d="M 405.945,581.146 H 645.733 V 212.462 H 405.945 Z"
         transform="translate(-537.72251,-397.47061)"
         id="path2307" />
    </clipPath>
    <clipPath
       clipPathUnits="userSpaceOnUse"
       id="clipPath2308">
      <path
         d="M 405.945,581.146 H 645.733 V 212.462 H 405.945 Z"
         transform="translate(-535.75991,-390.39591)"
         id="path2308" />
    </clipPath>
    <clipPath
       clipPathUnits="userSpaceOnUse"
       id="clipPath2309">
      <path
         d="M 405.945,581.146 H 645.733 V 212.462 H 405.945 Z"
         transform="translate(-536.61382,-395.15731)"
         id="path2309" />
    </clipPath>
    <clipPath
       clipPathUnits="userSpaceOnUse"
       id="clipPath2310">
      <path
         d="M 405.945,581.146 H 645.733 V 212.462 H 405.945 Z"
         transform="translate(-528.17752,-371.87031)"
         id="path2310" />
    </clipPath>
    <clipPath
       clipPathUnits="userSpaceOnUse"
       id="clipPath2311">
      <path
         d="M 405.945,581.146 H 645.733 V 212.462 H 405.945 Z"
         transform="translate(-520.99132,-369.99791)"
         id="path2311" />
    </clipPath>
    <clipPath
       clipPathUnits="userSpaceOnUse"
       id="clipPath2312">
      <path
         d="M 405.945,581.146 H 645.733 V 212.462 H 405.945 Z"
         transform="translate(-608.81582,-362.99851)"
         id="path2312" />
    </clipPath>
    <clipPath
       clipPathUnits="userSpaceOnUse"
       id="clipPath2313">
      <path
         d="M 405.945,581.146 H 645.733 V 212.462 H 405.945 Z"
         transform="translate(-472.41161,-405.21081)"
         id="path2313" />
    </clipPath>
    <clipPath
       clipPathUnits="userSpaceOnUse"
       id="clipPath2314">
      <path
         d="M 405.945,581.146 H 645.733 V 212.462 H 405.945 Z"
         transform="translate(-552.97291,-399.51141)"
         id="path2314" />
    </clipPath>
    <clipPath
       clipPathUnits="userSpaceOnUse"
       id="clipPath2315">
      <path
         d="M 405.945,581.146 H 645.733 V 212.462 H 405.945 Z"
         transform="translate(-550.44551,-382.35341)"
         id="path2315" />
    </clipPath>
    <clipPath
       clipPathUnits="userSpaceOnUse"
       id="clipPath2316">
      <path
         d="M 405.945,581.146 H 645.733 V 212.462 H 405.945 Z"
         transform="translate(-551.61922,-391.08391)"
         id="path2316" />
    </clipPath>
    <clipPath
       clipPathUnits="userSpaceOnUse"
       id="clipPath2317">
      <path
         d="M 405.945,581.146 H 645.733 V 212.462 H 405.945 Z"
         transform="translate(-550.79251,-386.64391)"
         id="path2317" />
    </clipPath>
    <clipPath
       clipPathUnits="userSpaceOnUse"
       id="clipPath2318">
      <path
         d="M 405.945,581.146 H 645.733 V 212.462 H 405.945 Z"
         transform="translate(-521.22421,-393.58931)"
         id="path2318" />
    </clipPath>
    <clipPath
       clipPathUnits="userSpaceOnUse"
       id="clipPath2319">
      <path
         d="M 405.945,581.146 H 645.733 V 212.462 H 405.945 Z"
         transform="translate(-552.97291,-399.51141)"
         id="path2319" />
    </clipPath>
  </defs>
  <g
     id="g2430"
     clip-path="url(#clipPath2431)"
     transform="matrix(0.49324878,0,0,0.49324878,-275.08362,-401.98161)">
    <path
       d="M 0,0 C -1.783,-0.596 -3.267,0.074 -4.854,0.432 L -20.142,3.878 C -20.68,4 -21.284,4.063 -21.398,3.718 -21.493,3.428 -21.966,2.479 -21.466,2.371 L 8.021,-3.994 C 9.803,-2.2 9.957,1.628 8.179,3.479 l -29.275,6.254 c -0.352,-0.626 -0.065,-1.24 0.274,-1.599 0.24,-0.255 0.709,-0.196 1.226,-0.315 L 4.173,2.356 C 4.984,2.17 4.984,1.302 4.109,1.412 L -20.484,6.704 C -20.869,6.787 -21.069,5.352 -20.71,5.266 L -7.33,2.089 C -4.859,1.503 -2.498,1.307 0,0 m -32.438,6.386 c -1.651,2.223 -3.25,3.646 -4.276,5.917 -0.593,-1.368 -0.72,-2.481 -1.032,-4.075 z M 116.161,12.882 88.045,4.797 88.35,3.738 116.465,11.822 Z M 85.294,5.197 c -0.895,2.721 -0.585,4.883 0.305,7.375 -1.165,0.686 -2.092,1.334 -3.451,1.454 -0.98,-2.065 -1.903,-4.981 -0.602,-7.015 0.73,-1.142 2.601,-1.351 3.748,-1.814 M 7.055,8.103 -17.636,14.337 c -1.493,0.377 -3.076,-1.069 -4.103,-2.006 L 9.454,5.672 18.382,11.42 C 13.907,10.625 11.929,6.872 7.055,8.103 M 79.684,8.008 c -0.892,4.055 2.524,7.04 0.099,7.079 C 78.382,15.11 77.75,10.412 78.19,9.057 78.451,8.392 78.813,7.65 79.684,8.008 m -119.424,6.37 c 0.217,-3.643 -1.82,-6.259 -3.213,-9.125 -1.764,-3.156 -4.397,-5.414 -6.601,-8.355 7.137,2.686 11.164,13.301 11.747,19.942 -0.629,0.017 -1.869,-0.038 -2.129,-0.629 -3.691,-8.402 -8.838,-13.72 -15.384,-20.314 1.325,-0.584 2.488,-0.006 3.519,0.905 5.475,4.843 9.412,10.93 12.061,17.576 M 11.844,-2.719 33.461,11.297 c -0.238,2.075 -0.739,3.87 -1.499,5.967 -3.331,-2.308 -6.555,-4.321 -9.959,-6.421 L 10.754,3.903 c 1.222,-2.125 0.809,-4.19 1.09,-6.622 m -35.37,8.917 c 0.602,-0.203 0.555,0.857 0.367,1.117 -0.39,0.538 -7.381,2.702 -10.972,8.97 -0.326,0.569 -0.568,1.239 -1.007,1.322 -0.337,0.064 -1.322,-0.134 -1.447,-0.502 0.833,-4.249 3.293,-8.14 6.899,-10.733 1.085,-0.779 5.735,-3.167 5.867,-1.176 -4.724,1.643 -9.674,4.611 -11.008,9.903 3.025,-3.759 6.31,-7.221 11.301,-8.901 m 1.623,9.016 c -1.661,1.008 -3.863,0.795 -4.243,1.983 -0.206,0.643 0.184,1.124 0.272,2.059 -2.162,-0.476 -3.913,-1.396 -6.085,-2.352 1.469,-2.252 3.421,-3.756 5.484,-5.142 1.044,2.078 3.47,2.307 4.572,3.452 m 135.638,0.991 c -0.029,0.691 -0.095,0.898 -0.214,0.947 -0.16,0.066 -0.431,0.031 -0.7,-0.047 l -20.09,-5.803 c -0.382,-0.111 -0.9,0.327 -0.761,0.411 2.082,1.261 17.612,5.543 21.23,6.535 0.652,0.179 1.068,0.947 0.581,1.36 L 88.167,11.916 C 86.662,10.932 86.728,7.841 87.447,6.214 l 26.012,7.457 c 0.629,0.18 0.701,0.489 0.548,0.919 -0.335,0.942 -11.906,-3.497 -13.725,-2.954 z m -98.33,-2.97 c 1.222,2.228 0.599,5.087 -0.426,7.028 -1.599,-0.447 -2.569,-1.069 -3.81,-1.809 1.033,-2.325 0.849,-4.448 0.72,-6.996 1.077,0.407 2.885,0.627 3.516,1.777 m 62.823,2.773 c -2.765,1.05 -4.911,2.406 -7.495,3.182 -1.973,0.591 -5.643,-0.675 -8.911,2.588 -1.068,-1.705 -0.786,-3.536 -0.335,-5.418 L 76.778,9 c -0.169,2.587 0.056,4.665 1.45,7.008 M 17.24,21.549 c -0.303,-0.094 -1.024,-0.402 -0.798,-0.921 1.86,-4.266 0.265,-7.647 1.751,-6.392 1.52,1.285 0.832,7.865 -0.953,7.313 m 43.452,1.196 c 0.361,0.606 -0.923,1.607 -1.316,1.056 -1.327,-1.856 -1.858,-4.867 0.178,-6.684 0.544,2.004 0.039,3.784 1.138,5.628 m -2.673,1.885 c -0.665,0.745 -2.342,1.331 -2.723,0.718 -0.369,-1.846 0.563,-3.433 1.08,-4.899 z M 0.062,14.87 c -7.671,0.962 -14.239,3.391 -21.326,5.041 -0.495,-0.203 -1.087,-1.286 -0.709,-1.861 L 8.326,10.315 c 1.763,1.718 2.185,6.197 -0.029,7.52 l -29.773,7.897 c -0.146,-0.778 -0.068,-1.873 0.479,-2.02 L 0.594,17.924 c 0.568,-0.152 1.071,-0.394 1.216,-1.013 -2.587,0.297 -4.843,0.959 -7.366,1.587 l -15.305,3.815 c -0.344,0.059 -0.414,-1.128 0.051,-1.27 7.036,-2.149 14.324,-3.144 20.872,-6.173 m 30.845,6.28 c -0.855,2.513 -1.035,4.205 -2.027,6.177 l -9.746,-4.838 c 1.184,-2.112 1.399,-4.184 1.437,-6.863 z m -73.192,-4.845 c -7.809,2.62 -14.991,5.094 -22.225,7.998 -0.457,0.184 -0.712,0.82 -0.574,1.068 0.121,0.215 0.584,0.366 0.98,0.227 l 22.349,-7.847 c 1.221,0.964 2.58,0.835 4.15,1.779 l -23.993,8.052 c -1.083,0.363 -2.632,-0.591 -3.54,-0.944 C -69.187,18.815 -75.405,13.004 -82.65,7.096 L -58.884,-4.35 c 6.14,5.99 12.879,12.468 16.599,20.655 m 5.938,5.273 c 0.417,2.903 -0.279,4.931 -1.779,6.89 l -8.906,-3.262 c 3.66,-1.52 7.05,-2.593 10.685,-3.628 m 123.621,-7.424 27.45,8.183 c -2.894,1.354 -5.483,2.406 -8.263,3.444 L 91.7,31.292 c 0.689,-2.39 1.111,-3.965 0.345,-6.024 -1.856,-4.986 -11.698,-5.212 -16.344,-6.01 z m -163.757,8.27 c 0.426,-0.142 0.568,-0.6 0.473,-0.682 -0.757,-0.659 -12.273,3.387 -14.34,4.095 -0.559,0.191 -0.842,-0.523 -0.931,-0.823 -0.133,-0.451 0.434,-0.675 0.918,-0.836 l 16.83,-5.612 c 1.816,2.114 3.43,3.888 4.642,6.309 l -21.463,6.983 c -0.696,-1.011 0.116,-1.957 1.113,-2.269 5.995,-1.878 11.897,-3.465 17.916,-6.142 -2.34,-0.473 -4.429,0.689 -6.508,1.343 l -12.188,3.832 c -0.375,0.118 -0.466,-0.592 -0.506,-0.813 -0.043,-0.238 0.04,-0.714 0.491,-0.864 z M 19.083,32.513 C 9.167,26.613 -0.59,27.08 -10.08,33.21 l -11.401,-5.155 31.042,-7.814 18.625,9.167 c -0.305,1.318 -0.62,2.293 -1.21,3.328 -2.657,-0.007 -5.159,0.122 -7.893,-0.223 M -23.626,23.16 c 0.776,3.578 -2.776,2.854 -2.758,4.693 0.004,0.404 0.27,0.816 0.724,1.029 l 7.971,3.731 c 0.833,0.389 0.361,2.782 -0.527,2.875 l -18.075,-6.617 c 3.043,-5.482 0.055,-8.06 3.902,-9.552 2.741,1.263 6.106,2.19 8.763,3.841 m 11.155,11.781 c -0.877,1.333 -1.951,1.162 -3.072,0.683 -0.256,-0.604 -0.218,-1.366 0.321,-1.88 1.126,0.349 1.925,0.67 2.751,1.197 m 69.808,-5.736 -5.757,8.262 2.675,-9.655 c 1.182,0.596 2.157,0.66 3.082,1.393 m -111.722,5.803 -5.878,1.104 c -2.24,0.592 -4.325,1.613 -6.749,1.165 l 21.854,-5.494 c 0.627,1.393 0.626,3.025 -0.181,4.302 -1.952,3.093 -6.593,-1.538 -9.046,-1.077 m 9.425,-4.396 c -0.571,-0.222 -8.665,1.74 -10.235,2.344 l -21.004,4.919 32.931,-8.969 c 0.978,2.562 1.529,5.284 -0.125,7.26 -0.573,-1.444 0.955,-4.573 -1.567,-5.554 m -22.427,7.066 c -1.607,0.985 -3.248,1.367 -5.014,1.068 1.658,-0.407 3.021,-1.485 5.014,-1.068 m 16.836,-11.419 c 1.33,0.265 2.363,0.475 3.498,1.484 l -31.017,8.276 c -0.72,0.192 -1.034,1.087 -0.997,1.554 0.093,1.174 4.851,3.702 1.627,2.519 l -14.202,-5.212 23.545,-7.928 c 1.691,1.619 4.197,3.541 6.511,2.807 z m 156.358,2.316 c -1.677,4.494 -2.683,8.855 -3.84,13.749 -0.938,-0.828 -0.373,-2.032 -0.618,-3.053 0.113,-3.053 -0.15,-5.862 -0.445,-8.831 1.702,-0.736 3.098,-1.488 4.903,-1.865 m -123.092,11.708 -3.023,4.83 -20.7,-8.666 c 0.895,-2.036 0.705,-3.761 0.718,-6.154 z m -23.602,-2.107 19.378,8.251 c 0.063,0.831 -0.4,1.938 -1.166,2.297 L -35.56,42.77 c -3.064,-1.416 -5.949,-2.51 -8.95,-4.097 1.033,-0.783 2.205,-1.101 3.623,-0.497 m -10.898,0.011 c 2.036,1.09 4.393,1.319 5.836,2.819 1.828,1.9 1.177,5.587 -0.291,7.501 -2.313,-0.813 -4.132,-1.533 -6.065,-2.717 1.318,-2.55 0.987,-4.845 0.52,-7.603 M 65.008,3.832 c 0.811,1.112 0.299,2.698 -0.47,3.79 -1.997,2.839 -5.187,4.541 -8.427,5.624 -1.444,0.483 -1.919,1.469 -2.28,2.804 l -2.906,10.752 c -1.824,6.746 -3.726,13.219 -6.12,19.791 -0.46,1.264 -1.59,2.983 -3.021,3.187 -3.811,-2.245 -6.941,-5.31 -10.299,-8.119 -1.583,-1.323 -3.069,-2.254 -4.781,-4.021 1.702,-0.432 2.781,-1.303 3.328,-2.938 l 2.809,-8.407 5.886,-19.95 C 38.95,5.59 39.546,4.904 40.336,4.609 45.817,2.563 61.127,-1.484 65.008,3.832 m -93.07,44.985 c -3.945,0.045 -7.043,0.77 -9.792,3.255 -2.483,-0.854 -4.555,-1.863 -7.025,-3.008 1.641,-2.443 1.398,-4.772 1.135,-7.422 z m -37.529,-6.948 -17.173,4.063 c -0.491,0.116 -1.081,-1.607 -0.511,-1.742 l 28.082,-6.684 c 2.098,2.267 2.13,5.619 0.24,7.962 l -27.906,6.57 c -0.769,-0.954 0.198,-1.741 1.122,-1.991 6.417,-1.734 12.806,-2.789 19.289,-5.344 -6.772,0.468 -13.274,2.953 -19.88,4.221 -0.419,-0.283 -0.503,-1.652 -0.087,-1.763 7.07,-1.884 14.065,-3.289 20.981,-5.538 -1.37,-0.642 -2.701,-0.098 -4.157,0.246 M 99.744,52.866 c -0.466,-7.312 -2.625,-13.658 -4.417,-20.355 1.433,-0.662 2.655,-1.137 4.069,-1.533 l 1.052,22.234 c -0.009,0.458 -1.487,0.775 -1.824,0.472 L 92.083,33.978 c 0.352,-0.65 1.594,-1.026 2.102,-0.662 l 3.471,12.589 c 0.679,2.461 0.834,4.925 2.088,6.961 m 4.28,-4.407 7.265,-18.288 c -0.006,-0.346 0.126,-0.504 0.264,-0.502 0.244,0.004 0.416,-0.005 0.474,0.12 0.104,0.224 0.147,0.53 0.019,0.853 -3.093,7.797 -5.757,15.496 -8.28,23.47 -0.16,0.507 -1.75,0.163 -1.725,-0.464 0.245,-6.243 1.462,-12.104 3.104,-18.06 0.684,-2.48 1.178,-5.058 2.414,-7.292 0.339,-0.613 2.743,0.008 2.485,0.734 -2.303,6.491 -5.4,12.574 -6.02,19.429 m 9.645,-17.761 c 0.263,-0.603 0.728,-0.585 1.02,-0.74 0.161,-0.086 0.745,0.09 0.557,0.559 l -9.601,23.971 c -0.662,1.655 -1.84,2.453 -3.636,1.887 -0.941,-0.297 -2.072,-0.394 -2.429,-1.497 l 4.692,1.053 c 3.059,-8.462 5.76,-16.88 9.397,-25.233 m -165.752,20.899 -22.707,6.419 -8.389,-3.406 29.259,-6.977 14.234,6.116 c 0.351,0.151 -0.3,1.083 -0.615,1.165 -2.065,0.536 -7.05,-4.655 -11.782,-3.317 m 56.494,4.205 c -5.631,0.689 -10.539,0.239 -15.675,0.163 -0.828,0.035 -2.071,-0.022 -2.166,0.853 l -0.219,2.017 c -2.164,-2.46 -4.317,-4.356 -6.969,-6.294 2.658,-5.959 6.239,-11.367 11.232,-15.714 2.395,8.009 7.4,13.855 13.797,18.975 m 65.879,1.386 c 0.532,0.838 0.784,1.763 0.86,2.886 -2.002,-0.809 -3.777,-0.696 -5.899,-0.228 0.403,-3.088 4.944,-2.809 5.039,-2.658 m 19.531,-22.953 7.136,20.843 c 0.488,1.427 2.149,1.91 3.251,2.961 l -21.204,4.682 c -5.431,1.199 -5.553,-4.07 -7.482,-9.24 -0.55,-1.475 -0.562,-2.02 0.253,-3.324 l 7.801,-12.485 c 2.641,-0.709 5.051,-1.148 7.314,-2.336 0.903,-0.475 1.586,-1.463 2.931,-1.101 m 11.04,26.202 c 0.266,1.326 0.323,2.185 0.015,3.307 -2.043,-0.724 -3.917,-1.088 -5.618,-2.203 1.855,-0.542 3.575,-0.975 5.603,-1.104 m -2.566,4.862 c -1.402,0.357 -3.183,1.428 -4.697,1.202 -2.881,-0.436 -5.642,-1.373 -8.345,-2.562 5.624,-2.331 7.666,-0.988 13.042,1.36 m -142.904,-3.27 c -0.3,-1.656 -5.676,-2.171 -5.56,-3.41 0.039,-0.415 0.22,-1.7 0.68,-1.507 l 7.071,2.967 -1.006,6.953 c -0.573,-0.348 -8.151,-2.693 -6.532,-3.971 2.007,0.404 3.538,1.812 5.858,1.751 -0.763,-1.274 -6.183,-2.74 -6.26,-3.437 -0.305,-2.769 3.207,1.097 5.749,0.654 m -8.53,0.006 c -6.776,1.786 -13.433,3.23 -20.467,5.535 1.513,0.939 3.109,-0.242 4.714,-0.315 l 16.461,-4.226 c 0.584,-0.15 0.952,1.119 0.68,1.565 l -9.757,2.68 -15.046,3.729 c -1.323,-2.357 -0.878,-4.942 0.348,-7.255 L -51.98,57.04 c 0.173,0.855 10e-4,1.351 -0.196,1.782 -0.278,0.609 -10.759,2.878 -12.68,3.955 0.775,0.534 1.71,0.168 2.612,-0.055 l 9.711,-2.395 c 0.327,-0.081 0.356,0.807 0.333,1.075 -0.029,0.349 -0.428,0.498 -0.939,0.633 M 63.617,25.327 c 0.96,-1.598 2.067,-2.398 3.826,-2.554 4.712,-0.419 15.105,0.163 19.482,1.897 1.218,0.482 2.105,1.468 2.212,2.534 0.397,3.936 -5.295,6.062 -8.681,6.79 -2.005,0.432 -3.281,1.069 -4.328,2.91 C 70.732,46.394 64.7,55.358 57.698,63.749 49.183,73.954 41.612,72.802 30.432,67.54 21.315,63.249 12.864,58.239 4.901,52.074 -0.241,48.093 -5.282,41.595 -6.424,34.883 0.451,30.59 9.131,30.665 16.238,34.604 c 7.703,4.27 15.577,12.246 23.015,17.548 1.15,0.819 2.566,1.6 3.886,1.019 2.091,-0.92 3.143,-2.752 4.458,-4.53 5.617,-7.597 11.077,-15.084 16.02,-23.314 m -106.318,32.7 -7.539,-3.361 -24.959,6.83 c -2.036,0.558 -2.871,1.176 -3.542,3.191 -0.92,2.765 -0.526,5.162 0.845,8.206 -4.521,-2.133 -2.334,-10.865 0.485,-11.664 l 27.372,-7.764 7.993,3.426 c 0.521,0.223 0.619,0.696 0.401,1.055 -0.216,0.354 -0.492,0.333 -1.056,0.081 M 66.052,61.89 c -1.478,2.791 -0.998,5.087 0.179,7.723 L 50.416,73.667 C 55.144,71.3 58.999,67.68 61.95,63.76 c 0.99,-1.316 2.382,-2.141 4.102,-1.87 m 26.464,7.109 c -0.177,0.92 -0.39,2.107 -1.017,2.325 l -18.05,-4.987 c 1.146,1.299 2.646,1.599 4.1,2.043 l 12.382,3.784 c 0.742,0.227 1.683,0.118 1.75,0.849 0.05,0.549 0.418,1.521 -0.18,1.983 L 74.523,69.718 c -1.999,-0.622 -4.394,-0.515 -6.041,-1.412 -1.902,-1.035 -0.976,-4.821 0.152,-6.05 1.564,0.361 3.586,0.475 4.498,1.37 1.964,1.925 3.755,1.226 5.98,1.533 4.624,0.637 8.855,2.91 13.404,3.84 m -136.173,3.749 c -0.434,0.713 -1.734,0.66 -2.306,0.394 l -3.804,-1.765 c -2.179,-1.011 -3.857,-1.164 -6.081,-0.526 l -16.241,4.657 c -1.676,-0.073 -3.454,-1.313 -4.948,-1.919 l 26.608,-6.752 6.759,2.817 c 0.375,0.765 0.524,2.255 0.013,3.094 m 6.289,-16.279 c 1.932,-3.085 5.132,-4.814 8.544,-4.195 3.314,0.601 6.226,2.119 8.612,4.382 l 6.628,6.285 4.517,0.19 c 5.036,0.211 8.281,5.465 6.917,10.328 -0.661,2.36 -2.686,3.587 -5.063,3.242 l -4.273,-0.621 c -0.544,-0.079 -0.994,0.222 -1.115,0.501 -0.587,1.354 1.76,1.75 0.651,3.451 -5.469,-2.192 -3.555,-6.189 -7.148,-8.712 -3.518,-2.47 -7.148,-4.631 -10.954,-6.606 -0.63,-0.327 -1.401,0.191 -1.631,0.558 -0.38,0.604 -0.083,1.177 0.501,1.579 l 4.057,2.795 c 0.654,0.922 0.15,2.591 0.12,3.751 -4.372,1.198 -8.795,1.105 -13.206,0.049 -0.193,-5.657 -0.273,-11.999 2.843,-16.977 M 67.76,71.616 c -0.52,2.605 -0.312,4.347 0.279,6.54 l -12.561,2.999 c -1.142,-0.4 -2.186,-0.753 -3.232,-1.265 -0.262,-1.446 -0.599,-2.639 -0.63,-4.126 z m -146.596,9.55 -0.358,-1.228 25.572,-7.437 0.357,1.228 z m 28.572,-7.18 c 3.917,-0.915 3.73,7.605 1.705,9.214 -0.835,-0.426 -1.62,-0.683 -2.234,-1.31 1.364,-2.489 1.406,-5.005 0.529,-7.904 M 78.893,75.217 C 77.972,74.983 77.086,74.533 76.33,75.093 l 16.81,5.405 c 0.426,0.137 0.658,0.411 0.678,0.669 0.017,0.212 -0.068,0.881 -0.509,0.756 L 73.044,76.187 c -0.35,0.544 0.339,0.975 0.871,1.132 l 19.479,5.751 c 0.526,0.155 0.578,1.248 0.227,1.442 L 77.96,80.048 c -1.763,-0.503 -3.216,-1.132 -5.018,-1.541 -0.876,-0.199 -2.206,-0.602 -2.69,-1.402 -1.118,-1.849 -0.766,-4.314 0.64,-5.878 l 22.816,6.953 c 0.542,0.166 1.023,-0.036 1.052,0.416 0.027,0.416 -0.188,1.116 -0.735,0.946 -5.061,-1.576 -9.988,-3.019 -15.132,-4.325 m -124.542,0.224 1.942,9.855 c -1.48,-0.206 -2.123,-0.732 -3.312,-1.452 1.708,-2.659 0.965,-5.269 1.37,-8.403 m -16.809,4.531 c -4.827,0.563 -8.989,2.313 -13.499,3.463 -0.567,0.181 -0.983,0.01 -1.065,-0.397 -0.068,-0.343 -0.153,-0.699 0.372,-0.854 l 24.137,-7.125 c 0.792,2.231 0.623,4.723 -0.796,6.497 l -23.746,7.716 c -0.295,-1.341 0.6,-1.839 1.694,-2.185 L -61.16,82.6 c 1.109,-0.35 2.244,-0.565 2.914,-1.571 -3.101,0.25 -5.755,1.27 -8.614,2.157 l -9.46,2.937 c -0.285,0.089 -0.369,-1.027 -0.179,-1.22 0.703,-0.718 12.293,-3.384 14.041,-4.931 M 69.469,79.499 c 7.582,2.832 14.941,4.627 22.949,7.138 L 66.98,91.663 c -2.566,0.353 -5.162,-1.594 -7.755,-1.707 -0.366,-2.735 -1.075,-4.72 -2.223,-7.237 z M 54.893,95.81 c -1.935,0.344 -4.084,-1.355 -5.002,-2.991 -2.029,-3.615 -1.408,-9.563 1.846,-9.807 5.236,-0.393 5.423,12.394 3.156,12.798 M 26.398,69.384 c 1.349,0.084 2.359,0.818 3.415,1.672 l 4.181,26.831 C 32.671,97.958 31.842,97.643 30.648,97.443 30.58,95.168 30.049,93.159 29.705,90.921 Z M 7.676,57.989 c 6.027,4.106 10.349,6.679 16.517,10.108 l 3.572,22.57 c 0.387,2.451 1.051,4.686 1.01,7.124 -2.338,0.895 -4.55,1.326 -6.961,1.797 -9.545,1.863 -19.045,2.893 -28.849,2.962 L -9.068,79.43 c 1.7,-0.084 3.338,0.141 4.974,-0.317 C -1,78.226 0.573,75.491 0.823,72.381 1.341,65.93 -3.231,60.458 -9.732,60.182 c -0.547,-0.024 -0.884,-0.323 -0.98,-0.588 -0.072,-0.199 -0.153,-1.073 0.262,-1.047 6.11,0.378 11.917,0.347 18.126,-0.558 m -47.95,41.365 -8.302,2.887 c -0.813,2.534 9.689,-1.979 10.647,-2.06 0.778,0.836 1.413,1.443 2.095,2.62 -3.747,1.489 -7.396,2.34 -11.329,3.35 L -69.13,96.213 c -3.042,-1.376 -6.053,-2.319 -8.875,-4.179 l 25.836,-8.542 9.065,4.985 c 1.561,2.589 1.944,6.291 3.776,8.913 0.288,0.412 0.079,1.096 0.04,1.379 -0.035,0.248 -0.448,0.398 -0.986,0.585 m 61.987,2.854 c -3.703,1.573 -7.598,2.119 -11.564,2.922 -2.019,0.26 -14.462,2.7 -14.279,0.581 0.02,-0.227 0.032,-0.792 0.577,-0.802 8.551,-0.162 16.659,-1.468 25.266,-2.701 M -23.909,71.764 c 1.886,0.779 2.869,1.791 4.261,2.703 0.95,4.31 4.076,7.558 8.335,8.791 l 1.545,18.487 c -5.711,0.005 -10.679,1.941 -15.474,4.978 -4.938,-2.41 -8.953,-6.087 -11.499,-10.938 -2.914,-6.019 -4.637,-12.333 -5.203,-19.389 5.338,0.933 10.168,1.353 15.363,0.194 0.469,3.258 0.414,6.179 1.448,9.063 0.295,0.647 0.95,0.915 1.453,0.614 0.334,-0.201 0.698,-0.745 0.659,-1.315 z m 50.969,30.467 c -3.088,2.081 -6.554,3.135 -10.14,4.278 -5.731,1.482 -11.287,2.832 -17.251,3.225 -0.414,0.027 -0.384,-1.524 0.071,-1.532 2.558,-0.043 4.874,-0.539 7.39,-0.895 6.885,-0.976 13.29,-2.738 19.93,-5.076 M 41.78,75.028 c 1.693,-0.578 2.639,-0.205 4.009,-0.483 3.401,2.41 3.42,1.034 3.826,5.95 -5.116,2.858 -4.571,11.451 -1.022,15.335 1.187,1.183 2.61,1.887 4.159,2.751 l 3.813,21.564 C 48.486,114.657 42.019,108.044 36.343,100.414 l -4.527,-28.504 5.361,1.876 c 1.649,0.069 2.605,1.021 3.647,2.064 1.037,1.038 4.78,3.901 6.1,4.064 0.149,0.018 0.476,-0.584 0.249,-0.758 z m 10.473,44.979 c 0.542,0.826 0.577,2.262 0.378,3.319 -5.32,-4.322 -10.538,-9.121 -13.995,-15.537 4.653,4.209 8.409,8.689 13.617,12.218 m -4.679,1.456 c -0.105,1.283 0.274,2.132 -0.216,3.29 -4.968,-5.218 -9.298,-10.951 -11.621,-17.897 3.4,5.354 7.02,10.281 11.837,14.607 M -2.17,111.224 c 0.503,0.864 1.736,0.784 2.539,0.685 l 7.478,-0.914 c 8.946,7.63 11.873,20.334 7.15,31.079 -4.827,10.98 -16.013,17.302 -27.854,15.533 -11.042,-1.649 -19.98,-10.384 -21.811,-21.868 -1.318,-8.274 1.041,-16.57 6.806,-22.581 5.481,-5.716 13.423,-8.955 21.557,-7.906 0.212,0.959 -0.002,2.027 0.651,2.717 0.75,0.792 2.021,0.411 2.981,0.517 0.327,0.829 -0.004,1.868 0.503,2.738 M 67.766,1.483 C 65.991,-0.95 63.061,-1.826 60.111,-2.083 52.516,-2.747 44.872,-1.203 37.996,1.889 35.188,3.152 35.447,6.534 34.226,8.862 L 11.411,-5.885 C 10.214,-6.658 8.965,-6.778 7.523,-6.466 l -31.886,6.913 c -0.495,0.108 -0.918,0.38 -1.139,0.552 -0.374,0.29 -0.296,0.922 -0.239,1.806 -4.591,0.503 -8.257,2.106 -12.713,3.803 -3.776,-7.868 -8.995,-13.876 -18.309,-12.461 -0.666,-0.16 -1.615,-1.281 -2.521,-0.845 L -84.041,5.209 c -0.717,0.345 -1.215,0.975 -1.271,1.479 -0.081,0.729 0.193,1.429 0.808,1.909 3.204,2.498 6.25,5.014 8.972,8.032 l -18.965,6.286 c -0.923,0.306 -1.229,1.059 -1.274,1.689 -0.097,1.34 1.45,0.877 2.136,1.513 1.478,1.367 1.293,4.726 0.168,6.315 -0.585,0.828 -2.042,0.636 -2.416,1.573 -0.17,0.426 -0.202,1.193 0.019,1.546 0.179,0.285 0.738,0.56 1.239,0.74 l 13.032,4.676 c -2.762,1.475 -5.91,0.586 -5.971,3.1 -0.023,0.908 0.931,0.748 1.564,1.337 1.915,1.781 1.577,5.525 -0.168,7.38 -0.54,0.575 -1.41,0.453 -1.498,1.163 -0.087,0.706 0.073,1.53 0.886,1.854 l 8.014,3.202 c -3.124,2.303 -4.014,5.566 -4.038,9.051 -0.029,4.22 2.226,7.282 6.7,8.542 -1.554,1.308 -6.552,1.13 -6.663,3.532 -0.109,2.356 2.651,2.029 3.216,3.08 1.155,2.152 0.927,5.566 -1.001,7.116 -0.618,0.497 -1.559,0.351 -1.757,1.102 -0.175,0.662 0.071,1.529 0.869,1.936 3.826,1.949 7.677,3.409 11.661,5.19 l 21.397,9.567 c 0.888,0.397 1.796,0.445 2.693,0.184 l 12.042,-3.501 c 1.76,1.644 3.454,2.497 5.672,3.934 -6.503,5.656 -9.992,13.062 -10.337,21.269 -0.681,16.201 11.017,29.786 27.29,31.164 9.226,0.782 18.317,-3.302 24.192,-10.041 10.015,-11.488 9.948,-29.509 -1.353,-41 7.555,-1.747 13.873,-4.021 19.993,-8.224 2.219,10.048 8.535,19.573 15.854,26.074 0.397,0.353 0.97,0.353 1.277,0.247 0.404,-0.14 0.573,-0.602 0.596,-1.128 l 0.142,-3.312 c 0.868,0.133 3.948,3.32 4.701,2.241 0.72,-1.033 0.192,-2.335 0.275,-3.843 1.036,-0.035 2.888,2.718 4.378,1.451 0.39,-0.331 0.445,-1.226 0.316,-1.952 L 55.314,99.045 c 2.858,-1.25 3.706,-3.825 3.875,-6.823 4.068,0.534 6.135,2.246 9.797,1.514 l 27.62,-5.52 c 0.562,-0.112 0.897,-0.526 1.072,-0.792 1.125,-1.713 -1.461,-0.766 -1.843,-4.331 -0.461,-4.296 3.113,-2.614 2.865,-5.109 -0.13,-1.297 -3.224,-1.422 -4.135,-2.358 -0.831,-1.033 -1.107,-4.466 0.227,-5.056 1.589,-0.704 1.909,-1.362 2.826,-2.542 l 5.109,-1.729 c 1.866,-0.632 0.663,-4.158 -0.047,-6.227 1.573,-0.674 3.231,-0.927 3.981,-2.366 1.6,-3.071 2.509,-6.279 3.824,-9.513 l 7.171,-17.625 c 0.293,-0.72 0.24,-1.771 -0.169,-2.261 -2.028,-2.423 -3.392,1.694 -5.875,-1.953 l 6.315,-2.804 c 0.687,-0.305 1.06,-0.793 1.069,-1.39 0.03,-2.126 -2.996,0.193 -3.194,-5.218 -0.133,-3.619 3.704,-2.255 3.819,-4.873 0.038,-0.866 -0.517,-1.718 -1.538,-2.018 L 90.562,1.97 C 88.637,1.405 87.572,1.352 85.739,2.223 l -17.637,8.383 c -0.371,0.177 -0.734,-0.177 -0.769,-0.347 -0.129,-0.622 3.285,-4.865 0.433,-8.776"
       style="fill:#080c09;fill-opacity:1;fill-rule:nonzero;stroke:none"
       transform="matrix(1.3333333,0,0,-1.3333333,685.7244,1029.9865)"
       clip-path="url(#clipPath2210)"
       id="path2321" />
    <path
       d="M 0,0 C -1.957,1.01 -3.533,1.475 -5.182,2.801 -7.191,1.118 -9.139,0.104 -11.361,-1.038 -7.37,-1.919 -3.582,-1.67 0,0 m 1.202,1.768 c 4.652,-1.091 9.472,6.939 11.02,10.534 -8.418,-0.371 -11.134,1.058 -18.473,3.854 -3.895,-5.774 -9.582,-9.61 -16.341,-11.294 2.244,-2.188 4.47,-3.572 7.042,-4.704 3.509,-0.186 6.676,1.564 9.093,4.013 1.743,1.766 3.192,-1.841 7.659,-2.403 M 12.718,8.821 C 8.274,-0.095 -0.992,-4.806 -10.74,-3.374 c -5.786,0.849 -10.859,3.777 -14.561,8.331 -0.211,0.26 -0.228,0.694 -0.217,0.897 0.07,1.296 10.191,0.811 17.514,11.366 0.854,1.232 1.933,1.416 3.257,0.733 C 5.872,12.474 12.61,15.162 14.24,14.105 15.433,13.332 13.094,9.575 12.718,8.821"
       style="fill:#080c09;fill-opacity:1;fill-rule:nonzero;stroke:none"
       transform="matrix(1.3333333,0,0,-1.3333333,806.38147,891.66773)"
       clip-path="url(#clipPath2211)"
       id="path2322" />
    <path
       d="M 0,0 13.789,10.727 C 5.13,14.813 -0.733,22.256 -3.562,31.413 L -19.116,21.584 C -16.631,12.688 -10.966,5.115 -3.15,0.656 -2.138,0.078 -1.161,-0.485 0,0 M 0.642,-2.172 C -0.125,-2.747 -1.016,-2.604 -1.81,-2.255 -16.983,4.404 -22.62,21.951 -20.552,23.234 l 16.913,10.49 c 0.386,0.24 0.873,0.217 1.128,0.115 1.299,-0.523 2.947,-15.011 17.917,-21.505 0.575,-0.249 1.071,-0.696 1.099,-1.205 0.027,-0.507 -0.26,-1.092 -0.764,-1.513 C 10.811,5.496 5.787,1.684 0.642,-2.172"
       style="fill:#080c09;fill-opacity:1;fill-rule:nonzero;stroke:none"
       transform="matrix(1.3333333,0,0,-1.3333333,591.66453,879.98693)"
       clip-path="url(#clipPath2212)"
       id="path2323" />
    <path
       d="M 0,0 C 0.707,1.13 -6.369,1.543 -7.193,0.478 -6.215,-0.123 -0.566,-0.904 0,0 M 7.186,1.872 C 7.742,1.805 7.925,2.095 7.977,2.207 8.037,2.337 7.879,2.55 7.733,2.844 7.407,3.252 -5.569,5.159 -3.142,3.429 l 0.499,-0.356 z m 4.168,2.422 c 0.483,-0.09 0.699,0.125 0.729,0.334 C 12.134,4.975 11.961,5.325 11.55,5.423 9.755,5.854 -3.235,8.48 -3.114,6.78 -3.094,6.504 -2.784,6.341 -2.302,6.286 2.346,5.755 6.804,5.135 11.354,4.294 m -13.987,5.809 c 0.074,-0.099 0.157,-0.497 0.413,-0.515 4.853,-0.34 9.438,-1.38 14.276,-2.232 0.394,-0.07 0.81,-0.027 0.985,0.215 0.097,0.133 0.05,0.398 -0.083,0.503 -1.483,1.172 -16.777,3.613 -15.591,2.029 m -2.122,3.885 c -0.294,-0.222 0.386,-0.744 0.663,-0.775 5.708,-0.635 11.226,-1.255 16.826,-2.636 0.364,-0.089 0.896,0.091 1.036,0.248 1.312,1.462 -17.148,4.201 -18.525,3.163 m 0.754,5.049 c -9.374,0.63 -5.79,-0.951 -5.519,-0.961 7.917,-0.298 15.597,-1.36 23.307,-3.187 0.53,-0.126 1.131,0.197 0.955,0.512 -1.04,1.862 -15.804,3.439 -18.743,3.636 m 18.77,1.361 c 0.398,-0.09 0.742,0.319 0.762,0.476 0.14,1.119 -10.412,3.325 -10.814,2.148 -0.099,-0.289 0.22,-0.657 0.637,-0.713 3.177,-0.433 6.127,-1.171 9.415,-1.911 m 0.853,4.761 -4.541,1.061 c -8.013,1.87 -5.74,-0.217 -5.282,-0.302 3.213,-0.596 6.312,-1.077 9.502,-1.978 0.491,-0.139 0.957,0.093 0.939,0.499 -0.009,0.192 -0.137,0.608 -0.618,0.72 m 1.109,2.314 c 0.273,-0.05 0.428,0.783 0.216,0.777 1.668,0.046 -11.93,3.5 -11.389,1.649 0.04,-0.137 0.135,-0.422 0.464,-0.481 z m 1.1,4.05 c -1.075,0.98 -2.191,1.015 -3.347,1.276 -12.534,2.838 -7.758,-0.047 -7.71,-0.052 3.113,-0.325 6.033,-0.921 9.072,-1.734 0.713,-0.19 1.519,-0.222 1.985,0.51 M 1.458,22.912 c 0.558,4.055 1.199,7.929 1.298,12.186 -4.344,0.803 -8.55,1.142 -12.957,1.017 -0.834,-4.414 -1.138,-8.637 -1.349,-13.108 4.042,-0.356 7.813,-0.411 11.735,-1.048 0.618,-0.1 1.187,0.331 1.273,0.953 M 0.978,-4.499 c -6.209,0.905 -12.016,0.936 -18.126,0.558 -0.415,-0.025 -0.334,0.848 -0.262,1.047 0.096,0.266 0.433,0.565 0.98,0.588 6.501,0.276 11.073,5.748 10.555,12.199 -0.25,3.111 -1.823,5.845 -4.917,6.732 -1.636,0.458 -3.274,0.234 -4.974,0.317 l 2.033,23.12 c 9.804,-0.069 19.304,-1.098 28.849,-2.962 2.411,-0.471 4.623,-0.902 6.961,-1.797 0.041,-2.438 -0.622,-4.673 -1.01,-7.124 L 17.495,5.61 C 11.327,2.18 7.005,-0.393 0.978,-4.499"
       style="fill:#23966a;fill-opacity:1;fill-rule:nonzero;stroke:none"
       transform="matrix(1.3333333,0,0,-1.3333333,694.65507,946.66947)"
       clip-path="url(#clipPath2224)"
       id="path2335" />
    <path
       d="m 0,0 c -3.721,-8.187 -10.459,-14.665 -16.6,-20.655 l -23.765,11.446 c 7.245,5.907 13.462,11.719 17.512,19.541 0.908,0.354 2.457,1.308 3.539,0.945 L 4.68,3.225 C 3.11,2.28 1.751,2.41 0.53,1.445 l -22.349,7.848 c -0.397,0.139 -0.86,-0.012 -0.98,-0.227 -0.139,-0.248 0.116,-0.885 0.573,-1.068 C -14.991,5.094 -7.809,2.619 0,0"
       style="fill:#23966a;fill-opacity:1;fill-rule:nonzero;stroke:none"
       transform="matrix(1.3333333,0,0,-1.3333333,629.34493,1008.246)"
       clip-path="url(#clipPath2226)"
       id="path2337" />
    <path
       d="m 0,0 -18.851,4.333 c -0.533,0.123 -1.136,-0.112 -1.116,-0.577 0.05,-1.113 17.402,-4.588 19.746,-5.053 C 0.246,-1.39 1.08,-1.023 0.84,-0.667 0.733,-0.506 0.541,-0.124 0,0 m -4.701,-21.253 c -1.345,-0.362 -2.029,0.626 -2.932,1.1 -2.263,1.189 -4.673,1.628 -7.313,2.337 l -7.802,12.484 c -0.815,1.304 -0.803,1.85 -0.253,3.324 1.93,5.171 2.052,10.439 7.482,9.24 L 5.685,2.551 C 4.584,1.499 2.923,1.016 2.434,-0.411 Z"
       style="fill:#23966a;fill-opacity:1;fill-rule:nonzero;stroke:none"
       transform="matrix(1.3333333,0,0,-1.3333333,811.7544,956.002)"
       clip-path="url(#clipPath2229)"
       id="path2340" />
    <path
       d="m 0,0 -9.547,3.208 c -0.555,0.186 -1.138,-0.203 -1.137,-0.623 10e-4,-0.246 0.225,-0.609 0.645,-0.746 L 0.723,-1.671 C 1.179,-0.913 0.708,-0.238 0,0 M 1.607,1.653 C 2.145,1.466 2.559,1.316 2.593,1.068 2.633,0.785 2.842,0.101 2.554,-0.311 0.721,-2.933 0.339,-6.635 -1.222,-9.223 l -9.065,-4.986 -25.837,8.543 c 2.823,1.86 5.834,2.803 8.876,4.178 L -5.281,8.45 C -1.348,7.44 2.3,6.589 6.047,5.1 5.366,3.923 4.731,3.316 3.953,2.481 2.995,2.561 -7.508,7.075 -6.694,4.54 Z"
       style="fill:#23966a;fill-opacity:1;fill-rule:nonzero;stroke:none"
       transform="matrix(1.3333333,0,0,-1.3333333,629.88213,899.71893)"
       clip-path="url(#clipPath2230)"
       id="path2341" />
    <path
       d="M 0,0 9.226,7.17 C 9.543,7.417 8.816,8.311 8.68,7.95 8.611,7.767 8.065,7.998 7.856,7.829 L 0.354,1.738 C -0.163,1.318 -0.926,0.474 0,0 m 0.347,4.291 7.974,6.419 c 0.347,0.28 0.21,0.813 -0.02,0.862 -0.159,0.033 -0.612,0.187 -0.858,-0.011 L 0.667,6.124 C 0.106,5.675 -0.665,4.786 0.347,4.291 M 1.174,8.73 8.238,14.729 C 8.62,15.053 8.632,15.618 8.34,15.701 7.193,16.025 1.43,10.672 0.212,9.524 -0.159,9.174 -0.068,8.719 0.242,8.542 0.431,8.434 0.804,8.417 1.174,8.73 m 0.958,5.828 c 4.01,4.12 7.947,7.799 12.741,10.867 0.725,3.969 1.363,7.69 1.881,11.722 0.069,0.53 -0.953,0.434 -1.264,0.21 C 10.516,33.77 6.191,29.65 2.313,24.957 2.426,23.887 -1.198,11.135 2.132,14.558 M 5.628,0.184 11.02,4.313 C 11.248,4.487 10.92,5.089 10.772,5.071 9.451,4.908 5.709,2.045 4.672,1.007 3.63,-0.036 2.674,-0.989 1.025,-1.057 L -4.336,-2.933 0.191,25.571 C 5.867,33.2 12.334,39.813 20.413,45.302 L 16.6,23.737 C 15.051,22.874 13.628,22.17 12.44,20.986 8.892,17.103 8.347,8.51 13.463,5.652 13.057,0.735 13.038,2.111 9.637,-0.299 8.267,-0.02 7.321,-0.394 5.628,0.184"
       style="fill:#23966a;fill-opacity:1;fill-rule:nonzero;stroke:none"
       transform="matrix(1.3333333,0,0,-1.3333333,733.92733,930.19547)"
       clip-path="url(#clipPath2231)"
       id="path2342" />
    <path
       d="m 0,0 c 2.734,0.345 5.236,0.216 7.893,0.222 0.59,-1.035 0.905,-2.01 1.21,-3.327 l -18.624,-9.167 -31.043,7.814 11.401,5.154 C -19.673,-5.434 -9.916,-5.901 0,0"
       style="fill:#23966a;fill-opacity:1;fill-rule:nonzero;stroke:none"
       transform="matrix(1.3333333,0,0,-1.3333333,711.16827,986.6352)"
       clip-path="url(#clipPath2232)"
       id="path2343" />
    <path
       d="m 0,0 -11.572,5.103 c 4.645,0.799 14.488,1.024 16.343,6.011 0.766,2.058 0.344,3.634 -0.345,6.024 l 14.761,-5.512 c 2.78,-1.038 5.369,-2.09 8.263,-3.444 z"
       style="fill:#23966a;fill-opacity:1;fill-rule:nonzero;stroke:none"
       transform="matrix(1.3333333,0,0,-1.3333333,802.0896,1011.1139)"
       clip-path="url(#clipPath2233)"
       id="path2344" />
    <path
       d="m 0,0 -12.468,3.22 c 1.148,2.517 1.857,4.502 2.223,7.237 2.594,0.113 5.19,2.06 7.755,1.707 L 22.949,7.138 C 14.94,4.627 7.581,2.832 0,0"
       style="fill:#23966a;fill-opacity:1;fill-rule:nonzero;stroke:none"
       transform="matrix(1.3333333,0,0,-1.3333333,778.3504,923.988)"
       clip-path="url(#clipPath2235)"
       id="path2346" />
    <path
       d="m 0,0 -11.036,3.5 c -2.314,0.734 -4.819,-1.188 -6.51,-2.807 l -23.546,7.928 14.203,5.212 c 3.224,1.183 -1.535,-1.345 -1.627,-2.519 -0.037,-0.467 0.277,-1.362 0.997,-1.554 L 3.497,1.484 C 2.363,0.475 1.33,0.265 0,0"
       style="fill:#23966a;fill-opacity:1;fill-rule:nonzero;stroke:none"
       transform="matrix(1.3333333,0,0,-1.3333333,618.32333,994.97467)"
       clip-path="url(#clipPath2239)"
       id="path2350" />
    <path
       d="m 0,0 c 4.732,-1.338 9.717,3.854 11.782,3.317 0.315,-0.081 0.966,-1.014 0.615,-1.165 l -14.234,-6.116 -29.259,6.977 8.389,3.406 z"
       style="fill:#23966a;fill-opacity:1;fill-rule:nonzero;stroke:none"
       transform="matrix(1.3333333,0,0,-1.3333333,616.2804,961.19067)"
       clip-path="url(#clipPath2241)"
       id="path2352" />
    <path
       d="m 0,0 c -0.281,2.432 0.132,4.496 -1.09,6.622 l 11.249,6.94 c 3.404,2.1 6.627,4.112 9.959,6.42 0.76,-2.096 1.261,-3.892 1.499,-5.966 z"
       style="fill:#23966a;fill-opacity:1;fill-rule:nonzero;stroke:none"
       transform="matrix(1.3333333,0,0,-1.3333333,701.51653,1033.6116)"
       clip-path="url(#clipPath2242)"
       id="path2353" />
    <path
       d="m 0,0 -23.005,-9.99 c -0.013,2.393 0.177,4.118 -0.718,6.154 l 20.7,8.666 z"
       style="fill:#23966a;fill-opacity:1;fill-rule:nonzero;stroke:none"
       transform="matrix(1.3333333,0,0,-1.3333333,662.67787,976.27573)"
       clip-path="url(#clipPath2243)"
       id="path2354" />
    <path
       d="m 0,0 c -2.656,-1.651 -6.022,-2.578 -8.762,-3.84 -3.848,1.491 -0.86,4.069 -3.903,9.552 L 5.411,12.329 C 6.298,12.235 6.77,9.843 5.938,9.453 L -2.033,5.722 C -2.488,5.51 -2.753,5.098 -2.757,4.693 -2.775,2.855 0.776,3.578 0,0"
       style="fill:#23966a;fill-opacity:1;fill-rule:nonzero;stroke:none"
       transform="matrix(1.3333333,0,0,-1.3333333,654.22267,999.10707)"
       clip-path="url(#clipPath2245)"
       id="path2356" />
    <path
       d="m 0,0 c -1.394,-2.342 -1.62,-4.42 -1.451,-7.008 l -15.29,7.361 c -0.451,1.882 -0.733,3.712 0.334,5.418 3.268,-3.264 6.939,-1.997 8.911,-2.589 C -4.912,2.407 -2.765,1.051 0,0"
       style="fill:#23966a;fill-opacity:1;fill-rule:nonzero;stroke:none"
       transform="matrix(1.3333333,0,0,-1.3333333,790.02893,1008.6432)"
       clip-path="url(#clipPath2250)"
       id="path2361" />
    <path
       d="M 0,0 C 0.512,-0.84 0.363,-2.329 -0.012,-3.094 L -6.771,-5.911 -33.38,0.841 c 1.495,0.606 3.272,1.846 4.948,1.919 l 16.242,-4.657 c 2.224,-0.638 3.902,-0.485 6.08,0.526 l 3.804,1.765 C -1.733,0.659 -0.434,0.712 0,0"
       style="fill:#23966a;fill-opacity:1;fill-rule:nonzero;stroke:none"
       transform="matrix(1.3333333,0,0,-1.3333333,627.51453,932.98867)"
       clip-path="url(#clipPath2251)"
       id="path2362" />
    <path
       d="m 0,0 -16.144,4.148 c 0.031,1.487 0.368,2.679 0.63,4.126 1.046,0.511 2.09,0.864 3.232,1.265 L 0.279,6.54 C -0.312,4.347 -0.52,2.605 0,0"
       style="fill:#23966a;fill-opacity:1;fill-rule:nonzero;stroke:none"
       transform="matrix(1.3333333,0,0,-1.3333333,776.07107,934.49813)"
       clip-path="url(#clipPath2252)"
       id="path2363" />
    <path
       d="m 0,0 3.307,21.537 c 0.344,2.238 0.875,4.247 0.944,6.522 1.194,0.199 2.022,0.515 3.346,0.444 L 3.416,1.672 C 2.359,0.818 1.349,0.083 0,0"
       style="fill:#23966a;fill-opacity:1;fill-rule:nonzero;stroke:none"
       transform="matrix(1.3333333,0,0,-1.3333333,720.9212,937.4744)"
       clip-path="url(#clipPath2253)"
       id="path2364" />
    <path
       d="M 0,0 C 4.873,-1.23 6.852,2.522 11.327,3.318 L 2.399,-2.431 -28.794,4.228 c 1.026,0.937 2.61,2.383 4.102,2.006 z"
       style="fill:#23966a;fill-opacity:1;fill-rule:nonzero;stroke:none"
       transform="matrix(1.3333333,0,0,-1.3333333,695.1316,1019.1827)"
       clip-path="url(#clipPath2256)"
       id="path2367" />
    <path
       d="m 0,0 -15.682,-7.175 c 0.262,2.65 0.506,4.979 -1.135,7.422 2.47,1.145 4.541,2.154 7.024,3.008 C -7.043,0.77 -3.946,0.045 0,0"
       style="fill:#23966a;fill-opacity:1;fill-rule:nonzero;stroke:none"
       transform="matrix(1.3333333,0,0,-1.3333333,648.30907,964.8972)"
       clip-path="url(#clipPath2257)"
       id="path2368" />
    <path
       d="m 0,0 -10.335,-5.524 c -0.039,2.679 -0.253,4.751 -1.438,6.863 l 9.746,4.838 C -1.035,4.204 -0.855,2.513 0,0"
       style="fill:#23966a;fill-opacity:1;fill-rule:nonzero;stroke:none"
       transform="matrix(1.3333333,0,0,-1.3333333,726.9332,1001.7861)"
       clip-path="url(#clipPath2260)"
       id="path2371" />
    <path
       d="m 0,0 c -1.72,-0.271 -3.112,0.554 -4.102,1.87 -2.951,3.92 -6.806,7.54 -11.534,9.907 L 0.179,7.723 C -0.998,5.088 -1.478,2.791 0,0"
       style="fill:#23966a;fill-opacity:1;fill-rule:nonzero;stroke:none"
       transform="matrix(1.3333333,0,0,-1.3333333,773.79387,947.46693)"
       clip-path="url(#clipPath2261)"
       id="path2372" />
    <path
       d="m 0,0 c 0.564,0.251 0.84,0.273 1.055,-0.081 0.219,-0.359 0.12,-0.832 -0.4,-1.055 L -7.338,-4.562 -34.71,3.201 c -2.819,0.8 -5.006,9.531 -0.485,11.665 -1.372,-3.045 -1.765,-5.442 -0.845,-8.206 0.671,-2.016 1.505,-2.634 3.542,-3.191 l 24.959,-6.831 z"
       style="fill:#23966a;fill-opacity:1;fill-rule:nonzero;stroke:none"
       transform="matrix(1.3333333,0,0,-1.3333333,628.79013,952.61653)"
       clip-path="url(#clipPath2262)"
       id="path2373" />
    <path
       d="m 0,0 c -1.418,-0.604 -2.59,-0.286 -3.623,0.497 3.001,1.587 5.886,2.681 8.95,4.097 l 12.885,5.954 c 0.766,-0.359 1.229,-1.466 1.166,-2.297 z"
       style="fill:#23966a;fill-opacity:1;fill-rule:nonzero;stroke:none"
       transform="matrix(1.3333333,0,0,-1.3333333,631.20853,979.08547)"
       clip-path="url(#clipPath2263)"
       id="path2374" />
    <path
       d="M 0,0 C 0.467,2.758 0.799,5.053 -0.519,7.602 1.413,8.787 3.232,9.507 5.545,10.32 7.014,8.406 7.665,4.719 5.836,2.819 4.393,1.319 2.036,1.09 0,0"
       style="fill:#23966a;fill-opacity:1;fill-rule:nonzero;stroke:none"
       transform="matrix(1.3333333,0,0,-1.3333333,616.67747,979.0704)"
       clip-path="url(#clipPath2264)"
       id="path2375" />
    <path
       d="M 0,0 C -3.635,1.035 -7.025,2.108 -10.685,3.627 L -1.779,6.89 C -0.279,4.931 0.417,2.903 0,0"
       style="fill:#23966a;fill-opacity:1;fill-rule:nonzero;stroke:none"
       transform="matrix(1.3333333,0,0,-1.3333333,637.26187,1001.2153)"
       clip-path="url(#clipPath2268)"
       id="path2379" />
    <path
       d="m 0,0 c -3.637,8.352 -6.338,16.77 -9.397,25.232 l -4.692,-1.052 c 0.357,1.103 1.487,1.2 2.429,1.496 1.796,0.566 2.974,-0.231 3.636,-1.886 L 1.577,-0.181 C 1.765,-0.651 1.181,-0.827 1.02,-0.741 0.728,-0.585 0.263,-0.604 0,0"
       style="fill:#23966a;fill-opacity:1;fill-rule:nonzero;stroke:none"
       transform="matrix(1.3333333,0,0,-1.3333333,837.28307,989.0552)"
       clip-path="url(#clipPath2272)"
       id="path2383" />
    <path
       d="M 0,0 C 2.522,0.98 0.994,4.109 1.567,5.554 3.221,3.578 2.669,0.856 1.692,-1.707 l -32.931,8.97 21.004,-4.92 C -8.665,1.74 -0.572,-0.222 0,0"
       style="fill:#23966a;fill-opacity:1;fill-rule:nonzero;stroke:none"
       transform="matrix(1.3333333,0,0,-1.3333333,625.778,989.17013)"
       clip-path="url(#clipPath2274)"
       id="path2385" />
    <path
       d="M 0,0 25.572,-7.437 25.215,-8.665 -0.357,-1.228 Z"
       style="fill:#23966a;fill-opacity:1;fill-rule:nonzero;stroke:none"
       transform="matrix(1.3333333,0,0,-1.3333333,580.60907,921.7656)"
       clip-path="url(#clipPath2276)"
       id="path2387" />
    <path
       d="m 0,0 c -0.631,-1.15 -2.439,-1.37 -3.517,-1.777 0.13,2.548 0.314,4.671 -0.719,6.996 1.241,0.74 2.211,1.362 3.81,1.809 C 0.599,5.087 1.222,2.228 0,0"
       style="fill:#23966a;fill-opacity:1;fill-rule:nonzero;stroke:none"
       transform="matrix(1.3333333,0,0,-1.3333333,706.26453,1012.34)"
       clip-path="url(#clipPath2277)"
       id="path2388" />
    <path
       d="m 0,0 0.305,-1.059 -28.116,-8.084 -0.304,1.059 z"
       style="fill:#23966a;fill-opacity:1;fill-rule:nonzero;stroke:none"
       transform="matrix(1.3333333,0,0,-1.3333333,840.6052,1012.8112)"
       clip-path="url(#clipPath2278)"
       id="path2389" />
    <path
       d="m 0,0 c -1.148,0.462 -3.019,0.672 -3.749,1.814 -1.3,2.034 -0.377,4.95 0.602,7.015 C -1.788,8.709 -0.861,8.061 0.304,7.375 -0.585,4.883 -0.895,2.721 0,0"
       style="fill:#23966a;fill-opacity:1;fill-rule:nonzero;stroke:none"
       transform="matrix(1.3333333,0,0,-1.3333333,799.45013,1023.0571)"
       clip-path="url(#clipPath2279)"
       id="path2390" />
    <path
       d="m 0,0 c -5.376,-2.348 -7.418,-3.691 -13.042,-1.36 2.703,1.189 5.464,2.126 8.345,2.563 C -3.183,1.428 -1.402,0.358 0,0"
       style="fill:#23966a;fill-opacity:1;fill-rule:nonzero;stroke:none"
       transform="matrix(1.3333333,0,0,-1.3333333,816.78413,942.92173)"
       clip-path="url(#clipPath2280)"
       id="path2391" />
    <path
       d="M 0,0 C 0.877,2.899 0.835,5.415 -0.529,7.904 0.085,8.531 0.87,8.788 1.705,9.215 3.73,7.605 3.917,-0.915 0,0"
       style="fill:#23966a;fill-opacity:1;fill-rule:nonzero;stroke:none"
       transform="matrix(1.3333333,0,0,-1.3333333,618.70547,931.33867)"
       clip-path="url(#clipPath2281)"
       id="path2392" />
    <path
       d="m 0,0 c -0.405,3.134 0.338,5.744 -1.37,8.403 1.189,0.72 1.832,1.246 3.312,1.452 z"
       style="fill:#23966a;fill-opacity:1;fill-rule:nonzero;stroke:none"
       transform="matrix(1.3333333,0,0,-1.3333333,624.8592,929.39853)"
       clip-path="url(#clipPath2283)"
       id="path2394" />
    <path
       d="M 0,0 C 1.785,0.552 2.473,-6.027 0.953,-7.312 -0.533,-8.568 1.062,-5.187 -0.798,-0.92 -1.024,-0.402 -0.302,-0.094 0,0"
       style="fill:#23966a;fill-opacity:1;fill-rule:nonzero;stroke:none"
       transform="matrix(1.3333333,0,0,-1.3333333,708.71107,1001.2551)"
       clip-path="url(#clipPath2284)"
       id="path2395" />
    <path
       d="M 0,0 C -0.096,-0.151 -4.636,-0.429 -5.039,2.659 -2.917,2.19 -1.142,2.077 0.86,2.887 0.784,1.763 0.531,0.839 0,0"
       style="fill:#23966a;fill-opacity:1;fill-rule:nonzero;stroke:none"
       transform="matrix(1.3333333,0,0,-1.3333333,779.44467,953.73627)"
       clip-path="url(#clipPath2287)"
       id="path2398" />
    <path
       d="m 0,0 c -0.871,-0.358 -1.233,0.384 -1.494,1.049 -0.44,1.355 0.192,6.053 1.593,6.03 C 2.524,7.04 -0.892,4.055 0,0"
       style="fill:#23966a;fill-opacity:1;fill-rule:nonzero;stroke:none"
       transform="matrix(1.3333333,0,0,-1.3333333,791.96987,1019.3093)"
       clip-path="url(#clipPath2288)"
       id="path2399" />
    <path
       d="M 0,0 C -1.099,-1.844 -0.594,-3.623 -1.138,-5.628 -3.174,-3.811 -2.643,-0.8 -1.316,1.056 -0.922,1.607 0.361,0.606 0,0"
       style="fill:#23966a;fill-opacity:1;fill-rule:nonzero;stroke:none"
       transform="matrix(1.3333333,0,0,-1.3333333,766.64693,999.66053)"
       clip-path="url(#clipPath2289)"
       id="path2400" />
    <path
       d="m 0,0 -1.643,-4.182 c -0.517,1.466 -1.449,3.053 -1.08,4.9 C -2.342,1.33 -0.665,0.745 0,0"
       style="fill:#23966a;fill-opacity:1;fill-rule:nonzero;stroke:none"
       transform="matrix(1.3333333,0,0,-1.3333333,763.0836,997.14587)"
       clip-path="url(#clipPath2290)"
       id="path2401" />
    <path
       d="M 0,0 C -1.993,-0.417 -3.356,0.662 -5.013,1.068 -3.248,1.367 -1.607,0.985 0,0"
       style="fill:#23966a;fill-opacity:1;fill-rule:nonzero;stroke:none"
       transform="matrix(1.3333333,0,0,-1.3333333,595.87467,979.74987)"
       clip-path="url(#clipPath2292)"
       id="path2403" />
    <path
       d="m 0,0 c -4.467,0.562 -5.916,4.169 -7.659,2.403 -2.417,-2.449 -5.584,-4.199 -9.094,-4.013 -2.571,1.132 -4.797,2.516 -7.041,4.704 6.758,1.684 12.446,5.52 16.341,11.294 C -0.114,11.592 2.602,10.163 11.02,10.534 9.472,6.939 4.651,-1.091 0,0"
       style="fill:#23966a;fill-opacity:1;fill-rule:nonzero;stroke:none"
       transform="matrix(1.3333333,0,0,-1.3333333,807.98427,889.3104)"
       clip-path="url(#clipPath2295)"
       id="path2406" />
    <path
       d="m 0,0 c -3.582,-1.67 -7.37,-1.919 -11.361,-1.038 2.222,1.142 4.17,2.156 6.179,3.839 C -3.533,1.475 -1.957,1.01 0,0"
       style="fill:#23966a;fill-opacity:1;fill-rule:nonzero;stroke:none"
       transform="matrix(1.3333333,0,0,-1.3333333,806.38147,891.66773)"
       clip-path="url(#clipPath2296)"
       id="path2407" />
    <path
       d="m 0,0 c -1.161,-0.485 -2.138,0.078 -3.15,0.656 -7.816,4.459 -13.481,12.032 -15.966,20.928 l 15.554,9.829 c 2.829,-9.157 8.692,-16.6 17.351,-20.686 z"
       style="fill:#23966a;fill-opacity:1;fill-rule:nonzero;stroke:none"
       transform="matrix(1.3333333,0,0,-1.3333333,591.66453,879.98693)"
       clip-path="url(#clipPath2297)"
       id="path2408" />
    <path
       d="m 0,0 c 0.559,0.672 1.565,0.593 1.94,0.289 2.16,-1.751 -4.277,-8.337 -12.966,-7.9 -8.393,0.423 -14.063,7.779 -12.22,9.31 2.22,1.842 1.857,-2.87 8.673,-5.519 C -9.394,-5.834 -3.606,-4.337 0,0"
       style="fill:#080c09;fill-opacity:1;fill-rule:nonzero;stroke:none"
       transform="matrix(1.3333333,0,0,-1.3333333,692.26747,867.866)"
       clip-path="url(#clipPath2298)"
       id="path2409" />
    <path
       d="m 0,0 c 0,-1.706 -1.383,-3.09 -3.09,-3.09 -1.706,0 -3.089,1.384 -3.089,3.09 0,1.706 1.383,3.09 3.089,3.09 C -1.383,3.09 0,1.706 0,0"
       style="fill:#080c09;fill-opacity:1;fill-rule:nonzero;stroke:none"
       transform="matrix(1.3333333,0,0,-1.3333333,671.94053,851.26853)"
       clip-path="url(#clipPath2299)"
       id="path2410" />
    <path
       d="M 0,0 C -2.025,0.092 -2.935,1.814 -2.873,3.302 -2.8,5.063 -1.471,6.509 0.468,6.287 2.161,6.093 3.173,4.54 3.039,2.987 2.92,1.601 1.89,-0.086 0,0"
       style="fill:#080c09;fill-opacity:1;fill-rule:nonzero;stroke:none"
       transform="matrix(1.3333333,0,0,-1.3333333,694.17947,857.05373)"
       clip-path="url(#clipPath2300)"
       id="path2411" />
    <path
       d="m 0,0 1.274,10.254 c -3.613,0.589 -6.999,1.015 -10.653,0.936 L -10.293,0.667 C -6.636,0.77 -3.568,0.134 0,0 M 1.225,-0.679 C 1.139,-1.301 0.57,-1.733 -0.048,-1.632 c -3.922,0.637 -7.693,0.692 -11.735,1.047 0.211,4.472 0.515,8.695 1.349,13.108 4.408,0.126 8.613,-0.213 12.957,-1.016 C 2.424,7.25 1.783,3.376 1.225,-0.679"
       style="fill:#080c09;fill-opacity:1;fill-rule:nonzero;stroke:none"
       transform="matrix(1.3333333,0,0,-1.3333333,694.9656,915.21427)"
       clip-path="url(#clipPath2301)"
       id="path2412" />
    <path
       d="m 0,0 c 2.939,-0.198 17.703,-1.774 18.743,-3.636 0.176,-0.315 -0.425,-0.638 -0.955,-0.512 -7.71,1.827 -15.39,2.889 -23.307,3.187 C -5.79,-0.951 -9.374,0.63 0,0"
       style="fill:#080c09;fill-opacity:1;fill-rule:nonzero;stroke:none"
       transform="matrix(1.3333333,0,0,-1.3333333,689.32027,921.28667)"
       clip-path="url(#clipPath2302)"
       id="path2413" />
    <path
       d="M 0,0 C 1.377,1.038 19.836,-1.701 18.525,-3.163 18.384,-3.319 17.852,-3.5 17.489,-3.411 11.888,-2.03 6.37,-1.41 0.663,-0.775 0.385,-0.744 -0.295,-0.222 0,0"
       style="fill:#080c09;fill-opacity:1;fill-rule:nonzero;stroke:none"
       transform="matrix(1.3333333,0,0,-1.3333333,688.3156,928.01907)"
       clip-path="url(#clipPath2303)"
       id="path2414" />
    <path
       d="m 0,0 c -1.185,1.584 14.109,-0.857 15.591,-2.029 0.133,-0.105 0.18,-0.37 0.084,-0.503 C 15.499,-2.774 15.084,-2.817 14.689,-2.747 9.852,-1.895 5.266,-0.855 0.413,-0.515 0.158,-0.497 0.074,-0.099 0,0"
       style="fill:#080c09;fill-opacity:1;fill-rule:nonzero;stroke:none"
       transform="matrix(1.3333333,0,0,-1.3333333,691.14373,933.19867)"
       clip-path="url(#clipPath2304)"
       id="path2415" />
    <path
       d="M 0,0 C -4.55,0.841 -9.008,1.462 -13.656,1.992 -14.138,2.047 -14.448,2.21 -14.468,2.486 -14.589,4.186 -1.599,1.56 0.196,1.13 0.607,1.031 0.78,0.681 0.729,0.334 0.699,0.126 0.483,-0.089 0,0"
       style="fill:#080c09;fill-opacity:1;fill-rule:nonzero;stroke:none"
       transform="matrix(1.3333333,0,0,-1.3333333,709.79373,940.94467)"
       clip-path="url(#clipPath2305)"
       id="path2416" />
    <path
       d="m 0,0 c -0.466,-0.733 -1.272,-0.701 -1.985,-0.51 -3.039,0.812 -5.959,1.409 -9.072,1.733 -0.048,0.005 -4.824,2.89 7.71,0.053 C -2.191,1.014 -1.076,0.98 0,0"
       style="fill:#080c09;fill-opacity:1;fill-rule:nonzero;stroke:none"
       transform="matrix(1.3333333,0,0,-1.3333333,718.42973,904.63813)"
       clip-path="url(#clipPath2306)"
       id="path2417" />
    <path
       d="m 0,0 -10.71,1.945 c -0.328,0.059 -0.423,0.344 -0.464,0.482 C -11.715,4.278 1.884,0.824 0.216,0.777 0.428,0.783 0.273,-0.05 0,0"
       style="fill:#080c09;fill-opacity:1;fill-rule:nonzero;stroke:none"
       transform="matrix(1.3333333,0,0,-1.3333333,716.96333,910.0392)"
       clip-path="url(#clipPath2307)"
       id="path2418" />
    <path
       d="M 0,0 C -3.287,0.74 -6.238,1.478 -9.415,1.911 -9.831,1.967 -10.151,2.335 -10.052,2.624 -9.65,3.801 0.902,1.595 0.762,0.476 0.743,0.319 0.398,-0.09 0,0"
       style="fill:#080c09;fill-opacity:1;fill-rule:nonzero;stroke:none"
       transform="matrix(1.3333333,0,0,-1.3333333,714.34653,919.47213)"
       clip-path="url(#clipPath2308)"
       id="path2419" />
    <path
       d="m 0,0 c 0.481,-0.112 0.609,-0.528 0.617,-0.72 0.019,-0.406 -0.447,-0.638 -0.939,-0.5 -3.189,0.901 -6.288,1.382 -9.502,1.978 -0.458,0.085 -2.73,2.173 5.282,0.302 z"
       style="fill:#080c09;fill-opacity:1;fill-rule:nonzero;stroke:none"
       transform="matrix(1.3333333,0,0,-1.3333333,715.48507,913.1236)"
       clip-path="url(#clipPath2309)"
       id="path2420" />
    <path
       d="m 0,0 -9.829,1.2 -0.5,0.356 C -12.755,3.286 0.221,1.38 0.546,0.971 0.693,0.678 0.851,0.465 0.791,0.335 0.739,0.222 0.556,-0.068 0,0"
       style="fill:#080c09;fill-opacity:1;fill-rule:nonzero;stroke:none"
       transform="matrix(1.3333333,0,0,-1.3333333,704.23667,944.17293)"
       clip-path="url(#clipPath2310)"
       id="path2421" />
    <path
       d="M 0,0 C -0.566,-0.904 -6.215,-0.123 -7.193,0.478 -6.369,1.543 0.707,1.13 0,0"
       style="fill:#080c09;fill-opacity:1;fill-rule:nonzero;stroke:none"
       transform="matrix(1.3333333,0,0,-1.3333333,694.65507,946.66947)"
       clip-path="url(#clipPath2311)"
       id="path2422" />
    <path
       d="m 0,0 c 0.541,-0.124 0.733,-0.506 0.84,-0.667 0.24,-0.356 -0.594,-0.723 -1.061,-0.63 -2.344,0.465 -19.696,3.94 -19.746,5.053 -0.02,0.465 0.583,0.7 1.116,0.577 z"
       style="fill:#080c09;fill-opacity:1;fill-rule:nonzero;stroke:none"
       transform="matrix(1.3333333,0,0,-1.3333333,811.7544,956.002)"
       clip-path="url(#clipPath2312)"
       id="path2423" />
    <path
       d="m 0,0 c 0.708,-0.238 1.179,-0.913 0.723,-1.671 l -10.762,3.51 c -0.42,0.137 -0.644,0.5 -0.645,0.746 -0.001,0.42 0.582,0.809 1.137,0.623 z"
       style="fill:#080c09;fill-opacity:1;fill-rule:nonzero;stroke:none"
       transform="matrix(1.3333333,0,0,-1.3333333,629.88213,899.71893)"
       clip-path="url(#clipPath2313)"
       id="path2424" />
    <path
       d="m 0,0 c 3.684,3.351 6.829,6.669 11.125,9.167 l 1.091,8.582 C 7.965,14.484 4.479,10.991 1.143,7.191 0.359,5.067 0.293,2.533 0,0 m -0.395,-2.6 c -3.33,-3.423 0.293,9.329 0.181,10.399 3.878,4.693 8.203,8.813 13.177,12.4 0.311,0.224 1.332,0.32 1.264,-0.21 C 13.709,15.957 13.07,12.236 12.346,8.267 7.552,5.199 3.614,1.521 -0.395,-2.6"
       style="fill:#080c09;fill-opacity:1;fill-rule:nonzero;stroke:none"
       transform="matrix(1.3333333,0,0,-1.3333333,737.2972,907.31813)"
       clip-path="url(#clipPath2314)"
       id="path2425" />
    <path
       d="M 0,0 C -0.926,0.474 -0.163,1.318 0.354,1.738 L 7.856,7.829 C 8.065,7.998 8.611,7.767 8.68,7.95 8.816,8.311 9.543,7.417 9.226,7.17 Z"
       style="fill:#080c09;fill-opacity:1;fill-rule:nonzero;stroke:none"
       transform="matrix(1.3333333,0,0,-1.3333333,733.92733,930.19547)"
       clip-path="url(#clipPath2315)"
       id="path2426" />
    <path
       d="M 0,0 C -0.37,-0.314 -0.743,-0.296 -0.932,-0.188 -1.241,-0.011 -1.333,0.443 -0.962,0.793 0.256,1.941 6.019,7.294 7.166,6.97 7.458,6.888 7.446,6.323 7.065,5.998 Z"
       style="fill:#080c09;fill-opacity:1;fill-rule:nonzero;stroke:none"
       transform="matrix(1.3333333,0,0,-1.3333333,735.49227,918.5548)"
       clip-path="url(#clipPath2316)"
       id="path2427" />
    <path
       d="m 0,0 c -1.012,0.496 -0.241,1.384 0.32,1.834 l 6.775,5.437 c 0.246,0.197 0.7,0.044 0.859,0.01 0.23,-0.049 0.367,-0.582 0.02,-0.862 z"
       style="fill:#080c09;fill-opacity:1;fill-rule:nonzero;stroke:none"
       transform="matrix(1.3333333,0,0,-1.3333333,734.39,924.4748)"
       clip-path="url(#clipPath2317)"
       id="path2428" />
    <path
       d="m 0,0 c -3.568,0.134 -6.636,0.77 -10.293,0.667 l 0.914,10.523 c 3.654,0.079 7.04,-0.347 10.653,-0.936 z"
       style="fill:#23966a;fill-opacity:1;fill-rule:nonzero;stroke:none"
       transform="matrix(1.3333333,0,0,-1.3333333,694.9656,915.21427)"
       clip-path="url(#clipPath2318)"
       id="path2429" />
    <path
       d="m 0,0 c 0.293,2.533 0.359,5.067 1.143,7.191 3.336,3.8 6.822,7.293 11.073,10.558 L 11.125,9.167 C 6.829,6.669 3.684,3.351 0,0"
       style="fill:#23966a;fill-opacity:1;fill-rule:nonzero;stroke:none"
       transform="matrix(1.3333333,0,0,-1.3333333,737.2972,907.31813)"
       clip-path="url(#clipPath2319)"
       id="path2430" />
  </g>
</svg>
