<?xml version="1.0" encoding="UTF-8" standalone="no"?>
<!-- Created with Inkscape (http://www.inkscape.org/) -->

<svg
   width="134.55385mm"
   height="116.03146mm"
   viewBox="0 0 134.55383 116.03146"
   version="1.1"
   id="svg1"
   xmlns="http://www.w3.org/2000/svg"
   xmlns:svg="http://www.w3.org/2000/svg">
  <defs
     id="defs1">
    <clipPath
       clipPathUnits="userSpaceOnUse"
       id="clipPath140">
      <path
         d="M 0,1080 H 1920 V 0 H 0 Z"
         transform="matrix(1.3333333,0,0,-1.3333333,0,1440)"
         id="path140" />
    </clipPath>
    <clipPath
       clipPathUnits="userSpaceOnUse"
       id="clipPath63">
      <path
         d="M 147.058,1009.6 H 822.602 V 608.689 H 147.058 Z"
         transform="translate(-581.84971,-643.21252)"
         id="path63" />
    </clipPath>
    <clipPath
       clipPathUnits="userSpaceOnUse"
       id="clipPath64">
      <path
         d="M 147.058,1009.6 H 822.602 V 608.689 H 147.058 Z"
         transform="translate(-554.00401,-881.64112)"
         id="path64" />
    </clipPath>
    <clipPath
       clipPathUnits="userSpaceOnUse"
       id="clipPath65">
      <path
         d="M 147.058,1009.6 H 822.602 V 608.689 H 147.058 Z"
         transform="translate(-659.85941,-842.47442)"
         id="path65" />
    </clipPath>
    <clipPath
       clipPathUnits="userSpaceOnUse"
       id="clipPath66">
      <path
         d="M 147.058,1009.6 H 822.602 V 608.689 H 147.058 Z"
         transform="translate(-663.88931,-812.76862)"
         id="path66" />
    </clipPath>
    <clipPath
       clipPathUnits="userSpaceOnUse"
       id="clipPath67">
      <path
         d="M 147.058,1009.6 H 822.602 V 608.689 H 147.058 Z"
         transform="translate(-672.73282,-780.20562)"
         id="path67" />
    </clipPath>
    <clipPath
       clipPathUnits="userSpaceOnUse"
       id="clipPath68">
      <path
         d="M 147.058,1009.6 H 822.602 V 608.689 H 147.058 Z"
         transform="translate(-633.31961,-846.80912)"
         id="path68" />
    </clipPath>
    <clipPath
       clipPathUnits="userSpaceOnUse"
       id="clipPath69">
      <path
         d="M 147.058,1009.6 H 822.602 V 608.689 H 147.058 Z"
         transform="translate(-456.15221,-908.29382)"
         id="path69" />
    </clipPath>
    <clipPath
       clipPathUnits="userSpaceOnUse"
       id="clipPath70">
      <path
         d="M 147.058,1009.6 H 822.602 V 608.689 H 147.058 Z"
         transform="translate(-484.32901,-900.17292)"
         id="path70" />
    </clipPath>
    <clipPath
       clipPathUnits="userSpaceOnUse"
       id="clipPath73">
      <path
         d="M 147.058,1009.6 H 822.602 V 608.689 H 147.058 Z"
         transform="translate(-591.87922,-662.52232)"
         id="path73" />
    </clipPath>
    <clipPath
       clipPathUnits="userSpaceOnUse"
       id="clipPath74">
      <path
         d="M 147.058,1009.6 H 822.602 V 608.689 H 147.058 Z"
         transform="translate(-581.12951,-697.04711)"
         id="path74" />
    </clipPath>
    <clipPath
       clipPathUnits="userSpaceOnUse"
       id="clipPath76">
      <path
         d="M 147.058,1009.6 H 822.602 V 608.689 H 147.058 Z"
         transform="translate(-587.79751,-810.34062)"
         id="path76" />
    </clipPath>
    <clipPath
       clipPathUnits="userSpaceOnUse"
       id="clipPath78">
      <path
         d="M 147.058,1009.6 H 822.602 V 608.689 H 147.058 Z"
         transform="translate(-581.84971,-643.21252)"
         id="path78" />
    </clipPath>
    <clipPath
       clipPathUnits="userSpaceOnUse"
       id="clipPath79">
      <path
         d="M 147.058,1009.6 H 822.602 V 608.689 H 147.058 Z"
         transform="translate(-493.40261,-659.01221)"
         id="path79" />
    </clipPath>
    <clipPath
       clipPathUnits="userSpaceOnUse"
       id="clipPath80">
      <path
         d="M 147.058,1009.6 H 822.602 V 608.689 H 147.058 Z"
         transform="translate(-591.79091,-654.55631)"
         id="path80" />
    </clipPath>
    <clipPath
       clipPathUnits="userSpaceOnUse"
       id="clipPath81">
      <path
         d="M 147.058,1009.6 H 822.602 V 608.689 H 147.058 Z"
         transform="translate(-617.28881,-668.65192)"
         id="path81" />
    </clipPath>
    <clipPath
       clipPathUnits="userSpaceOnUse"
       id="clipPath82">
      <path
         d="M 147.058,1009.6 H 822.602 V 608.689 H 147.058 Z"
         transform="translate(-502.18301,-665.52461)"
         id="path82" />
    </clipPath>
    <clipPath
       clipPathUnits="userSpaceOnUse"
       id="clipPath84">
      <path
         d="M 147.058,1009.6 H 822.602 V 608.689 H 147.058 Z"
         transform="translate(-576.32011,-698.44012)"
         id="path84" />
    </clipPath>
    <clipPath
       clipPathUnits="userSpaceOnUse"
       id="clipPath85">
      <path
         d="M 147.058,1009.6 H 822.602 V 608.689 H 147.058 Z"
         transform="translate(-621.71912,-930.09422)"
         id="path85" />
    </clipPath>
    <clipPath
       clipPathUnits="userSpaceOnUse"
       id="clipPath86">
      <path
         d="M 147.058,1009.6 H 822.602 V 608.689 H 147.058 Z"
         transform="translate(-585.22691,-896.13972)"
         id="path86" />
    </clipPath>
    <clipPath
       clipPathUnits="userSpaceOnUse"
       id="clipPath87">
      <path
         d="M 147.058,1009.6 H 822.602 V 608.689 H 147.058 Z"
         transform="translate(-605.41382,-913.16562)"
         id="path87" />
    </clipPath>
    <clipPath
       clipPathUnits="userSpaceOnUse"
       id="clipPath88">
      <path
         d="M 147.058,1009.6 H 822.602 V 608.689 H 147.058 Z"
         transform="translate(-570.20401,-912.95513)"
         id="path88" />
    </clipPath>
    <clipPath
       clipPathUnits="userSpaceOnUse"
       id="clipPath89">
      <path
         d="M 147.058,1009.6 H 822.602 V 608.689 H 147.058 Z"
         transform="translate(-553.78162,-932.59373)"
         id="path89" />
    </clipPath>
    <clipPath
       clipPathUnits="userSpaceOnUse"
       id="clipPath90">
      <path
         d="M 147.058,1009.6 H 822.602 V 608.689 H 147.058 Z"
         transform="translate(-603.58462,-899.69922)"
         id="path90" />
    </clipPath>
    <clipPath
       clipPathUnits="userSpaceOnUse"
       id="clipPath91">
      <path
         d="M 147.058,1009.6 H 822.602 V 608.689 H 147.058 Z"
         transform="translate(-588.75052,-916.82012)"
         id="path91" />
    </clipPath>
    <clipPath
       clipPathUnits="userSpaceOnUse"
       id="clipPath92">
      <path
         d="M 147.058,1009.6 H 822.602 V 608.689 H 147.058 Z"
         transform="translate(-568.06061,-933.20342)"
         id="path92" />
    </clipPath>
    <clipPath
       clipPathUnits="userSpaceOnUse"
       id="clipPath93">
      <path
         d="M 147.058,1009.6 H 822.602 V 608.689 H 147.058 Z"
         transform="translate(-545.70151,-743.74722)"
         id="path93" />
    </clipPath>
    <clipPath
       clipPathUnits="userSpaceOnUse"
       id="clipPath94">
      <path
         d="M 147.058,1009.6 H 822.602 V 608.689 H 147.058 Z"
         transform="translate(-576.66121,-757.01302)"
         id="path94" />
    </clipPath>
    <clipPath
       clipPathUnits="userSpaceOnUse"
       id="clipPath95">
      <path
         d="M 147.058,1009.6 H 822.602 V 608.689 H 147.058 Z"
         transform="translate(-576.32011,-698.44012)"
         id="path95" />
    </clipPath>
    <clipPath
       clipPathUnits="userSpaceOnUse"
       id="clipPath96">
      <path
         d="M 147.058,1009.6 H 822.602 V 608.689 H 147.058 Z"
         transform="translate(-530.35891,-731.39402)"
         id="path96" />
    </clipPath>
    <clipPath
       clipPathUnits="userSpaceOnUse"
       id="clipPath97">
      <path
         d="M 147.058,1009.6 H 822.602 V 608.689 H 147.058 Z"
         transform="translate(-521.12231,-721.87412)"
         id="path97" />
    </clipPath>
    <clipPath
       clipPathUnits="userSpaceOnUse"
       id="clipPath98">
      <path
         d="M 147.058,1009.6 H 822.602 V 608.689 H 147.058 Z"
         transform="translate(-525.53231,-736.87572)"
         id="path98" />
    </clipPath>
    <clipPath
       clipPathUnits="userSpaceOnUse"
       id="clipPath99">
      <path
         d="M 147.058,1009.6 H 822.602 V 608.689 H 147.058 Z"
         transform="translate(-521.12231,-721.87412)"
         id="path99" />
    </clipPath>
    <clipPath
       clipPathUnits="userSpaceOnUse"
       id="clipPath100">
      <path
         d="M 147.058,1009.6 H 822.602 V 608.689 H 147.058 Z"
         transform="translate(-525.53231,-736.87572)"
         id="path100" />
    </clipPath>
    <clipPath
       clipPathUnits="userSpaceOnUse"
       id="clipPath183">
      <path
         d="M 0,1080 H 1920 V 0 H 0 Z"
         transform="matrix(1.3333333,0,0,-1.3333333,0,1440)"
         id="path183" />
    </clipPath>
    <clipPath
       clipPathUnits="userSpaceOnUse"
       id="clipPath142">
      <path
         d="M 26.406,587.919 H 556.067 V 273.585 H 26.406 Z"
         transform="translate(-293.50231,-318.02813)"
         id="path142" />
    </clipPath>
    <clipPath
       clipPathUnits="userSpaceOnUse"
       id="clipPath143">
      <path
         d="M 26.406,587.919 H 556.067 V 273.585 H 26.406 Z"
         transform="translate(-257.59251,-273.58501)"
         id="path143" />
    </clipPath>
    <clipPath
       clipPathUnits="userSpaceOnUse"
       id="clipPath144">
      <path
         d="M 26.406,587.919 H 556.067 V 273.585 H 26.406 Z"
         transform="translate(-206.6545,-316.38511)"
         id="path144" />
    </clipPath>
    <clipPath
       clipPathUnits="userSpaceOnUse"
       id="clipPath145">
      <path
         d="M 26.406,587.919 H 556.067 V 273.585 H 26.406 Z"
         transform="translate(-297.1555,-477.71551)"
         id="path145" />
    </clipPath>
    <clipPath
       clipPathUnits="userSpaceOnUse"
       id="clipPath146">
      <path
         d="M 26.406,587.919 H 556.067 V 273.585 H 26.406 Z"
         transform="translate(-192.1899,-375.89681)"
         id="path146" />
    </clipPath>
    <clipPath
       clipPathUnits="userSpaceOnUse"
       id="clipPath147">
      <path
         d="M 26.406,587.919 H 556.067 V 273.585 H 26.406 Z"
         transform="translate(-210.89481,-440.13341)"
         id="path147" />
    </clipPath>
    <clipPath
       clipPathUnits="userSpaceOnUse"
       id="clipPath148">
      <path
         d="M 26.406,587.919 H 556.067 V 273.585 H 26.406 Z"
         transform="translate(-208.72891,-412.19141)"
         id="path148" />
    </clipPath>
    <clipPath
       clipPathUnits="userSpaceOnUse"
       id="clipPath149">
      <path
         d="M 26.406,587.919 H 556.067 V 273.585 H 26.406 Z"
         transform="translate(-213.65781,-359.83681)"
         id="path149" />
    </clipPath>
    <clipPath
       clipPathUnits="userSpaceOnUse"
       id="clipPath150">
      <path
         d="M 26.406,587.919 H 556.067 V 273.585 H 26.406 Z"
         transform="translate(-240.4702,-330.51231)"
         id="path150" />
    </clipPath>
    <clipPath
       clipPathUnits="userSpaceOnUse"
       id="clipPath151">
      <path
         d="M 26.406,587.919 H 556.067 V 273.585 H 26.406 Z"
         transform="translate(-281.16751,-511.34362)"
         id="path151" />
    </clipPath>
    <clipPath
       clipPathUnits="userSpaceOnUse"
       id="clipPath152">
      <path
         d="M 26.406,587.919 H 556.067 V 273.585 H 26.406 Z"
         transform="translate(-306.08471,-513.41032)"
         id="path152" />
    </clipPath>
    <clipPath
       clipPathUnits="userSpaceOnUse"
       id="clipPath154">
      <path
         d="M 26.406,587.919 H 556.067 V 273.585 H 26.406 Z"
         transform="translate(-255.18391,-354.37441)"
         id="path154" />
    </clipPath>
    <clipPath
       clipPathUnits="userSpaceOnUse"
       id="clipPath157">
      <path
         d="M 26.406,587.919 H 556.067 V 273.585 H 26.406 Z"
         transform="translate(-265.8598,-464.59491)"
         id="path157" />
    </clipPath>
    <clipPath
       clipPathUnits="userSpaceOnUse"
       id="clipPath1606">
      <path
         d="M 0,1080 H 1920 V 0 H 0 Z"
         transform="matrix(1.3333333,0,0,-1.3333333,0,1440)"
         id="path1606" />
    </clipPath>
    <clipPath
       clipPathUnits="userSpaceOnUse"
       id="clipPath1543">
      <path
         d="M 46.9879,569.636 H 393.737 V 36.1759 H 46.9879 Z"
         transform="translate(-304.84891,-113.22083)"
         id="path1543" />
    </clipPath>
    <clipPath
       clipPathUnits="userSpaceOnUse"
       id="clipPath1544">
      <path
         d="M 46.9879,569.636 H 393.737 V 36.1759 H 46.9879 Z"
         transform="translate(-127.083,-314.62838)"
         id="path1544" />
    </clipPath>
    <clipPath
       clipPathUnits="userSpaceOnUse"
       id="clipPath1546">
      <path
         d="M 46.9879,569.636 H 393.737 V 36.1759 H 46.9879 Z"
         transform="translate(-218.7298,-405.32361)"
         id="path1546" />
    </clipPath>
    <clipPath
       clipPathUnits="userSpaceOnUse"
       id="clipPath1552">
      <path
         d="M 46.9879,569.636 H 393.737 V 36.1759 H 46.9879 Z"
         transform="translate(-197.98701,-264.40651)"
         id="path1552" />
    </clipPath>
    <clipPath
       clipPathUnits="userSpaceOnUse"
       id="clipPath1553">
      <path
         d="M 46.9879,569.636 H 393.737 V 36.1759 H 46.9879 Z"
         transform="translate(-241.65031,-261.18443)"
         id="path1553" />
    </clipPath>
    <clipPath
       clipPathUnits="userSpaceOnUse"
       id="clipPath1554">
      <path
         d="M 46.9879,569.636 H 393.737 V 36.1759 H 46.9879 Z"
         transform="translate(-126.3963,-352.13201)"
         id="path1554" />
    </clipPath>
    <clipPath
       clipPathUnits="userSpaceOnUse"
       id="clipPath1555">
      <path
         d="M 46.9879,569.636 H 393.737 V 36.1759 H 46.9879 Z"
         transform="translate(-155.04411,-344.26451)"
         id="path1555" />
    </clipPath>
    <clipPath
       clipPathUnits="userSpaceOnUse"
       id="clipPath1556">
      <path
         d="M 46.9879,569.636 H 393.737 V 36.1759 H 46.9879 Z"
         transform="translate(-236.00971,-399.67051)"
         id="path1556" />
    </clipPath>
    <clipPath
       clipPathUnits="userSpaceOnUse"
       id="clipPath1557">
      <path
         d="M 46.9879,569.636 H 393.737 V 36.1759 H 46.9879 Z"
         transform="translate(-205.6105,-392.51811)"
         id="path1557" />
    </clipPath>
    <clipPath
       clipPathUnits="userSpaceOnUse"
       id="clipPath1569">
      <path
         d="M 46.9879,569.636 H 393.737 V 36.1759 H 46.9879 Z"
         transform="translate(-171.86901,-308.13338)"
         id="path1569" />
    </clipPath>
    <clipPath
       clipPathUnits="userSpaceOnUse"
       id="clipPath1571">
      <path
         d="M 46.9879,569.636 H 393.737 V 36.1759 H 46.9879 Z"
         transform="translate(-312.41401,-314.55991)"
         id="path1571" />
    </clipPath>
    <clipPath
       clipPathUnits="userSpaceOnUse"
       id="clipPath1572">
      <path
         d="M 46.9879,569.636 H 393.737 V 36.1759 H 46.9879 Z"
         transform="translate(-313.41731,-336.43441)"
         id="path1572" />
    </clipPath>
    <clipPath
       clipPathUnits="userSpaceOnUse"
       id="clipPath1573">
      <path
         d="M 46.9879,569.636 H 393.737 V 36.1759 H 46.9879 Z"
         transform="translate(-285.77821,-341.70001)"
         id="path1573" />
    </clipPath>
    <clipPath
       clipPathUnits="userSpaceOnUse"
       id="clipPath2431">
      <path
         d="M 0,1080 H 1920 V 0 H 0 Z"
         transform="matrix(1.3333333,0,0,-1.3333333,0,1440)"
         id="path2431" />
    </clipPath>
    <clipPath
       clipPathUnits="userSpaceOnUse"
       id="clipPath2210">
      <path
         d="M 405.945,581.146 H 645.733 V 212.462 H 405.945 Z"
         transform="translate(-514.29331,-307.51013)"
         id="path2210" />
    </clipPath>
    <clipPath
       clipPathUnits="userSpaceOnUse"
       id="clipPath2211">
      <path
         d="M 405.945,581.146 H 645.733 V 212.462 H 405.945 Z"
         transform="translate(-604.78612,-411.24921)"
         id="path2211" />
    </clipPath>
    <clipPath
       clipPathUnits="userSpaceOnUse"
       id="clipPath2212">
      <path
         d="M 405.945,581.146 H 645.733 V 212.462 H 405.945 Z"
         transform="translate(-443.74841,-420.00981)"
         id="path2212" />
    </clipPath>
    <clipPath
       clipPathUnits="userSpaceOnUse"
       id="clipPath2224">
      <path
         d="M 405.945,581.146 H 645.733 V 212.462 H 405.945 Z"
         transform="translate(-520.99132,-369.99791)"
         id="path2224" />
    </clipPath>
    <clipPath
       clipPathUnits="userSpaceOnUse"
       id="clipPath2226">
      <path
         d="M 405.945,581.146 H 645.733 V 212.462 H 405.945 Z"
         transform="translate(-472.00871,-323.81551)"
         id="path2226" />
    </clipPath>
    <clipPath
       clipPathUnits="userSpaceOnUse"
       id="clipPath2229">
      <path
         d="M 405.945,581.146 H 645.733 V 212.462 H 405.945 Z"
         transform="translate(-608.81582,-362.99851)"
         id="path2229" />
    </clipPath>
    <clipPath
       clipPathUnits="userSpaceOnUse"
       id="clipPath2230">
      <path
         d="M 405.945,581.146 H 645.733 V 212.462 H 405.945 Z"
         transform="translate(-472.41161,-405.21081)"
         id="path2230" />
    </clipPath>
    <clipPath
       clipPathUnits="userSpaceOnUse"
       id="clipPath2231">
      <path
         d="M 405.945,581.146 H 645.733 V 212.462 H 405.945 Z"
         transform="translate(-550.44551,-382.35341)"
         id="path2231" />
    </clipPath>
    <clipPath
       clipPathUnits="userSpaceOnUse"
       id="clipPath2232">
      <path
         d="M 405.945,581.146 H 645.733 V 212.462 H 405.945 Z"
         transform="translate(-533.37622,-340.02361)"
         id="path2232" />
    </clipPath>
    <clipPath
       clipPathUnits="userSpaceOnUse"
       id="clipPath2233">
      <path
         d="M 405.945,581.146 H 645.733 V 212.462 H 405.945 Z"
         transform="translate(-601.56722,-321.66458)"
         id="path2233" />
    </clipPath>
    <clipPath
       clipPathUnits="userSpaceOnUse"
       id="clipPath2235">
      <path
         d="M 405.945,581.146 H 645.733 V 212.462 H 405.945 Z"
         transform="translate(-583.76281,-387.00901)"
         id="path2235" />
    </clipPath>
    <clipPath
       clipPathUnits="userSpaceOnUse"
       id="clipPath2239">
      <path
         d="M 405.945,581.146 H 645.733 V 212.462 H 405.945 Z"
         transform="translate(-463.74251,-333.76901)"
         id="path2239" />
    </clipPath>
    <clipPath
       clipPathUnits="userSpaceOnUse"
       id="clipPath2241">
      <path
         d="M 405.945,581.146 H 645.733 V 212.462 H 405.945 Z"
         transform="translate(-462.21031,-359.10701)"
         id="path2241" />
    </clipPath>
    <clipPath
       clipPathUnits="userSpaceOnUse"
       id="clipPath2242">
      <path
         d="M 405.945,581.146 H 645.733 V 212.462 H 405.945 Z"
         transform="translate(-526.13741,-304.79131)"
         id="path2242" />
    </clipPath>
    <clipPath
       clipPathUnits="userSpaceOnUse"
       id="clipPath2243">
      <path
         d="M 405.945,581.146 H 645.733 V 212.462 H 405.945 Z"
         transform="translate(-497.00841,-347.79321)"
         id="path2243" />
    </clipPath>
    <clipPath
       clipPathUnits="userSpaceOnUse"
       id="clipPath2245">
      <path
         d="M 405.945,581.146 H 645.733 V 212.462 H 405.945 Z"
         transform="translate(-490.66701,-330.66971)"
         id="path2245" />
    </clipPath>
    <clipPath
       clipPathUnits="userSpaceOnUse"
       id="clipPath2250">
      <path
         d="M 405.945,581.146 H 645.733 V 212.462 H 405.945 Z"
         transform="translate(-592.52171,-323.51761)"
         id="path2250" />
    </clipPath>
    <clipPath
       clipPathUnits="userSpaceOnUse"
       id="clipPath2251">
      <path
         d="M 405.945,581.146 H 645.733 V 212.462 H 405.945 Z"
         transform="translate(-470.63591,-380.25851)"
         id="path2251" />
    </clipPath>
    <clipPath
       clipPathUnits="userSpaceOnUse"
       id="clipPath2252">
      <path
         d="M 405.945,581.146 H 645.733 V 212.462 H 405.945 Z"
         transform="translate(-582.05332,-379.12641)"
         id="path2252" />
    </clipPath>
    <clipPath
       clipPathUnits="userSpaceOnUse"
       id="clipPath2253">
      <path
         d="M 405.945,581.146 H 645.733 V 212.462 H 405.945 Z"
         transform="translate(-540.69091,-376.89421)"
         id="path2253" />
    </clipPath>
    <clipPath
       clipPathUnits="userSpaceOnUse"
       id="clipPath2256">
      <path
         d="M 405.945,581.146 H 645.733 V 212.462 H 405.945 Z"
         transform="translate(-521.34871,-315.61298)"
         id="path2256" />
    </clipPath>
    <clipPath
       clipPathUnits="userSpaceOnUse"
       id="clipPath2257">
      <path
         d="M 405.945,581.146 H 645.733 V 212.462 H 405.945 Z"
         transform="translate(-486.23181,-356.32711)"
         id="path2257" />
    </clipPath>
    <clipPath
       clipPathUnits="userSpaceOnUse"
       id="clipPath2260">
      <path
         d="M 405.945,581.146 H 645.733 V 212.462 H 405.945 Z"
         transform="translate(-545.19991,-328.66043)"
         id="path2260" />
    </clipPath>
    <clipPath
       clipPathUnits="userSpaceOnUse"
       id="clipPath2261">
      <path
         d="M 405.945,581.146 H 645.733 V 212.462 H 405.945 Z"
         transform="translate(-580.34542,-369.39981)"
         id="path2261" />
    </clipPath>
    <clipPath
       clipPathUnits="userSpaceOnUse"
       id="clipPath2262">
      <path
         d="M 405.945,581.146 H 645.733 V 212.462 H 405.945 Z"
         transform="translate(-471.59261,-365.53761)"
         id="path2262" />
    </clipPath>
    <clipPath
       clipPathUnits="userSpaceOnUse"
       id="clipPath2263">
      <path
         d="M 405.945,581.146 H 645.733 V 212.462 H 405.945 Z"
         transform="translate(-473.40641,-345.68591)"
         id="path2263" />
    </clipPath>
    <clipPath
       clipPathUnits="userSpaceOnUse"
       id="clipPath2264">
      <path
         d="M 405.945,581.146 H 645.733 V 212.462 H 405.945 Z"
         transform="translate(-462.50811,-345.69721)"
         id="path2264" />
    </clipPath>
    <clipPath
       clipPathUnits="userSpaceOnUse"
       id="clipPath2268">
      <path
         d="M 405.945,581.146 H 645.733 V 212.462 H 405.945 Z"
         transform="translate(-477.94641,-329.08853)"
         id="path2268" />
    </clipPath>
    <clipPath
       clipPathUnits="userSpaceOnUse"
       id="clipPath2272">
      <path
         d="M 405.945,581.146 H 645.733 V 212.462 H 405.945 Z"
         transform="translate(-627.96232,-338.20861)"
         id="path2272" />
    </clipPath>
    <clipPath
       clipPathUnits="userSpaceOnUse"
       id="clipPath2274">
      <path
         d="M 405.945,581.146 H 645.733 V 212.462 H 405.945 Z"
         transform="translate(-469.33351,-338.12241)"
         id="path2274" />
    </clipPath>
    <clipPath
       clipPathUnits="userSpaceOnUse"
       id="clipPath2276">
      <path
         d="M 405.945,581.146 H 645.733 V 212.462 H 405.945 Z"
         transform="translate(-435.45681,-388.67581)"
         id="path2276" />
    </clipPath>
    <clipPath
       clipPathUnits="userSpaceOnUse"
       id="clipPath2277">
      <path
         d="M 405.945,581.146 H 645.733 V 212.462 H 405.945 Z"
         transform="translate(-529.69841,-320.74501)"
         id="path2277" />
    </clipPath>
    <clipPath
       clipPathUnits="userSpaceOnUse"
       id="clipPath2278">
      <path
         d="M 405.945,581.146 H 645.733 V 212.462 H 405.945 Z"
         transform="translate(-630.45392,-320.39161)"
         id="path2278" />
    </clipPath>
    <clipPath
       clipPathUnits="userSpaceOnUse"
       id="clipPath2279">
      <path
         d="M 405.945,581.146 H 645.733 V 212.462 H 405.945 Z"
         transform="translate(-599.58761,-312.70718)"
         id="path2279" />
    </clipPath>
    <clipPath
       clipPathUnits="userSpaceOnUse"
       id="clipPath2280">
      <path
         d="M 405.945,581.146 H 645.733 V 212.462 H 405.945 Z"
         transform="translate(-612.58811,-372.80871)"
         id="path2280" />
    </clipPath>
    <clipPath
       clipPathUnits="userSpaceOnUse"
       id="clipPath2281">
      <path
         d="M 405.945,581.146 H 645.733 V 212.462 H 405.945 Z"
         transform="translate(-464.02911,-381.49601)"
         id="path2281" />
    </clipPath>
    <clipPath
       clipPathUnits="userSpaceOnUse"
       id="clipPath2283">
      <path
         d="M 405.945,581.146 H 645.733 V 212.462 H 405.945 Z"
         transform="translate(-468.64441,-382.95111)"
         id="path2283" />
    </clipPath>
    <clipPath
       clipPathUnits="userSpaceOnUse"
       id="clipPath2284">
      <path
         d="M 405.945,581.146 H 645.733 V 212.462 H 405.945 Z"
         transform="translate(-531.53332,-329.05868)"
         id="path2284" />
    </clipPath>
    <clipPath
       clipPathUnits="userSpaceOnUse"
       id="clipPath2287">
      <path
         d="M 405.945,581.146 H 645.733 V 212.462 H 405.945 Z"
         transform="translate(-584.58352,-364.69781)"
         id="path2287" />
    </clipPath>
    <clipPath
       clipPathUnits="userSpaceOnUse"
       id="clipPath2288">
      <path
         d="M 405.945,581.146 H 645.733 V 212.462 H 405.945 Z"
         transform="translate(-593.97742,-315.51803)"
         id="path2288" />
    </clipPath>
    <clipPath
       clipPathUnits="userSpaceOnUse"
       id="clipPath2289">
      <path
         d="M 405.945,581.146 H 645.733 V 212.462 H 405.945 Z"
         transform="translate(-574.98521,-330.25461)"
         id="path2289" />
    </clipPath>
    <clipPath
       clipPathUnits="userSpaceOnUse"
       id="clipPath2290">
      <path
         d="M 405.945,581.146 H 645.733 V 212.462 H 405.945 Z"
         transform="translate(-572.31271,-332.14061)"
         id="path2290" />
    </clipPath>
    <clipPath
       clipPathUnits="userSpaceOnUse"
       id="clipPath2292">
      <path
         d="M 405.945,581.146 H 645.733 V 212.462 H 405.945 Z"
         transform="translate(-446.90601,-345.18761)"
         id="path2292" />
    </clipPath>
    <clipPath
       clipPathUnits="userSpaceOnUse"
       id="clipPath2295">
      <path
         d="M 405.945,581.146 H 645.733 V 212.462 H 405.945 Z"
         transform="translate(-605.98822,-413.01721)"
         id="path2295" />
    </clipPath>
    <clipPath
       clipPathUnits="userSpaceOnUse"
       id="clipPath2296">
      <path
         d="M 405.945,581.146 H 645.733 V 212.462 H 405.945 Z"
         transform="translate(-604.78612,-411.24921)"
         id="path2296" />
    </clipPath>
    <clipPath
       clipPathUnits="userSpaceOnUse"
       id="clipPath2297">
      <path
         d="M 405.945,581.146 H 645.733 V 212.462 H 405.945 Z"
         transform="translate(-443.74841,-420.00981)"
         id="path2297" />
    </clipPath>
    <clipPath
       clipPathUnits="userSpaceOnUse"
       id="clipPath2298">
      <path
         d="M 405.945,581.146 H 645.733 V 212.462 H 405.945 Z"
         transform="translate(-519.20062,-429.10051)"
         id="path2298" />
    </clipPath>
    <clipPath
       clipPathUnits="userSpaceOnUse"
       id="clipPath2299">
      <path
         d="M 405.945,581.146 H 645.733 V 212.462 H 405.945 Z"
         transform="translate(-503.95541,-441.54861)"
         id="path2299" />
    </clipPath>
    <clipPath
       clipPathUnits="userSpaceOnUse"
       id="clipPath2300">
      <path
         d="M 405.945,581.146 H 645.733 V 212.462 H 405.945 Z"
         transform="translate(-520.63462,-437.20971)"
         id="path2300" />
    </clipPath>
    <clipPath
       clipPathUnits="userSpaceOnUse"
       id="clipPath2301">
      <path
         d="M 405.945,581.146 H 645.733 V 212.462 H 405.945 Z"
         transform="translate(-521.22421,-393.58931)"
         id="path2301" />
    </clipPath>
    <clipPath
       clipPathUnits="userSpaceOnUse"
       id="clipPath2302">
      <path
         d="M 405.945,581.146 H 645.733 V 212.462 H 405.945 Z"
         transform="translate(-516.99022,-389.03501)"
         id="path2302" />
    </clipPath>
    <clipPath
       clipPathUnits="userSpaceOnUse"
       id="clipPath2303">
      <path
         d="M 405.945,581.146 H 645.733 V 212.462 H 405.945 Z"
         transform="translate(-516.23671,-383.98571)"
         id="path2303" />
    </clipPath>
    <clipPath
       clipPathUnits="userSpaceOnUse"
       id="clipPath2304">
      <path
         d="M 405.945,581.146 H 645.733 V 212.462 H 405.945 Z"
         transform="translate(-518.35781,-380.10101)"
         id="path2304" />
    </clipPath>
    <clipPath
       clipPathUnits="userSpaceOnUse"
       id="clipPath2305">
      <path
         d="M 405.945,581.146 H 645.733 V 212.462 H 405.945 Z"
         transform="translate(-532.34531,-374.29151)"
         id="path2305" />
    </clipPath>
    <clipPath
       clipPathUnits="userSpaceOnUse"
       id="clipPath2306">
      <path
         d="M 405.945,581.146 H 645.733 V 212.462 H 405.945 Z"
         transform="translate(-538.82231,-401.52141)"
         id="path2306" />
    </clipPath>
    <clipPath
       clipPathUnits="userSpaceOnUse"
       id="clipPath2307">
      <path
         d="M 405.945,581.146 H 645.733 V 212.462 H 405.945 Z"
         transform="translate(-537.72251,-397.47061)"
         id="path2307" />
    </clipPath>
    <clipPath
       clipPathUnits="userSpaceOnUse"
       id="clipPath2308">
      <path
         d="M 405.945,581.146 H 645.733 V 212.462 H 405.945 Z"
         transform="translate(-535.75991,-390.39591)"
         id="path2308" />
    </clipPath>
    <clipPath
       clipPathUnits="userSpaceOnUse"
       id="clipPath2309">
      <path
         d="M 405.945,581.146 H 645.733 V 212.462 H 405.945 Z"
         transform="translate(-536.61382,-395.15731)"
         id="path2309" />
    </clipPath>
    <clipPath
       clipPathUnits="userSpaceOnUse"
       id="clipPath2310">
      <path
         d="M 405.945,581.146 H 645.733 V 212.462 H 405.945 Z"
         transform="translate(-528.17752,-371.87031)"
         id="path2310" />
    </clipPath>
    <clipPath
       clipPathUnits="userSpaceOnUse"
       id="clipPath2311">
      <path
         d="M 405.945,581.146 H 645.733 V 212.462 H 405.945 Z"
         transform="translate(-520.99132,-369.99791)"
         id="path2311" />
    </clipPath>
    <clipPath
       clipPathUnits="userSpaceOnUse"
       id="clipPath2312">
      <path
         d="M 405.945,581.146 H 645.733 V 212.462 H 405.945 Z"
         transform="translate(-608.81582,-362.99851)"
         id="path2312" />
    </clipPath>
    <clipPath
       clipPathUnits="userSpaceOnUse"
       id="clipPath2313">
      <path
         d="M 405.945,581.146 H 645.733 V 212.462 H 405.945 Z"
         transform="translate(-472.41161,-405.21081)"
         id="path2313" />
    </clipPath>
    <clipPath
       clipPathUnits="userSpaceOnUse"
       id="clipPath2314">
      <path
         d="M 405.945,581.146 H 645.733 V 212.462 H 405.945 Z"
         transform="translate(-552.97291,-399.51141)"
         id="path2314" />
    </clipPath>
    <clipPath
       clipPathUnits="userSpaceOnUse"
       id="clipPath2315">
      <path
         d="M 405.945,581.146 H 645.733 V 212.462 H 405.945 Z"
         transform="translate(-550.44551,-382.35341)"
         id="path2315" />
    </clipPath>
    <clipPath
       clipPathUnits="userSpaceOnUse"
       id="clipPath2316">
      <path
         d="M 405.945,581.146 H 645.733 V 212.462 H 405.945 Z"
         transform="translate(-551.61922,-391.08391)"
         id="path2316" />
    </clipPath>
    <clipPath
       clipPathUnits="userSpaceOnUse"
       id="clipPath2317">
      <path
         d="M 405.945,581.146 H 645.733 V 212.462 H 405.945 Z"
         transform="translate(-550.79251,-386.64391)"
         id="path2317" />
    </clipPath>
    <clipPath
       clipPathUnits="userSpaceOnUse"
       id="clipPath2318">
      <path
         d="M 405.945,581.146 H 645.733 V 212.462 H 405.945 Z"
         transform="translate(-521.22421,-393.58931)"
         id="path2318" />
    </clipPath>
    <clipPath
       clipPathUnits="userSpaceOnUse"
       id="clipPath2319">
      <path
         d="M 405.945,581.146 H 645.733 V 212.462 H 405.945 Z"
         transform="translate(-552.97291,-399.51141)"
         id="path2319" />
    </clipPath>
    <clipPath
       clipPathUnits="userSpaceOnUse"
       id="clipPath1723">
      <path
         d="M 0,1080 H 1920 V 0 H 0 Z"
         transform="matrix(1.3333333,0,0,-1.3333333,0,1440)"
         id="path1723" />
    </clipPath>
    <clipPath
       clipPathUnits="userSpaceOnUse"
       id="clipPath1608">
      <path
         d="m 624.06,522.108 h 534 V 0.108215 h -534 z"
         transform="translate(-886.9324,-65.622077)"
         id="path1608" />
    </clipPath>
    <clipPath
       clipPathUnits="userSpaceOnUse"
       id="clipPath1623">
      <path
         d="m 624.06,522.108 h 534 V 0.108215 h -534 z"
         transform="translate(-716.88592,-319.40588)"
         id="path1623" />
    </clipPath>
    <clipPath
       clipPathUnits="userSpaceOnUse"
       id="clipPath1624">
      <path
         d="m 624.06,522.108 h 534 V 0.108215 h -534 z"
         transform="translate(-737.96852,-317.09888)"
         id="path1624" />
    </clipPath>
    <clipPath
       clipPathUnits="userSpaceOnUse"
       id="clipPath1630">
      <path
         d="m 624.06,522.108 h 534 V 0.108215 h -534 z"
         transform="translate(-814.6006,-168.2925)"
         id="path1630" />
    </clipPath>
    <clipPath
       clipPathUnits="userSpaceOnUse"
       id="clipPath1631">
      <path
         d="m 624.06,522.108 h 534 V 0.108215 h -534 z"
         transform="translate(-928.79162,-197.28923)"
         id="path1631" />
    </clipPath>
    <clipPath
       clipPathUnits="userSpaceOnUse"
       id="clipPath1635">
      <path
         d="m 624.06,522.108 h 534 V 0.108215 h -534 z"
         transform="translate(-788.20059,-239.56988)"
         id="path1635" />
    </clipPath>
    <clipPath
       clipPathUnits="userSpaceOnUse"
       id="clipPath1638">
      <path
         d="m 624.06,522.108 h 534 V 0.108215 h -534 z"
         transform="translate(-767.02344,-202.50263)"
         id="path1638" />
    </clipPath>
    <clipPath
       clipPathUnits="userSpaceOnUse"
       id="clipPath1639">
      <path
         d="m 624.06,522.108 h 534 V 0.108215 h -534 z"
         transform="translate(-772.21742,-191.51348)"
         id="path1639" />
    </clipPath>
    <clipPath
       clipPathUnits="userSpaceOnUse"
       id="clipPath1652">
      <path
         d="m 624.06,522.108 h 534 V 0.108215 h -534 z"
         transform="translate(-814.6006,-168.2925)"
         id="path1652" />
    </clipPath>
    <clipPath
       clipPathUnits="userSpaceOnUse"
       id="clipPath1653">
      <path
         d="m 624.06,522.108 h 534 V 0.108215 h -534 z"
         transform="translate(-925.8184,-199.1691)"
         id="path1653" />
    </clipPath>
    <clipPath
       clipPathUnits="userSpaceOnUse"
       id="clipPath1654">
      <path
         d="m 624.06,522.108 h 534 V 0.108215 h -534 z"
         transform="translate(-800.77195,-111.12)"
         id="path1654" />
    </clipPath>
    <clipPath
       clipPathUnits="userSpaceOnUse"
       id="clipPath1661">
      <path
         d="m 624.06,522.108 h 534 V 0.108215 h -534 z"
         transform="translate(-862.34612,-177.987)"
         id="path1661" />
    </clipPath>
    <clipPath
       clipPathUnits="userSpaceOnUse"
       id="clipPath1795-8">
      <path
         d="m 1231.44,461.129 h 260.18 V 61.0878 h -260.18 z"
         transform="translate(-1340.3722,-309.17243)"
         id="path1795-6" />
    </clipPath>
    <clipPath
       clipPathUnits="userSpaceOnUse"
       id="clipPath440">
      <path
         d="M 0,1080 H 1920 V 0 H 0 Z"
         transform="matrix(1.3333333,0,0,-1.3333333,0,1440)"
         id="path440" />
    </clipPath>
    <clipPath
       clipPathUnits="userSpaceOnUse"
       id="clipPath295">
      <path
         d="m 495.121,1014.22 h 381.55 V 427.224 h -381.55 z"
         transform="translate(-807.61975,-620.09372)"
         id="path295" />
    </clipPath>
    <clipPath
       clipPathUnits="userSpaceOnUse"
       id="clipPath297">
      <path
         d="m 495.121,1014.22 h 381.55 V 427.224 h -381.55 z"
         transform="translate(-709.90612,-813.79452)"
         id="path297" />
    </clipPath>
    <clipPath
       clipPathUnits="userSpaceOnUse"
       id="clipPath299">
      <path
         d="m 495.121,1014.22 h 381.55 V 427.224 h -381.55 z"
         transform="translate(-784.77159,-787.21702)"
         id="path299" />
    </clipPath>
    <clipPath
       clipPathUnits="userSpaceOnUse"
       id="clipPath300">
      <path
         d="m 495.121,1014.22 h 381.55 V 427.224 h -381.55 z"
         transform="translate(-546.67961,-664.01392)"
         id="path300" />
    </clipPath>
    <clipPath
       clipPathUnits="userSpaceOnUse"
       id="clipPath301">
      <path
         d="m 495.121,1014.22 h 381.55 V 427.224 h -381.55 z"
         transform="translate(-672.71111,-821.56852)"
         id="path301" />
    </clipPath>
    <clipPath
       clipPathUnits="userSpaceOnUse"
       id="clipPath303">
      <path
         d="m 495.121,1014.22 h 381.55 V 427.224 h -381.55 z"
         transform="translate(-557.47411,-644.09441)"
         id="path303" />
    </clipPath>
    <clipPath
       clipPathUnits="userSpaceOnUse"
       id="clipPath305">
      <path
         d="m 495.121,1014.22 h 381.55 V 427.224 h -381.55 z"
         transform="translate(-714.02362,-792.02482)"
         id="path305" />
    </clipPath>
    <clipPath
       clipPathUnits="userSpaceOnUse"
       id="clipPath310">
      <path
         d="m 495.121,1014.22 h 381.55 V 427.224 h -381.55 z"
         transform="translate(-710.27612,-631.91332)"
         id="path310" />
    </clipPath>
    <clipPath
       clipPathUnits="userSpaceOnUse"
       id="clipPath311">
      <path
         d="m 495.121,1014.22 h 381.55 V 427.224 h -381.55 z"
         transform="translate(-713.26672,-622.59502)"
         id="path311" />
    </clipPath>
    <clipPath
       clipPathUnits="userSpaceOnUse"
       id="clipPath313">
      <path
         d="m 495.121,1014.22 h 381.55 V 427.224 h -381.55 z"
         transform="translate(-751.84472,-631.30732)"
         id="path313" />
    </clipPath>
    <clipPath
       clipPathUnits="userSpaceOnUse"
       id="clipPath314">
      <path
         d="m 495.121,1014.22 h 381.55 V 427.224 h -381.55 z"
         transform="translate(-744.15722,-654.25481)"
         id="path314" />
    </clipPath>
    <clipPath
       clipPathUnits="userSpaceOnUse"
       id="clipPath315">
      <path
         d="m 495.121,1014.22 h 381.55 V 427.224 h -381.55 z"
         transform="translate(-754.60284,-621.12701)"
         id="path315" />
    </clipPath>
    <clipPath
       clipPathUnits="userSpaceOnUse"
       id="clipPath316">
      <path
         d="m 495.121,1014.22 h 381.55 V 427.224 h -381.55 z"
         transform="translate(-747.65922,-643.75942)"
         id="path316" />
    </clipPath>
    <clipPath
       clipPathUnits="userSpaceOnUse"
       id="clipPath317">
      <path
         d="m 495.121,1014.22 h 381.55 V 427.224 h -381.55 z"
         transform="translate(-718.15302,-605.50202)"
         id="path317" />
    </clipPath>
    <clipPath
       clipPathUnits="userSpaceOnUse"
       id="clipPath320">
      <path
         d="m 495.121,1014.22 h 381.55 V 427.224 h -381.55 z"
         transform="translate(-765.34944,-625.66802)"
         id="path320" />
    </clipPath>
    <clipPath
       clipPathUnits="userSpaceOnUse"
       id="clipPath321">
      <path
         d="m 495.121,1014.22 h 381.55 V 427.224 h -381.55 z"
         transform="translate(-527.15291,-753.15872)"
         id="path321" />
    </clipPath>
    <clipPath
       clipPathUnits="userSpaceOnUse"
       id="clipPath323">
      <path
         d="m 495.121,1014.22 h 381.55 V 427.224 h -381.55 z"
         transform="translate(-836.97692,-734.93452)"
         id="path323" />
    </clipPath>
    <clipPath
       clipPathUnits="userSpaceOnUse"
       id="clipPath326">
      <path
         d="m 495.121,1014.22 h 381.55 V 427.224 h -381.55 z"
         transform="translate(-549.12701,-730.53702)"
         id="path326" />
    </clipPath>
    <clipPath
       clipPathUnits="userSpaceOnUse"
       id="clipPath328">
      <path
         d="m 495.121,1014.22 h 381.55 V 427.224 h -381.55 z"
         transform="translate(-556.85722,-740.37002)"
         id="path328" />
    </clipPath>
    <clipPath
       clipPathUnits="userSpaceOnUse"
       id="clipPath331">
      <path
         d="m 495.121,1014.22 h 381.55 V 427.224 h -381.55 z"
         transform="translate(-559.01731,-742.21522)"
         id="path331" />
    </clipPath>
    <clipPath
       clipPathUnits="userSpaceOnUse"
       id="clipPath333">
      <path
         d="m 495.121,1014.22 h 381.55 V 427.224 h -381.55 z"
         transform="translate(-575.05061,-754.41212)"
         id="path333" />
    </clipPath>
    <clipPath
       clipPathUnits="userSpaceOnUse"
       id="clipPath335">
      <path
         d="m 495.121,1014.22 h 381.55 V 427.224 h -381.55 z"
         transform="translate(-595.93511,-684.01862)"
         id="path335" />
    </clipPath>
    <clipPath
       clipPathUnits="userSpaceOnUse"
       id="clipPath336">
      <path
         d="m 495.121,1014.22 h 381.55 V 427.224 h -381.55 z"
         transform="translate(-701.72532,-684.81701)"
         id="path336" />
    </clipPath>
    <clipPath
       clipPathUnits="userSpaceOnUse"
       id="clipPath338">
      <path
         d="m 495.121,1014.22 h 381.55 V 427.224 h -381.55 z"
         transform="translate(-614.27111,-670.75352)"
         id="path338" />
    </clipPath>
    <clipPath
       clipPathUnits="userSpaceOnUse"
       id="clipPath339">
      <path
         d="m 495.121,1014.22 h 381.55 V 427.224 h -381.55 z"
         transform="translate(-802.25965,-726.38132)"
         id="path339" />
    </clipPath>
    <clipPath
       clipPathUnits="userSpaceOnUse"
       id="clipPath340">
      <path
         d="m 495.121,1014.22 h 381.55 V 427.224 h -381.55 z"
         transform="translate(-575.48831,-762.37022)"
         id="path340" />
    </clipPath>
    <clipPath
       clipPathUnits="userSpaceOnUse"
       id="clipPath341">
      <path
         d="m 495.121,1014.22 h 381.55 V 427.224 h -381.55 z"
         transform="translate(-522.93502,-754.83512)"
         id="path341" />
    </clipPath>
    <clipPath
       clipPathUnits="userSpaceOnUse"
       id="clipPath342">
      <path
         d="m 495.121,1014.22 h 381.55 V 427.224 h -381.55 z"
         transform="translate(-579.97841,-694.84202)"
         id="path342" />
    </clipPath>
    <clipPath
       clipPathUnits="userSpaceOnUse"
       id="clipPath344">
      <path
         d="m 495.121,1014.22 h 381.55 V 427.224 h -381.55 z"
         transform="translate(-588.90592,-723.74352)"
         id="path344" />
    </clipPath>
    <clipPath
       clipPathUnits="userSpaceOnUse"
       id="clipPath362">
      <path
         d="m 495.121,1014.22 h 381.55 V 427.224 h -381.55 z"
         transform="translate(-682.85441,-700.33262)"
         id="path362" />
    </clipPath>
    <clipPath
       clipPathUnits="userSpaceOnUse"
       id="clipPath363">
      <path
         d="m 495.121,1014.22 h 381.55 V 427.224 h -381.55 z"
         transform="translate(-540.92501,-725.30642)"
         id="path363" />
    </clipPath>
    <clipPath
       clipPathUnits="userSpaceOnUse"
       id="clipPath364">
      <path
         d="m 495.121,1014.22 h 381.55 V 427.224 h -381.55 z"
         transform="translate(-632.24381,-735.44892)"
         id="path364" />
    </clipPath>
    <clipPath
       clipPathUnits="userSpaceOnUse"
       id="clipPath365">
      <path
         d="m 495.121,1014.22 h 381.55 V 427.224 h -381.55 z"
         transform="translate(-645.77782,-771.13542)"
         id="path365" />
    </clipPath>
    <clipPath
       clipPathUnits="userSpaceOnUse"
       id="clipPath366">
      <path
         d="m 495.121,1014.22 h 381.55 V 427.224 h -381.55 z"
         transform="translate(-611.40772,-756.54722)"
         id="path366" />
    </clipPath>
  </defs>
  <g
     id="g439"
     clip-path="url(#clipPath440)"
     transform="matrix(0.26458333,0,0,0.26458333,-174.66768,-62.162313)">
    <path
       d="m 0,0 c 0.65,2.317 -1.126,4.482 -2.562,5.865 -5.05,4.863 -12.654,4.796 -15.055,6.921 -0.972,0.86 -0.904,2.284 -2.316,3.172 -5.978,-5.564 -12.391,-10.601 -18.906,-15.118 -0.306,-1.639 0.626,-4.32 2.465,-4.61 10.58,-1.671 21.264,-1.174 31.735,0.873 C -3.006,-2.578 -0.451,-1.609 0,0 m -89.467,-14.592 c -0.245,2.448 -0.637,3.983 -1.748,5.805 -13.298,-2.619 -26.351,-2.117 -39.543,-0.039 -29.855,4.703 -56.149,17.537 -80.102,35.163 2.899,-5.081 7.438,-7.475 11.265,-11.011 5.622,-4.815 11.438,-8.643 17.837,-12.446 14.387,-8.55 29.693,-14.844 46.235,-17.847 15.389,-2.794 30.675,-3.038 46.056,0.375 m -103.882,65.252 -7.199,11.97 c -2.548,0.757 -4.98,1.775 -7.769,1.792 4.047,-4.718 8.14,-8.44 12.32,-12.38 0.702,-0.661 1.534,-1.249 2.648,-1.382 m -18.336,13.265 c -1.411,1.724 -2.773,2.322 -4.752,2.996 l -10.144,3.455 c 9.925,-9.22 20.853,-17.277 32.594,-23.894 -6.142,6.005 -12.338,10.898 -17.698,17.443 m 160.241,-84.028 c -1.761,0.658 -2.377,1.878 -2.837,3.573 l -5.073,18.729 c -2.917,10.767 -5.952,21.168 -10.011,31.544 -3.473,8.877 -9.258,12.295 -18.701,11.569 -9.374,-0.721 -18.11,-3.133 -27.021,-5.751 -1.527,-0.448 -3.075,0.205 -3.322,1.465 -0.267,1.365 0.309,2.149 1.613,2.775 8.051,3.866 22.79,7.145 31.937,7.135 4.709,-0.006 8.851,-1.261 12.923,-4.167 8.856,6.186 16.711,12.947 24.722,20.164 -5.492,6.818 -9.838,10.999 -18.936,9.763 -11.811,-1.604 -28.06,-12.085 -38.401,-17.35 l -8.614,-4.387 c -13.325,-6.785 -24.493,-17.05 -33.383,-30.025 14.52,-4.359 32.434,-8.668 47.191,-7.835 0.303,1.128 0.612,1.982 1.377,2.297 2.571,1.06 4.612,-2.79 5.46,-4.989 2.778,-7.205 4.938,-14.331 7.125,-21.765 l 7.167,-24.368 c 0.392,-1.333 1.999,-2.402 3.327,-2.879 9.192,-3.298 27.353,-7.633 36.101,-2.849 2.107,1.152 3.3,3.093 2.562,5.431 -1.992,6.304 -9.469,9.777 -15.206,11.92 M -94.353,2.501 c -11.23,-2.268 -21.966,-1.816 -33.063,-0.045 -42.146,6.728 -81.007,29.431 -110.418,59.799 -4.828,4.985 -8.631,10.229 -14.036,14.958 5.223,-8.955 10.295,-17.319 16.837,-24.865 7.505,-8.658 15.951,-16.156 25.022,-23.121 19.056,-14.632 40.197,-25.571 63.384,-31.941 16.386,-4.502 36.294,-6.736 53.02,-3.681 3.31,0.604 0.092,5.79 -0.746,8.896 m -133.288,72.247 c -1.881,1.295 -3.889,1.949 -6.154,2.676 1.969,-2.568 3.888,-4.974 6.868,-6.354 -0.145,1.192 -0.084,2.881 -0.714,3.678 m 121.747,-10.025 c 2.26,1.55 4.479,2.099 6.358,4.161 -8.912,2.899 -16.7,6.559 -24.725,11.172 0.371,-2.226 2.144,-3.271 3.527,-4.542 4.577,-4.203 9.211,-8.001 14.84,-10.791 m -18.871,15.516 c 0,0.218 -0.177,0.394 -0.394,0.394 -0.218,0 -0.394,-0.176 -0.394,-0.394 0,-0.218 0.176,-0.394 0.394,-0.394 0.217,0 0.394,0.176 0.394,0.394 m 61.303,-46.078 c 18.606,13.498 34.203,29.414 47.885,47.332 5.113,6.695 10.12,12.835 14.409,20.334 -2.849,-0.314 -4.793,-0.653 -7.275,0.215 -8.424,-11.223 -17.474,-21.253 -27.209,-31.218 -7.938,-8.126 -16.323,-15.263 -25.099,-22.447 -2.456,-2.009 -5.09,-3.253 -7.417,-5.755 2.184,-2.401 3.117,-5.136 4.706,-8.461 m 3.502,-10.495 c 0.223,-0.693 1.413,-0.275 1.839,0.047 12.505,9.454 23.592,20.16 33.895,32.089 12.939,14.921 23.993,30.895 34.01,48.4 -2.456,0.317 -4.599,-0.741 -6.906,-1.287 -1.931,-3.112 -3.633,-6 -5.753,-8.994 -17.465,-24.66 -34.888,-44.768 -59.58,-62.54 z M -97.344,11.82 c -7.298,-0.63 -13.67,0.035 -20.55,1.048 -59.747,8.802 -112.279,44.61 -148.621,92.067 0.959,-4.381 3.527,-7.44 5.967,-10.916 11.083,-15.787 23.994,-30.088 38.519,-42.877 14.533,-12.796 30.474,-23.095 47.937,-31.391 21.711,-10.315 55.28,-19.795 78.893,-14.461 -0.484,2.538 -1.122,4.22 -2.145,6.53 m -169.351,93.393 c 0,0.126 -0.102,0.229 -0.229,0.229 -0.126,0 -0.229,-0.103 -0.229,-0.229 0,-0.127 0.103,-0.229 0.229,-0.229 0.127,0 0.229,0.102 0.229,0.229 m 210.92,-93.999 c 11.628,8.763 21.427,18.307 30.648,28.963 8.031,9.28 15.387,18.546 22.109,28.832 8,12.245 15.461,24.376 22.055,37.581 -2.278,0.099 -3.588,-0.764 -5.513,-1.165 C 2.689,85.689 -10.216,67.32 -25.216,50.394 -35.325,38.986 -46.333,28.96 -58.508,19.98 c 0.9,-3.189 1.102,-5.907 2.733,-8.766 m -162.939,92.436 c -0.659,2.104 -1.788,3.073 -3.127,4.077 -0.882,0.106 -2.127,-1.485 -1.54,-2.045 1.197,-1.139 2.989,-1.737 4.667,-2.032 M -53.017,1.033 c 4.547,2.927 8.103,5.981 11.946,9.305 29.928,25.879 51.415,62.135 67.396,98.124 -2.277,0.357 -3.696,-0.867 -4.681,-2.843 C 15.598,93.5 8.878,82.193 1.458,70.789 -13.532,47.751 -32.879,24.719 -55.072,8.237 c 0.674,-2.395 0.696,-4.66 2.055,-7.204 m 10.747,4.541 c 10.026,6.169 18.417,14.005 26.438,22.569 11.494,12.27 20.896,25.695 29.528,40.18 7.901,13.774 14.748,27.738 21.267,42.498 -2.06,0.286 -3.437,-0.575 -5.07,-1.153 C 18.148,83.435 5.321,59.043 -12.662,36.416 -21.493,24.975 -31.424,15.066 -42.27,5.574 m 36.91,100.714 c 1.866,0.19 2.503,2.147 2.406,3.462 -0.09,1.22 -0.9,2.563 -2.355,2.859 -0.968,0.196 -1.767,-0.539 -2.162,-1.024 -0.918,-1.124 -0.47,-5.561 2.111,-5.297 M -151.729,26.677 c 9.435,15.504 24.081,26.631 39.936,35.16 -6.81,4.227 -12.109,8.685 -17.133,14.191 -5.19,5.154 -9.064,11.22 -12.81,17.427 0.096,1.314 -0.182,2.595 0.867,3.105 0.915,0.445 2.022,-0.01 2.738,-0.874 l 3.84,-4.634 c 3.658,5.273 6.976,8.123 10.842,13.588 -4.843,5.871 -10.186,10.669 -16.981,14.724 -2.317,-3.442 -5.283,-5.973 -7.732,-9.239 -14.134,-18.841 -35.462,-24.511 -57.283,-15.435 -2.83,1.177 -5.534,2.071 -8.525,2.987 -0.801,-8.39 -2.526,-16.1 -6.844,-23.577 7.309,-2.466 14.263,-4.308 21.486,-6.148 1.518,-0.386 2.683,-1.202 3.369,-2.593 6.125,-10.64 13.113,-20.422 21.414,-29.491 7.499,-3.652 14.753,-6.697 22.816,-9.191 m 181.086,88.164 11.579,3.07 c 1.261,0.334 2.139,1.157 2.418,2.029 0.219,0.683 0.043,2.983 -0.979,2.762 L 9.924,115.67 -0.704,113.257 c 1.175,-1.974 0.939,-3.631 1.276,-5.768 z M -219.021,97.898 c -5.013,2.275 -9.443,4.624 -13.55,7.692 -0.71,0.977 -1.068,2.176 -0.389,3.031 1.294,1.627 3.801,-0.905 4.564,-0.22 1.323,1.19 2.47,2.418 3.66,3.864 -3.319,4.991 -5.182,10.073 -6.402,15.997 -6.98,-4.192 -15.538,-11.125 -19.708,-16.976 -3.224,-4.525 -3.096,-9.922 -0.046,-14.42 6.521,-8.143 17.057,-13.243 26.885,-17.593 2.521,6.208 3.98,12.028 4.986,18.625 m 81.642,31.299 c -1.464,0.899 -2.385,1.162 -3.542,0.797 l -0.694,-5.759 c 1.906,1.298 3.152,2.983 4.236,4.962 m -121.114,-18.754 c -4.111,7.275 -7.741,14.413 -10.787,22.342 -2.966,-1.173 -5.151,-2.137 -7.912,-3.62 5.471,-9.041 11.338,-17.224 17.96,-25.09 0.255,1.997 1.591,4.539 0.739,6.368 m -26.192,24.298 c -0.625,1.181 -1.37,1.644 -2.35,1.48 -0.884,-0.148 -1.234,-0.791 -1.327,-1.901 -0.091,-1.081 0.195,-2.368 1.055,-2.886 0.545,-0.328 1.597,-1 2.375,-0.439 1.203,0.869 0.905,2.505 0.247,3.746 m 33.923,-14.465 c -3.544,5.695 -5.952,11.035 -8.56,16.908 -2.762,-0.961 -5.26,-2.018 -7.504,-3.593 3.141,-7.242 6.223,-13.842 10.144,-20.84 2.254,2.593 3.973,4.749 5.92,7.525 m 2.16,1.846 8.243,6.8 c -3.264,4.451 -5.375,8.806 -7.814,13.415 -3.103,-1.294 -5.768,-2.384 -8.59,-4.093 0.851,-2.684 2.277,-4.92 3.403,-7.431 1.337,-2.981 2.601,-5.782 4.758,-8.691 m 16.033,12.196 c 1.206,1.236 0.083,3.147 -0.613,4.098 -1.867,2.554 -3.303,4.982 -4.705,7.996 -2.775,-0.413 -5.213,-1.676 -7.453,-3.265 2.132,-4.533 4.47,-8.366 7.208,-12.676 1.84,1.303 3.924,2.169 5.563,3.847 m 0.438,7.959 c 0.505,2.682 1.318,4.993 1.446,7.691 -1.64,-0.559 -3.867,-1.155 -4.367,-2.397 -0.066,-2.031 1.588,-3.75 2.921,-5.294 m 96.675,-20.093 c 5.389,-2.868 9.296,-6.337 13.42,-10.383 3.567,6.224 6.547,11.939 8.382,18.352 0.909,3.577 1.391,7.166 0.056,10.591 -3.683,7.717 -21.018,8.939 -28.681,9.4 1.408,-5.265 1.972,-9.794 1.882,-14.869 l 6.248,-1.426 c 0.575,1.427 1.547,2.17 2.785,1.872 4.902,-1.175 -3.884,-11.002 -4.092,-13.537 m -145.011,10.881 51.309,22.736 c 1.384,2.219 2.574,4.099 3.52,6.488 -3.523,-1.135 -6.087,-2.585 -9.228,-3.917 l -47.647,-20.193 c 0.917,-1.877 1.365,-3.316 2.046,-5.114 m 309.355244,-8.18145 c 5.273624,0.3638 20.805787,66.35501 23.099787,66.94101 M 16.318,122.126 c 2.87,0.257 4.542,0.905 6.702,1.467 l 11.326,32.984 m 7.21,-5.716 -4.6,-23.835 c 1.539,-0.214 2.919,0.068 4.32,0.797 0.461,8.674 1.557,17.028 2.519,25.713 0.413,3.734 -2.239,-2.675 -2.239,-2.675 z m -29.632,-29.605 16.52,34.321 c 3.091,6.423 6.212,12.335 8.455,19.133 L 8.197,127.954 c -1.779,-2.898 -3.617,-5.335 -4.637,-8.449 3.349,0.48 5.66,1.065 8.364,1.751 m -157.284,16.136 c 0,22.536 -18.262,40.806 -40.79,40.806 -22.527,0 -40.789,-18.27 -40.789,-40.806 0,-22.537 18.262,-40.806 40.789,-40.806 22.528,0 40.79,18.269 40.79,40.806 m -128.638,52.315 12.993,-36.851 c 2.935,0.887 5.088,1.907 7.695,3.206 l -20.688,33.645 m -4.904,0.821 4.859,-30.49 c 0.654,-4.105 1,-7.836 1.886,-12.113 l 8.119,3.402 -11.849,32.727 c -0.291,0.804 -1.033,1.279 -1.186,2.108 -0.289,1.572 -0.597,3.041 -1.494,4.379 -0.071,0.423 -0.516,0.788 -0.335,-0.013 m 7.552,2.396 15.155,-25.612 c 2.055,-3.473 4.174,-6.461 5.89,-10.16 l 7.521,3.369 -22.54,25.999 -5.427,6.439 c -0.0209,0.40412 -0.55038,0.78437 -0.956,0.265 -0.093,-0.119 -0.007,-0.476 0.357,-0.3 m -3.855,-46.231 -2.947,17.375 c -1.895,10.382 -2.811,20.691 -5.351,30.914 l 0.163,-51.717 c 3.003,1.021 5.522,2.053 8.135,3.428 m 35.923,15.089 c 2.447,1.19 4.17,1.479 6.616,3.027 0,0 -26.689,20.787 -22.771,15.583 z m -73.217,110.916 v 10.998 c 0.744,0.046 0.944,-0.645 1.263,-1.399 l 12.917,-30.518 4.178,-10.166 8.144,-18.787 c 2.87,-0.293 5.649,-1.142 7.216,-3.301 4.334,-5.97 -0.645,-8.142 2.066,-10.571 l 47.81,-42.831 c 2.321,1.485 4.284,1.835 6.639,1.082 9.869,11.629 24.468,18.057 39.624,16.724 17.296,-1.521 31.784,-12.161 38.579,-28.335 10.766,-0.985 34.018,-1.353 36.226,-15.835 1.61,-10.565 -4.591,-22.795 -10.278,-31.663 0.547,-2.222 0.868,-4.467 -0.852,-6.615 -3.237,-4.042 -6.373,-8.085 -10.003,-12.151 11.191,-7.794 23.271,-13.463 36.358,-16.974 l 8.39,3.965 c 12.115,5.727 25.719,10.517 36.402,-0.294 1.577,-1.596 2.808,-3.24 4.781,-4.997 10.952,10.581 20.594,21.836 30.066,33.503 0.727,0.896 0.599,1.801 0.324,2.851 -1.043,3.989 0.717,8.938 4.81,9.738 l 5.977,1.167 44.443,72.703 c -2.07,2.906 -2.012,6.183 -0.541,9.409 1.053,2.309 3.83,3.892 6.915,4.535 l 7.239,27.191 12.225,45.334 c -0.316,-5.734 1.318,-11.295 -0.079,-16.682 L 53.58,203.853 c 2.85,-1.591 3.669,-4.327 3.599,-7.18 -0.105,-4.292 -3.152,-6.558 -6.251,-8.446 -1.418,-7.988 -1.577,-16.529 -2.429,-24.677 L 45.01,130.201 c -0.095,-0.909 -0.39,-2.434 0.359,-3.016 2.76,-2.144 3.543,-5.366 2.795,-8.85 -0.614,-2.864 -3.605,-4.513 -6.739,-5.579 C 36.127,100.576 30.628,88.131 24.392,76.314 20.815,69.536 17.225,63.615 13.281,57.096 5.33,43.956 -4.374,32.304 -14.741,21.021 -15.844,13.904 -5.943,18.146 2.969,8.24 5.909,4.972 7.054,-0.122 4.56,-3.818 c -1.613,-2.391 -4.639,-3.64 -7.441,-4.303 -11.229,-2.662 -22.779,-3.082 -34.1,-1.246 -3.798,0.616 -6.094,2.677 -6.801,6.69 l -7.134,-4.058 c 0.957,-2.582 0.882,-6.003 2.543,-8.061 l 9.405,-5.267 c 6.301,-3.529 11.749,-13.231 6.506,-19.533 -2.929,-3.52 -7.38,-4.925 -11.908,-5.352 -9.784,-0.923 -19.32,0.658 -28.597,3.73 -3.303,1.094 -9.147,2.91 -10.254,6.622 l -4.364,14.644 c -12.344,-2.581 -24.234,-3.478 -36.706,-2.26 -37.84,3.697 -71.183,22.904 -97.187,50.058 -27.464,28.678 -46.169,62.162 -61.202,98.768 -3.949,-1.352 -7.862,0.069 -9.492,3.658 -1.469,3.233 -1.789,7.634 1.403,9.382 l 3.809,2.087 -0.107,28.325 -0.352,35.944 c -2.732,0.906 -4.213,2.621 -5.155,4.917 -1.511,3.686 -0.349,7.214 2.068,9.979 l -12.388,30.073 -7.767,18.431 c -0.524,1.245 -0.559,2.889 -1.838,3.288"
       style="fill:#080a08;fill-opacity:1;fill-rule:nonzero;stroke:none"
       transform="matrix(1.3333333,0,0,-1.3333333,1076.8263,613.2084)"
       clip-path="url(#clipPath295)"
       id="path368" />
    <path
       d="m 0,0 c -1.374,-1.151 -2.779,-2.845 -4.554,-2.757 -1.872,2.066 2.293,5.694 3.74,6.982 5.636,5.017 13.203,6.366 20.322,3.888 2.714,-0.944 5.361,-2.169 8.208,-2.709 5.322,-1.009 10.822,1.185 14.329,4.973 l 4.167,4.501 c 0.572,0.618 1.748,0.615 2.349,0.149 0.525,-0.406 0.577,-1.521 0.222,-2.319 C 47.163,9.067 44.224,6.461 41.032,4.126 35.068,-0.236 27.576,-0.608 20.808,2.273 12.938,5.622 7.384,6.182 0,0"
       style="fill:#21956a;fill-opacity:1;fill-rule:nonzero;stroke:none"
       transform="matrix(1.3333333,0,0,-1.3333333,946.54147,354.94067)"
       clip-path="url(#clipPath297)"
       id="path370" />
    <path
       d="m 0,0 c -10.529,6.078 -14.7,-4.102 -17.331,-2.084 -2.36,1.808 4.85,9.286 13.009,8.515 C 2.235,5.811 5.693,0.277 11.77,3.344 16.238,5.598 18.64,9.273 19.985,7.537 21.229,5.934 19.479,4.255 18.452,3.102 13.636,-2.306 6.333,-3.656 0,0"
       style="fill:#21956a;fill-opacity:1;fill-rule:nonzero;stroke:none"
       transform="matrix(1.3333333,0,0,-1.3333333,1046.3621,390.37733)"
       clip-path="url(#clipPath299)"
       id="path372" />
    <path
       d="m 0,0 c -5.477,-0.488 -8.888,7.012 -14.622,2.62 -3.943,-3.02 -9.704,-2.633 -12.523,1.61 -0.451,0.678 -0.201,2.025 0.113,2.606 0.311,0.575 1.889,0.668 2.479,0.036 2.069,-2.219 5.063,-2.506 7.58,-0.591 3.971,3.021 8.818,3.164 12.601,-0.276 C 0.864,1.244 0.867,4.444 4.784,4.192 4.992,1.726 2.369,0.211 0,0"
       style="fill:#21956a;fill-opacity:1;fill-rule:nonzero;stroke:none"
       transform="matrix(1.3333333,0,0,-1.3333333,728.90613,554.64813)"
       clip-path="url(#clipPath300)"
       id="path373" />
    <path
       d="M 0,0 C -4.234,-1.283 -7.372,-6.089 -8.553,-5.405 -10.53,-4.26 -7.465,0.366 -5.425,1.152 2.449,8.56 7.66,1.545 13.563,3.644 17.101,4.902 18.326,8.989 20.224,8.065 21.081,7.647 21.118,6.902 20.813,5.981 19.012,0.534 13.642,-2.232 8.017,-0.891 5.455,-0.28 2.628,0.797 0,0"
       style="fill:#21956a;fill-opacity:1;fill-rule:nonzero;stroke:none"
       transform="matrix(1.3333333,0,0,-1.3333333,896.94813,344.57533)"
       clip-path="url(#clipPath301)"
       id="path374" />
    <path
       d="m 0,0 c -5.836,2.932 -6.402,-3.342 -13.833,-2.922 -2.677,0.151 -5.376,1.545 -6.258,4.136 -0.189,0.555 0.139,1.36 0.41,1.589 1.511,1.28 5.027,-4.312 10.592,0.093 3.707,2.936 8.555,3.159 12.332,0.245 C 4.656,2.052 8.718,-0.833 7.429,-2.852 6.293,-4.629 1.894,-0.952 0,0"
       style="fill:#21956a;fill-opacity:1;fill-rule:nonzero;stroke:none"
       transform="matrix(1.3333333,0,0,-1.3333333,743.2988,581.20747)"
       clip-path="url(#clipPath303)"
       id="path376" />
    <path
       d="m 0,0 c -8.113,3.147 -10.307,-4.016 -12.504,-2.694 -0.332,0.2 -0.457,1.218 -0.205,1.788 2.39,5.408 8.79,7.195 14.228,4.964 C 7.224,1.717 8.206,3.495 12.599,7.019 12.95,7.3 13.694,7.333 13.948,7.164 15.528,6.111 12.736,0.959 8.566,-0.689 5.734,-1.808 2.702,-1.048 0,0"
       style="fill:#21956a;fill-opacity:1;fill-rule:nonzero;stroke:none"
       transform="matrix(1.3333333,0,0,-1.3333333,952.03147,383.96693)"
       clip-path="url(#clipPath305)"
       id="path378" />
    <path
       d="m 0,0 c 1.023,-2.31 1.661,-3.992 2.145,-6.53 -23.613,-5.334 -57.182,4.146 -78.894,14.461 -17.462,8.297 -33.403,18.596 -47.936,31.392 -14.525,12.788 -27.436,27.09 -38.519,42.877 -2.44,3.476 -5.009,6.534 -5.968,10.915 C -132.83,45.658 -80.297,9.85 -20.551,1.049 -13.67,0.035 -7.298,-0.63 0,0"
       style="fill:#21956a;fill-opacity:1;fill-rule:nonzero;stroke:none"
       transform="matrix(1.3333333,0,0,-1.3333333,947.0348,597.44893)"
       clip-path="url(#clipPath310)"
       id="path383" />
    <path
       d="m 0,0 c 0.838,-3.106 4.056,-8.292 0.745,-8.897 -16.725,-3.055 -36.633,-0.82 -53.019,3.682 -23.187,6.37 -44.328,17.309 -63.384,31.941 -9.071,6.964 -17.517,14.463 -25.022,23.121 -6.542,7.546 -11.614,15.91 -16.837,24.865 5.405,-4.729 9.208,-9.973 14.036,-14.958 C -114.07,29.386 -75.209,6.682 -33.063,-0.045 -21.966,-1.817 -11.23,-2.268 0,0"
       style="fill:#21956a;fill-opacity:1;fill-rule:nonzero;stroke:none"
       transform="matrix(1.3333333,0,0,-1.3333333,951.02227,609.87333)"
       clip-path="url(#clipPath311)"
       id="path384" />
    <path
       d="m 0,0 c -1.631,2.859 -1.833,5.578 -2.733,8.767 12.175,8.979 23.183,19.005 33.292,30.413 15,16.927 27.905,35.296 38.74,55.031 1.925,0.401 3.235,1.265 5.513,1.165 C 68.218,82.171 60.757,70.04 52.757,57.796 46.036,47.509 38.679,38.244 30.648,28.963 21.427,18.307 11.628,8.764 0,0"
       style="fill:#21956a;fill-opacity:1;fill-rule:nonzero;stroke:none"
       transform="matrix(1.3333333,0,0,-1.3333333,1002.4596,598.25693)"
       clip-path="url(#clipPath313)"
       id="path386" />
    <path
       d="m 0,0 c -1.589,3.325 -2.522,6.06 -4.706,8.461 2.327,2.502 4.962,3.746 7.417,5.755 8.776,7.184 17.161,14.321 25.1,22.447 9.734,9.965 18.785,19.995 27.208,31.218 2.482,-0.868 4.427,-0.529 7.275,-0.215 C 58.005,60.167 52.998,54.027 47.885,47.332 34.203,29.414 18.607,13.497 0,0"
       style="fill:#21956a;fill-opacity:1;fill-rule:nonzero;stroke:none"
       transform="matrix(1.3333333,0,0,-1.3333333,992.2096,567.66027)"
       clip-path="url(#clipPath314)"
       id="path387" />
    <path
       d="m 0,0 c -1.359,2.544 -1.381,4.808 -2.055,7.204 22.193,16.482 41.54,39.514 56.529,62.552 7.421,11.404 14.141,22.711 20.186,34.83 0.986,1.976 2.405,3.199 4.682,2.843 C 63.361,71.44 41.874,35.184 11.946,9.305 8.103,5.981 4.547,2.927 0,0"
       style="fill:#21956a;fill-opacity:1;fill-rule:nonzero;stroke:none"
       transform="matrix(1.3333333,0,0,-1.3333333,1006.1371,611.83067)"
       clip-path="url(#clipPath315)"
       id="path388" />
    <path
       d="m 0,0 -2.495,7.716 c 24.693,17.771 42.116,37.879 59.58,62.539 2.121,2.994 3.823,5.882 5.753,8.994 2.307,0.546 4.451,1.605 6.906,1.288 C 59.728,63.031 48.673,47.057 35.735,32.136 25.432,20.207 14.345,9.501 1.839,0.047 1.413,-0.275 0.224,-0.693 0,0"
       style="fill:#21956a;fill-opacity:1;fill-rule:nonzero;stroke:none"
       transform="matrix(1.3333333,0,0,-1.3333333,996.87893,581.65413)"
       clip-path="url(#clipPath316)"
       id="path389" />
    <path
       d="m 0,0 c -15.382,-3.413 -30.667,-3.169 -46.056,-0.375 -16.542,3.002 -31.849,9.297 -46.235,17.846 -6.399,3.803 -12.216,7.632 -17.837,12.446 -3.827,3.536 -8.366,5.931 -11.266,11.011 C -97.44,23.303 -71.147,10.469 -41.291,5.766 -28.099,3.688 -15.046,3.186 -1.748,5.805 -0.638,3.982 -0.245,2.448 0,0"
       style="fill:#21956a;fill-opacity:1;fill-rule:nonzero;stroke:none"
       transform="matrix(1.3333333,0,0,-1.3333333,957.53733,632.664)"
       clip-path="url(#clipPath317)"
       id="path390" />
    <path
       d="m 0,0 c 10.846,9.492 20.778,19.401 29.609,30.842 17.983,22.627 30.809,47.019 42.554,73.251 1.633,0.579 3.01,1.44 5.07,1.154 C 70.714,90.486 63.867,76.523 55.966,62.749 47.334,48.264 37.932,34.839 26.439,22.568 18.417,14.005 10.026,6.169 0,0"
       style="fill:#21956a;fill-opacity:1;fill-rule:nonzero;stroke:none"
       transform="matrix(1.3333333,0,0,-1.3333333,1020.4659,605.776)"
       clip-path="url(#clipPath320)"
       id="path393" />
    <path
       d="m 0,0 c -0.681,1.798 -1.129,3.237 -2.047,5.114 l 47.648,20.193 c 3.141,1.332 5.705,2.782 9.228,3.917 -0.946,-2.389 -2.136,-4.269 -3.52,-6.488 z"
       style="fill:#21956a;fill-opacity:1;fill-rule:nonzero;stroke:none"
       transform="matrix(1.3333333,0,0,-1.3333333,702.87053,435.7884)"
       clip-path="url(#clipPath321)"
       id="path394" />
    <path
       d="m 0,0 -28.785,-7.352 c -0.337,2.137 -0.102,3.794 -1.276,5.768 l 10.628,2.413 32.451,7.032 C 14.04,8.082 14.216,5.782 13.997,5.099 13.718,4.227 12.84,3.405 11.579,3.07 Z"
       style="fill:#21956a;fill-opacity:1;fill-rule:nonzero;stroke:none"
       transform="matrix(1.3333333,0,0,-1.3333333,1115.9692,460.08733)"
       clip-path="url(#clipPath323)"
       id="path396" />
    <path
       d="m 0,0 c 0.852,-1.83 -0.484,-4.371 -0.739,-6.368 -6.623,7.865 -12.49,16.049 -17.96,25.089 2.761,1.484 4.946,2.447 7.912,3.621 C -7.741,14.412 -4.111,7.275 0,0"
       style="fill:#21956a;fill-opacity:1;fill-rule:nonzero;stroke:none"
       transform="matrix(1.3333333,0,0,-1.3333333,732.16933,465.95067)"
       clip-path="url(#clipPath326)"
       id="path399" />
    <path
       d="m 0,0 c -1.946,-2.776 -3.666,-4.932 -5.92,-7.526 -3.92,6.999 -7.002,13.598 -10.144,20.841 2.244,1.575 4.743,2.632 7.504,3.592 C -5.951,11.035 -3.543,5.695 0,0"
       style="fill:#21956a;fill-opacity:1;fill-rule:nonzero;stroke:none"
       transform="matrix(1.3333333,0,0,-1.3333333,742.47627,452.84)"
       clip-path="url(#clipPath328)"
       id="path401" />
    <path
       d="m 0,0 c -2.157,2.909 -3.421,5.711 -4.758,8.691 -1.126,2.512 -2.551,4.748 -3.403,7.432 2.823,1.709 5.487,2.799 8.591,4.092 2.438,-4.608 4.55,-8.963 7.813,-13.414 z"
       style="fill:#21956a;fill-opacity:1;fill-rule:nonzero;stroke:none"
       transform="matrix(1.3333333,0,0,-1.3333333,745.3564,450.37973)"
       clip-path="url(#clipPath331)"
       id="path404" />
    <path
       d="m 0,0 c -1.639,-1.678 -3.723,-2.545 -5.563,-3.848 -2.737,4.31 -5.076,8.144 -7.208,12.676 2.241,1.589 4.678,2.853 7.453,3.266 C -3.916,9.08 -2.48,6.652 -0.613,4.098 0.083,3.146 1.206,1.235 0,0"
       style="fill:#21956a;fill-opacity:1;fill-rule:nonzero;stroke:none"
       transform="matrix(1.3333333,0,0,-1.3333333,766.73413,434.1172)"
       clip-path="url(#clipPath333)"
       id="path406" />
    <path
       d="M 0,0 C 5.36,-6.544 11.556,-11.438 17.697,-17.442 5.956,-10.826 -4.971,-2.769 -14.896,6.451 L -4.753,2.996 C -2.773,2.322 -1.412,1.724 0,0"
       style="fill:#21956a;fill-opacity:1;fill-rule:nonzero;stroke:none"
       transform="matrix(1.3333333,0,0,-1.3333333,794.58013,527.9752)"
       clip-path="url(#clipPath335)"
       id="path408" />
    <path
       d="m 0,0 c -5.629,2.79 -10.262,6.587 -14.839,10.791 -1.384,1.271 -3.156,2.315 -3.528,4.542 C -10.342,10.719 -2.553,7.06 6.359,4.161 4.479,2.099 2.26,1.55 0,0"
       style="fill:#21956a;fill-opacity:1;fill-rule:nonzero;stroke:none"
       transform="matrix(1.3333333,0,0,-1.3333333,935.63373,526.91067)"
       clip-path="url(#clipPath336)"
       id="path409" />
    <path
       d="m 0,0 c -1.115,0.133 -1.947,0.721 -2.648,1.382 -4.18,3.94 -8.274,7.663 -12.32,12.38 2.788,-0.017 5.221,-1.035 7.769,-1.792 z"
       style="fill:#21956a;fill-opacity:1;fill-rule:nonzero;stroke:none"
       transform="matrix(1.3333333,0,0,-1.3333333,819.02813,545.662)"
       clip-path="url(#clipPath338)"
       id="path411" />
    <path
       d="m 0,0 c -2.581,-0.264 -3.029,4.173 -2.111,5.298 0.395,0.484 1.194,1.22 2.162,1.023 C 1.506,6.025 2.316,4.682 2.406,3.462 2.503,2.148 1.866,0.191 0,0"
       style="fill:#21956a;fill-opacity:1;fill-rule:nonzero;stroke:none"
       transform="matrix(1.3333333,0,0,-1.3333333,1069.6795,471.4916)"
       clip-path="url(#clipPath339)"
       id="path412" />
    <path
       d="m 0,0 c -1.333,1.544 -2.986,3.264 -2.921,5.294 0.5,1.243 2.728,1.838 4.368,2.397 C 1.319,4.993 0.505,2.682 0,0"
       style="fill:#21956a;fill-opacity:1;fill-rule:nonzero;stroke:none"
       transform="matrix(1.3333333,0,0,-1.3333333,767.31773,423.5064)"
       clip-path="url(#clipPath340)"
       id="path413" />
    <path
       d="m 0,0 c 0.658,-1.242 0.956,-2.877 -0.248,-3.746 -0.777,-0.562 -1.83,0.111 -2.374,0.438 -0.861,0.518 -1.147,1.806 -1.056,2.887 0.094,1.11 0.444,1.753 1.328,1.901 C -1.37,1.643 -0.626,1.181 0,0"
       style="fill:#21956a;fill-opacity:1;fill-rule:nonzero;stroke:none"
       transform="matrix(1.3333333,0,0,-1.3333333,697.24667,433.5532)"
       clip-path="url(#clipPath341)"
       id="path414" />
    <path
       d="M 0,0 C 0.63,-0.797 0.569,-2.486 0.714,-3.679 -2.266,-2.298 -4.185,0.108 -6.154,2.676 -3.889,1.949 -1.881,1.295 0,0"
       style="fill:#21956a;fill-opacity:1;fill-rule:nonzero;stroke:none"
       transform="matrix(1.3333333,0,0,-1.3333333,773.30453,513.544)"
       clip-path="url(#clipPath342)"
       id="path415" />
    <path
       d="m 0,0 c -1.678,0.295 -3.47,0.893 -4.667,2.033 -0.588,0.559 0.658,2.15 1.54,2.045 C -1.788,3.073 -0.66,2.104 0,0"
       style="fill:#21956a;fill-opacity:1;fill-rule:nonzero;stroke:none"
       transform="matrix(1.3333333,0,0,-1.3333333,785.20787,475.00867)"
       clip-path="url(#clipPath344)"
       id="path417" />
    <path
       d="m 0,0 c 0,-0.218 -0.176,-0.394 -0.394,-0.394 -0.218,0 -0.394,0.176 -0.394,0.394 0,0.218 0.176,0.394 0.394,0.394 C -0.176,0.394 0,0.218 0,0"
       style="fill:#21956a;fill-opacity:1;fill-rule:nonzero;stroke:none"
       transform="matrix(1.3333333,0,0,-1.3333333,910.47253,506.2232)"
       clip-path="url(#clipPath362)"
       id="path435" />
    <path
       d="m 0,0 c 0,-0.127 -0.103,-0.229 -0.229,-0.229 -0.127,0 -0.229,0.102 -0.229,0.229 0,0.127 0.102,0.229 0.229,0.229 C -0.103,0.229 0,0.127 0,0"
       style="fill:#21956a;fill-opacity:1;fill-rule:nonzero;stroke:none"
       transform="matrix(1.3333333,0,0,-1.3333333,721.23333,472.9248)"
       clip-path="url(#clipPath363)"
       id="path436" />
    <path
       d="m 0,0 c -11.629,-2.661 -24.503,3.757 -22.631,7.462 0.43,0.851 2.148,1.481 3.159,0.802 6.04,-4.057 13.299,-5.022 20.356,-2.782 6.28,1.994 10.893,7.105 12.82,13.312 0.379,1.22 1.881,1.448 2.66,1.212 C 20.099,18.874 14.974,3.427 0,0"
       style="fill:#080a08;fill-opacity:1;fill-rule:nonzero;stroke:none"
       transform="matrix(1.3333333,0,0,-1.3333333,842.99173,459.40147)"
       clip-path="url(#clipPath364)"
       id="path437" />
    <path
       d="m 0,0 c 0.264,-3.285 -1.937,-5.569 -4.714,-5.482 -2.783,0.088 -4.955,2.226 -4.866,5.232 0.082,2.761 1.734,5.021 4.344,5.141 C -2.666,5.009 -0.252,3.141 0,0"
       style="fill:#080a08;fill-opacity:1;fill-rule:nonzero;stroke:none"
       transform="matrix(1.3333333,0,0,-1.3333333,861.03707,411.81947)"
       clip-path="url(#clipPath365)"
       id="path438" />
    <path
       d="M 0,0 C -2.896,-1.858 -6.351,0.065 -7.355,2.972 -8.319,5.764 -6.372,9.096 -3.104,9.448 -0.82,9.694 1.064,8.008 1.776,6.267 2.654,4.117 2.217,1.422 0,0"
       style="fill:#080a08;fill-opacity:1;fill-rule:nonzero;stroke:none"
       transform="matrix(1.3333333,0,0,-1.3333333,815.21027,431.2704)"
       clip-path="url(#clipPath366)"
       id="path439" />
  </g>
</svg>
