<?xml version="1.0" encoding="UTF-8" standalone="no"?>
<!-- Created with Inkscape (http://www.inkscape.org/) -->

<svg
   width="96.40049mm"
   height="123.57451mm"
   viewBox="0 0 96.400477 123.57451"
   version="1.1"
   id="svg1"
   xmlns="http://www.w3.org/2000/svg"
   xmlns:svg="http://www.w3.org/2000/svg">
  <defs
     id="defs1">
    <clipPath
       clipPathUnits="userSpaceOnUse"
       id="clipPath140">
      <path
         d="M 0,1080 H 1920 V 0 H 0 Z"
         transform="matrix(1.3333333,0,0,-1.3333333,0,1440)"
         id="path140" />
    </clipPath>
    <clipPath
       clipPathUnits="userSpaceOnUse"
       id="clipPath63">
      <path
         d="M 147.058,1009.6 H 822.602 V 608.689 H 147.058 Z"
         transform="translate(-581.84971,-643.21252)"
         id="path63" />
    </clipPath>
    <clipPath
       clipPathUnits="userSpaceOnUse"
       id="clipPath64">
      <path
         d="M 147.058,1009.6 H 822.602 V 608.689 H 147.058 Z"
         transform="translate(-554.00401,-881.64112)"
         id="path64" />
    </clipPath>
    <clipPath
       clipPathUnits="userSpaceOnUse"
       id="clipPath65">
      <path
         d="M 147.058,1009.6 H 822.602 V 608.689 H 147.058 Z"
         transform="translate(-659.85941,-842.47442)"
         id="path65" />
    </clipPath>
    <clipPath
       clipPathUnits="userSpaceOnUse"
       id="clipPath66">
      <path
         d="M 147.058,1009.6 H 822.602 V 608.689 H 147.058 Z"
         transform="translate(-663.88931,-812.76862)"
         id="path66" />
    </clipPath>
    <clipPath
       clipPathUnits="userSpaceOnUse"
       id="clipPath67">
      <path
         d="M 147.058,1009.6 H 822.602 V 608.689 H 147.058 Z"
         transform="translate(-672.73282,-780.20562)"
         id="path67" />
    </clipPath>
    <clipPath
       clipPathUnits="userSpaceOnUse"
       id="clipPath68">
      <path
         d="M 147.058,1009.6 H 822.602 V 608.689 H 147.058 Z"
         transform="translate(-633.31961,-846.80912)"
         id="path68" />
    </clipPath>
    <clipPath
       clipPathUnits="userSpaceOnUse"
       id="clipPath69">
      <path
         d="M 147.058,1009.6 H 822.602 V 608.689 H 147.058 Z"
         transform="translate(-456.15221,-908.29382)"
         id="path69" />
    </clipPath>
    <clipPath
       clipPathUnits="userSpaceOnUse"
       id="clipPath70">
      <path
         d="M 147.058,1009.6 H 822.602 V 608.689 H 147.058 Z"
         transform="translate(-484.32901,-900.17292)"
         id="path70" />
    </clipPath>
    <clipPath
       clipPathUnits="userSpaceOnUse"
       id="clipPath73">
      <path
         d="M 147.058,1009.6 H 822.602 V 608.689 H 147.058 Z"
         transform="translate(-591.87922,-662.52232)"
         id="path73" />
    </clipPath>
    <clipPath
       clipPathUnits="userSpaceOnUse"
       id="clipPath74">
      <path
         d="M 147.058,1009.6 H 822.602 V 608.689 H 147.058 Z"
         transform="translate(-581.12951,-697.04711)"
         id="path74" />
    </clipPath>
    <clipPath
       clipPathUnits="userSpaceOnUse"
       id="clipPath76">
      <path
         d="M 147.058,1009.6 H 822.602 V 608.689 H 147.058 Z"
         transform="translate(-587.79751,-810.34062)"
         id="path76" />
    </clipPath>
    <clipPath
       clipPathUnits="userSpaceOnUse"
       id="clipPath78">
      <path
         d="M 147.058,1009.6 H 822.602 V 608.689 H 147.058 Z"
         transform="translate(-581.84971,-643.21252)"
         id="path78" />
    </clipPath>
    <clipPath
       clipPathUnits="userSpaceOnUse"
       id="clipPath79">
      <path
         d="M 147.058,1009.6 H 822.602 V 608.689 H 147.058 Z"
         transform="translate(-493.40261,-659.01221)"
         id="path79" />
    </clipPath>
    <clipPath
       clipPathUnits="userSpaceOnUse"
       id="clipPath80">
      <path
         d="M 147.058,1009.6 H 822.602 V 608.689 H 147.058 Z"
         transform="translate(-591.79091,-654.55631)"
         id="path80" />
    </clipPath>
    <clipPath
       clipPathUnits="userSpaceOnUse"
       id="clipPath81">
      <path
         d="M 147.058,1009.6 H 822.602 V 608.689 H 147.058 Z"
         transform="translate(-617.28881,-668.65192)"
         id="path81" />
    </clipPath>
    <clipPath
       clipPathUnits="userSpaceOnUse"
       id="clipPath82">
      <path
         d="M 147.058,1009.6 H 822.602 V 608.689 H 147.058 Z"
         transform="translate(-502.18301,-665.52461)"
         id="path82" />
    </clipPath>
    <clipPath
       clipPathUnits="userSpaceOnUse"
       id="clipPath84">
      <path
         d="M 147.058,1009.6 H 822.602 V 608.689 H 147.058 Z"
         transform="translate(-576.32011,-698.44012)"
         id="path84" />
    </clipPath>
    <clipPath
       clipPathUnits="userSpaceOnUse"
       id="clipPath85">
      <path
         d="M 147.058,1009.6 H 822.602 V 608.689 H 147.058 Z"
         transform="translate(-621.71912,-930.09422)"
         id="path85" />
    </clipPath>
    <clipPath
       clipPathUnits="userSpaceOnUse"
       id="clipPath86">
      <path
         d="M 147.058,1009.6 H 822.602 V 608.689 H 147.058 Z"
         transform="translate(-585.22691,-896.13972)"
         id="path86" />
    </clipPath>
    <clipPath
       clipPathUnits="userSpaceOnUse"
       id="clipPath87">
      <path
         d="M 147.058,1009.6 H 822.602 V 608.689 H 147.058 Z"
         transform="translate(-605.41382,-913.16562)"
         id="path87" />
    </clipPath>
    <clipPath
       clipPathUnits="userSpaceOnUse"
       id="clipPath88">
      <path
         d="M 147.058,1009.6 H 822.602 V 608.689 H 147.058 Z"
         transform="translate(-570.20401,-912.95513)"
         id="path88" />
    </clipPath>
    <clipPath
       clipPathUnits="userSpaceOnUse"
       id="clipPath89">
      <path
         d="M 147.058,1009.6 H 822.602 V 608.689 H 147.058 Z"
         transform="translate(-553.78162,-932.59373)"
         id="path89" />
    </clipPath>
    <clipPath
       clipPathUnits="userSpaceOnUse"
       id="clipPath90">
      <path
         d="M 147.058,1009.6 H 822.602 V 608.689 H 147.058 Z"
         transform="translate(-603.58462,-899.69922)"
         id="path90" />
    </clipPath>
    <clipPath
       clipPathUnits="userSpaceOnUse"
       id="clipPath91">
      <path
         d="M 147.058,1009.6 H 822.602 V 608.689 H 147.058 Z"
         transform="translate(-588.75052,-916.82012)"
         id="path91" />
    </clipPath>
    <clipPath
       clipPathUnits="userSpaceOnUse"
       id="clipPath92">
      <path
         d="M 147.058,1009.6 H 822.602 V 608.689 H 147.058 Z"
         transform="translate(-568.06061,-933.20342)"
         id="path92" />
    </clipPath>
    <clipPath
       clipPathUnits="userSpaceOnUse"
       id="clipPath93">
      <path
         d="M 147.058,1009.6 H 822.602 V 608.689 H 147.058 Z"
         transform="translate(-545.70151,-743.74722)"
         id="path93" />
    </clipPath>
    <clipPath
       clipPathUnits="userSpaceOnUse"
       id="clipPath94">
      <path
         d="M 147.058,1009.6 H 822.602 V 608.689 H 147.058 Z"
         transform="translate(-576.66121,-757.01302)"
         id="path94" />
    </clipPath>
    <clipPath
       clipPathUnits="userSpaceOnUse"
       id="clipPath95">
      <path
         d="M 147.058,1009.6 H 822.602 V 608.689 H 147.058 Z"
         transform="translate(-576.32011,-698.44012)"
         id="path95" />
    </clipPath>
    <clipPath
       clipPathUnits="userSpaceOnUse"
       id="clipPath96">
      <path
         d="M 147.058,1009.6 H 822.602 V 608.689 H 147.058 Z"
         transform="translate(-530.35891,-731.39402)"
         id="path96" />
    </clipPath>
    <clipPath
       clipPathUnits="userSpaceOnUse"
       id="clipPath97">
      <path
         d="M 147.058,1009.6 H 822.602 V 608.689 H 147.058 Z"
         transform="translate(-521.12231,-721.87412)"
         id="path97" />
    </clipPath>
    <clipPath
       clipPathUnits="userSpaceOnUse"
       id="clipPath98">
      <path
         d="M 147.058,1009.6 H 822.602 V 608.689 H 147.058 Z"
         transform="translate(-525.53231,-736.87572)"
         id="path98" />
    </clipPath>
    <clipPath
       clipPathUnits="userSpaceOnUse"
       id="clipPath99">
      <path
         d="M 147.058,1009.6 H 822.602 V 608.689 H 147.058 Z"
         transform="translate(-521.12231,-721.87412)"
         id="path99" />
    </clipPath>
    <clipPath
       clipPathUnits="userSpaceOnUse"
       id="clipPath100">
      <path
         d="M 147.058,1009.6 H 822.602 V 608.689 H 147.058 Z"
         transform="translate(-525.53231,-736.87572)"
         id="path100" />
    </clipPath>
    <clipPath
       clipPathUnits="userSpaceOnUse"
       id="clipPath183">
      <path
         d="M 0,1080 H 1920 V 0 H 0 Z"
         transform="matrix(1.3333333,0,0,-1.3333333,0,1440)"
         id="path183" />
    </clipPath>
    <clipPath
       clipPathUnits="userSpaceOnUse"
       id="clipPath142">
      <path
         d="M 26.406,587.919 H 556.067 V 273.585 H 26.406 Z"
         transform="translate(-293.50231,-318.02813)"
         id="path142" />
    </clipPath>
    <clipPath
       clipPathUnits="userSpaceOnUse"
       id="clipPath143">
      <path
         d="M 26.406,587.919 H 556.067 V 273.585 H 26.406 Z"
         transform="translate(-257.59251,-273.58501)"
         id="path143" />
    </clipPath>
    <clipPath
       clipPathUnits="userSpaceOnUse"
       id="clipPath144">
      <path
         d="M 26.406,587.919 H 556.067 V 273.585 H 26.406 Z"
         transform="translate(-206.6545,-316.38511)"
         id="path144" />
    </clipPath>
    <clipPath
       clipPathUnits="userSpaceOnUse"
       id="clipPath145">
      <path
         d="M 26.406,587.919 H 556.067 V 273.585 H 26.406 Z"
         transform="translate(-297.1555,-477.71551)"
         id="path145" />
    </clipPath>
    <clipPath
       clipPathUnits="userSpaceOnUse"
       id="clipPath146">
      <path
         d="M 26.406,587.919 H 556.067 V 273.585 H 26.406 Z"
         transform="translate(-192.1899,-375.89681)"
         id="path146" />
    </clipPath>
    <clipPath
       clipPathUnits="userSpaceOnUse"
       id="clipPath147">
      <path
         d="M 26.406,587.919 H 556.067 V 273.585 H 26.406 Z"
         transform="translate(-210.89481,-440.13341)"
         id="path147" />
    </clipPath>
    <clipPath
       clipPathUnits="userSpaceOnUse"
       id="clipPath148">
      <path
         d="M 26.406,587.919 H 556.067 V 273.585 H 26.406 Z"
         transform="translate(-208.72891,-412.19141)"
         id="path148" />
    </clipPath>
    <clipPath
       clipPathUnits="userSpaceOnUse"
       id="clipPath149">
      <path
         d="M 26.406,587.919 H 556.067 V 273.585 H 26.406 Z"
         transform="translate(-213.65781,-359.83681)"
         id="path149" />
    </clipPath>
    <clipPath
       clipPathUnits="userSpaceOnUse"
       id="clipPath150">
      <path
         d="M 26.406,587.919 H 556.067 V 273.585 H 26.406 Z"
         transform="translate(-240.4702,-330.51231)"
         id="path150" />
    </clipPath>
    <clipPath
       clipPathUnits="userSpaceOnUse"
       id="clipPath151">
      <path
         d="M 26.406,587.919 H 556.067 V 273.585 H 26.406 Z"
         transform="translate(-281.16751,-511.34362)"
         id="path151" />
    </clipPath>
    <clipPath
       clipPathUnits="userSpaceOnUse"
       id="clipPath152">
      <path
         d="M 26.406,587.919 H 556.067 V 273.585 H 26.406 Z"
         transform="translate(-306.08471,-513.41032)"
         id="path152" />
    </clipPath>
    <clipPath
       clipPathUnits="userSpaceOnUse"
       id="clipPath154">
      <path
         d="M 26.406,587.919 H 556.067 V 273.585 H 26.406 Z"
         transform="translate(-255.18391,-354.37441)"
         id="path154" />
    </clipPath>
    <clipPath
       clipPathUnits="userSpaceOnUse"
       id="clipPath157">
      <path
         d="M 26.406,587.919 H 556.067 V 273.585 H 26.406 Z"
         transform="translate(-265.8598,-464.59491)"
         id="path157" />
    </clipPath>
    <clipPath
       clipPathUnits="userSpaceOnUse"
       id="clipPath1606">
      <path
         d="M 0,1080 H 1920 V 0 H 0 Z"
         transform="matrix(1.3333333,0,0,-1.3333333,0,1440)"
         id="path1606" />
    </clipPath>
    <clipPath
       clipPathUnits="userSpaceOnUse"
       id="clipPath1543">
      <path
         d="M 46.9879,569.636 H 393.737 V 36.1759 H 46.9879 Z"
         transform="translate(-304.84891,-113.22083)"
         id="path1543" />
    </clipPath>
    <clipPath
       clipPathUnits="userSpaceOnUse"
       id="clipPath1544">
      <path
         d="M 46.9879,569.636 H 393.737 V 36.1759 H 46.9879 Z"
         transform="translate(-127.083,-314.62838)"
         id="path1544" />
    </clipPath>
    <clipPath
       clipPathUnits="userSpaceOnUse"
       id="clipPath1546">
      <path
         d="M 46.9879,569.636 H 393.737 V 36.1759 H 46.9879 Z"
         transform="translate(-218.7298,-405.32361)"
         id="path1546" />
    </clipPath>
    <clipPath
       clipPathUnits="userSpaceOnUse"
       id="clipPath1552">
      <path
         d="M 46.9879,569.636 H 393.737 V 36.1759 H 46.9879 Z"
         transform="translate(-197.98701,-264.40651)"
         id="path1552" />
    </clipPath>
    <clipPath
       clipPathUnits="userSpaceOnUse"
       id="clipPath1553">
      <path
         d="M 46.9879,569.636 H 393.737 V 36.1759 H 46.9879 Z"
         transform="translate(-241.65031,-261.18443)"
         id="path1553" />
    </clipPath>
    <clipPath
       clipPathUnits="userSpaceOnUse"
       id="clipPath1554">
      <path
         d="M 46.9879,569.636 H 393.737 V 36.1759 H 46.9879 Z"
         transform="translate(-126.3963,-352.13201)"
         id="path1554" />
    </clipPath>
    <clipPath
       clipPathUnits="userSpaceOnUse"
       id="clipPath1555">
      <path
         d="M 46.9879,569.636 H 393.737 V 36.1759 H 46.9879 Z"
         transform="translate(-155.04411,-344.26451)"
         id="path1555" />
    </clipPath>
    <clipPath
       clipPathUnits="userSpaceOnUse"
       id="clipPath1556">
      <path
         d="M 46.9879,569.636 H 393.737 V 36.1759 H 46.9879 Z"
         transform="translate(-236.00971,-399.67051)"
         id="path1556" />
    </clipPath>
    <clipPath
       clipPathUnits="userSpaceOnUse"
       id="clipPath1557">
      <path
         d="M 46.9879,569.636 H 393.737 V 36.1759 H 46.9879 Z"
         transform="translate(-205.6105,-392.51811)"
         id="path1557" />
    </clipPath>
    <clipPath
       clipPathUnits="userSpaceOnUse"
       id="clipPath1569">
      <path
         d="M 46.9879,569.636 H 393.737 V 36.1759 H 46.9879 Z"
         transform="translate(-171.86901,-308.13338)"
         id="path1569" />
    </clipPath>
    <clipPath
       clipPathUnits="userSpaceOnUse"
       id="clipPath1571">
      <path
         d="M 46.9879,569.636 H 393.737 V 36.1759 H 46.9879 Z"
         transform="translate(-312.41401,-314.55991)"
         id="path1571" />
    </clipPath>
    <clipPath
       clipPathUnits="userSpaceOnUse"
       id="clipPath1572">
      <path
         d="M 46.9879,569.636 H 393.737 V 36.1759 H 46.9879 Z"
         transform="translate(-313.41731,-336.43441)"
         id="path1572" />
    </clipPath>
    <clipPath
       clipPathUnits="userSpaceOnUse"
       id="clipPath1573">
      <path
         d="M 46.9879,569.636 H 393.737 V 36.1759 H 46.9879 Z"
         transform="translate(-285.77821,-341.70001)"
         id="path1573" />
    </clipPath>
    <clipPath
       clipPathUnits="userSpaceOnUse"
       id="clipPath2431">
      <path
         d="M 0,1080 H 1920 V 0 H 0 Z"
         transform="matrix(1.3333333,0,0,-1.3333333,0,1440)"
         id="path2431" />
    </clipPath>
    <clipPath
       clipPathUnits="userSpaceOnUse"
       id="clipPath2210">
      <path
         d="M 405.945,581.146 H 645.733 V 212.462 H 405.945 Z"
         transform="translate(-514.29331,-307.51013)"
         id="path2210" />
    </clipPath>
    <clipPath
       clipPathUnits="userSpaceOnUse"
       id="clipPath2211">
      <path
         d="M 405.945,581.146 H 645.733 V 212.462 H 405.945 Z"
         transform="translate(-604.78612,-411.24921)"
         id="path2211" />
    </clipPath>
    <clipPath
       clipPathUnits="userSpaceOnUse"
       id="clipPath2212">
      <path
         d="M 405.945,581.146 H 645.733 V 212.462 H 405.945 Z"
         transform="translate(-443.74841,-420.00981)"
         id="path2212" />
    </clipPath>
    <clipPath
       clipPathUnits="userSpaceOnUse"
       id="clipPath2224">
      <path
         d="M 405.945,581.146 H 645.733 V 212.462 H 405.945 Z"
         transform="translate(-520.99132,-369.99791)"
         id="path2224" />
    </clipPath>
    <clipPath
       clipPathUnits="userSpaceOnUse"
       id="clipPath2226">
      <path
         d="M 405.945,581.146 H 645.733 V 212.462 H 405.945 Z"
         transform="translate(-472.00871,-323.81551)"
         id="path2226" />
    </clipPath>
    <clipPath
       clipPathUnits="userSpaceOnUse"
       id="clipPath2229">
      <path
         d="M 405.945,581.146 H 645.733 V 212.462 H 405.945 Z"
         transform="translate(-608.81582,-362.99851)"
         id="path2229" />
    </clipPath>
    <clipPath
       clipPathUnits="userSpaceOnUse"
       id="clipPath2230">
      <path
         d="M 405.945,581.146 H 645.733 V 212.462 H 405.945 Z"
         transform="translate(-472.41161,-405.21081)"
         id="path2230" />
    </clipPath>
    <clipPath
       clipPathUnits="userSpaceOnUse"
       id="clipPath2231">
      <path
         d="M 405.945,581.146 H 645.733 V 212.462 H 405.945 Z"
         transform="translate(-550.44551,-382.35341)"
         id="path2231" />
    </clipPath>
    <clipPath
       clipPathUnits="userSpaceOnUse"
       id="clipPath2232">
      <path
         d="M 405.945,581.146 H 645.733 V 212.462 H 405.945 Z"
         transform="translate(-533.37622,-340.02361)"
         id="path2232" />
    </clipPath>
    <clipPath
       clipPathUnits="userSpaceOnUse"
       id="clipPath2233">
      <path
         d="M 405.945,581.146 H 645.733 V 212.462 H 405.945 Z"
         transform="translate(-601.56722,-321.66458)"
         id="path2233" />
    </clipPath>
    <clipPath
       clipPathUnits="userSpaceOnUse"
       id="clipPath2235">
      <path
         d="M 405.945,581.146 H 645.733 V 212.462 H 405.945 Z"
         transform="translate(-583.76281,-387.00901)"
         id="path2235" />
    </clipPath>
    <clipPath
       clipPathUnits="userSpaceOnUse"
       id="clipPath2239">
      <path
         d="M 405.945,581.146 H 645.733 V 212.462 H 405.945 Z"
         transform="translate(-463.74251,-333.76901)"
         id="path2239" />
    </clipPath>
    <clipPath
       clipPathUnits="userSpaceOnUse"
       id="clipPath2241">
      <path
         d="M 405.945,581.146 H 645.733 V 212.462 H 405.945 Z"
         transform="translate(-462.21031,-359.10701)"
         id="path2241" />
    </clipPath>
    <clipPath
       clipPathUnits="userSpaceOnUse"
       id="clipPath2242">
      <path
         d="M 405.945,581.146 H 645.733 V 212.462 H 405.945 Z"
         transform="translate(-526.13741,-304.79131)"
         id="path2242" />
    </clipPath>
    <clipPath
       clipPathUnits="userSpaceOnUse"
       id="clipPath2243">
      <path
         d="M 405.945,581.146 H 645.733 V 212.462 H 405.945 Z"
         transform="translate(-497.00841,-347.79321)"
         id="path2243" />
    </clipPath>
    <clipPath
       clipPathUnits="userSpaceOnUse"
       id="clipPath2245">
      <path
         d="M 405.945,581.146 H 645.733 V 212.462 H 405.945 Z"
         transform="translate(-490.66701,-330.66971)"
         id="path2245" />
    </clipPath>
    <clipPath
       clipPathUnits="userSpaceOnUse"
       id="clipPath2250">
      <path
         d="M 405.945,581.146 H 645.733 V 212.462 H 405.945 Z"
         transform="translate(-592.52171,-323.51761)"
         id="path2250" />
    </clipPath>
    <clipPath
       clipPathUnits="userSpaceOnUse"
       id="clipPath2251">
      <path
         d="M 405.945,581.146 H 645.733 V 212.462 H 405.945 Z"
         transform="translate(-470.63591,-380.25851)"
         id="path2251" />
    </clipPath>
    <clipPath
       clipPathUnits="userSpaceOnUse"
       id="clipPath2252">
      <path
         d="M 405.945,581.146 H 645.733 V 212.462 H 405.945 Z"
         transform="translate(-582.05332,-379.12641)"
         id="path2252" />
    </clipPath>
    <clipPath
       clipPathUnits="userSpaceOnUse"
       id="clipPath2253">
      <path
         d="M 405.945,581.146 H 645.733 V 212.462 H 405.945 Z"
         transform="translate(-540.69091,-376.89421)"
         id="path2253" />
    </clipPath>
    <clipPath
       clipPathUnits="userSpaceOnUse"
       id="clipPath2256">
      <path
         d="M 405.945,581.146 H 645.733 V 212.462 H 405.945 Z"
         transform="translate(-521.34871,-315.61298)"
         id="path2256" />
    </clipPath>
    <clipPath
       clipPathUnits="userSpaceOnUse"
       id="clipPath2257">
      <path
         d="M 405.945,581.146 H 645.733 V 212.462 H 405.945 Z"
         transform="translate(-486.23181,-356.32711)"
         id="path2257" />
    </clipPath>
    <clipPath
       clipPathUnits="userSpaceOnUse"
       id="clipPath2260">
      <path
         d="M 405.945,581.146 H 645.733 V 212.462 H 405.945 Z"
         transform="translate(-545.19991,-328.66043)"
         id="path2260" />
    </clipPath>
    <clipPath
       clipPathUnits="userSpaceOnUse"
       id="clipPath2261">
      <path
         d="M 405.945,581.146 H 645.733 V 212.462 H 405.945 Z"
         transform="translate(-580.34542,-369.39981)"
         id="path2261" />
    </clipPath>
    <clipPath
       clipPathUnits="userSpaceOnUse"
       id="clipPath2262">
      <path
         d="M 405.945,581.146 H 645.733 V 212.462 H 405.945 Z"
         transform="translate(-471.59261,-365.53761)"
         id="path2262" />
    </clipPath>
    <clipPath
       clipPathUnits="userSpaceOnUse"
       id="clipPath2263">
      <path
         d="M 405.945,581.146 H 645.733 V 212.462 H 405.945 Z"
         transform="translate(-473.40641,-345.68591)"
         id="path2263" />
    </clipPath>
    <clipPath
       clipPathUnits="userSpaceOnUse"
       id="clipPath2264">
      <path
         d="M 405.945,581.146 H 645.733 V 212.462 H 405.945 Z"
         transform="translate(-462.50811,-345.69721)"
         id="path2264" />
    </clipPath>
    <clipPath
       clipPathUnits="userSpaceOnUse"
       id="clipPath2268">
      <path
         d="M 405.945,581.146 H 645.733 V 212.462 H 405.945 Z"
         transform="translate(-477.94641,-329.08853)"
         id="path2268" />
    </clipPath>
    <clipPath
       clipPathUnits="userSpaceOnUse"
       id="clipPath2272">
      <path
         d="M 405.945,581.146 H 645.733 V 212.462 H 405.945 Z"
         transform="translate(-627.96232,-338.20861)"
         id="path2272" />
    </clipPath>
    <clipPath
       clipPathUnits="userSpaceOnUse"
       id="clipPath2274">
      <path
         d="M 405.945,581.146 H 645.733 V 212.462 H 405.945 Z"
         transform="translate(-469.33351,-338.12241)"
         id="path2274" />
    </clipPath>
    <clipPath
       clipPathUnits="userSpaceOnUse"
       id="clipPath2276">
      <path
         d="M 405.945,581.146 H 645.733 V 212.462 H 405.945 Z"
         transform="translate(-435.45681,-388.67581)"
         id="path2276" />
    </clipPath>
    <clipPath
       clipPathUnits="userSpaceOnUse"
       id="clipPath2277">
      <path
         d="M 405.945,581.146 H 645.733 V 212.462 H 405.945 Z"
         transform="translate(-529.69841,-320.74501)"
         id="path2277" />
    </clipPath>
    <clipPath
       clipPathUnits="userSpaceOnUse"
       id="clipPath2278">
      <path
         d="M 405.945,581.146 H 645.733 V 212.462 H 405.945 Z"
         transform="translate(-630.45392,-320.39161)"
         id="path2278" />
    </clipPath>
    <clipPath
       clipPathUnits="userSpaceOnUse"
       id="clipPath2279">
      <path
         d="M 405.945,581.146 H 645.733 V 212.462 H 405.945 Z"
         transform="translate(-599.58761,-312.70718)"
         id="path2279" />
    </clipPath>
    <clipPath
       clipPathUnits="userSpaceOnUse"
       id="clipPath2280">
      <path
         d="M 405.945,581.146 H 645.733 V 212.462 H 405.945 Z"
         transform="translate(-612.58811,-372.80871)"
         id="path2280" />
    </clipPath>
    <clipPath
       clipPathUnits="userSpaceOnUse"
       id="clipPath2281">
      <path
         d="M 405.945,581.146 H 645.733 V 212.462 H 405.945 Z"
         transform="translate(-464.02911,-381.49601)"
         id="path2281" />
    </clipPath>
    <clipPath
       clipPathUnits="userSpaceOnUse"
       id="clipPath2283">
      <path
         d="M 405.945,581.146 H 645.733 V 212.462 H 405.945 Z"
         transform="translate(-468.64441,-382.95111)"
         id="path2283" />
    </clipPath>
    <clipPath
       clipPathUnits="userSpaceOnUse"
       id="clipPath2284">
      <path
         d="M 405.945,581.146 H 645.733 V 212.462 H 405.945 Z"
         transform="translate(-531.53332,-329.05868)"
         id="path2284" />
    </clipPath>
    <clipPath
       clipPathUnits="userSpaceOnUse"
       id="clipPath2287">
      <path
         d="M 405.945,581.146 H 645.733 V 212.462 H 405.945 Z"
         transform="translate(-584.58352,-364.69781)"
         id="path2287" />
    </clipPath>
    <clipPath
       clipPathUnits="userSpaceOnUse"
       id="clipPath2288">
      <path
         d="M 405.945,581.146 H 645.733 V 212.462 H 405.945 Z"
         transform="translate(-593.97742,-315.51803)"
         id="path2288" />
    </clipPath>
    <clipPath
       clipPathUnits="userSpaceOnUse"
       id="clipPath2289">
      <path
         d="M 405.945,581.146 H 645.733 V 212.462 H 405.945 Z"
         transform="translate(-574.98521,-330.25461)"
         id="path2289" />
    </clipPath>
    <clipPath
       clipPathUnits="userSpaceOnUse"
       id="clipPath2290">
      <path
         d="M 405.945,581.146 H 645.733 V 212.462 H 405.945 Z"
         transform="translate(-572.31271,-332.14061)"
         id="path2290" />
    </clipPath>
    <clipPath
       clipPathUnits="userSpaceOnUse"
       id="clipPath2292">
      <path
         d="M 405.945,581.146 H 645.733 V 212.462 H 405.945 Z"
         transform="translate(-446.90601,-345.18761)"
         id="path2292" />
    </clipPath>
    <clipPath
       clipPathUnits="userSpaceOnUse"
       id="clipPath2295">
      <path
         d="M 405.945,581.146 H 645.733 V 212.462 H 405.945 Z"
         transform="translate(-605.98822,-413.01721)"
         id="path2295" />
    </clipPath>
    <clipPath
       clipPathUnits="userSpaceOnUse"
       id="clipPath2296">
      <path
         d="M 405.945,581.146 H 645.733 V 212.462 H 405.945 Z"
         transform="translate(-604.78612,-411.24921)"
         id="path2296" />
    </clipPath>
    <clipPath
       clipPathUnits="userSpaceOnUse"
       id="clipPath2297">
      <path
         d="M 405.945,581.146 H 645.733 V 212.462 H 405.945 Z"
         transform="translate(-443.74841,-420.00981)"
         id="path2297" />
    </clipPath>
    <clipPath
       clipPathUnits="userSpaceOnUse"
       id="clipPath2298">
      <path
         d="M 405.945,581.146 H 645.733 V 212.462 H 405.945 Z"
         transform="translate(-519.20062,-429.10051)"
         id="path2298" />
    </clipPath>
    <clipPath
       clipPathUnits="userSpaceOnUse"
       id="clipPath2299">
      <path
         d="M 405.945,581.146 H 645.733 V 212.462 H 405.945 Z"
         transform="translate(-503.95541,-441.54861)"
         id="path2299" />
    </clipPath>
    <clipPath
       clipPathUnits="userSpaceOnUse"
       id="clipPath2300">
      <path
         d="M 405.945,581.146 H 645.733 V 212.462 H 405.945 Z"
         transform="translate(-520.63462,-437.20971)"
         id="path2300" />
    </clipPath>
    <clipPath
       clipPathUnits="userSpaceOnUse"
       id="clipPath2301">
      <path
         d="M 405.945,581.146 H 645.733 V 212.462 H 405.945 Z"
         transform="translate(-521.22421,-393.58931)"
         id="path2301" />
    </clipPath>
    <clipPath
       clipPathUnits="userSpaceOnUse"
       id="clipPath2302">
      <path
         d="M 405.945,581.146 H 645.733 V 212.462 H 405.945 Z"
         transform="translate(-516.99022,-389.03501)"
         id="path2302" />
    </clipPath>
    <clipPath
       clipPathUnits="userSpaceOnUse"
       id="clipPath2303">
      <path
         d="M 405.945,581.146 H 645.733 V 212.462 H 405.945 Z"
         transform="translate(-516.23671,-383.98571)"
         id="path2303" />
    </clipPath>
    <clipPath
       clipPathUnits="userSpaceOnUse"
       id="clipPath2304">
      <path
         d="M 405.945,581.146 H 645.733 V 212.462 H 405.945 Z"
         transform="translate(-518.35781,-380.10101)"
         id="path2304" />
    </clipPath>
    <clipPath
       clipPathUnits="userSpaceOnUse"
       id="clipPath2305">
      <path
         d="M 405.945,581.146 H 645.733 V 212.462 H 405.945 Z"
         transform="translate(-532.34531,-374.29151)"
         id="path2305" />
    </clipPath>
    <clipPath
       clipPathUnits="userSpaceOnUse"
       id="clipPath2306">
      <path
         d="M 405.945,581.146 H 645.733 V 212.462 H 405.945 Z"
         transform="translate(-538.82231,-401.52141)"
         id="path2306" />
    </clipPath>
    <clipPath
       clipPathUnits="userSpaceOnUse"
       id="clipPath2307">
      <path
         d="M 405.945,581.146 H 645.733 V 212.462 H 405.945 Z"
         transform="translate(-537.72251,-397.47061)"
         id="path2307" />
    </clipPath>
    <clipPath
       clipPathUnits="userSpaceOnUse"
       id="clipPath2308">
      <path
         d="M 405.945,581.146 H 645.733 V 212.462 H 405.945 Z"
         transform="translate(-535.75991,-390.39591)"
         id="path2308" />
    </clipPath>
    <clipPath
       clipPathUnits="userSpaceOnUse"
       id="clipPath2309">
      <path
         d="M 405.945,581.146 H 645.733 V 212.462 H 405.945 Z"
         transform="translate(-536.61382,-395.15731)"
         id="path2309" />
    </clipPath>
    <clipPath
       clipPathUnits="userSpaceOnUse"
       id="clipPath2310">
      <path
         d="M 405.945,581.146 H 645.733 V 212.462 H 405.945 Z"
         transform="translate(-528.17752,-371.87031)"
         id="path2310" />
    </clipPath>
    <clipPath
       clipPathUnits="userSpaceOnUse"
       id="clipPath2311">
      <path
         d="M 405.945,581.146 H 645.733 V 212.462 H 405.945 Z"
         transform="translate(-520.99132,-369.99791)"
         id="path2311" />
    </clipPath>
    <clipPath
       clipPathUnits="userSpaceOnUse"
       id="clipPath2312">
      <path
         d="M 405.945,581.146 H 645.733 V 212.462 H 405.945 Z"
         transform="translate(-608.81582,-362.99851)"
         id="path2312" />
    </clipPath>
    <clipPath
       clipPathUnits="userSpaceOnUse"
       id="clipPath2313">
      <path
         d="M 405.945,581.146 H 645.733 V 212.462 H 405.945 Z"
         transform="translate(-472.41161,-405.21081)"
         id="path2313" />
    </clipPath>
    <clipPath
       clipPathUnits="userSpaceOnUse"
       id="clipPath2314">
      <path
         d="M 405.945,581.146 H 645.733 V 212.462 H 405.945 Z"
         transform="translate(-552.97291,-399.51141)"
         id="path2314" />
    </clipPath>
    <clipPath
       clipPathUnits="userSpaceOnUse"
       id="clipPath2315">
      <path
         d="M 405.945,581.146 H 645.733 V 212.462 H 405.945 Z"
         transform="translate(-550.44551,-382.35341)"
         id="path2315" />
    </clipPath>
    <clipPath
       clipPathUnits="userSpaceOnUse"
       id="clipPath2316">
      <path
         d="M 405.945,581.146 H 645.733 V 212.462 H 405.945 Z"
         transform="translate(-551.61922,-391.08391)"
         id="path2316" />
    </clipPath>
    <clipPath
       clipPathUnits="userSpaceOnUse"
       id="clipPath2317">
      <path
         d="M 405.945,581.146 H 645.733 V 212.462 H 405.945 Z"
         transform="translate(-550.79251,-386.64391)"
         id="path2317" />
    </clipPath>
    <clipPath
       clipPathUnits="userSpaceOnUse"
       id="clipPath2318">
      <path
         d="M 405.945,581.146 H 645.733 V 212.462 H 405.945 Z"
         transform="translate(-521.22421,-393.58931)"
         id="path2318" />
    </clipPath>
    <clipPath
       clipPathUnits="userSpaceOnUse"
       id="clipPath2319">
      <path
         d="M 405.945,581.146 H 645.733 V 212.462 H 405.945 Z"
         transform="translate(-552.97291,-399.51141)"
         id="path2319" />
    </clipPath>
    <clipPath
       clipPathUnits="userSpaceOnUse"
       id="clipPath1723">
      <path
         d="M 0,1080 H 1920 V 0 H 0 Z"
         transform="matrix(1.3333333,0,0,-1.3333333,0,1440)"
         id="path1723" />
    </clipPath>
    <clipPath
       clipPathUnits="userSpaceOnUse"
       id="clipPath1608">
      <path
         d="m 624.06,522.108 h 534 V 0.108215 h -534 z"
         transform="translate(-886.9324,-65.622077)"
         id="path1608" />
    </clipPath>
    <clipPath
       clipPathUnits="userSpaceOnUse"
       id="clipPath1623">
      <path
         d="m 624.06,522.108 h 534 V 0.108215 h -534 z"
         transform="translate(-716.88592,-319.40588)"
         id="path1623" />
    </clipPath>
    <clipPath
       clipPathUnits="userSpaceOnUse"
       id="clipPath1624">
      <path
         d="m 624.06,522.108 h 534 V 0.108215 h -534 z"
         transform="translate(-737.96852,-317.09888)"
         id="path1624" />
    </clipPath>
    <clipPath
       clipPathUnits="userSpaceOnUse"
       id="clipPath1630">
      <path
         d="m 624.06,522.108 h 534 V 0.108215 h -534 z"
         transform="translate(-814.6006,-168.2925)"
         id="path1630" />
    </clipPath>
    <clipPath
       clipPathUnits="userSpaceOnUse"
       id="clipPath1631">
      <path
         d="m 624.06,522.108 h 534 V 0.108215 h -534 z"
         transform="translate(-928.79162,-197.28923)"
         id="path1631" />
    </clipPath>
    <clipPath
       clipPathUnits="userSpaceOnUse"
       id="clipPath1635">
      <path
         d="m 624.06,522.108 h 534 V 0.108215 h -534 z"
         transform="translate(-788.20059,-239.56988)"
         id="path1635" />
    </clipPath>
    <clipPath
       clipPathUnits="userSpaceOnUse"
       id="clipPath1638">
      <path
         d="m 624.06,522.108 h 534 V 0.108215 h -534 z"
         transform="translate(-767.02344,-202.50263)"
         id="path1638" />
    </clipPath>
    <clipPath
       clipPathUnits="userSpaceOnUse"
       id="clipPath1639">
      <path
         d="m 624.06,522.108 h 534 V 0.108215 h -534 z"
         transform="translate(-772.21742,-191.51348)"
         id="path1639" />
    </clipPath>
    <clipPath
       clipPathUnits="userSpaceOnUse"
       id="clipPath1652">
      <path
         d="m 624.06,522.108 h 534 V 0.108215 h -534 z"
         transform="translate(-814.6006,-168.2925)"
         id="path1652" />
    </clipPath>
    <clipPath
       clipPathUnits="userSpaceOnUse"
       id="clipPath1653">
      <path
         d="m 624.06,522.108 h 534 V 0.108215 h -534 z"
         transform="translate(-925.8184,-199.1691)"
         id="path1653" />
    </clipPath>
    <clipPath
       clipPathUnits="userSpaceOnUse"
       id="clipPath1654">
      <path
         d="m 624.06,522.108 h 534 V 0.108215 h -534 z"
         transform="translate(-800.77195,-111.12)"
         id="path1654" />
    </clipPath>
    <clipPath
       clipPathUnits="userSpaceOnUse"
       id="clipPath1661">
      <path
         d="m 624.06,522.108 h 534 V 0.108215 h -534 z"
         transform="translate(-862.34612,-177.987)"
         id="path1661" />
    </clipPath>
    <clipPath
       clipPathUnits="userSpaceOnUse"
       id="clipPath1795-8">
      <path
         d="m 1231.44,461.129 h 260.18 V 61.0878 h -260.18 z"
         transform="translate(-1340.3722,-309.17243)"
         id="path1795-6" />
    </clipPath>
    <clipPath
       clipPathUnits="userSpaceOnUse"
       id="clipPath440">
      <path
         d="M 0,1080 H 1920 V 0 H 0 Z"
         transform="matrix(1.3333333,0,0,-1.3333333,0,1440)"
         id="path440" />
    </clipPath>
    <clipPath
       clipPathUnits="userSpaceOnUse"
       id="clipPath295">
      <path
         d="m 495.121,1014.22 h 381.55 V 427.224 h -381.55 z"
         transform="translate(-807.61975,-620.09372)"
         id="path295" />
    </clipPath>
    <clipPath
       clipPathUnits="userSpaceOnUse"
       id="clipPath297">
      <path
         d="m 495.121,1014.22 h 381.55 V 427.224 h -381.55 z"
         transform="translate(-709.90612,-813.79452)"
         id="path297" />
    </clipPath>
    <clipPath
       clipPathUnits="userSpaceOnUse"
       id="clipPath299">
      <path
         d="m 495.121,1014.22 h 381.55 V 427.224 h -381.55 z"
         transform="translate(-784.77159,-787.21702)"
         id="path299" />
    </clipPath>
    <clipPath
       clipPathUnits="userSpaceOnUse"
       id="clipPath300">
      <path
         d="m 495.121,1014.22 h 381.55 V 427.224 h -381.55 z"
         transform="translate(-546.67961,-664.01392)"
         id="path300" />
    </clipPath>
    <clipPath
       clipPathUnits="userSpaceOnUse"
       id="clipPath301">
      <path
         d="m 495.121,1014.22 h 381.55 V 427.224 h -381.55 z"
         transform="translate(-672.71111,-821.56852)"
         id="path301" />
    </clipPath>
    <clipPath
       clipPathUnits="userSpaceOnUse"
       id="clipPath303">
      <path
         d="m 495.121,1014.22 h 381.55 V 427.224 h -381.55 z"
         transform="translate(-557.47411,-644.09441)"
         id="path303" />
    </clipPath>
    <clipPath
       clipPathUnits="userSpaceOnUse"
       id="clipPath305">
      <path
         d="m 495.121,1014.22 h 381.55 V 427.224 h -381.55 z"
         transform="translate(-714.02362,-792.02482)"
         id="path305" />
    </clipPath>
    <clipPath
       clipPathUnits="userSpaceOnUse"
       id="clipPath310">
      <path
         d="m 495.121,1014.22 h 381.55 V 427.224 h -381.55 z"
         transform="translate(-710.27612,-631.91332)"
         id="path310" />
    </clipPath>
    <clipPath
       clipPathUnits="userSpaceOnUse"
       id="clipPath311">
      <path
         d="m 495.121,1014.22 h 381.55 V 427.224 h -381.55 z"
         transform="translate(-713.26672,-622.59502)"
         id="path311" />
    </clipPath>
    <clipPath
       clipPathUnits="userSpaceOnUse"
       id="clipPath313">
      <path
         d="m 495.121,1014.22 h 381.55 V 427.224 h -381.55 z"
         transform="translate(-751.84472,-631.30732)"
         id="path313" />
    </clipPath>
    <clipPath
       clipPathUnits="userSpaceOnUse"
       id="clipPath314">
      <path
         d="m 495.121,1014.22 h 381.55 V 427.224 h -381.55 z"
         transform="translate(-744.15722,-654.25481)"
         id="path314" />
    </clipPath>
    <clipPath
       clipPathUnits="userSpaceOnUse"
       id="clipPath315">
      <path
         d="m 495.121,1014.22 h 381.55 V 427.224 h -381.55 z"
         transform="translate(-754.60284,-621.12701)"
         id="path315" />
    </clipPath>
    <clipPath
       clipPathUnits="userSpaceOnUse"
       id="clipPath316">
      <path
         d="m 495.121,1014.22 h 381.55 V 427.224 h -381.55 z"
         transform="translate(-747.65922,-643.75942)"
         id="path316" />
    </clipPath>
    <clipPath
       clipPathUnits="userSpaceOnUse"
       id="clipPath317">
      <path
         d="m 495.121,1014.22 h 381.55 V 427.224 h -381.55 z"
         transform="translate(-718.15302,-605.50202)"
         id="path317" />
    </clipPath>
    <clipPath
       clipPathUnits="userSpaceOnUse"
       id="clipPath320">
      <path
         d="m 495.121,1014.22 h 381.55 V 427.224 h -381.55 z"
         transform="translate(-765.34944,-625.66802)"
         id="path320" />
    </clipPath>
    <clipPath
       clipPathUnits="userSpaceOnUse"
       id="clipPath321">
      <path
         d="m 495.121,1014.22 h 381.55 V 427.224 h -381.55 z"
         transform="translate(-527.15291,-753.15872)"
         id="path321" />
    </clipPath>
    <clipPath
       clipPathUnits="userSpaceOnUse"
       id="clipPath323">
      <path
         d="m 495.121,1014.22 h 381.55 V 427.224 h -381.55 z"
         transform="translate(-836.97692,-734.93452)"
         id="path323" />
    </clipPath>
    <clipPath
       clipPathUnits="userSpaceOnUse"
       id="clipPath326">
      <path
         d="m 495.121,1014.22 h 381.55 V 427.224 h -381.55 z"
         transform="translate(-549.12701,-730.53702)"
         id="path326" />
    </clipPath>
    <clipPath
       clipPathUnits="userSpaceOnUse"
       id="clipPath328">
      <path
         d="m 495.121,1014.22 h 381.55 V 427.224 h -381.55 z"
         transform="translate(-556.85722,-740.37002)"
         id="path328" />
    </clipPath>
    <clipPath
       clipPathUnits="userSpaceOnUse"
       id="clipPath331">
      <path
         d="m 495.121,1014.22 h 381.55 V 427.224 h -381.55 z"
         transform="translate(-559.01731,-742.21522)"
         id="path331" />
    </clipPath>
    <clipPath
       clipPathUnits="userSpaceOnUse"
       id="clipPath333">
      <path
         d="m 495.121,1014.22 h 381.55 V 427.224 h -381.55 z"
         transform="translate(-575.05061,-754.41212)"
         id="path333" />
    </clipPath>
    <clipPath
       clipPathUnits="userSpaceOnUse"
       id="clipPath335">
      <path
         d="m 495.121,1014.22 h 381.55 V 427.224 h -381.55 z"
         transform="translate(-595.93511,-684.01862)"
         id="path335" />
    </clipPath>
    <clipPath
       clipPathUnits="userSpaceOnUse"
       id="clipPath336">
      <path
         d="m 495.121,1014.22 h 381.55 V 427.224 h -381.55 z"
         transform="translate(-701.72532,-684.81701)"
         id="path336" />
    </clipPath>
    <clipPath
       clipPathUnits="userSpaceOnUse"
       id="clipPath338">
      <path
         d="m 495.121,1014.22 h 381.55 V 427.224 h -381.55 z"
         transform="translate(-614.27111,-670.75352)"
         id="path338" />
    </clipPath>
    <clipPath
       clipPathUnits="userSpaceOnUse"
       id="clipPath339">
      <path
         d="m 495.121,1014.22 h 381.55 V 427.224 h -381.55 z"
         transform="translate(-802.25965,-726.38132)"
         id="path339" />
    </clipPath>
    <clipPath
       clipPathUnits="userSpaceOnUse"
       id="clipPath340">
      <path
         d="m 495.121,1014.22 h 381.55 V 427.224 h -381.55 z"
         transform="translate(-575.48831,-762.37022)"
         id="path340" />
    </clipPath>
    <clipPath
       clipPathUnits="userSpaceOnUse"
       id="clipPath341">
      <path
         d="m 495.121,1014.22 h 381.55 V 427.224 h -381.55 z"
         transform="translate(-522.93502,-754.83512)"
         id="path341" />
    </clipPath>
    <clipPath
       clipPathUnits="userSpaceOnUse"
       id="clipPath342">
      <path
         d="m 495.121,1014.22 h 381.55 V 427.224 h -381.55 z"
         transform="translate(-579.97841,-694.84202)"
         id="path342" />
    </clipPath>
    <clipPath
       clipPathUnits="userSpaceOnUse"
       id="clipPath344">
      <path
         d="m 495.121,1014.22 h 381.55 V 427.224 h -381.55 z"
         transform="translate(-588.90592,-723.74352)"
         id="path344" />
    </clipPath>
    <clipPath
       clipPathUnits="userSpaceOnUse"
       id="clipPath362">
      <path
         d="m 495.121,1014.22 h 381.55 V 427.224 h -381.55 z"
         transform="translate(-682.85441,-700.33262)"
         id="path362" />
    </clipPath>
    <clipPath
       clipPathUnits="userSpaceOnUse"
       id="clipPath363">
      <path
         d="m 495.121,1014.22 h 381.55 V 427.224 h -381.55 z"
         transform="translate(-540.92501,-725.30642)"
         id="path363" />
    </clipPath>
    <clipPath
       clipPathUnits="userSpaceOnUse"
       id="clipPath364">
      <path
         d="m 495.121,1014.22 h 381.55 V 427.224 h -381.55 z"
         transform="translate(-632.24381,-735.44892)"
         id="path364" />
    </clipPath>
    <clipPath
       clipPathUnits="userSpaceOnUse"
       id="clipPath365">
      <path
         d="m 495.121,1014.22 h 381.55 V 427.224 h -381.55 z"
         transform="translate(-645.77782,-771.13542)"
         id="path365" />
    </clipPath>
    <clipPath
       clipPathUnits="userSpaceOnUse"
       id="clipPath366">
      <path
         d="m 495.121,1014.22 h 381.55 V 427.224 h -381.55 z"
         transform="translate(-611.40772,-756.54722)"
         id="path366" />
    </clipPath>
    <clipPath
       clipPathUnits="userSpaceOnUse"
       id="clipPath293">
      <path
         d="M 0,1080 H 1920 V 0 H 0 Z"
         transform="matrix(1.3333333,0,0,-1.3333333,0,1440)"
         id="path293" />
    </clipPath>
    <clipPath
       clipPathUnits="userSpaceOnUse"
       id="clipPath1">
      <path
         d="m 912.57,1005.97 h 326.02 V 504.399 H 912.57 Z"
         transform="translate(-1034.4573,-616.08482)"
         id="path1" />
    </clipPath>
    <clipPath
       clipPathUnits="userSpaceOnUse"
       id="clipPath33">
      <path
         d="m 912.57,1005.97 h 326.02 V 504.399 H 912.57 Z"
         transform="translate(-1159.5555,-904.24062)"
         id="path33" />
    </clipPath>
    <clipPath
       clipPathUnits="userSpaceOnUse"
       id="clipPath45">
      <path
         d="m 912.57,1005.97 h 326.02 V 504.399 H 912.57 Z"
         transform="translate(-1080.4263,-707.64422)"
         id="path45" />
    </clipPath>
    <clipPath
       clipPathUnits="userSpaceOnUse"
       id="clipPath46">
      <path
         d="m 912.57,1005.97 h 326.02 V 504.399 H 912.57 Z"
         transform="translate(-1083.55,-708.35532)"
         id="path46" />
    </clipPath>
    <clipPath
       clipPathUnits="userSpaceOnUse"
       id="clipPath47">
      <path
         d="m 912.57,1005.97 h 326.02 V 504.399 H 912.57 Z"
         transform="translate(-1134.1627,-940.59533)"
         id="path47" />
    </clipPath>
    <clipPath
       clipPathUnits="userSpaceOnUse"
       id="clipPath68-3">
      <path
         d="m 912.57,1005.97 h 326.02 V 504.399 H 912.57 Z"
         transform="translate(-1036.3749,-663.03812)"
         id="path68-4" />
    </clipPath>
    <clipPath
       clipPathUnits="userSpaceOnUse"
       id="clipPath69-4">
      <path
         d="m 912.57,1005.97 h 326.02 V 504.399 H 912.57 Z"
         transform="translate(-1016.6848,-774.76692)"
         id="path69-6" />
    </clipPath>
    <clipPath
       clipPathUnits="userSpaceOnUse"
       id="clipPath70-0">
      <path
         d="m 912.57,1005.97 h 326.02 V 504.399 H 912.57 Z"
         transform="translate(-1023.0409,-757.72192)"
         id="path70-6" />
    </clipPath>
    <clipPath
       clipPathUnits="userSpaceOnUse"
       id="clipPath71">
      <path
         d="m 912.57,1005.97 h 326.02 V 504.399 H 912.57 Z"
         transform="translate(-1012.6402,-690.70151)"
         id="path71" />
    </clipPath>
    <clipPath
       clipPathUnits="userSpaceOnUse"
       id="clipPath72">
      <path
         d="m 912.57,1005.97 h 326.02 V 504.399 H 912.57 Z"
         transform="translate(-1018.6443,-793.40522)"
         id="path72" />
    </clipPath>
    <clipPath
       clipPathUnits="userSpaceOnUse"
       id="clipPath73-6">
      <path
         d="m 912.57,1005.97 h 326.02 V 504.399 H 912.57 Z"
         transform="translate(-1000.9065,-783.62742)"
         id="path73-1" />
    </clipPath>
    <clipPath
       clipPathUnits="userSpaceOnUse"
       id="clipPath74-8">
      <path
         d="m 912.57,1005.97 h 326.02 V 504.399 H 912.57 Z"
         transform="translate(-1061.194,-694.76762)"
         id="path74-4" />
    </clipPath>
    <clipPath
       clipPathUnits="userSpaceOnUse"
       id="clipPath75">
      <path
         d="m 912.57,1005.97 h 326.02 V 504.399 H 912.57 Z"
         transform="translate(-1084.2399,-663.04991)"
         id="path75" />
    </clipPath>
    <clipPath
       clipPathUnits="userSpaceOnUse"
       id="clipPath76-9">
      <path
         d="m 912.57,1005.97 h 326.02 V 504.399 H 912.57 Z"
         transform="translate(-986.50165,-774.59332)"
         id="path76-6" />
    </clipPath>
    <clipPath
       clipPathUnits="userSpaceOnUse"
       id="clipPath77">
      <path
         d="m 912.57,1005.97 h 326.02 V 504.399 H 912.57 Z"
         transform="translate(-1057.9815,-758.32752)"
         id="path77" />
    </clipPath>
    <clipPath
       clipPathUnits="userSpaceOnUse"
       id="clipPath78-3">
      <path
         d="m 912.57,1005.97 h 326.02 V 504.399 H 912.57 Z"
         transform="translate(-1032.3354,-674.07292)"
         id="path78-7" />
    </clipPath>
    <clipPath
       clipPathUnits="userSpaceOnUse"
       id="clipPath79-8">
      <path
         d="m 912.57,1005.97 h 326.02 V 504.399 H 912.57 Z"
         transform="translate(-1016.2167,-705.09372)"
         id="path79-8" />
    </clipPath>
    <clipPath
       clipPathUnits="userSpaceOnUse"
       id="clipPath80-2">
      <path
         d="m 912.57,1005.97 h 326.02 V 504.399 H 912.57 Z"
         transform="translate(-1042.5219,-742.11352)"
         id="path80-9" />
    </clipPath>
    <clipPath
       clipPathUnits="userSpaceOnUse"
       id="clipPath81-1">
      <path
         d="m 912.57,1005.97 h 326.02 V 504.399 H 912.57 Z"
         transform="translate(-1035.1134,-645.27992)"
         id="path81-3" />
    </clipPath>
    <clipPath
       clipPathUnits="userSpaceOnUse"
       id="clipPath82-5">
      <path
         d="m 912.57,1005.97 h 326.02 V 504.399 H 912.57 Z"
         transform="translate(-1008.6354,-712.68622)"
         id="path82-9" />
    </clipPath>
    <clipPath
       clipPathUnits="userSpaceOnUse"
       id="clipPath83">
      <path
         d="m 912.57,1005.97 h 326.02 V 504.399 H 912.57 Z"
         transform="translate(-987.0385,-754.73032)"
         id="path83" />
    </clipPath>
    <clipPath
       clipPathUnits="userSpaceOnUse"
       id="clipPath84-8">
      <path
         d="m 912.57,1005.97 h 326.02 V 504.399 H 912.57 Z"
         transform="translate(-1091.2659,-670.23622)"
         id="path84-4" />
    </clipPath>
    <clipPath
       clipPathUnits="userSpaceOnUse"
       id="clipPath85-0">
      <path
         d="m 912.57,1005.97 h 326.02 V 504.399 H 912.57 Z"
         transform="translate(-998.67032,-743.65182)"
         id="path85-7" />
    </clipPath>
    <clipPath
       clipPathUnits="userSpaceOnUse"
       id="clipPath86-6">
      <path
         d="m 912.57,1005.97 h 326.02 V 504.399 H 912.57 Z"
         transform="translate(-1049.1442,-651.23962)"
         id="path86-3" />
    </clipPath>
    <clipPath
       clipPathUnits="userSpaceOnUse"
       id="clipPath87-6">
      <path
         d="m 912.57,1005.97 h 326.02 V 504.399 H 912.57 Z"
         transform="translate(-1042.4784,-800.50432)"
         id="path87-1" />
    </clipPath>
    <clipPath
       clipPathUnits="userSpaceOnUse"
       id="clipPath88-5">
      <path
         d="m 912.57,1005.97 h 326.02 V 504.399 H 912.57 Z"
         transform="translate(-1044.4569,-808.88152)"
         id="path88-4" />
    </clipPath>
    <clipPath
       clipPathUnits="userSpaceOnUse"
       id="clipPath89-2">
      <path
         d="m 912.57,1005.97 h 326.02 V 504.399 H 912.57 Z"
         transform="translate(-1043.1439,-686.15972)"
         id="path89-0" />
    </clipPath>
    <clipPath
       clipPathUnits="userSpaceOnUse"
       id="clipPath90-9">
      <path
         d="m 912.57,1005.97 h 326.02 V 504.399 H 912.57 Z"
         transform="translate(-1029.4137,-749.59672)"
         id="path90-7" />
    </clipPath>
    <clipPath
       clipPathUnits="userSpaceOnUse"
       id="clipPath91-3">
      <path
         d="m 912.57,1005.97 h 326.02 V 504.399 H 912.57 Z"
         transform="translate(-1044.1662,-677.46581)"
         id="path91-7" />
    </clipPath>
    <clipPath
       clipPathUnits="userSpaceOnUse"
       id="clipPath92-2">
      <path
         d="m 912.57,1005.97 h 326.02 V 504.399 H 912.57 Z"
         transform="translate(-1066.9197,-659.31152)"
         id="path92-6" />
    </clipPath>
    <clipPath
       clipPathUnits="userSpaceOnUse"
       id="clipPath93-0">
      <path
         d="m 912.57,1005.97 h 326.02 V 504.399 H 912.57 Z"
         transform="translate(-1027.4952,-713.37952)"
         id="path93-1" />
    </clipPath>
    <clipPath
       clipPathUnits="userSpaceOnUse"
       id="clipPath94-6">
      <path
         d="m 912.57,1005.97 h 326.02 V 504.399 H 912.57 Z"
         transform="translate(-1038.9916,-721.87912)"
         id="path94-5" />
    </clipPath>
    <clipPath
       clipPathUnits="userSpaceOnUse"
       id="clipPath95-7">
      <path
         d="m 912.57,1005.97 h 326.02 V 504.399 H 912.57 Z"
         transform="translate(-1046.6754,-714.13092)"
         id="path95-5" />
    </clipPath>
    <clipPath
       clipPathUnits="userSpaceOnUse"
       id="clipPath96-4">
      <path
         d="m 912.57,1005.97 h 326.02 V 504.399 H 912.57 Z"
         transform="translate(-1048.8079,-796.05022)"
         id="path96-1" />
    </clipPath>
    <clipPath
       clipPathUnits="userSpaceOnUse"
       id="clipPath97-2">
      <path
         d="m 912.57,1005.97 h 326.02 V 504.399 H 912.57 Z"
         transform="translate(-1059.0553,-772.26932)"
         id="path97-0" />
    </clipPath>
    <clipPath
       clipPathUnits="userSpaceOnUse"
       id="clipPath98-0">
      <path
         d="m 912.57,1005.97 h 326.02 V 504.399 H 912.57 Z"
         transform="translate(-1056.363,-647.86112)"
         id="path98-1" />
    </clipPath>
    <clipPath
       clipPathUnits="userSpaceOnUse"
       id="clipPath99-4">
      <path
         d="m 912.57,1005.97 h 326.02 V 504.399 H 912.57 Z"
         transform="translate(-1056.498,-783.44312)"
         id="path99-6" />
    </clipPath>
    <clipPath
       clipPathUnits="userSpaceOnUse"
       id="clipPath100-0">
      <path
         d="m 912.57,1005.97 h 326.02 V 504.399 H 912.57 Z"
         transform="translate(-1006.954,-738.38042)"
         id="path100-7" />
    </clipPath>
    <clipPath
       clipPathUnits="userSpaceOnUse"
       id="clipPath101">
      <path
         d="m 912.57,1005.97 h 326.02 V 504.399 H 912.57 Z"
         transform="translate(-1010.9734,-728.95402)"
         id="path101" />
    </clipPath>
    <clipPath
       clipPathUnits="userSpaceOnUse"
       id="clipPath103">
      <path
         d="m 912.57,1005.97 h 326.02 V 504.399 H 912.57 Z"
         transform="translate(-1100.9265,-682.23532)"
         id="path103" />
    </clipPath>
    <clipPath
       clipPathUnits="userSpaceOnUse"
       id="clipPath104">
      <path
         d="m 912.57,1005.97 h 326.02 V 504.399 H 912.57 Z"
         transform="translate(-1057.0623,-777.00992)"
         id="path104" />
    </clipPath>
    <clipPath
       clipPathUnits="userSpaceOnUse"
       id="clipPath105">
      <path
         d="m 912.57,1005.97 h 326.02 V 504.399 H 912.57 Z"
         transform="translate(-997.54472,-728.70642)"
         id="path105" />
    </clipPath>
    <clipPath
       clipPathUnits="userSpaceOnUse"
       id="clipPath107">
      <path
         d="m 912.57,1005.97 h 326.02 V 504.399 H 912.57 Z"
         transform="translate(-1077.2146,-692.42932)"
         id="path107" />
    </clipPath>
    <clipPath
       clipPathUnits="userSpaceOnUse"
       id="clipPath108">
      <path
         d="m 912.57,1005.97 h 326.02 V 504.399 H 912.57 Z"
         transform="translate(-1038.63,-749.24332)"
         id="path108" />
    </clipPath>
    <clipPath
       clipPathUnits="userSpaceOnUse"
       id="clipPath110">
      <path
         d="m 912.57,1005.97 h 326.02 V 504.399 H 912.57 Z"
         transform="translate(-1026.8121,-678.95792)"
         id="path110" />
    </clipPath>
    <clipPath
       clipPathUnits="userSpaceOnUse"
       id="clipPath111">
      <path
         d="m 912.57,1005.97 h 326.02 V 504.399 H 912.57 Z"
         transform="translate(-1019.0641,-798.74012)"
         id="path111" />
    </clipPath>
    <clipPath
       clipPathUnits="userSpaceOnUse"
       id="clipPath112">
      <path
         d="m 912.57,1005.97 h 326.02 V 504.399 H 912.57 Z"
         transform="translate(-1021.4181,-765.69062)"
         id="path112" />
    </clipPath>
    <clipPath
       clipPathUnits="userSpaceOnUse"
       id="clipPath113">
      <path
         d="m 912.57,1005.97 h 326.02 V 504.399 H 912.57 Z"
         transform="translate(-1049.9377,-687.69602)"
         id="path113" />
    </clipPath>
    <clipPath
       clipPathUnits="userSpaceOnUse"
       id="clipPath115">
      <path
         d="m 912.57,1005.97 h 326.02 V 504.399 H 912.57 Z"
         transform="translate(-1091.1918,-702.48272)"
         id="path115" />
    </clipPath>
    <clipPath
       clipPathUnits="userSpaceOnUse"
       id="clipPath116">
      <path
         d="m 912.57,1005.97 h 326.02 V 504.399 H 912.57 Z"
         transform="translate(-1033.2384,-764.28592)"
         id="path116" />
    </clipPath>
    <clipPath
       clipPathUnits="userSpaceOnUse"
       id="clipPath117">
      <path
         d="m 912.57,1005.97 h 326.02 V 504.399 H 912.57 Z"
         transform="translate(-1015.5879,-757.51812)"
         id="path117" />
    </clipPath>
    <clipPath
       clipPathUnits="userSpaceOnUse"
       id="clipPath118">
      <path
         d="m 912.57,1005.97 h 326.02 V 504.399 H 912.57 Z"
         transform="translate(-984.53492,-779.54242)"
         id="path118" />
    </clipPath>
    <clipPath
       clipPathUnits="userSpaceOnUse"
       id="clipPath119">
      <path
         d="m 912.57,1005.97 h 326.02 V 504.399 H 912.57 Z"
         transform="translate(-1066.5793,-685.22072)"
         id="path119" />
    </clipPath>
    <clipPath
       clipPathUnits="userSpaceOnUse"
       id="clipPath123">
      <path
         d="m 912.57,1005.97 h 326.02 V 504.399 H 912.57 Z"
         transform="translate(-1034.7843,-807.80082)"
         id="path123" />
    </clipPath>
    <clipPath
       clipPathUnits="userSpaceOnUse"
       id="clipPath126">
      <path
         d="m 912.57,1005.97 h 326.02 V 504.399 H 912.57 Z"
         transform="translate(-1108.3033,-821.18142)"
         id="path126" />
    </clipPath>
    <clipPath
       clipPathUnits="userSpaceOnUse"
       id="clipPath127">
      <path
         d="m 912.57,1005.97 h 326.02 V 504.399 H 912.57 Z"
         transform="translate(-1085.0946,-858.21082)"
         id="path127" />
    </clipPath>
    <clipPath
       clipPathUnits="userSpaceOnUse"
       id="clipPath128">
      <path
         d="m 912.57,1005.97 h 326.02 V 504.399 H 912.57 Z"
         transform="translate(-1113.4344,-860.67742)"
         id="path128" />
    </clipPath>
    <clipPath
       clipPathUnits="userSpaceOnUse"
       id="clipPath129">
      <path
         d="m 912.57,1005.97 h 326.02 V 504.399 H 912.57 Z"
         transform="translate(-960.71642,-751.89182)"
         id="path129" />
    </clipPath>
    <clipPath
       clipPathUnits="userSpaceOnUse"
       id="clipPath130">
      <path
         d="m 912.57,1005.97 h 326.02 V 504.399 H 912.57 Z"
         transform="translate(-1011.8217,-640.79942)"
         id="path130" />
    </clipPath>
    <clipPath
       clipPathUnits="userSpaceOnUse"
       id="clipPath131">
      <path
         d="m 912.57,1005.97 h 326.02 V 504.399 H 912.57 Z"
         transform="translate(-961.50955,-761.38122)"
         id="path131" />
    </clipPath>
    <clipPath
       clipPathUnits="userSpaceOnUse"
       id="clipPath138">
      <path
         d="m 912.57,1005.97 h 326.02 V 504.399 H 912.57 Z"
         transform="translate(-964.4857,-791.51742)"
         id="path138" />
    </clipPath>
    <clipPath
       clipPathUnits="userSpaceOnUse"
       id="clipPath146-1">
      <path
         d="m 912.57,1005.97 h 326.02 V 504.399 H 912.57 Z"
         transform="translate(-1079.6421,-665.70862)"
         id="path146-7" />
    </clipPath>
    <clipPath
       clipPathUnits="userSpaceOnUse"
       id="clipPath1888">
      <path
         d="M 0,1080 H 1920 V 0 H 0 Z"
         transform="matrix(1.3333333,0,0,-1.3333333,0,1440)"
         id="path1888" />
    </clipPath>
    <clipPath
       clipPathUnits="userSpaceOnUse"
       id="clipPath1725">
      <path
         d="m 1231.44,461.129 h 260.18 V 61.0878 h -260.18 z"
         transform="translate(-1326.9159,-179.1945)"
         id="path1725" />
    </clipPath>
    <clipPath
       clipPathUnits="userSpaceOnUse"
       id="clipPath1727">
      <path
         d="m 1231.44,461.129 h 260.18 V 61.0878 h -260.18 z"
         transform="translate(-1354.7934,-273.78278)"
         id="path1727" />
    </clipPath>
    <clipPath
       clipPathUnits="userSpaceOnUse"
       id="clipPath1729">
      <path
         d="m 1231.44,461.129 h 260.18 V 61.0878 h -260.18 z"
         transform="translate(-1416.7498,-292.50931)"
         id="path1729" />
    </clipPath>
    <clipPath
       clipPathUnits="userSpaceOnUse"
       id="clipPath1732">
      <path
         d="m 1231.44,461.129 h 260.18 V 61.0878 h -260.18 z"
         transform="translate(-1368.814,-272.71493)"
         id="path1732" />
    </clipPath>
    <clipPath
       clipPathUnits="userSpaceOnUse"
       id="clipPath1737">
      <path
         d="m 1231.44,461.129 h 260.18 V 61.0878 h -260.18 z"
         transform="translate(-1373.1364,-297.95221)"
         id="path1737" />
    </clipPath>
    <clipPath
       clipPathUnits="userSpaceOnUse"
       id="clipPath1738">
      <path
         d="m 1231.44,461.129 h 260.18 V 61.0878 h -260.18 z"
         transform="translate(-1415.1024,-284.59058)"
         id="path1738" />
    </clipPath>
    <clipPath
       clipPathUnits="userSpaceOnUse"
       id="clipPath1771">
      <path
         d="m 1231.44,461.129 h 260.18 V 61.0878 h -260.18 z"
         transform="translate(-1331.4195,-195.48623)"
         id="path1771" />
    </clipPath>
    <clipPath
       clipPathUnits="userSpaceOnUse"
       id="clipPath1772">
      <path
         d="m 1231.44,461.129 h 260.18 V 61.0878 h -260.18 z"
         transform="translate(-1387.9396,-213.84323)"
         id="path1772" />
    </clipPath>
    <clipPath
       clipPathUnits="userSpaceOnUse"
       id="clipPath1774">
      <path
         d="m 1231.44,461.129 h 260.18 V 61.0878 h -260.18 z"
         transform="translate(-1358.1975,-191.45783)"
         id="path1774" />
    </clipPath>
    <clipPath
       clipPathUnits="userSpaceOnUse"
       id="clipPath1795">
      <path
         d="m 1231.44,461.129 h 260.18 V 61.0878 h -260.18 z"
         transform="translate(-1340.3722,-309.17243)"
         id="path1795" />
    </clipPath>
    <clipPath
       clipPathUnits="userSpaceOnUse"
       id="clipPath1796">
      <path
         d="m 1231.44,461.129 h 260.18 V 61.0878 h -260.18 z"
         transform="translate(-1321.6536,-327.76831)"
         id="path1796" />
    </clipPath>
    <clipPath
       clipPathUnits="userSpaceOnUse"
       id="clipPath1797">
      <path
         d="m 1231.44,461.129 h 260.18 V 61.0878 h -260.18 z"
         transform="translate(-1342.8094,-319.46378)"
         id="path1797" />
    </clipPath>
    <clipPath
       clipPathUnits="userSpaceOnUse"
       id="clipPath1799">
      <path
         d="m 1231.44,461.129 h 260.18 V 61.0878 h -260.18 z"
         transform="translate(-1420.2768,-249.72991)"
         id="path1799" />
    </clipPath>
    <clipPath
       clipPathUnits="userSpaceOnUse"
       id="clipPath1803">
      <path
         d="m 1231.44,461.129 h 260.18 V 61.0878 h -260.18 z"
         transform="translate(-1385.2179,-232.54928)"
         id="path1803" />
    </clipPath>
  </defs>
  <g
     id="g1887"
     clip-path="url(#clipPath1888)"
     transform="matrix(0.38094075,0,0,0.38094075,-641.68172,-364.82766)">
    <path
       d="m 0,0 c 1.661,-10.102 2.51,-19.64 2.998,-29.533 l 1.123,-22.783 c 0.069,-1.411 1.069,-2.231 2.528,-2.474 5.079,-0.844 28.752,-4.078 31.487,-0.428 0.577,1.797 -1.512,3.808 -2.717,4.832 -5.075,4.311 -10.046,2.971 -9.906,6.513 L 27.452,5.019 C 22.442,4.28 18.1,5.525 15.129,8.88 L 4.375,13.246 c -14.679,-0.655 -29.555,0.032 -43.603,4.498 l -0.087,-24.623 0.035,-26.129 -0.129,-10.169 c -0.068,-5.383 -6.573,-3.35 -11.296,-10.09 -0.542,-0.773 -1.144,-2.43 -0.052,-2.948 2.937,-1.391 6.236,-1.339 9.517,-1.332 7.42,0.014 14.568,1.28 21.668,3.174 1.204,0.321 1.522,1.172 1.633,2.353 1.591,17.004 4.036,33.727 7.16,50.482 0.378,2.027 1.614,3.502 3.542,3.879 C -6.254,2.533 5.345,4.688 3.521,1.369 2.897,0.234 1.228,0.699 0,0 m -28.346,26.4 c -1.829,0.747 -1.793,2.42 -2.015,3.707 -2.307,1.585 -5.319,2.306 -7.316,4.447 -0.984,1.054 -2.054,1.85 -3.692,1.472 l -0.566,-13.958 c 11.492,-4.236 25.82,-6.037 38.279,-5.744 z M 31.282,12.263 41.968,67.253 C 36.383,65.278 32.424,65.199 27.287,68.868 L 25.839,58.627 23.882,46.929 17.262,10.66 c 3.383,-3.24 8.428,-3.772 12.573,-1.638 0.934,0.481 1.192,1.929 1.447,3.241 m 9.036,57.545 c -3.202,1.518 -6.511,1.243 -9.808,0.266 2.879,-1.72 6.577,-1.723 9.808,-0.266 M -14.1,46.076 c 0.78,0.317 1.214,1.053 1.274,1.548 0.068,0.57 -0.346,1.153 -0.944,1.53 -3.548,2.228 -8.943,-0.172 -14.417,4.235 -0.513,0.413 -0.738,1.011 -0.649,1.56 0.091,0.563 1.072,0.398 1.423,0.833 0.672,0.835 0.552,2.111 0.518,3.347 -6.648,-0.842 -6.591,-6.002 -10.817,-4.327 -3.511,1.391 -7.003,2.804 -9.713,5.489 -0.472,0.468 -0.657,1.167 -0.278,1.593 0.347,0.389 1.037,0.463 1.612,0.171 l 3.864,-1.963 1.581,8.457 c -5.711,1.916 -10.784,3.851 -16.472,6.489 -1.901,-5.714 -3.168,-11.519 -3.25,-17.474 -0.077,-5.521 2.43,-10.146 6.789,-13.187 7.573,-5.284 14.437,-4.831 16.036,-6.228 3.561,-3.111 7.77,-5.618 12.631,-5.733 2.542,-0.061 5.22,0.341 7.029,2.601 -2.155,-0.182 -11.251,0.895 -10.25,3.404 0.809,2.03 6.961,-2.521 13.766,0.774 0.862,0.417 1.336,1.044 1.645,1.524 0.33,0.512 0.142,2.364 -0.518,2.447 -4.355,-0.647 -8.753,-1.181 -12.783,0.768 -0.731,0.353 -1.123,1.048 -0.938,1.64 0.666,2.125 6.171,-2.22 12.861,0.502 M 107.583,71.5 c 1.832,1.209 5.627,8.373 3.313,9.253 -2.199,0.836 -5.648,-2.552 -7.634,-3.96 1.19,-0.496 2.357,-0.277 3.121,-1.122 1.009,-1.116 0.885,-2.571 1.2,-4.171 M 49.493,19.22 c 5.362,2.626 10.388,4.886 15.596,7.692 l 3.746,20.42 5.118,27.256 c 0.784,4.174 1.512,8.101 2.06,12.435 L 44.796,69.791 c -0.814,-0.698 -0.421,-2.736 -0.61,-3.713 L 37.976,34.091 33.967,11.615 Z M 4.504,16.292 14.526,12.091 c 1.096,0.273 0.673,2.136 0.838,2.822 0.488,2.04 0.678,3.855 0.989,5.85 l 0.734,4.703 0.714,3.534 1.763,9.566 4.842,25.91 c 0.355,1.898 0.622,3.572 1.22,5.605 L 5.781,78.808 -9.644,85.242 c -2.086,0.87 -9.078,4.161 -10.124,3.329 -0.348,-0.277 -0.13,-0.821 -0.219,-1.465 L -22.25,70.685 c -0.094,-0.687 0.253,-1.505 0.021,-2.148 -0.634,-1.76 -0.665,-3.381 -0.914,-5.151 l -1.259,-8.94 c 3.764,-2.71 11.058,0.579 14.095,-5.167 0.819,-1.549 -0.408,-2.986 -0.353,-4.322 0.052,-1.264 1.516,-2.732 0.904,-4.297 -1.856,-4.745 -3.195,-1.92 -5.683,-7.121 -1.271,-2.655 -4.569,-3.59 -7.271,-3.95 -1.515,-0.202 -2.879,0.362 -4.329,-0.614 z m 90.844,52.932 c 1.738,2.123 3.006,4.347 4.874,6.173 -1.286,0.028 -4.027,-0.378 -3.76,0.963 0.063,0.316 0.36,0.872 0.852,0.956 5.865,0.998 7.384,5.016 12.224,6.195 0.393,0.096 0.152,1.07 -0.044,1.318 -0.997,1.267 -4.134,0.255 -5.995,-1.199 -3.941,-3.081 -8.884,-5.223 -14.01,-4.607 0.356,2.494 6.594,9.127 2.921,10.471 C 91.183,89.943 89.884,88.74 89.22,87.729 84.129,79.968 82.492,82.981 79.581,75.885 79.17,74.881 77.659,74.6 76.869,73.925 l -3.367,-18.484 9.099,6.076 12.682,1.011 c 5.372,0.429 10.932,8.607 9.116,11.146 -0.733,1.024 -2.623,-0.288 -3.205,-0.976 -0.906,-1.072 -4.715,-7.065 -6.014,-4.966 -0.208,0.336 -0.151,1.103 0.168,1.492 M 58.61,84.183 C 51.843,81.479 46.846,77.235 41.107,72.334 c 1.41,3.888 5.074,6.246 8.218,8.557 5.809,4.269 13.802,6.33 20.039,9.725 -0.276,0.702 -0.953,1.307 -1.639,1.036 L 56.527,87.224 C 49.312,84.372 43.351,79.668 38.88,73.09 c 1.408,-0.488 2.515,-0.835 3.772,-1.529 l 29.906,16.902 c -1.037,1.47 -2.119,1.117 -3.296,0.493 C 65.858,87.15 62.394,85.695 58.61,84.183 m -5.319,3.68 10.073,4.243 c 0.399,0.716 0.476,2.168 0.061,2.905 C 59.284,92.532 55.291,90.96 51.183,89.1 44.263,85.965 39.132,80.503 37.169,73.261 37.757,73.008 38.086,73.1 38.307,73.332 37.1,72.06 41.923,83.075 53.291,87.863 M 7.022,85.639 c 2.92,-1.075 5.834,-1.635 8.667,-3.059 4.67,-2.347 9.516,-4.725 12.908,-9.3 -2.61,0.525 -4.254,2.663 -6.402,4.008 -6.048,3.79 -12.445,6.381 -19.297,8.399 -5.135,1.512 -9.95,3.307 -14.833,5.425 -0.617,0.267 -1.107,0.631 -1.739,0.372 -0.393,-0.161 -1.008,-0.369 -1.078,-1.163 3.461,-1.12 6.473,-2.462 9.788,-3.903 L 28.5,71.875 c 1.749,0.952 3.295,1.023 5.37,1.232 -2.701,6.145 -7.079,10.94 -12.747,14.402 -8.076,4.934 -17.812,5.692 -26.218,9.941 -0.281,-1.432 -0.389,-2.532 -0.108,-3.75 8.284,-3.12 15.632,-3.648 23.614,-7.587 5.116,-2.525 9.576,-5.981 12.711,-10.709 0.289,-0.437 0.11,-0.712 -0.109,-0.936 -0.258,-0.262 -0.599,-0.066 -0.879,0.272 -7.846,9.479 -17.861,12.226 -29.419,15.038 -3.756,0.913 -7.195,2.283 -10.83,3.637 -0.814,0.304 -1.956,-0.246 -1.95,-0.995 4.472,-1.868 9.044,-3.085 13.411,-4.692 z m 21.067,59.502 c 0,18.819 -15.248,34.076 -34.058,34.076 -18.809,0 -34.057,-15.257 -34.057,-34.076 0,-18.82 15.248,-34.076 34.057,-34.076 18.81,0 34.058,15.256 34.058,34.076 m 0.96,-180.025 c -0.177,-2.964 -0.526,-5.716 -0.209,-8.747 5.1,-1.267 11.992,-5.061 12.747,-10.511 0.7,-5.054 -5.76,-5.904 -9.501,-6.038 -5.969,-0.214 -21.031,0.884 -26.517,2.268 -2.795,0.705 -4.498,2.456 -4.649,5.394 l -1.258,24.426 c -0.482,9.375 -1.264,18.419 -2.642,27.762 -1.582,-0.083 -2.919,-0.234 -4.352,-0.668 -1.66,-6.868 -2.456,-13.453 -3.554,-20.378 -1.658,-10.453 -2.817,-20.677 -3.839,-31.158 -0.262,-2.679 -1.71,-4.316 -4.254,-5.072 -8.054,-2.392 -24.024,-4.481 -31.863,-2.13 -1.884,0.565 -3.499,2.089 -3.668,4.059 -0.495,5.746 7.207,9.831 11.644,11.718 0.274,1.644 0.311,3.045 0.288,4.756 -0.26,19.381 -0.158,38.519 0.513,57.89 -1.98,0.733 -3.047,2.134 -2.946,4.087 l 0.72,14.07 c -10.421,2.624 -19.593,9.531 -19.267,21.099 0.177,6.303 1.574,12.306 3.914,18.272 -2.281,0.977 -3.302,2.871 -2.349,4.934 4.259,9.218 10.643,21.657 18.25,28.419 3.786,3.365 8.229,5.266 12.984,7.549 -12.934,11.21 -14.933,28.638 -8.847,43.444 4.399,10.704 13.374,18.432 24.826,21.023 12.16,2.752 25.106,-0.604 34.474,-8.789 4.954,-4.328 7.778,-9.888 9.599,-16.08 4.503,-15.314 -0.201,-31.789 -13.183,-41.847 2.383,-1.667 10.325,-5.495 6.438,-8.334 -2.9,2.263 -5.79,4.642 -9.275,6.386 -11.387,-7.125 -25.708,-7.455 -37.208,-0.571 l -4.11,2.46 c -9.549,-4.032 -14.45,-6.84 -20.309,-15.497 -4.194,-6.195 -7.484,-12.64 -10.803,-19.703 7.18,-3.86 13.313,-5.702 21.222,-8.605 0.698,1.783 4.003,14.419 6.119,13.546 0.286,-0.118 0.595,-0.73 0.483,-1.232 -1.096,-4.95 -2.581,-9.698 -4.017,-14.55 -0.32,-1.079 -1.538,-1.138 -2.484,-1.384 -0.691,-2.657 -1.123,-5.766 -1.506,-8.609 1.081,-0.829 2.214,-1.174 3.533,-1.358 2.47,2.81 5.632,4.212 9.48,4.665 l 3.707,25.698 c 0.2,1.384 0.591,2.832 1.561,3.69 0.985,0.872 2.69,-0.497 3.535,0.072 l 6.055,4.074 c 0.94,0.633 2.218,-0.746 3.6,-0.941 0.321,0.732 -0.147,6.998 2.447,5.66 10.345,-5.339 19.374,-5.138 28.859,-11.287 5.089,-3.299 8.922,-7.418 11.76,-13.23 7.321,16.282 16.427,14.528 28.976,22.538 0.528,0.337 1.266,0.048 1.566,-0.271 1.015,-1.08 -0.139,-3.501 0.309,-4.788 3.442,1.888 3.027,0.659 7.091,-2.159 3.408,-2.363 4.259,0.237 5.552,-1.573 0.363,-0.508 0.449,-1.244 0.347,-1.993 l -1.059,-7.753 c 1.891,1.796 3.112,3.481 5.022,4.802 3.105,2.149 3.641,6.597 7.809,7.648 1.41,0.356 2.79,-0.005 3.829,-0.85 2.907,-2.365 0.963,-6.551 -0.368,-9.427 5.771,0.941 8.231,5.979 13.642,6.1 3.374,0.076 3.922,-2.34 4.905,-4.601 0.96,-2.206 2.122,-3.642 1.442,-6.305 -1.287,-5.04 -5.027,-7.995 -8.672,-11.282 C 102.147,62.803 99.496,60.016 94.427,59.362 91.07,58.928 87.037,58.614 83.691,58.813 80.064,56.008 76.751,53.26 72.62,51.197 L 68.313,27.775 C 68.099,26.61 67.783,25.042 66.75,24.436 62.502,21.94 58.248,19.978 53.793,17.882 L 33.34,8.258 C 32.446,7.838 31.331,6.521 30.741,5.828"
       style="fill:#111210;fill-opacity:1;fill-rule:nonzero;stroke:none"
       transform="matrix(1.3333333,0,0,-1.3333333,1769.2212,1201.074)"
       clip-path="url(#clipPath1725)"
       id="path1807" />
    <path
       d="m 0,0 c -2.258,0.842 -1.168,2.682 -1.837,4.244 -0.72,12.969 4.048,26.02 13.845,34.674 5.34,4.717 12.027,7.037 17.236,12.873 6.066,6.798 8.048,16.178 7.266,25.13 -0.057,0.643 0.453,1.887 1.037,1.668 2.291,-3.552 1.338,-9.886 0.693,-13.884 C 37.372,59.338 35.014,54.54 31.407,50.351 27.609,45.938 22.669,43.056 17.78,39.903 4.465,31.316 -0.82,15.55 0,0"
       style="fill:#20a374;fill-opacity:1;fill-rule:nonzero;stroke:none"
       transform="matrix(1.3333333,0,0,-1.3333333,1806.3911,1074.9563)"
       clip-path="url(#clipPath1727)"
       id="path1809" />
    <path
       d="m 0,0 c -10.709,0.968 -23.654,-3.742 -30.464,-12.024 -0.194,-0.236 -0.916,0.064 -0.911,0.268 0.007,0.273 -0.098,0.922 0.179,1.304 3.134,4.328 7.396,7.529 12.336,9.715 C -8.265,3.952 -2.728,2.472 8.574,2.226 20.155,1.974 28.055,7.033 36.325,15.235 37.224,11.498 29.082,5.606 26.445,4.014 18.413,-0.835 9.253,-0.836 0,0"
       style="fill:#20a374;fill-opacity:1;fill-rule:nonzero;stroke:none"
       transform="matrix(1.3333333,0,0,-1.3333333,1888.9997,1049.9876)"
       clip-path="url(#clipPath1729)"
       id="path1811" />
    <path
       d="m 0,0 c -0.205,-0.44 -0.514,-0.662 -0.679,-0.759 -0.233,-0.136 -0.949,0.307 -0.865,0.735 1.191,6.108 4.264,11.389 8.355,16.075 9.623,11.021 30.703,13.496 13.017,6.147 C 12.035,18.96 6.098,13.064 2.552,5.467 Z"
       style="fill:#20a374;fill-opacity:1;fill-rule:nonzero;stroke:none"
       transform="matrix(1.3333333,0,0,-1.3333333,1825.0853,1076.3801)"
       clip-path="url(#clipPath1732)"
       id="path1814" />
    <path
       d="m 0,0 c -5.346,-4.666 -5.422,-7.324 -8.027,-13.143 -0.223,-0.5 -1.212,0.535 -1.093,1.12 1.759,8.654 6.122,13.626 13.895,17.59 C 5.224,5.796 5.592,5.783 5.838,5.477 6.61,4.514 1.406,1.227 0,0"
       style="fill:#20a374;fill-opacity:1;fill-rule:nonzero;stroke:none"
       transform="matrix(1.3333333,0,0,-1.3333333,1830.8485,1042.7304)"
       clip-path="url(#clipPath1737)"
       id="path1819" />
    <path
       d="m 0,0 c -2.924,-0.039 -5.82,0.547 -8.652,-0.094 -1.484,-0.336 -2.883,-1.067 -4.52,-0.801 0.766,1.908 2.738,2.198 4.377,2.782 2.527,0.901 4.823,0.737 7.392,-0.174 0.34,-0.121 0.96,-0.178 1.254,-0.351 C 0.144,1.191 0.455,0.175 0,0"
       style="fill:#20a374;fill-opacity:1;fill-rule:nonzero;stroke:none"
       transform="matrix(1.3333333,0,0,-1.3333333,1886.8032,1060.5459)"
       clip-path="url(#clipPath1738)"
       id="path1820" />
    <path
       d="m 0,0 -31.542,12.684 c 1.449,0.975 2.813,0.411 4.328,0.613 2.702,0.36 6.001,1.295 7.271,3.951 2.488,5.2 3.828,2.375 5.683,7.121 0.612,1.564 -0.852,3.032 -0.904,4.296 -0.054,1.337 1.173,2.773 0.354,4.323 -3.037,5.746 -10.332,2.456 -14.095,5.167 l 1.259,8.939 c 0.249,1.77 0.279,3.391 0.913,5.151 0.232,0.643 -0.115,1.461 -0.02,2.148 l 2.262,16.421 c 0.089,0.645 -0.129,1.188 0.219,1.465 1.046,0.832 8.038,-2.458 10.124,-3.328 L 1.277,62.517 21.123,53.789 c -0.599,-2.032 -0.865,-3.707 -1.22,-5.604 L 15.06,22.274 13.298,12.708 12.584,9.175 11.85,4.471 C 11.538,2.476 11.349,0.662 10.86,-1.379 10.696,-2.065 11.118,-3.928 10.023,-4.2 Z"
       style="fill:#20a374;fill-opacity:1;fill-rule:nonzero;stroke:none"
       transform="matrix(1.3333333,0,0,-1.3333333,1775.2259,1179.3517)"
       clip-path="url(#clipPath1771)"
       id="path1853" />
    <path
       d="m -11.531,-15.429 -15.526,-7.605 4.009,22.476 6.21,31.987 c 0.19,0.977 -0.204,3.015 0.611,3.713 L 14.989,52.374 C 14.441,48.041 13.713,44.113 12.929,39.939 L 7.811,12.683 4.065,-7.736 c -5.208,-2.807 -10.234,-5.067 -15.596,-7.693"
       style="fill:#20a374;fill-opacity:1;fill-rule:nonzero;stroke:none"
       transform="matrix(1.3333333,0,0,-1.3333333,1850.5861,1154.8757)"
       clip-path="url(#clipPath1772)"
       id="path1854" />
    <path
       d="m 0,0 c -0.255,-1.312 -0.513,-2.761 -1.447,-3.241 -4.145,-2.135 -9.189,-1.602 -12.573,1.638 l 6.62,36.268 1.957,11.699 1.449,10.24 c 5.136,-3.669 9.095,-3.589 14.68,-1.614 z"
       style="fill:#20a374;fill-opacity:1;fill-rule:nonzero;stroke:none"
       transform="matrix(1.3333333,0,0,-1.3333333,1810.93,1184.7229)"
       clip-path="url(#clipPath1774)"
       id="path1856" />
    <path
       d="m 0,0 c 2.243,-1.747 -7.415,-11.553 -20.894,-6.21 -4.978,1.973 -10.187,7.447 -8.091,8.906 1.923,1.338 3.078,-4.393 11.071,-6.761 5.974,-1.769 11.964,-0.31 16.372,4.048 C -1.167,0.354 -0.274,0.214 0,0"
       style="fill:#111210;fill-opacity:1;fill-rule:nonzero;stroke:none"
       transform="matrix(1.3333333,0,0,-1.3333333,1787.1629,1027.7701)"
       clip-path="url(#clipPath1795)"
       id="path1877" />
    <path
       d="M 0,0 C 1.282,-3.179 -0.094,-8.068 -2.627,-7.919 -5.45,-7.753 -6.258,-2.336 -3.803,0.825 -3.28,1.499 -2.302,1.672 -1.65,1.539 -0.983,1.404 -0.323,0.802 0,0"
       style="fill:#111210;fill-opacity:1;fill-rule:nonzero;stroke:none"
       transform="matrix(1.3333333,0,0,-1.3333333,1762.2048,1002.9756)"
       clip-path="url(#clipPath1796)"
       id="path1878" />
    <path
       d="M 0,0 C -1.129,-1.13 -2.898,-0.259 -3.382,1.011 -4.455,3.83 -3.646,8.62 -0.774,8.675 0.164,8.693 1.057,8.123 1.396,7.011 2.099,4.711 1.901,1.902 0,0"
       style="fill:#111210;fill-opacity:1;fill-rule:nonzero;stroke:none"
       transform="matrix(1.3333333,0,0,-1.3333333,1790.4125,1014.0483)"
       clip-path="url(#clipPath1797)"
       id="path1879" />
    <path
       d="m 0,0 c 0.087,-1.967 -5.604,2.614 -11.352,-0.349 -0.746,0.481 -0.184,1.626 0.57,2.016 C -6.083,4.099 -0.084,1.905 0,0"
       style="fill:#111210;fill-opacity:1;fill-rule:nonzero;stroke:none"
       transform="matrix(1.3333333,0,0,-1.3333333,1893.7023,1107.0268)"
       clip-path="url(#clipPath1799)"
       id="path1881" />
    <path
       d="m 0,0 c -2.008,-0.661 -3.612,-0.825 -5.551,-0.762 -0.038,2.025 0.144,3.936 1.258,5.637 0.798,1.22 3.062,1.973 3.854,0.52 C 0.41,3.838 -0.037,1.992 0,0"
       style="fill:#20a374;fill-opacity:1;fill-rule:nonzero;stroke:none"
       transform="matrix(1.3333333,0,0,-1.3333333,1846.9571,1129.9343)"
       clip-path="url(#clipPath1803)"
       id="path1885" />
  </g>
</svg>
