<?xml version="1.0" encoding="UTF-8" standalone="no"?>
<!-- Created with Inkscape (http://www.inkscape.org/) -->

<svg
   width="122.38123mm"
   height="112.39291mm"
   viewBox="0 0 122.38122 112.39291"
   version="1.1"
   id="svg1"
   xmlns="http://www.w3.org/2000/svg"
   xmlns:svg="http://www.w3.org/2000/svg">
  <defs
     id="defs1">
    <clipPath
       clipPathUnits="userSpaceOnUse"
       id="clipPath140">
      <path
         d="M 0,1080 H 1920 V 0 H 0 Z"
         transform="matrix(1.3333333,0,0,-1.3333333,0,1440)"
         id="path140" />
    </clipPath>
    <clipPath
       clipPathUnits="userSpaceOnUse"
       id="clipPath63">
      <path
         d="M 147.058,1009.6 H 822.602 V 608.689 H 147.058 Z"
         transform="translate(-581.84971,-643.21252)"
         id="path63" />
    </clipPath>
    <clipPath
       clipPathUnits="userSpaceOnUse"
       id="clipPath64">
      <path
         d="M 147.058,1009.6 H 822.602 V 608.689 H 147.058 Z"
         transform="translate(-554.00401,-881.64112)"
         id="path64" />
    </clipPath>
    <clipPath
       clipPathUnits="userSpaceOnUse"
       id="clipPath65">
      <path
         d="M 147.058,1009.6 H 822.602 V 608.689 H 147.058 Z"
         transform="translate(-659.85941,-842.47442)"
         id="path65" />
    </clipPath>
    <clipPath
       clipPathUnits="userSpaceOnUse"
       id="clipPath66">
      <path
         d="M 147.058,1009.6 H 822.602 V 608.689 H 147.058 Z"
         transform="translate(-663.88931,-812.76862)"
         id="path66" />
    </clipPath>
    <clipPath
       clipPathUnits="userSpaceOnUse"
       id="clipPath67">
      <path
         d="M 147.058,1009.6 H 822.602 V 608.689 H 147.058 Z"
         transform="translate(-672.73282,-780.20562)"
         id="path67" />
    </clipPath>
    <clipPath
       clipPathUnits="userSpaceOnUse"
       id="clipPath68">
      <path
         d="M 147.058,1009.6 H 822.602 V 608.689 H 147.058 Z"
         transform="translate(-633.31961,-846.80912)"
         id="path68" />
    </clipPath>
    <clipPath
       clipPathUnits="userSpaceOnUse"
       id="clipPath69">
      <path
         d="M 147.058,1009.6 H 822.602 V 608.689 H 147.058 Z"
         transform="translate(-456.15221,-908.29382)"
         id="path69" />
    </clipPath>
    <clipPath
       clipPathUnits="userSpaceOnUse"
       id="clipPath70">
      <path
         d="M 147.058,1009.6 H 822.602 V 608.689 H 147.058 Z"
         transform="translate(-484.32901,-900.17292)"
         id="path70" />
    </clipPath>
    <clipPath
       clipPathUnits="userSpaceOnUse"
       id="clipPath73">
      <path
         d="M 147.058,1009.6 H 822.602 V 608.689 H 147.058 Z"
         transform="translate(-591.87922,-662.52232)"
         id="path73" />
    </clipPath>
    <clipPath
       clipPathUnits="userSpaceOnUse"
       id="clipPath74">
      <path
         d="M 147.058,1009.6 H 822.602 V 608.689 H 147.058 Z"
         transform="translate(-581.12951,-697.04711)"
         id="path74" />
    </clipPath>
    <clipPath
       clipPathUnits="userSpaceOnUse"
       id="clipPath76">
      <path
         d="M 147.058,1009.6 H 822.602 V 608.689 H 147.058 Z"
         transform="translate(-587.79751,-810.34062)"
         id="path76" />
    </clipPath>
    <clipPath
       clipPathUnits="userSpaceOnUse"
       id="clipPath78">
      <path
         d="M 147.058,1009.6 H 822.602 V 608.689 H 147.058 Z"
         transform="translate(-581.84971,-643.21252)"
         id="path78" />
    </clipPath>
    <clipPath
       clipPathUnits="userSpaceOnUse"
       id="clipPath79">
      <path
         d="M 147.058,1009.6 H 822.602 V 608.689 H 147.058 Z"
         transform="translate(-493.40261,-659.01221)"
         id="path79" />
    </clipPath>
    <clipPath
       clipPathUnits="userSpaceOnUse"
       id="clipPath80">
      <path
         d="M 147.058,1009.6 H 822.602 V 608.689 H 147.058 Z"
         transform="translate(-591.79091,-654.55631)"
         id="path80" />
    </clipPath>
    <clipPath
       clipPathUnits="userSpaceOnUse"
       id="clipPath81">
      <path
         d="M 147.058,1009.6 H 822.602 V 608.689 H 147.058 Z"
         transform="translate(-617.28881,-668.65192)"
         id="path81" />
    </clipPath>
    <clipPath
       clipPathUnits="userSpaceOnUse"
       id="clipPath82">
      <path
         d="M 147.058,1009.6 H 822.602 V 608.689 H 147.058 Z"
         transform="translate(-502.18301,-665.52461)"
         id="path82" />
    </clipPath>
    <clipPath
       clipPathUnits="userSpaceOnUse"
       id="clipPath84">
      <path
         d="M 147.058,1009.6 H 822.602 V 608.689 H 147.058 Z"
         transform="translate(-576.32011,-698.44012)"
         id="path84" />
    </clipPath>
    <clipPath
       clipPathUnits="userSpaceOnUse"
       id="clipPath85">
      <path
         d="M 147.058,1009.6 H 822.602 V 608.689 H 147.058 Z"
         transform="translate(-621.71912,-930.09422)"
         id="path85" />
    </clipPath>
    <clipPath
       clipPathUnits="userSpaceOnUse"
       id="clipPath86">
      <path
         d="M 147.058,1009.6 H 822.602 V 608.689 H 147.058 Z"
         transform="translate(-585.22691,-896.13972)"
         id="path86" />
    </clipPath>
    <clipPath
       clipPathUnits="userSpaceOnUse"
       id="clipPath87">
      <path
         d="M 147.058,1009.6 H 822.602 V 608.689 H 147.058 Z"
         transform="translate(-605.41382,-913.16562)"
         id="path87" />
    </clipPath>
    <clipPath
       clipPathUnits="userSpaceOnUse"
       id="clipPath88">
      <path
         d="M 147.058,1009.6 H 822.602 V 608.689 H 147.058 Z"
         transform="translate(-570.20401,-912.95513)"
         id="path88" />
    </clipPath>
    <clipPath
       clipPathUnits="userSpaceOnUse"
       id="clipPath89">
      <path
         d="M 147.058,1009.6 H 822.602 V 608.689 H 147.058 Z"
         transform="translate(-553.78162,-932.59373)"
         id="path89" />
    </clipPath>
    <clipPath
       clipPathUnits="userSpaceOnUse"
       id="clipPath90">
      <path
         d="M 147.058,1009.6 H 822.602 V 608.689 H 147.058 Z"
         transform="translate(-603.58462,-899.69922)"
         id="path90" />
    </clipPath>
    <clipPath
       clipPathUnits="userSpaceOnUse"
       id="clipPath91">
      <path
         d="M 147.058,1009.6 H 822.602 V 608.689 H 147.058 Z"
         transform="translate(-588.75052,-916.82012)"
         id="path91" />
    </clipPath>
    <clipPath
       clipPathUnits="userSpaceOnUse"
       id="clipPath92">
      <path
         d="M 147.058,1009.6 H 822.602 V 608.689 H 147.058 Z"
         transform="translate(-568.06061,-933.20342)"
         id="path92" />
    </clipPath>
    <clipPath
       clipPathUnits="userSpaceOnUse"
       id="clipPath93">
      <path
         d="M 147.058,1009.6 H 822.602 V 608.689 H 147.058 Z"
         transform="translate(-545.70151,-743.74722)"
         id="path93" />
    </clipPath>
    <clipPath
       clipPathUnits="userSpaceOnUse"
       id="clipPath94">
      <path
         d="M 147.058,1009.6 H 822.602 V 608.689 H 147.058 Z"
         transform="translate(-576.66121,-757.01302)"
         id="path94" />
    </clipPath>
    <clipPath
       clipPathUnits="userSpaceOnUse"
       id="clipPath95">
      <path
         d="M 147.058,1009.6 H 822.602 V 608.689 H 147.058 Z"
         transform="translate(-576.32011,-698.44012)"
         id="path95" />
    </clipPath>
    <clipPath
       clipPathUnits="userSpaceOnUse"
       id="clipPath96">
      <path
         d="M 147.058,1009.6 H 822.602 V 608.689 H 147.058 Z"
         transform="translate(-530.35891,-731.39402)"
         id="path96" />
    </clipPath>
    <clipPath
       clipPathUnits="userSpaceOnUse"
       id="clipPath97">
      <path
         d="M 147.058,1009.6 H 822.602 V 608.689 H 147.058 Z"
         transform="translate(-521.12231,-721.87412)"
         id="path97" />
    </clipPath>
    <clipPath
       clipPathUnits="userSpaceOnUse"
       id="clipPath98">
      <path
         d="M 147.058,1009.6 H 822.602 V 608.689 H 147.058 Z"
         transform="translate(-525.53231,-736.87572)"
         id="path98" />
    </clipPath>
    <clipPath
       clipPathUnits="userSpaceOnUse"
       id="clipPath99">
      <path
         d="M 147.058,1009.6 H 822.602 V 608.689 H 147.058 Z"
         transform="translate(-521.12231,-721.87412)"
         id="path99" />
    </clipPath>
    <clipPath
       clipPathUnits="userSpaceOnUse"
       id="clipPath100">
      <path
         d="M 147.058,1009.6 H 822.602 V 608.689 H 147.058 Z"
         transform="translate(-525.53231,-736.87572)"
         id="path100" />
    </clipPath>
    <clipPath
       clipPathUnits="userSpaceOnUse"
       id="clipPath183">
      <path
         d="M 0,1080 H 1920 V 0 H 0 Z"
         transform="matrix(1.3333333,0,0,-1.3333333,0,1440)"
         id="path183" />
    </clipPath>
    <clipPath
       clipPathUnits="userSpaceOnUse"
       id="clipPath142">
      <path
         d="M 26.406,587.919 H 556.067 V 273.585 H 26.406 Z"
         transform="translate(-293.50231,-318.02813)"
         id="path142" />
    </clipPath>
    <clipPath
       clipPathUnits="userSpaceOnUse"
       id="clipPath143">
      <path
         d="M 26.406,587.919 H 556.067 V 273.585 H 26.406 Z"
         transform="translate(-257.59251,-273.58501)"
         id="path143" />
    </clipPath>
    <clipPath
       clipPathUnits="userSpaceOnUse"
       id="clipPath144">
      <path
         d="M 26.406,587.919 H 556.067 V 273.585 H 26.406 Z"
         transform="translate(-206.6545,-316.38511)"
         id="path144" />
    </clipPath>
    <clipPath
       clipPathUnits="userSpaceOnUse"
       id="clipPath145">
      <path
         d="M 26.406,587.919 H 556.067 V 273.585 H 26.406 Z"
         transform="translate(-297.1555,-477.71551)"
         id="path145" />
    </clipPath>
    <clipPath
       clipPathUnits="userSpaceOnUse"
       id="clipPath146">
      <path
         d="M 26.406,587.919 H 556.067 V 273.585 H 26.406 Z"
         transform="translate(-192.1899,-375.89681)"
         id="path146" />
    </clipPath>
    <clipPath
       clipPathUnits="userSpaceOnUse"
       id="clipPath147">
      <path
         d="M 26.406,587.919 H 556.067 V 273.585 H 26.406 Z"
         transform="translate(-210.89481,-440.13341)"
         id="path147" />
    </clipPath>
    <clipPath
       clipPathUnits="userSpaceOnUse"
       id="clipPath148">
      <path
         d="M 26.406,587.919 H 556.067 V 273.585 H 26.406 Z"
         transform="translate(-208.72891,-412.19141)"
         id="path148" />
    </clipPath>
    <clipPath
       clipPathUnits="userSpaceOnUse"
       id="clipPath149">
      <path
         d="M 26.406,587.919 H 556.067 V 273.585 H 26.406 Z"
         transform="translate(-213.65781,-359.83681)"
         id="path149" />
    </clipPath>
    <clipPath
       clipPathUnits="userSpaceOnUse"
       id="clipPath150">
      <path
         d="M 26.406,587.919 H 556.067 V 273.585 H 26.406 Z"
         transform="translate(-240.4702,-330.51231)"
         id="path150" />
    </clipPath>
    <clipPath
       clipPathUnits="userSpaceOnUse"
       id="clipPath151">
      <path
         d="M 26.406,587.919 H 556.067 V 273.585 H 26.406 Z"
         transform="translate(-281.16751,-511.34362)"
         id="path151" />
    </clipPath>
    <clipPath
       clipPathUnits="userSpaceOnUse"
       id="clipPath152">
      <path
         d="M 26.406,587.919 H 556.067 V 273.585 H 26.406 Z"
         transform="translate(-306.08471,-513.41032)"
         id="path152" />
    </clipPath>
    <clipPath
       clipPathUnits="userSpaceOnUse"
       id="clipPath154">
      <path
         d="M 26.406,587.919 H 556.067 V 273.585 H 26.406 Z"
         transform="translate(-255.18391,-354.37441)"
         id="path154" />
    </clipPath>
    <clipPath
       clipPathUnits="userSpaceOnUse"
       id="clipPath157">
      <path
         d="M 26.406,587.919 H 556.067 V 273.585 H 26.406 Z"
         transform="translate(-265.8598,-464.59491)"
         id="path157" />
    </clipPath>
    <clipPath
       clipPathUnits="userSpaceOnUse"
       id="clipPath1606">
      <path
         d="M 0,1080 H 1920 V 0 H 0 Z"
         transform="matrix(1.3333333,0,0,-1.3333333,0,1440)"
         id="path1606" />
    </clipPath>
    <clipPath
       clipPathUnits="userSpaceOnUse"
       id="clipPath1543">
      <path
         d="M 46.9879,569.636 H 393.737 V 36.1759 H 46.9879 Z"
         transform="translate(-304.84891,-113.22083)"
         id="path1543" />
    </clipPath>
    <clipPath
       clipPathUnits="userSpaceOnUse"
       id="clipPath1544">
      <path
         d="M 46.9879,569.636 H 393.737 V 36.1759 H 46.9879 Z"
         transform="translate(-127.083,-314.62838)"
         id="path1544" />
    </clipPath>
    <clipPath
       clipPathUnits="userSpaceOnUse"
       id="clipPath1546">
      <path
         d="M 46.9879,569.636 H 393.737 V 36.1759 H 46.9879 Z"
         transform="translate(-218.7298,-405.32361)"
         id="path1546" />
    </clipPath>
    <clipPath
       clipPathUnits="userSpaceOnUse"
       id="clipPath1552">
      <path
         d="M 46.9879,569.636 H 393.737 V 36.1759 H 46.9879 Z"
         transform="translate(-197.98701,-264.40651)"
         id="path1552" />
    </clipPath>
    <clipPath
       clipPathUnits="userSpaceOnUse"
       id="clipPath1553">
      <path
         d="M 46.9879,569.636 H 393.737 V 36.1759 H 46.9879 Z"
         transform="translate(-241.65031,-261.18443)"
         id="path1553" />
    </clipPath>
    <clipPath
       clipPathUnits="userSpaceOnUse"
       id="clipPath1554">
      <path
         d="M 46.9879,569.636 H 393.737 V 36.1759 H 46.9879 Z"
         transform="translate(-126.3963,-352.13201)"
         id="path1554" />
    </clipPath>
    <clipPath
       clipPathUnits="userSpaceOnUse"
       id="clipPath1555">
      <path
         d="M 46.9879,569.636 H 393.737 V 36.1759 H 46.9879 Z"
         transform="translate(-155.04411,-344.26451)"
         id="path1555" />
    </clipPath>
    <clipPath
       clipPathUnits="userSpaceOnUse"
       id="clipPath1556">
      <path
         d="M 46.9879,569.636 H 393.737 V 36.1759 H 46.9879 Z"
         transform="translate(-236.00971,-399.67051)"
         id="path1556" />
    </clipPath>
    <clipPath
       clipPathUnits="userSpaceOnUse"
       id="clipPath1557">
      <path
         d="M 46.9879,569.636 H 393.737 V 36.1759 H 46.9879 Z"
         transform="translate(-205.6105,-392.51811)"
         id="path1557" />
    </clipPath>
    <clipPath
       clipPathUnits="userSpaceOnUse"
       id="clipPath1569">
      <path
         d="M 46.9879,569.636 H 393.737 V 36.1759 H 46.9879 Z"
         transform="translate(-171.86901,-308.13338)"
         id="path1569" />
    </clipPath>
    <clipPath
       clipPathUnits="userSpaceOnUse"
       id="clipPath1571">
      <path
         d="M 46.9879,569.636 H 393.737 V 36.1759 H 46.9879 Z"
         transform="translate(-312.41401,-314.55991)"
         id="path1571" />
    </clipPath>
    <clipPath
       clipPathUnits="userSpaceOnUse"
       id="clipPath1572">
      <path
         d="M 46.9879,569.636 H 393.737 V 36.1759 H 46.9879 Z"
         transform="translate(-313.41731,-336.43441)"
         id="path1572" />
    </clipPath>
    <clipPath
       clipPathUnits="userSpaceOnUse"
       id="clipPath1573">
      <path
         d="M 46.9879,569.636 H 393.737 V 36.1759 H 46.9879 Z"
         transform="translate(-285.77821,-341.70001)"
         id="path1573" />
    </clipPath>
    <clipPath
       clipPathUnits="userSpaceOnUse"
       id="clipPath2431">
      <path
         d="M 0,1080 H 1920 V 0 H 0 Z"
         transform="matrix(1.3333333,0,0,-1.3333333,0,1440)"
         id="path2431" />
    </clipPath>
    <clipPath
       clipPathUnits="userSpaceOnUse"
       id="clipPath2210">
      <path
         d="M 405.945,581.146 H 645.733 V 212.462 H 405.945 Z"
         transform="translate(-514.29331,-307.51013)"
         id="path2210" />
    </clipPath>
    <clipPath
       clipPathUnits="userSpaceOnUse"
       id="clipPath2211">
      <path
         d="M 405.945,581.146 H 645.733 V 212.462 H 405.945 Z"
         transform="translate(-604.78612,-411.24921)"
         id="path2211" />
    </clipPath>
    <clipPath
       clipPathUnits="userSpaceOnUse"
       id="clipPath2212">
      <path
         d="M 405.945,581.146 H 645.733 V 212.462 H 405.945 Z"
         transform="translate(-443.74841,-420.00981)"
         id="path2212" />
    </clipPath>
    <clipPath
       clipPathUnits="userSpaceOnUse"
       id="clipPath2224">
      <path
         d="M 405.945,581.146 H 645.733 V 212.462 H 405.945 Z"
         transform="translate(-520.99132,-369.99791)"
         id="path2224" />
    </clipPath>
    <clipPath
       clipPathUnits="userSpaceOnUse"
       id="clipPath2226">
      <path
         d="M 405.945,581.146 H 645.733 V 212.462 H 405.945 Z"
         transform="translate(-472.00871,-323.81551)"
         id="path2226" />
    </clipPath>
    <clipPath
       clipPathUnits="userSpaceOnUse"
       id="clipPath2229">
      <path
         d="M 405.945,581.146 H 645.733 V 212.462 H 405.945 Z"
         transform="translate(-608.81582,-362.99851)"
         id="path2229" />
    </clipPath>
    <clipPath
       clipPathUnits="userSpaceOnUse"
       id="clipPath2230">
      <path
         d="M 405.945,581.146 H 645.733 V 212.462 H 405.945 Z"
         transform="translate(-472.41161,-405.21081)"
         id="path2230" />
    </clipPath>
    <clipPath
       clipPathUnits="userSpaceOnUse"
       id="clipPath2231">
      <path
         d="M 405.945,581.146 H 645.733 V 212.462 H 405.945 Z"
         transform="translate(-550.44551,-382.35341)"
         id="path2231" />
    </clipPath>
    <clipPath
       clipPathUnits="userSpaceOnUse"
       id="clipPath2232">
      <path
         d="M 405.945,581.146 H 645.733 V 212.462 H 405.945 Z"
         transform="translate(-533.37622,-340.02361)"
         id="path2232" />
    </clipPath>
    <clipPath
       clipPathUnits="userSpaceOnUse"
       id="clipPath2233">
      <path
         d="M 405.945,581.146 H 645.733 V 212.462 H 405.945 Z"
         transform="translate(-601.56722,-321.66458)"
         id="path2233" />
    </clipPath>
    <clipPath
       clipPathUnits="userSpaceOnUse"
       id="clipPath2235">
      <path
         d="M 405.945,581.146 H 645.733 V 212.462 H 405.945 Z"
         transform="translate(-583.76281,-387.00901)"
         id="path2235" />
    </clipPath>
    <clipPath
       clipPathUnits="userSpaceOnUse"
       id="clipPath2239">
      <path
         d="M 405.945,581.146 H 645.733 V 212.462 H 405.945 Z"
         transform="translate(-463.74251,-333.76901)"
         id="path2239" />
    </clipPath>
    <clipPath
       clipPathUnits="userSpaceOnUse"
       id="clipPath2241">
      <path
         d="M 405.945,581.146 H 645.733 V 212.462 H 405.945 Z"
         transform="translate(-462.21031,-359.10701)"
         id="path2241" />
    </clipPath>
    <clipPath
       clipPathUnits="userSpaceOnUse"
       id="clipPath2242">
      <path
         d="M 405.945,581.146 H 645.733 V 212.462 H 405.945 Z"
         transform="translate(-526.13741,-304.79131)"
         id="path2242" />
    </clipPath>
    <clipPath
       clipPathUnits="userSpaceOnUse"
       id="clipPath2243">
      <path
         d="M 405.945,581.146 H 645.733 V 212.462 H 405.945 Z"
         transform="translate(-497.00841,-347.79321)"
         id="path2243" />
    </clipPath>
    <clipPath
       clipPathUnits="userSpaceOnUse"
       id="clipPath2245">
      <path
         d="M 405.945,581.146 H 645.733 V 212.462 H 405.945 Z"
         transform="translate(-490.66701,-330.66971)"
         id="path2245" />
    </clipPath>
    <clipPath
       clipPathUnits="userSpaceOnUse"
       id="clipPath2250">
      <path
         d="M 405.945,581.146 H 645.733 V 212.462 H 405.945 Z"
         transform="translate(-592.52171,-323.51761)"
         id="path2250" />
    </clipPath>
    <clipPath
       clipPathUnits="userSpaceOnUse"
       id="clipPath2251">
      <path
         d="M 405.945,581.146 H 645.733 V 212.462 H 405.945 Z"
         transform="translate(-470.63591,-380.25851)"
         id="path2251" />
    </clipPath>
    <clipPath
       clipPathUnits="userSpaceOnUse"
       id="clipPath2252">
      <path
         d="M 405.945,581.146 H 645.733 V 212.462 H 405.945 Z"
         transform="translate(-582.05332,-379.12641)"
         id="path2252" />
    </clipPath>
    <clipPath
       clipPathUnits="userSpaceOnUse"
       id="clipPath2253">
      <path
         d="M 405.945,581.146 H 645.733 V 212.462 H 405.945 Z"
         transform="translate(-540.69091,-376.89421)"
         id="path2253" />
    </clipPath>
    <clipPath
       clipPathUnits="userSpaceOnUse"
       id="clipPath2256">
      <path
         d="M 405.945,581.146 H 645.733 V 212.462 H 405.945 Z"
         transform="translate(-521.34871,-315.61298)"
         id="path2256" />
    </clipPath>
    <clipPath
       clipPathUnits="userSpaceOnUse"
       id="clipPath2257">
      <path
         d="M 405.945,581.146 H 645.733 V 212.462 H 405.945 Z"
         transform="translate(-486.23181,-356.32711)"
         id="path2257" />
    </clipPath>
    <clipPath
       clipPathUnits="userSpaceOnUse"
       id="clipPath2260">
      <path
         d="M 405.945,581.146 H 645.733 V 212.462 H 405.945 Z"
         transform="translate(-545.19991,-328.66043)"
         id="path2260" />
    </clipPath>
    <clipPath
       clipPathUnits="userSpaceOnUse"
       id="clipPath2261">
      <path
         d="M 405.945,581.146 H 645.733 V 212.462 H 405.945 Z"
         transform="translate(-580.34542,-369.39981)"
         id="path2261" />
    </clipPath>
    <clipPath
       clipPathUnits="userSpaceOnUse"
       id="clipPath2262">
      <path
         d="M 405.945,581.146 H 645.733 V 212.462 H 405.945 Z"
         transform="translate(-471.59261,-365.53761)"
         id="path2262" />
    </clipPath>
    <clipPath
       clipPathUnits="userSpaceOnUse"
       id="clipPath2263">
      <path
         d="M 405.945,581.146 H 645.733 V 212.462 H 405.945 Z"
         transform="translate(-473.40641,-345.68591)"
         id="path2263" />
    </clipPath>
    <clipPath
       clipPathUnits="userSpaceOnUse"
       id="clipPath2264">
      <path
         d="M 405.945,581.146 H 645.733 V 212.462 H 405.945 Z"
         transform="translate(-462.50811,-345.69721)"
         id="path2264" />
    </clipPath>
    <clipPath
       clipPathUnits="userSpaceOnUse"
       id="clipPath2268">
      <path
         d="M 405.945,581.146 H 645.733 V 212.462 H 405.945 Z"
         transform="translate(-477.94641,-329.08853)"
         id="path2268" />
    </clipPath>
    <clipPath
       clipPathUnits="userSpaceOnUse"
       id="clipPath2272">
      <path
         d="M 405.945,581.146 H 645.733 V 212.462 H 405.945 Z"
         transform="translate(-627.96232,-338.20861)"
         id="path2272" />
    </clipPath>
    <clipPath
       clipPathUnits="userSpaceOnUse"
       id="clipPath2274">
      <path
         d="M 405.945,581.146 H 645.733 V 212.462 H 405.945 Z"
         transform="translate(-469.33351,-338.12241)"
         id="path2274" />
    </clipPath>
    <clipPath
       clipPathUnits="userSpaceOnUse"
       id="clipPath2276">
      <path
         d="M 405.945,581.146 H 645.733 V 212.462 H 405.945 Z"
         transform="translate(-435.45681,-388.67581)"
         id="path2276" />
    </clipPath>
    <clipPath
       clipPathUnits="userSpaceOnUse"
       id="clipPath2277">
      <path
         d="M 405.945,581.146 H 645.733 V 212.462 H 405.945 Z"
         transform="translate(-529.69841,-320.74501)"
         id="path2277" />
    </clipPath>
    <clipPath
       clipPathUnits="userSpaceOnUse"
       id="clipPath2278">
      <path
         d="M 405.945,581.146 H 645.733 V 212.462 H 405.945 Z"
         transform="translate(-630.45392,-320.39161)"
         id="path2278" />
    </clipPath>
    <clipPath
       clipPathUnits="userSpaceOnUse"
       id="clipPath2279">
      <path
         d="M 405.945,581.146 H 645.733 V 212.462 H 405.945 Z"
         transform="translate(-599.58761,-312.70718)"
         id="path2279" />
    </clipPath>
    <clipPath
       clipPathUnits="userSpaceOnUse"
       id="clipPath2280">
      <path
         d="M 405.945,581.146 H 645.733 V 212.462 H 405.945 Z"
         transform="translate(-612.58811,-372.80871)"
         id="path2280" />
    </clipPath>
    <clipPath
       clipPathUnits="userSpaceOnUse"
       id="clipPath2281">
      <path
         d="M 405.945,581.146 H 645.733 V 212.462 H 405.945 Z"
         transform="translate(-464.02911,-381.49601)"
         id="path2281" />
    </clipPath>
    <clipPath
       clipPathUnits="userSpaceOnUse"
       id="clipPath2283">
      <path
         d="M 405.945,581.146 H 645.733 V 212.462 H 405.945 Z"
         transform="translate(-468.64441,-382.95111)"
         id="path2283" />
    </clipPath>
    <clipPath
       clipPathUnits="userSpaceOnUse"
       id="clipPath2284">
      <path
         d="M 405.945,581.146 H 645.733 V 212.462 H 405.945 Z"
         transform="translate(-531.53332,-329.05868)"
         id="path2284" />
    </clipPath>
    <clipPath
       clipPathUnits="userSpaceOnUse"
       id="clipPath2287">
      <path
         d="M 405.945,581.146 H 645.733 V 212.462 H 405.945 Z"
         transform="translate(-584.58352,-364.69781)"
         id="path2287" />
    </clipPath>
    <clipPath
       clipPathUnits="userSpaceOnUse"
       id="clipPath2288">
      <path
         d="M 405.945,581.146 H 645.733 V 212.462 H 405.945 Z"
         transform="translate(-593.97742,-315.51803)"
         id="path2288" />
    </clipPath>
    <clipPath
       clipPathUnits="userSpaceOnUse"
       id="clipPath2289">
      <path
         d="M 405.945,581.146 H 645.733 V 212.462 H 405.945 Z"
         transform="translate(-574.98521,-330.25461)"
         id="path2289" />
    </clipPath>
    <clipPath
       clipPathUnits="userSpaceOnUse"
       id="clipPath2290">
      <path
         d="M 405.945,581.146 H 645.733 V 212.462 H 405.945 Z"
         transform="translate(-572.31271,-332.14061)"
         id="path2290" />
    </clipPath>
    <clipPath
       clipPathUnits="userSpaceOnUse"
       id="clipPath2292">
      <path
         d="M 405.945,581.146 H 645.733 V 212.462 H 405.945 Z"
         transform="translate(-446.90601,-345.18761)"
         id="path2292" />
    </clipPath>
    <clipPath
       clipPathUnits="userSpaceOnUse"
       id="clipPath2295">
      <path
         d="M 405.945,581.146 H 645.733 V 212.462 H 405.945 Z"
         transform="translate(-605.98822,-413.01721)"
         id="path2295" />
    </clipPath>
    <clipPath
       clipPathUnits="userSpaceOnUse"
       id="clipPath2296">
      <path
         d="M 405.945,581.146 H 645.733 V 212.462 H 405.945 Z"
         transform="translate(-604.78612,-411.24921)"
         id="path2296" />
    </clipPath>
    <clipPath
       clipPathUnits="userSpaceOnUse"
       id="clipPath2297">
      <path
         d="M 405.945,581.146 H 645.733 V 212.462 H 405.945 Z"
         transform="translate(-443.74841,-420.00981)"
         id="path2297" />
    </clipPath>
    <clipPath
       clipPathUnits="userSpaceOnUse"
       id="clipPath2298">
      <path
         d="M 405.945,581.146 H 645.733 V 212.462 H 405.945 Z"
         transform="translate(-519.20062,-429.10051)"
         id="path2298" />
    </clipPath>
    <clipPath
       clipPathUnits="userSpaceOnUse"
       id="clipPath2299">
      <path
         d="M 405.945,581.146 H 645.733 V 212.462 H 405.945 Z"
         transform="translate(-503.95541,-441.54861)"
         id="path2299" />
    </clipPath>
    <clipPath
       clipPathUnits="userSpaceOnUse"
       id="clipPath2300">
      <path
         d="M 405.945,581.146 H 645.733 V 212.462 H 405.945 Z"
         transform="translate(-520.63462,-437.20971)"
         id="path2300" />
    </clipPath>
    <clipPath
       clipPathUnits="userSpaceOnUse"
       id="clipPath2301">
      <path
         d="M 405.945,581.146 H 645.733 V 212.462 H 405.945 Z"
         transform="translate(-521.22421,-393.58931)"
         id="path2301" />
    </clipPath>
    <clipPath
       clipPathUnits="userSpaceOnUse"
       id="clipPath2302">
      <path
         d="M 405.945,581.146 H 645.733 V 212.462 H 405.945 Z"
         transform="translate(-516.99022,-389.03501)"
         id="path2302" />
    </clipPath>
    <clipPath
       clipPathUnits="userSpaceOnUse"
       id="clipPath2303">
      <path
         d="M 405.945,581.146 H 645.733 V 212.462 H 405.945 Z"
         transform="translate(-516.23671,-383.98571)"
         id="path2303" />
    </clipPath>
    <clipPath
       clipPathUnits="userSpaceOnUse"
       id="clipPath2304">
      <path
         d="M 405.945,581.146 H 645.733 V 212.462 H 405.945 Z"
         transform="translate(-518.35781,-380.10101)"
         id="path2304" />
    </clipPath>
    <clipPath
       clipPathUnits="userSpaceOnUse"
       id="clipPath2305">
      <path
         d="M 405.945,581.146 H 645.733 V 212.462 H 405.945 Z"
         transform="translate(-532.34531,-374.29151)"
         id="path2305" />
    </clipPath>
    <clipPath
       clipPathUnits="userSpaceOnUse"
       id="clipPath2306">
      <path
         d="M 405.945,581.146 H 645.733 V 212.462 H 405.945 Z"
         transform="translate(-538.82231,-401.52141)"
         id="path2306" />
    </clipPath>
    <clipPath
       clipPathUnits="userSpaceOnUse"
       id="clipPath2307">
      <path
         d="M 405.945,581.146 H 645.733 V 212.462 H 405.945 Z"
         transform="translate(-537.72251,-397.47061)"
         id="path2307" />
    </clipPath>
    <clipPath
       clipPathUnits="userSpaceOnUse"
       id="clipPath2308">
      <path
         d="M 405.945,581.146 H 645.733 V 212.462 H 405.945 Z"
         transform="translate(-535.75991,-390.39591)"
         id="path2308" />
    </clipPath>
    <clipPath
       clipPathUnits="userSpaceOnUse"
       id="clipPath2309">
      <path
         d="M 405.945,581.146 H 645.733 V 212.462 H 405.945 Z"
         transform="translate(-536.61382,-395.15731)"
         id="path2309" />
    </clipPath>
    <clipPath
       clipPathUnits="userSpaceOnUse"
       id="clipPath2310">
      <path
         d="M 405.945,581.146 H 645.733 V 212.462 H 405.945 Z"
         transform="translate(-528.17752,-371.87031)"
         id="path2310" />
    </clipPath>
    <clipPath
       clipPathUnits="userSpaceOnUse"
       id="clipPath2311">
      <path
         d="M 405.945,581.146 H 645.733 V 212.462 H 405.945 Z"
         transform="translate(-520.99132,-369.99791)"
         id="path2311" />
    </clipPath>
    <clipPath
       clipPathUnits="userSpaceOnUse"
       id="clipPath2312">
      <path
         d="M 405.945,581.146 H 645.733 V 212.462 H 405.945 Z"
         transform="translate(-608.81582,-362.99851)"
         id="path2312" />
    </clipPath>
    <clipPath
       clipPathUnits="userSpaceOnUse"
       id="clipPath2313">
      <path
         d="M 405.945,581.146 H 645.733 V 212.462 H 405.945 Z"
         transform="translate(-472.41161,-405.21081)"
         id="path2313" />
    </clipPath>
    <clipPath
       clipPathUnits="userSpaceOnUse"
       id="clipPath2314">
      <path
         d="M 405.945,581.146 H 645.733 V 212.462 H 405.945 Z"
         transform="translate(-552.97291,-399.51141)"
         id="path2314" />
    </clipPath>
    <clipPath
       clipPathUnits="userSpaceOnUse"
       id="clipPath2315">
      <path
         d="M 405.945,581.146 H 645.733 V 212.462 H 405.945 Z"
         transform="translate(-550.44551,-382.35341)"
         id="path2315" />
    </clipPath>
    <clipPath
       clipPathUnits="userSpaceOnUse"
       id="clipPath2316">
      <path
         d="M 405.945,581.146 H 645.733 V 212.462 H 405.945 Z"
         transform="translate(-551.61922,-391.08391)"
         id="path2316" />
    </clipPath>
    <clipPath
       clipPathUnits="userSpaceOnUse"
       id="clipPath2317">
      <path
         d="M 405.945,581.146 H 645.733 V 212.462 H 405.945 Z"
         transform="translate(-550.79251,-386.64391)"
         id="path2317" />
    </clipPath>
    <clipPath
       clipPathUnits="userSpaceOnUse"
       id="clipPath2318">
      <path
         d="M 405.945,581.146 H 645.733 V 212.462 H 405.945 Z"
         transform="translate(-521.22421,-393.58931)"
         id="path2318" />
    </clipPath>
    <clipPath
       clipPathUnits="userSpaceOnUse"
       id="clipPath2319">
      <path
         d="M 405.945,581.146 H 645.733 V 212.462 H 405.945 Z"
         transform="translate(-552.97291,-399.51141)"
         id="path2319" />
    </clipPath>
    <clipPath
       clipPathUnits="userSpaceOnUse"
       id="clipPath1723">
      <path
         d="M 0,1080 H 1920 V 0 H 0 Z"
         transform="matrix(1.3333333,0,0,-1.3333333,0,1440)"
         id="path1723" />
    </clipPath>
    <clipPath
       clipPathUnits="userSpaceOnUse"
       id="clipPath1608">
      <path
         d="m 624.06,522.108 h 534 V 0.108215 h -534 z"
         transform="translate(-886.9324,-65.622077)"
         id="path1608" />
    </clipPath>
    <clipPath
       clipPathUnits="userSpaceOnUse"
       id="clipPath1623">
      <path
         d="m 624.06,522.108 h 534 V 0.108215 h -534 z"
         transform="translate(-716.88592,-319.40588)"
         id="path1623" />
    </clipPath>
    <clipPath
       clipPathUnits="userSpaceOnUse"
       id="clipPath1624">
      <path
         d="m 624.06,522.108 h 534 V 0.108215 h -534 z"
         transform="translate(-737.96852,-317.09888)"
         id="path1624" />
    </clipPath>
    <clipPath
       clipPathUnits="userSpaceOnUse"
       id="clipPath1630">
      <path
         d="m 624.06,522.108 h 534 V 0.108215 h -534 z"
         transform="translate(-814.6006,-168.2925)"
         id="path1630" />
    </clipPath>
    <clipPath
       clipPathUnits="userSpaceOnUse"
       id="clipPath1631">
      <path
         d="m 624.06,522.108 h 534 V 0.108215 h -534 z"
         transform="translate(-928.79162,-197.28923)"
         id="path1631" />
    </clipPath>
    <clipPath
       clipPathUnits="userSpaceOnUse"
       id="clipPath1635">
      <path
         d="m 624.06,522.108 h 534 V 0.108215 h -534 z"
         transform="translate(-788.20059,-239.56988)"
         id="path1635" />
    </clipPath>
    <clipPath
       clipPathUnits="userSpaceOnUse"
       id="clipPath1638">
      <path
         d="m 624.06,522.108 h 534 V 0.108215 h -534 z"
         transform="translate(-767.02344,-202.50263)"
         id="path1638" />
    </clipPath>
    <clipPath
       clipPathUnits="userSpaceOnUse"
       id="clipPath1639">
      <path
         d="m 624.06,522.108 h 534 V 0.108215 h -534 z"
         transform="translate(-772.21742,-191.51348)"
         id="path1639" />
    </clipPath>
    <clipPath
       clipPathUnits="userSpaceOnUse"
       id="clipPath1652">
      <path
         d="m 624.06,522.108 h 534 V 0.108215 h -534 z"
         transform="translate(-814.6006,-168.2925)"
         id="path1652" />
    </clipPath>
    <clipPath
       clipPathUnits="userSpaceOnUse"
       id="clipPath1653">
      <path
         d="m 624.06,522.108 h 534 V 0.108215 h -534 z"
         transform="translate(-925.8184,-199.1691)"
         id="path1653" />
    </clipPath>
    <clipPath
       clipPathUnits="userSpaceOnUse"
       id="clipPath1654">
      <path
         d="m 624.06,522.108 h 534 V 0.108215 h -534 z"
         transform="translate(-800.77195,-111.12)"
         id="path1654" />
    </clipPath>
    <clipPath
       clipPathUnits="userSpaceOnUse"
       id="clipPath1661">
      <path
         d="m 624.06,522.108 h 534 V 0.108215 h -534 z"
         transform="translate(-862.34612,-177.987)"
         id="path1661" />
    </clipPath>
    <clipPath
       clipPathUnits="userSpaceOnUse"
       id="clipPath1795-8">
      <path
         d="m 1231.44,461.129 h 260.18 V 61.0878 h -260.18 z"
         transform="translate(-1340.3722,-309.17243)"
         id="path1795-6" />
    </clipPath>
  </defs>
  <g
     id="g1722"
     clip-path="url(#clipPath1723)"
     transform="matrix(0.26458333,0,0,0.26458333,-229.17375,-254.01404)">
    <path
       d="M 0,0 C -0.753,-7.522 0.571,-12.195 -2.211,-17.387 -4.274,-11.342 -2.444,-5.939 -3.479,0.2 -12.253,-0.685 -18.78,-7.418 -19.745,-16.431 -3.714,-21.329 -2.14,-22.78 11.35,-12.209 11.734,-5.958 5.612,0.447 0,0 m -152.839,15.785 c -0.354,9.812 -4.343,17.866 -13.503,21.445 0.361,-5.625 -0.169,-11.384 2.148,-16.302 1.827,-3.877 7.339,-4.838 11.355,-5.143 M 66.796,39.299 c -6.891,-5.561 -9.272,-14.056 -8.434,-22.476 10.615,3.351 8.952,13.231 8.434,22.476 M -76.791,40.34 c 2.872,7.701 2.472,14.563 0.483,21.544 -2.991,-7.647 -1.314,-14.751 -0.483,-21.544 m -3.437,-0.637 c 0.519,7.723 0.519,13.669 -0.046,20.551 -6.027,1.4 -11.375,3.069 -17.359,3.743 0.272,-7.297 -0.444,-14.818 2.426,-20.528 4.105,-2.549 10.369,-3.35 14.979,-3.766 m 3.192,25.006 c -2.468,0.534 -19.999,6.243 -17.919,1.249 3.537,0.617 17.476,-5.308 17.919,-1.249 M 55.493,14.556 c -2.236,12.193 2.548,22.703 12.154,28.478 l 0.801,43.292 C 47.101,74.19 26.598,63.501 5.061,53.708 0.116,51.227 -4.509,50.715 -9.98,51.54 c -20.982,3.161 -40.854,7.936 -62.482,12.592 -2.003,-7.9 3.997,-29.054 -7.62,-27.68 -5.252,0.621 -14.598,0.935 -17.747,5.682 -2.227,1.418 -4.349,26.104 -0.008,27.384 l -55.238,11.916 -16.579,4.254 2.898,-36.15 c 0.27,-3.365 -0.285,-6.287 0.337,-9.729 10.002,-2.462 16.226,-11.604 16.843,-21.732 0.181,-2.974 1.53,-4.473 4.593,-5.045 24.676,-4.606 48.447,-10.344 72.682,-17.267 l 49.892,-11.279 c 1.439,10.59 8.416,17.585 18.87,18.894 l 0.459,43.933 c 0.008,0.72 1.033,0.958 1.172,0.476 C 0.171,40.586 -0.3,13.652 -0.086,3.453 8.082,2.209 13.487,-2.816 14.778,-10.806 Z m -14.62,79.445 c 2.901,-3.991 16.569,-2.62 16.446,-6.014 -0.025,-0.665 -0.478,-1.808 -1.651,-2.374 L -1.996,57.78 c -3.659,-1.766 -8.442,0.291 -12.348,1.099 L -155.967,88.15 c -13.727,2.837 35.993,16.728 35.319,20.996 -14.199,-3.548 -26.354,-10.382 -39.251,-15.735 -3.11,-1.29 -6.304,-1.995 -8.543,-5.788 L -63.913,65.569 -9.795,54.698 c 4.283,-0.86 7.835,-1.152 11.905,0.917 l 28.631,14.56 36.689,19.329 c -9.404,2.057 -17.647,4.072 -26.557,4.497 m -77.617,12.617 c -3.768,3.394 -8.457,4.58 -13.011,3.171 3.762,-3.423 8.358,-4.102 13.011,-3.171 m -2.026,5.182 c 0.958,1.432 0.68,2.621 0.138,4.079 -3.719,0.485 -7.146,1.851 -11.033,1.856 -1.118,0.001 -0.946,-3.164 0.29,-3.501 3.563,-0.971 6.713,-1.643 10.605,-2.434 m -75.945,14.091 0.307,4.567 c -2.815,0.94 -4.765,3.237 -8.207,3.903 2.718,-15.544 5.129,-30.111 8.841,-44.818 0.683,-2.703 4.306,-4.526 6.845,-4.858 -3.609,13.613 -8.741,26.989 -7.786,41.206 m 59.748,-29.983 c 4.577,1.464 3.18,5.281 2.791,7.963 -1.72,11.874 -3.774,27.635 -7.744,38.842 -7.48,-1.25 -14.416,-3.463 -21.727,-5.224 l -31.607,-7.612 c 2.851,-16.003 5.349,-30.746 9.015,-46.113 17.18,2.609 33.101,6.973 49.272,12.144 m -64.942,40.973 c 1.114,-2.36 5.663,-4.868 7.873,-4.294 l 24.518,6.364 25.2,7.048 c -1.118,1.508 -2.727,3.983 -4.113,3.216 -2.412,-2.455 -4.197,-4.466 -7.058,-4.842 -3.383,-0.445 -5.205,1.644 -7.582,3.673 -4.789,-1.19 -17.368,-3.044 -20.226,-5.952 -2.043,-2.08 -3.107,-5.029 -5.632,-5.45 -2.55,-0.425 -5.407,-0.708 -7.467,1.394 -1.529,1.559 -6.412,0.746 -5.513,-1.157 M -180.743,26.468 c 4.053,-1.52 7.351,-2.251 10.885,-1.38 -1.411,7.607 -0.794,14.282 -1.217,21.472 l -2.116,35.891 c -0.373,6.336 1.982,11.237 9.16,12.459 l -1.358,20.687 c -4.809,1.439 -6.981,6.256 -10.952,8.377 -10.356,5.532 -20.806,10.543 -29.009,19.065 -5.715,4.384 -7.817,10.453 -11.878,17.563 -6.159,-26.434 -6.717,-51.866 -9.581,-78.043 l -6.414,-58.618 c 3.3,-2.98 34.554,-8.529 32.34,-2.858 -2.854,7.31 -14.287,6.898 -12.49,15.886 l 8.963,44.818 c 1.641,8.206 2.738,23.93 10.042,25.824 2.786,0.723 7.218,0.965 8.542,-2.027 -0.182,-0.919 -2.59,-1.32 -3.013,-2.022 -0.52,-0.864 0.375,-2.172 0.602,-3.533 4.078,-24.448 6.221,-48.447 7.494,-73.561 M 52.242,139.454 C 36.956,144.116 23.72,156.589 14.89,169.25 2.168,159.68 -12.726,156.294 -28.986,157.385 c -8.138,-37.916 -9.353,-64.976 20.34,-92.972 38.06,10.568 54.188,37.675 60.888,75.041 m -143.802,10.074 5.221,17.13 c 0.493,1.619 -1.539,3.214 -2.744,2.711 l -5.789,-20.287 c 0.782,-0.702 2.955,-0.727 3.312,0.446 m -6.143,-0.562 6.533,21.749 c -4.622,1.87 -9.213,-0.29 -12.1,-3.387 -5.483,-5.884 -2.921,-16.742 -0.729,-20.299 1.23,-1.995 5.616,-0.328 6.296,1.937 m -24.914,-36.159 -2.834,19.681 c -1.609,11.173 9.537,5.902 7.318,13.742 -2.232,7.891 -2.928,15.275 -0.426,23.649 -14.43,-3.501 -30.004,0.805 -43.757,7.426 l -0.002,-31.219 c 3.445,-0.46 6.498,-0.09 9.511,-1.653 1.997,-1.035 2.39,-3.473 2.157,-5.16 -0.16,-1.157 -3.183,-2.359 -3.085,-3.539 1.012,-3.358 4.906,-5.494 4.802,-9.37 -0.184,-6.842 -5.971,-11.149 -13.045,-11.323 0.088,-6.14 0.424,-11.878 1.834,-18.125 z M 90.644,105.58 c 13.135,18.954 21.59,57.168 8.777,77.255 -7.084,-30.91 -14.583,-59.943 -24.583,-89.616 7.421,0.88 11.632,6.337 15.806,12.361 m -189.376,68.368 c 6.057,1.623 12.402,-0.186 15.831,-5.533 3.91,-6.1 3.889,-13.651 5.612,-20.274 1.004,-1.285 5.427,-0.949 6.45,0.595 -0.786,14.264 -7.193,36.182 -25.51,33.428 -14.37,-2.161 -23.33,-14.395 -20.116,-28.595 1.225,-5.412 2.428,-14.807 5.163,-14.993 1.697,-0.115 3.286,0.022 3.912,0.86 1.579,2.111 -1.935,14.407 -2.286,15.201 -2.298,5.198 2.155,16.955 10.944,19.311 M 53.266,144.742 c 3.548,-1.356 4.179,-3.615 3.656,-7 -1.791,-11.59 -4.714,-22.223 -9.852,-33.577 l 16.455,-3.369 c 1.559,-0.212 3.706,0.356 4.231,2.341 l 18.971,71.717 -108.489,12.651 c -15.515,1.809 -29.472,2.344 -45.094,4.846 -5.895,-26.614 -8.891,-11.409 -0.079,-38.29 2.338,-3.323 9.035,-3.467 10.231,-8.508 l 6.032,-25.43 12.169,-1.745 c -0.142,14.767 2.082,28.872 6.91,43.054 16.017,-0.676 31.158,2.401 44.23,11.47 1.046,0.725 2.087,1.23 3.011,1.364 3.584,0.521 10.71,-19.243 37.618,-29.524 m -41.227,55.29 c 1.175,-0.033 1.685,2.887 0.311,3.16 -19.453,3.855 -22.019,-2.565 -0.311,-3.16 m 33.958,-99.26 c -0.988,0.142 -1.885,-2.362 -1.517,-2.933 8.256,-2.016 16.935,-3.341 25.618,-4.558 2.81,2.895 3.226,6.337 4.267,10.101 l 21.629,78.166 c 0.374,1.348 0.182,3.062 -0.303,3.911 -1.86,3.254 -77.739,10.488 -87.928,11.543 l -66.825,6.916 -14.785,1.122 c -3.525,0.268 -5.001,-1.591 -5.822,-4.668 -0.783,-2.939 -1.838,-5.767 0.929,-7.993 1.685,3.192 1.095,10.014 6.964,9.376 L 38.046,189.82 87.147,184.825 c 2.829,-0.288 4.441,-2.957 3.737,-5.851 -6.383,-26.271 -13.292,-51.927 -21.075,-77.799 -0.719,-2.389 -3.504,-3.33 -5.675,-3.017 z m -208.913,88.842 c 0.978,-3.021 -0.135,-4.982 0.382,-7.774 16.675,-6.903 28.318,-12.336 46.258,-7.167 6.717,6.687 13.455,10.697 23.522,11.317 1.911,0.117 3.703,3.564 7.124,1.834 1.204,-0.609 5.015,1.738 3.566,3.503 -2.756,3.357 -8.921,3.205 -12.451,0.964 -5.329,-3.382 -10.352,-4.291 -16.621,-4.334 -7.738,-0.052 -15.616,-1.271 -23.161,1.359 -10.492,3.657 -19.533,9.904 -28.556,16.273 -2.99,2.111 -6.067,3.513 -9.859,2.711 -9.159,-1.937 -17.837,3.325 -25.952,5.144 -19.308,-10.91 -17.04,-39.837 -11.119,-57.965 1.402,-4.293 5.255,-7.552 8.316,-10.568 7.584,-7.472 16.63,-12.233 25.983,-16.933 3.319,-1.667 9.434,-11.76 17.507,-8.183 2.053,0.909 5.251,3.071 5.016,6.511 -0.232,3.391 -6.79,6.214 -5.217,11.19 0.377,1.195 2.544,2.014 3.588,2.592 -2.846,5.191 -7.795,-0.119 -11.405,1.186 -10.508,3.801 -21.483,11.642 -27.398,21.312 -4.775,7.805 -4.74,19.072 -2.747,27.691 4.364,-8.026 1.232,-17.37 5.57,-24.79 5.418,-9.27 14.926,-15.454 24.331,-20.435 0.212,6.046 -2.263,44.698 3.323,44.562 M 72.032,54.99 71.322,27.078 C 71.172,21.188 67.964,16.846 62.926,13.726 L 7.542,-20.573 c -6.585,-4.078 -12.956,-4.497 -20.229,-2.586 l -25.292,6.644 c -17.092,4.49 -33.843,7.386 -50.889,12.224 -16.718,4.744 -32.944,8.54 -49.93,12.082 -8.133,1.696 -26.119,5.196 -29.648,12.032 -5.42,2.432 -15.564,-1.358 -16.281,7.768 l -3.21,40.833 -3.399,32.135 c -0.109,1.028 -0.805,2.173 -1.235,2.616 -3.895,4.004 -7.042,-17.103 -7.375,-19.04 -2.907,-16.927 -5.936,-33.378 -10.025,-50.081 5.707,-3.423 15.393,-8.488 13.108,-15.273 -3.039,-9.024 -29.225,-2.488 -37.085,0.651 -2.686,1.073 -3.6,3.279 -3.305,5.953 l 4.423,40.129 2.65,34.809 c 1.974,25.923 7.005,50.753 11.615,76.151 1.603,8.834 -2.328,27.033 17.288,39.771 -23.634,17.75 -20.22,51.878 -0.69,68.332 19.664,16.567 48.351,8.065 49.03,3.283 0.132,-0.932 -1.282,-1.908 -2.635,-1.339 -22.474,9.458 -47.618,0.511 -55.623,-23.895 -5.323,-16.23 -0.257,-33.994 13.562,-43.495 13.781,-9.474 32.919,-9.499 45.929,2.147 12.209,10.927 15.994,28.301 10.141,43.291 -7.195,18.425 -24.014,17.815 -23.227,20.492 1.044,3.548 21.943,-0.753 28.015,-22.352 6.179,-21.984 -4.104,-44.54 -25.838,-52.769 10.262,-7.464 19.479,-13.235 30.302,-17.306 10.798,-1.631 21.538,-0.981 32.15,0.556 4.663,4.185 10.397,4.541 16.42,4.043 1.847,3.072 1.533,7.569 4.44,9.687 2.52,1.836 7.062,1.183 10.389,0.867 l 62.094,-5.893 3.891,5.794 c 6.611,0.007 15.442,1.65 20.036,-2.467 l 6.941,-6.222 c 23.123,-2.219 45.472,-4.985 68.203,-8.425 5.429,-0.821 9.754,-3.926 12.05,-8.776 8.873,-18.742 5.38,-43.156 -1.541,-62.02 C 98.192,107.322 87.928,87.826 71.855,88.795 73.034,77.23 72.332,66.769 72.032,54.99"
       style="fill:#0b0c0c;fill-opacity:1;fill-rule:nonzero;stroke:none"
       transform="matrix(1.3333333,0,0,-1.3333333,1182.5765,1352.5039)"
       clip-path="url(#clipPath1608)"
       id="path1666" />
    <path
       d="M 0,0 C -0.015,-2.532 -0.84,-7.345 -3.921,-7.014 -7.741,-6.603 -5.805,3.315 -2.281,3.224 -1.084,3.193 0.016,2.781 0,0"
       style="fill:#0b0c0c;fill-opacity:1;fill-rule:nonzero;stroke:none"
       transform="matrix(1.3333333,0,0,-1.3333333,955.84787,1014.1255)"
       clip-path="url(#clipPath1623)"
       id="path1681" />
    <path
       d="M 0,0 C 1.079,-2.795 -0.417,-8.999 -3.646,-8.599 -7.799,-8.085 -5.147,0.437 -2.939,1.316 -2.144,1.632 -0.773,2.001 0,0"
       style="fill:#0b0c0c;fill-opacity:1;fill-rule:nonzero;stroke:none"
       transform="matrix(1.3333333,0,0,-1.3333333,983.958,1017.2015)"
       clip-path="url(#clipPath1624)"
       id="path1682" />
    <path
       d="m 0,0 c -1.442,5.244 -4.629,7.992 -5.315,12.336 2.649,3.993 2.099,8.786 -1.84,11.177 -3.597,2.183 -7.986,0.502 -10.317,-3.161 -2.4,-3.77 0.893,-6.902 3.208,-10.378 2.493,-3.744 -1.075,-9.22 1.27,-13.376 C -8.715,-3.722 -3.645,-3.223 0,0 m 17.365,-6.762 c -16.171,-5.171 -32.092,-9.535 -49.272,-12.145 -3.666,15.367 -6.164,30.111 -9.015,46.114 l 31.607,7.611 c 7.311,1.761 14.247,3.975 21.726,5.225 3.971,-11.207 6.025,-26.968 7.745,-38.842 0.388,-2.683 1.786,-6.499 -2.791,-7.963"
       style="fill:#24a574;fill-opacity:1;fill-rule:nonzero;stroke:none"
       transform="matrix(1.3333333,0,0,-1.3333333,1086.1341,1215.61)"
       clip-path="url(#clipPath1630)"
       id="path1688" />
    <path
       d="m 0,0 c -0.029,2.061 -0.489,4.18 -2.463,5.042 -10.784,4.711 -19.322,11.905 -27.324,21.223 -10.998,-6.128 -22.221,-8.191 -35.06,-8.775 -8.987,-26.064 -6.509,-55.594 14.772,-74.826 3.035,-2.743 6.799,-0.016 9.37,1.217 C -15.047,-43.815 -5.951,-27.449 0,0 m 10.383,7.787 c -6.701,-37.366 -22.828,-64.473 -60.888,-75.041 -29.693,27.996 -28.478,55.055 -20.34,92.972 16.259,-1.092 31.154,2.295 43.875,11.865 8.831,-12.661 22.067,-25.134 37.353,-29.796"
       style="fill:#24a574;fill-opacity:1;fill-rule:nonzero;stroke:none"
       transform="matrix(1.3333333,0,0,-1.3333333,1238.3888,1176.9477)"
       clip-path="url(#clipPath1631)"
       id="path1689" />
    <path
       d="m 0,0 c -8.789,-2.356 -13.243,-14.112 -10.944,-19.311 0.351,-0.794 3.864,-13.09 2.286,-15.201 -0.626,-0.838 -2.215,-0.975 -3.913,-0.859 -2.734,0.185 -3.937,9.58 -5.162,14.992 -3.214,14.201 5.746,26.434 20.116,28.595 18.317,2.754 24.724,-19.164 25.51,-33.427 -1.024,-1.545 -5.446,-1.881 -6.45,-0.596 -1.724,6.623 -1.702,14.174 -5.613,20.274 C 12.402,-0.185 6.056,1.623 0,0"
       style="fill:#24a574;fill-opacity:1;fill-rule:nonzero;stroke:none"
       transform="matrix(1.3333333,0,0,-1.3333333,1050.9341,1120.5735)"
       clip-path="url(#clipPath1635)"
       id="path1693" />
    <path
       d="m 0,0 c -0.899,1.904 3.984,2.717 5.513,1.157 2.06,-2.102 4.917,-1.819 7.467,-1.394 2.525,0.421 3.589,3.371 5.632,5.45 2.858,2.908 15.437,4.763 20.226,5.953 2.377,-2.029 4.199,-4.119 7.582,-3.674 2.861,0.377 4.645,2.387 7.058,4.843 1.386,0.767 2.995,-1.709 4.113,-3.217 L 32.391,2.071 7.873,-4.294 C 5.663,-4.868 1.114,-2.36 0,0"
       style="fill:#24a574;fill-opacity:1;fill-rule:nonzero;stroke:none"
       transform="matrix(1.3333333,0,0,-1.3333333,1022.6979,1169.9965)"
       clip-path="url(#clipPath1638)"
       id="path1696" />
    <path
       d="m 0,0 c -0.955,-14.217 4.177,-27.593 7.786,-41.207 -2.539,0.333 -6.162,2.155 -6.845,4.859 C -2.771,-21.641 -5.182,-7.074 -7.9,8.469 -4.458,7.804 -2.508,5.507 0.307,4.567 Z"
       style="fill:#24a574;fill-opacity:1;fill-rule:nonzero;stroke:none"
       transform="matrix(1.3333333,0,0,-1.3333333,1029.6232,1184.6487)"
       clip-path="url(#clipPath1639)"
       id="path1697" />
    <path
       d="m 0,0 c -3.645,-3.223 -8.715,-3.722 -12.994,-3.402 -2.345,4.156 1.223,9.632 -1.27,13.376 -2.315,3.476 -5.608,6.608 -3.208,10.378 2.331,3.663 6.72,5.344 10.317,3.161 3.939,-2.391 4.489,-7.184 1.84,-11.177 C -4.629,7.992 -1.442,5.244 0,0"
       style="fill:#0b0c0c;fill-opacity:1;fill-rule:nonzero;stroke:none"
       transform="matrix(1.3333333,0,0,-1.3333333,1086.1341,1215.61)"
       clip-path="url(#clipPath1652)"
       id="path1710" />
    <path
       d="M 0,0 C -11.083,3.928 -18.958,10.846 -26.502,19.129 -33.102,-6.357 -38.767,-30.354 -43.835,-56.194 -16.502,-45.688 -5.375,-27.168 0,0 m -63.472,-21.182 c 2.414,-12.981 7.801,-24.774 16.389,-34.39 4.829,25.896 10.728,49.643 17.895,74.866 -10.425,-4.591 -19.871,-6.659 -31.071,-5.821 -2.645,-11.328 -4.127,-22.435 -3.213,-34.655 M 2.973,-1.88 c -5.951,-27.449 -15.047,-43.815 -40.705,-56.119 -2.57,-1.233 -6.335,-3.96 -9.37,-1.217 -21.281,19.232 -23.758,48.762 -14.772,74.826 12.839,0.584 24.062,2.648 35.06,8.775 C -18.812,15.067 -10.274,7.873 0.51,3.162 2.484,2.3 2.945,0.182 2.973,-1.88"
       style="fill:#0b0c0c;fill-opacity:1;fill-rule:nonzero;stroke:none"
       transform="matrix(1.3333333,0,0,-1.3333333,1234.4245,1174.4412)"
       clip-path="url(#clipPath1653)"
       id="path1711" />
    <path
       d="m 0,0 c -1.2,-1.98 -5.78,-1.161 -5.604,1.008 0.631,7.79 -1.944,13.183 3.178,11.768 C -0.484,12.24 1.15,10.664 0.197,8.156 -0.711,5.766 -0.838,3.735 0,0"
       style="fill:#0b0c0c;fill-opacity:1;fill-rule:nonzero;stroke:none"
       transform="matrix(1.3333333,0,0,-1.3333333,1067.6959,1291.84)"
       clip-path="url(#clipPath1654)"
       id="path1712" />
    <path
       d="m 0,0 c -0.914,12.22 0.568,23.327 3.213,34.655 11.2,-0.838 20.647,1.23 31.072,5.821 C 27.117,15.253 21.219,-8.494 16.389,-34.39 7.801,-24.774 2.414,-12.981 0,0"
       style="fill:#24a574;fill-opacity:1;fill-rule:nonzero;stroke:none"
       transform="matrix(1.3333333,0,0,-1.3333333,1149.7948,1202.684)"
       clip-path="url(#clipPath1661)"
       id="path1719" />
    <path
       d="m 0,0 c 2.243,-1.747 -7.415,-11.553 -20.894,-6.21 -4.978,1.973 -10.187,7.447 -8.091,8.906 1.923,1.338 3.078,-4.393 11.071,-6.761 5.974,-1.769 11.964,-0.31 16.372,4.048 C -1.167,0.354 -0.274,0.214 0,0"
       style="fill:#111210;fill-opacity:1;fill-rule:nonzero;stroke:none"
       transform="matrix(1.3333333,0,0,-1.3333333,973.77729,1047.6394)"
       clip-path="url(#clipPath1795-8)"
       id="path1877-2" />
  </g>
</svg>
