<?xml version="1.0" encoding="UTF-8" standalone="no"?>
<!-- Created with Inkscape (http://www.inkscape.org/) -->

<svg
   width="154.29744mm"
   height="127.7903mm"
   viewBox="0 0 154.29744 127.7903"
   version="1.1"
   id="svg1"
   xmlns="http://www.w3.org/2000/svg"
   xmlns:svg="http://www.w3.org/2000/svg">
  <defs
     id="defs1">
    <clipPath
       clipPathUnits="userSpaceOnUse"
       id="clipPath140">
      <path
         d="M 0,1080 H 1920 V 0 H 0 Z"
         transform="matrix(1.3333333,0,0,-1.3333333,0,1440)"
         id="path140" />
    </clipPath>
    <clipPath
       clipPathUnits="userSpaceOnUse"
       id="clipPath63">
      <path
         d="M 147.058,1009.6 H 822.602 V 608.689 H 147.058 Z"
         transform="translate(-581.84971,-643.21252)"
         id="path63" />
    </clipPath>
    <clipPath
       clipPathUnits="userSpaceOnUse"
       id="clipPath64">
      <path
         d="M 147.058,1009.6 H 822.602 V 608.689 H 147.058 Z"
         transform="translate(-554.00401,-881.64112)"
         id="path64" />
    </clipPath>
    <clipPath
       clipPathUnits="userSpaceOnUse"
       id="clipPath65">
      <path
         d="M 147.058,1009.6 H 822.602 V 608.689 H 147.058 Z"
         transform="translate(-659.85941,-842.47442)"
         id="path65" />
    </clipPath>
    <clipPath
       clipPathUnits="userSpaceOnUse"
       id="clipPath66">
      <path
         d="M 147.058,1009.6 H 822.602 V 608.689 H 147.058 Z"
         transform="translate(-663.88931,-812.76862)"
         id="path66" />
    </clipPath>
    <clipPath
       clipPathUnits="userSpaceOnUse"
       id="clipPath67">
      <path
         d="M 147.058,1009.6 H 822.602 V 608.689 H 147.058 Z"
         transform="translate(-672.73282,-780.20562)"
         id="path67" />
    </clipPath>
    <clipPath
       clipPathUnits="userSpaceOnUse"
       id="clipPath68">
      <path
         d="M 147.058,1009.6 H 822.602 V 608.689 H 147.058 Z"
         transform="translate(-633.31961,-846.80912)"
         id="path68" />
    </clipPath>
    <clipPath
       clipPathUnits="userSpaceOnUse"
       id="clipPath69">
      <path
         d="M 147.058,1009.6 H 822.602 V 608.689 H 147.058 Z"
         transform="translate(-456.15221,-908.29382)"
         id="path69" />
    </clipPath>
    <clipPath
       clipPathUnits="userSpaceOnUse"
       id="clipPath70">
      <path
         d="M 147.058,1009.6 H 822.602 V 608.689 H 147.058 Z"
         transform="translate(-484.32901,-900.17292)"
         id="path70" />
    </clipPath>
    <clipPath
       clipPathUnits="userSpaceOnUse"
       id="clipPath73">
      <path
         d="M 147.058,1009.6 H 822.602 V 608.689 H 147.058 Z"
         transform="translate(-591.87922,-662.52232)"
         id="path73" />
    </clipPath>
    <clipPath
       clipPathUnits="userSpaceOnUse"
       id="clipPath74">
      <path
         d="M 147.058,1009.6 H 822.602 V 608.689 H 147.058 Z"
         transform="translate(-581.12951,-697.04711)"
         id="path74" />
    </clipPath>
    <clipPath
       clipPathUnits="userSpaceOnUse"
       id="clipPath76">
      <path
         d="M 147.058,1009.6 H 822.602 V 608.689 H 147.058 Z"
         transform="translate(-587.79751,-810.34062)"
         id="path76" />
    </clipPath>
    <clipPath
       clipPathUnits="userSpaceOnUse"
       id="clipPath78">
      <path
         d="M 147.058,1009.6 H 822.602 V 608.689 H 147.058 Z"
         transform="translate(-581.84971,-643.21252)"
         id="path78" />
    </clipPath>
    <clipPath
       clipPathUnits="userSpaceOnUse"
       id="clipPath79">
      <path
         d="M 147.058,1009.6 H 822.602 V 608.689 H 147.058 Z"
         transform="translate(-493.40261,-659.01221)"
         id="path79" />
    </clipPath>
    <clipPath
       clipPathUnits="userSpaceOnUse"
       id="clipPath80">
      <path
         d="M 147.058,1009.6 H 822.602 V 608.689 H 147.058 Z"
         transform="translate(-591.79091,-654.55631)"
         id="path80" />
    </clipPath>
    <clipPath
       clipPathUnits="userSpaceOnUse"
       id="clipPath81">
      <path
         d="M 147.058,1009.6 H 822.602 V 608.689 H 147.058 Z"
         transform="translate(-617.28881,-668.65192)"
         id="path81" />
    </clipPath>
    <clipPath
       clipPathUnits="userSpaceOnUse"
       id="clipPath82">
      <path
         d="M 147.058,1009.6 H 822.602 V 608.689 H 147.058 Z"
         transform="translate(-502.18301,-665.52461)"
         id="path82" />
    </clipPath>
    <clipPath
       clipPathUnits="userSpaceOnUse"
       id="clipPath84">
      <path
         d="M 147.058,1009.6 H 822.602 V 608.689 H 147.058 Z"
         transform="translate(-576.32011,-698.44012)"
         id="path84" />
    </clipPath>
    <clipPath
       clipPathUnits="userSpaceOnUse"
       id="clipPath85">
      <path
         d="M 147.058,1009.6 H 822.602 V 608.689 H 147.058 Z"
         transform="translate(-621.71912,-930.09422)"
         id="path85" />
    </clipPath>
    <clipPath
       clipPathUnits="userSpaceOnUse"
       id="clipPath86">
      <path
         d="M 147.058,1009.6 H 822.602 V 608.689 H 147.058 Z"
         transform="translate(-585.22691,-896.13972)"
         id="path86" />
    </clipPath>
    <clipPath
       clipPathUnits="userSpaceOnUse"
       id="clipPath87">
      <path
         d="M 147.058,1009.6 H 822.602 V 608.689 H 147.058 Z"
         transform="translate(-605.41382,-913.16562)"
         id="path87" />
    </clipPath>
    <clipPath
       clipPathUnits="userSpaceOnUse"
       id="clipPath88">
      <path
         d="M 147.058,1009.6 H 822.602 V 608.689 H 147.058 Z"
         transform="translate(-570.20401,-912.95513)"
         id="path88" />
    </clipPath>
    <clipPath
       clipPathUnits="userSpaceOnUse"
       id="clipPath89">
      <path
         d="M 147.058,1009.6 H 822.602 V 608.689 H 147.058 Z"
         transform="translate(-553.78162,-932.59373)"
         id="path89" />
    </clipPath>
    <clipPath
       clipPathUnits="userSpaceOnUse"
       id="clipPath90">
      <path
         d="M 147.058,1009.6 H 822.602 V 608.689 H 147.058 Z"
         transform="translate(-603.58462,-899.69922)"
         id="path90" />
    </clipPath>
    <clipPath
       clipPathUnits="userSpaceOnUse"
       id="clipPath91">
      <path
         d="M 147.058,1009.6 H 822.602 V 608.689 H 147.058 Z"
         transform="translate(-588.75052,-916.82012)"
         id="path91" />
    </clipPath>
    <clipPath
       clipPathUnits="userSpaceOnUse"
       id="clipPath92">
      <path
         d="M 147.058,1009.6 H 822.602 V 608.689 H 147.058 Z"
         transform="translate(-568.06061,-933.20342)"
         id="path92" />
    </clipPath>
    <clipPath
       clipPathUnits="userSpaceOnUse"
       id="clipPath93">
      <path
         d="M 147.058,1009.6 H 822.602 V 608.689 H 147.058 Z"
         transform="translate(-545.70151,-743.74722)"
         id="path93" />
    </clipPath>
    <clipPath
       clipPathUnits="userSpaceOnUse"
       id="clipPath94">
      <path
         d="M 147.058,1009.6 H 822.602 V 608.689 H 147.058 Z"
         transform="translate(-576.66121,-757.01302)"
         id="path94" />
    </clipPath>
    <clipPath
       clipPathUnits="userSpaceOnUse"
       id="clipPath95">
      <path
         d="M 147.058,1009.6 H 822.602 V 608.689 H 147.058 Z"
         transform="translate(-576.32011,-698.44012)"
         id="path95" />
    </clipPath>
    <clipPath
       clipPathUnits="userSpaceOnUse"
       id="clipPath96">
      <path
         d="M 147.058,1009.6 H 822.602 V 608.689 H 147.058 Z"
         transform="translate(-530.35891,-731.39402)"
         id="path96" />
    </clipPath>
    <clipPath
       clipPathUnits="userSpaceOnUse"
       id="clipPath97">
      <path
         d="M 147.058,1009.6 H 822.602 V 608.689 H 147.058 Z"
         transform="translate(-521.12231,-721.87412)"
         id="path97" />
    </clipPath>
    <clipPath
       clipPathUnits="userSpaceOnUse"
       id="clipPath98">
      <path
         d="M 147.058,1009.6 H 822.602 V 608.689 H 147.058 Z"
         transform="translate(-525.53231,-736.87572)"
         id="path98" />
    </clipPath>
    <clipPath
       clipPathUnits="userSpaceOnUse"
       id="clipPath99">
      <path
         d="M 147.058,1009.6 H 822.602 V 608.689 H 147.058 Z"
         transform="translate(-521.12231,-721.87412)"
         id="path99" />
    </clipPath>
    <clipPath
       clipPathUnits="userSpaceOnUse"
       id="clipPath100">
      <path
         d="M 147.058,1009.6 H 822.602 V 608.689 H 147.058 Z"
         transform="translate(-525.53231,-736.87572)"
         id="path100" />
    </clipPath>
    <clipPath
       clipPathUnits="userSpaceOnUse"
       id="clipPath183">
      <path
         d="M 0,1080 H 1920 V 0 H 0 Z"
         transform="matrix(1.3333333,0,0,-1.3333333,0,1440)"
         id="path183" />
    </clipPath>
    <clipPath
       clipPathUnits="userSpaceOnUse"
       id="clipPath142">
      <path
         d="M 26.406,587.919 H 556.067 V 273.585 H 26.406 Z"
         transform="translate(-293.50231,-318.02813)"
         id="path142" />
    </clipPath>
    <clipPath
       clipPathUnits="userSpaceOnUse"
       id="clipPath143">
      <path
         d="M 26.406,587.919 H 556.067 V 273.585 H 26.406 Z"
         transform="translate(-257.59251,-273.58501)"
         id="path143" />
    </clipPath>
    <clipPath
       clipPathUnits="userSpaceOnUse"
       id="clipPath144">
      <path
         d="M 26.406,587.919 H 556.067 V 273.585 H 26.406 Z"
         transform="translate(-206.6545,-316.38511)"
         id="path144" />
    </clipPath>
    <clipPath
       clipPathUnits="userSpaceOnUse"
       id="clipPath145">
      <path
         d="M 26.406,587.919 H 556.067 V 273.585 H 26.406 Z"
         transform="translate(-297.1555,-477.71551)"
         id="path145" />
    </clipPath>
    <clipPath
       clipPathUnits="userSpaceOnUse"
       id="clipPath146">
      <path
         d="M 26.406,587.919 H 556.067 V 273.585 H 26.406 Z"
         transform="translate(-192.1899,-375.89681)"
         id="path146" />
    </clipPath>
    <clipPath
       clipPathUnits="userSpaceOnUse"
       id="clipPath147">
      <path
         d="M 26.406,587.919 H 556.067 V 273.585 H 26.406 Z"
         transform="translate(-210.89481,-440.13341)"
         id="path147" />
    </clipPath>
    <clipPath
       clipPathUnits="userSpaceOnUse"
       id="clipPath148">
      <path
         d="M 26.406,587.919 H 556.067 V 273.585 H 26.406 Z"
         transform="translate(-208.72891,-412.19141)"
         id="path148" />
    </clipPath>
    <clipPath
       clipPathUnits="userSpaceOnUse"
       id="clipPath149">
      <path
         d="M 26.406,587.919 H 556.067 V 273.585 H 26.406 Z"
         transform="translate(-213.65781,-359.83681)"
         id="path149" />
    </clipPath>
    <clipPath
       clipPathUnits="userSpaceOnUse"
       id="clipPath150">
      <path
         d="M 26.406,587.919 H 556.067 V 273.585 H 26.406 Z"
         transform="translate(-240.4702,-330.51231)"
         id="path150" />
    </clipPath>
    <clipPath
       clipPathUnits="userSpaceOnUse"
       id="clipPath151">
      <path
         d="M 26.406,587.919 H 556.067 V 273.585 H 26.406 Z"
         transform="translate(-281.16751,-511.34362)"
         id="path151" />
    </clipPath>
    <clipPath
       clipPathUnits="userSpaceOnUse"
       id="clipPath152">
      <path
         d="M 26.406,587.919 H 556.067 V 273.585 H 26.406 Z"
         transform="translate(-306.08471,-513.41032)"
         id="path152" />
    </clipPath>
    <clipPath
       clipPathUnits="userSpaceOnUse"
       id="clipPath154">
      <path
         d="M 26.406,587.919 H 556.067 V 273.585 H 26.406 Z"
         transform="translate(-255.18391,-354.37441)"
         id="path154" />
    </clipPath>
    <clipPath
       clipPathUnits="userSpaceOnUse"
       id="clipPath157">
      <path
         d="M 26.406,587.919 H 556.067 V 273.585 H 26.406 Z"
         transform="translate(-265.8598,-464.59491)"
         id="path157" />
    </clipPath>
    <clipPath
       clipPathUnits="userSpaceOnUse"
       id="clipPath61">
      <path
         d="M 0,1080 H 1920 V 0 H 0 Z"
         transform="matrix(1.3333333,0,0,-1.3333333,0,1440)"
         id="path61" />
    </clipPath>
    <clipPath
       clipPathUnits="userSpaceOnUse"
       id="clipPath2">
      <path
         d="M 522.484,629.654 H 984.17 V 355.661 H 522.484 Z"
         transform="translate(-711.94962,-430.46931)"
         id="path2" />
    </clipPath>
    <clipPath
       clipPathUnits="userSpaceOnUse"
       id="clipPath3">
      <path
         d="M 522.484,629.654 H 984.17 V 355.661 H 522.484 Z"
         transform="translate(-731.52812,-531.29461)"
         id="path3" />
    </clipPath>
    <clipPath
       clipPathUnits="userSpaceOnUse"
       id="clipPath4">
      <path
         d="M 522.484,629.654 H 984.17 V 355.661 H 522.484 Z"
         transform="translate(-630.76091,-537.15802)"
         id="path4" />
    </clipPath>
    <clipPath
       clipPathUnits="userSpaceOnUse"
       id="clipPath5">
      <path
         d="M 522.484,629.654 H 984.17 V 355.661 H 522.484 Z"
         transform="translate(-602.86952,-414.77581)"
         id="path5" />
    </clipPath>
    <clipPath
       clipPathUnits="userSpaceOnUse"
       id="clipPath6">
      <path
         d="M 522.484,629.654 H 984.17 V 355.661 H 522.484 Z"
         transform="translate(-599.96561,-482.77891)"
         id="path6" />
    </clipPath>
    <clipPath
       clipPathUnits="userSpaceOnUse"
       id="clipPath7">
      <path
         d="M 522.484,629.654 H 984.17 V 355.661 H 522.484 Z"
         transform="translate(-591.50641,-446.42881)"
         id="path7" />
    </clipPath>
    <clipPath
       clipPathUnits="userSpaceOnUse"
       id="clipPath8">
      <path
         d="M 522.484,629.654 H 984.17 V 355.661 H 522.484 Z"
         transform="translate(-611.58782,-527.02421)"
         id="path8" />
    </clipPath>
    <clipPath
       clipPathUnits="userSpaceOnUse"
       id="clipPath9">
      <path
         d="M 522.484,629.654 H 984.17 V 355.661 H 522.484 Z"
         transform="translate(-625.00751,-394.89511)"
         id="path9" />
    </clipPath>
    <clipPath
       clipPathUnits="userSpaceOnUse"
       id="clipPath10">
      <path
         d="M 522.484,629.654 H 984.17 V 355.661 H 522.484 Z"
         transform="translate(-646.41202,-542.66911)"
         id="path10" />
    </clipPath>
    <clipPath
       clipPathUnits="userSpaceOnUse"
       id="clipPath11">
      <path
         d="M 522.484,629.654 H 984.17 V 355.661 H 522.484 Z"
         transform="translate(-730.83402,-551.26942)"
         id="path11" />
    </clipPath>
    <clipPath
       clipPathUnits="userSpaceOnUse"
       id="clipPath12">
      <path
         d="M 522.484,629.654 H 984.17 V 355.661 H 522.484 Z"
         transform="translate(-752.69934,-554.98111)"
         id="path12" />
    </clipPath>
    <clipPath
       clipPathUnits="userSpaceOnUse"
       id="clipPath18">
      <path
         d="M 522.484,629.654 H 984.17 V 355.661 H 522.484 Z"
         transform="translate(-836.7826,-488.72561)"
         id="path18" />
    </clipPath>
    <clipPath
       clipPathUnits="userSpaceOnUse"
       id="clipPath19">
      <path
         d="M 522.484,629.654 H 984.17 V 355.661 H 522.484 Z"
         transform="translate(-799.80144,-450.93661)"
         id="path19" />
    </clipPath>
    <clipPath
       clipPathUnits="userSpaceOnUse"
       id="clipPath23">
      <path
         d="M 522.484,629.654 H 984.17 V 355.661 H 522.484 Z"
         transform="translate(-800.67842,-457.79221)"
         id="path23" />
    </clipPath>
    <clipPath
       clipPathUnits="userSpaceOnUse"
       id="clipPath24">
      <path
         d="M 522.484,629.654 H 984.17 V 355.661 H 522.484 Z"
         transform="translate(-800.6122,-461.98761)"
         id="path24" />
    </clipPath>
    <clipPath
       clipPathUnits="userSpaceOnUse"
       id="clipPath25">
      <path
         d="M 522.484,629.654 H 984.17 V 355.661 H 522.484 Z"
         transform="translate(-802.89475,-473.16971)"
         id="path25" />
    </clipPath>
    <clipPath
       clipPathUnits="userSpaceOnUse"
       id="clipPath27">
      <path
         d="M 522.484,629.654 H 984.17 V 355.661 H 522.484 Z"
         transform="translate(-656.51381,-416.07011)"
         id="path27" />
    </clipPath>
    <clipPath
       clipPathUnits="userSpaceOnUse"
       id="clipPath28">
      <path
         d="M 522.484,629.654 H 984.17 V 355.661 H 522.484 Z"
         transform="translate(-821.32682,-510.70361)"
         id="path28" />
    </clipPath>
    <clipPath
       clipPathUnits="userSpaceOnUse"
       id="clipPath29">
      <path
         d="M 522.484,629.654 H 984.17 V 355.661 H 522.484 Z"
         transform="translate(-657.41692,-426.35641)"
         id="path29" />
    </clipPath>
    <clipPath
       clipPathUnits="userSpaceOnUse"
       id="clipPath30">
      <path
         d="M 522.484,629.654 H 984.17 V 355.661 H 522.484 Z"
         transform="translate(-657.41692,-426.35641)"
         id="path30" />
    </clipPath>
  </defs>
  <g
     id="layer1"
     transform="translate(-65.370578,-25.728456)">
    <g
       id="g60"
       clip-path="url(#clipPath61)"
       transform="matrix(0.37491545,0,0,0.37491545,-212.28936,-207.34685)">
      <g
         id="g543"
         transform="matrix(1.0995256,0,0,1,-114.66805,0)">
        <path
           d="m 0,0 c 1.127,-0.431 0.876,-2.601 0.189,-3.208 -0.901,-0.795 -1.81,-0.613 -3.155,-1.245 4.506,-6.034 8.849,-11.927 12.389,-18.524 1.365,-2.542 1.922,-4.989 1.697,-7.934 -0.414,-5.417 -1.211,-10.663 -1.959,-16.062 L 7.568,-58.487 c -0.159,-1.149 -0.171,-2.208 0.097,-3.36 8.68,-2.543 20.368,-3.169 29.311,-2.26 1.785,0.181 4.407,0.473 5.404,1.812 0.715,4.978 -6.84,8.604 -11.049,9.38 -1.643,0.302 -3.066,1.388 -2.694,3.247 l 1.909,9.544 c 1.161,5.805 2.201,11.481 2.14,17.435 -0.037,3.549 -1.032,6.71 -2.529,9.817 -1.777,3.686 -3.731,7.051 -5.898,10.527 L 15.641,11.484 C 11.027,9.502 6.415,8.819 1.563,8.097 -2.974,7.422 -7.245,7.307 -11.977,7.968 c -7.231,-13.137 -17.32,-23.99 -29.794,-32.364 -1.261,-7.974 -2.715,-15.678 -4.834,-23.503 -1.35,-4.987 -2.744,-9.689 -3.744,-14.749 -0.252,-1.422 0.254,-2.739 1.757,-3.121 7.129,-1.814 14.58,-1.888 21.681,0.054 0.78,0.213 1.456,0.743 1.694,1.193 1.063,2.012 -1.394,7.107 -5.54,8.51 -5.241,1.773 -9.503,-1.272 -10.443,0.92 -0.267,0.623 -0.307,1.978 0.398,2.428 3.533,2.257 7.895,2.427 12.004,0.808 l 6.352,16.499 c 1.651,4.288 2.69,8.471 3.692,12.978 l 3.933,17.687 c 0.42,1.893 1.582,2.94 3.632,3.372 l 5.218,1.098 C -4.081,0.176 -1.985,0.758 0,0 m 87.852,20.467 c -2.328,1.396 -4.457,2.639 -6.888,3.551 -1.437,0.538 -3.363,-1.185 -3.632,-2.525 -0.484,-2.414 0.471,-4.444 2.048,-5.894 1.542,-1.419 3.796,-2.085 5.828,-1.462 1.545,0.474 2.659,1.216 3.194,2.516 0.411,1 0.646,3.097 -0.55,3.814 m 0.877,6.856 -4.353,3.678 c -0.79,-1.075 -1.237,-2.229 -1.206,-3.522 l 5.304,-2.591 c 0.81,-0.396 1.093,0.588 1.242,1.101 0.205,0.704 -0.384,0.824 -0.987,1.334 m -0.066,4.195 c -0.476,2.214 -1.336,3.322 -1.083,5.103 0.061,0.432 -0.427,0.671 -0.661,0.66 -0.557,-0.026 -1.69,-2.632 -1.159,-3.243 0.861,-0.991 1.743,-2.187 2.903,-2.52 m 11.225,-0.295 c 1.023,0.625 1.786,2.381 1.151,3.257 -2.653,0.574 -4.995,1.815 -7.251,3.317 -0.883,0.588 -2.315,-0.688 -2.278,-1.573 0.076,-1.787 1.232,-3.102 2.789,-3.791 1.54,-1.296 3.503,-1.845 5.589,-1.21 M 90.945,42.7 c -0.086,0.693 -0.109,2.096 -1.218,1.768 -0.665,-0.742 -2.28,-3.723 -1.115,-4.442 0.11,-0.068 2.526,1.114 2.333,2.674 m 14.724,-2.788 c 0.456,0.77 0.975,2.636 0.161,3.223 l -7.501,3.503 c -0.76,-1.454 -2.434,-1.654 -3.203,-2.626 -1.987,-2.51 8.326,-7.839 10.543,-4.1 m 1.454,7.824 c 1.28,0.457 1.782,1.864 1.673,3.121 -0.267,3.08 -6.475,4.809 -9.048,3.617 0.255,-1.382 -0.257,-2.854 0.333,-3.94 0.454,-0.837 5.489,-3.354 7.042,-2.798 m -13.08,1.098 c 2.986,1.005 1.689,7.656 0.122,10.597 -1.734,3.253 -6.597,3.011 -8.657,0.708 -3.131,-3.5 -3.364,-6.294 -5.868,-6.56 -6.487,-0.689 -18.653,0.271 -23.935,4.178 l -6.373,4.714 c -3.417,-5.59 -6.826,-10.722 -10.636,-15.992 2.326,-2.542 4.986,-4.188 7.733,-6.005 7.917,-5.236 15.819,-6.467 25.178,-4.475 l 7.326,1.56 c 0.982,0.209 1.677,-0.679 2.677,-1.14 1.723,3.624 2.875,7.259 4.367,10.861 1.61,3.887 -0.312,4.08 0.411,6.761 0.224,0.832 0.819,1.243 1.511,1.264 2.024,0.061 2.437,-7.717 6.144,-6.471 m 30.79,9.422 c -3.958,1.604 -7.561,3.197 -11.29,5.111 l -17.985,9.231 -9.997,5.517 c -1.077,0.594 -1.874,1.567 -3.187,1.669 -0.851,-1.953 -1.71,-3.674 -2.273,-5.864 l 16.285,-8.397 16.797,-8.46 7.628,-4.058 c 2.437,-1.296 2.557,2.208 4.022,5.251 m -99.136,9.307 c 0.97,-1.135 0.742,-2.952 0.499,-4.387 l -1.505,-8.884 8.196,-7.322 7.553,10.726 7.063,10.723 c -5.559,4.267 -10.585,8.809 -15.801,13.563 -20.022,-11.117 -43.665,-0.407 -53.625,18.8 -2.385,-0.261 -4.595,-1.003 -6.905,-2.226 C -19.373,88.232 -9.955,81.934 1.528,74.615 3.229,73.531 4.307,71.87 4.219,69.689 3.435,50.436 -0.765,31.066 -9.252,13.157 c 7.63,-0.712 17.284,0.991 24.316,3.859 0.537,6.811 0.72,13.423 1.727,20.233 1.019,6.895 2.158,13.553 3.927,20.215 0.333,1.251 2.836,12.606 4.979,10.099 M -11.098,21.119 c 3.609,8.744 6.027,17.517 7.929,26.789 1.366,6.655 1.896,13.188 2.683,19.91 0.153,1.31 0.175,2.06 -1.079,2.801 -17.406,10.289 -27.56,19.499 -40.45,35.456 -10.702,-7.243 -21.399,-12.31 -33.847,-15.17 -2.81,-1.107 -5.724,-1.226 -8.653,-1.839 -3.15,-23.039 -4.848,-43.397 0.244,-66.181 2.25,-10.067 5.927,-19.348 11.099,-28.22 4.549,-7.803 9.712,-14.98 16.289,-21.279 21.364,9.572 37.004,26.452 45.785,47.733 m 108.763,55.566 14.443,-7.452 18.423,42.617 17.226,40.198 -2.201,24.964 -8.466,-6.91 c -2.708,-3.041 -7.164,-5.135 -9,-8.897 -3.296,-6.754 -5.287,-13.775 -7.806,-20.809 l -9.163,-25.592 z M -46.823,-27.63 c -2.848,-1.207 -9.524,-5.821 -12.123,-3.739 -7.664,6.138 -15.159,17.218 -19.892,25.888 -11.927,21.849 -14.817,46.686 -13.026,71.278 0.618,8.488 1.33,16.629 3.077,24.866 0.423,1.991 1.82,3.004 3.645,3.417 3.648,0.826 7.091,1.439 10.715,2.499 10.972,3.211 21.148,7.896 30.693,14.123 1.502,0.98 3.133,1.172 4.441,-0.268 l 7.087,-8.268 c 2.546,1.496 5.065,2.324 7.885,3.046 -1.199,3.811 -2.504,7.39 -3.148,11.441 -3.84,24.145 9.25,48.854 32.981,56.179 8.273,2.553 18.264,2.895 26.43,0.357 4.214,-1.309 8.257,-2.818 11.663,-5.729 1.096,-0.937 2.797,-2.11 2.169,-3.737 -0.452,-1.169 -2.187,-0.507 -3.003,-0.128 l -5.374,2.499 c -1.665,0.774 -3.447,1.196 -5.213,1.764 -7.033,2.261 -18.328,2.077 -25.506,-0.254 -3.64,-1.182 -6.834,-2.521 -10.074,-4.727 -16.009,-10.897 -22.95,-30.332 -18.328,-49.161 2.704,-11.014 9.562,-20.454 19.309,-26.04 13.847,-7.935 29.192,-5.474 40.522,5.086 13.066,12.177 17.032,31.286 11.124,47.879 -1.745,4.903 -4.167,9.166 -7.783,12.931 -5.013,5.218 -12.979,7.129 -16.212,9.303 -0.451,0.304 -0.477,0.945 -0.385,1.341 0.12,0.519 0.731,0.738 1.364,0.863 3.34,0.662 6.378,-0.55 9.443,-1.89 7.394,-3.235 12.944,-9.087 16.351,-16.425 C 59.774,130.039 58.02,110.171 47.196,95.231 44.098,90.955 40.545,87.494 36.023,84.509 L 51.879,70.963 c 1.238,-1.058 0.447,-2.932 0.384,-4.274 9.632,-8.288 10.79,-7.056 23.33,-8.268 1.125,-0.156 2.155,-0.476 3.416,-0.32 1.28,3.39 3.515,6.138 6.853,7.539 -3.009,1.591 -5.687,2.747 -8.253,4.46 -1.443,0.964 -1.943,2.463 -1.911,4.246 0.89,3.234 1.858,6.64 4.107,9.216 1.355,1.554 3.849,0.988 5.438,0.072 l 8.4,-4.842 6.268,18.137 9.616,27.443 14.117,38.259 c 0.727,1.97 1.802,3.534 3.309,4.925 5.895,5.438 11.997,10.423 18.428,15.211 0.835,0.622 1.9,0.653 2.663,0.201 0.659,-0.391 1.241,-1.336 1.404,-2.344 1.565,-9.696 2.162,-19.322 2.712,-29.162 -2.149,-6.125 -4.455,-11.715 -7.007,-17.655 L 130.675,100.108 116.365,67.33 c 1.566,-1.184 3.397,-1.554 5.081,-2.356 3.738,-1.779 8.764,-3.447 7.736,-7.696 -0.823,-3.399 -3.286,-11.537 -8.173,-9.53 -4.197,1.723 -4.343,2.395 -8.131,4.039 0.205,-2.946 -0.527,-5.582 -2.727,-7.586 0.764,-3.605 -0.276,-7.228 -3.338,-9.244 -0.749,-0.492 -1.41,-0.422 -1.468,-1.643 -0.132,-2.807 -1.922,-5.636 -4.608,-6.59 -1.937,-0.687 -3.832,-0.155 -5.931,0.308 -1.041,-1.743 -1.789,-3.535 -2.575,-5.429 1.925,-4.62 0.268,-9.758 -4.42,-11.922 -5.823,-2.687 -12.469,0.828 -14.473,6.873 -1.126,3.396 -0.765,6.931 1.508,9.728 1.973,2.427 4.004,0.546 5.279,6.091 -1.61,0.421 -2.601,-0.23 -3.813,-0.597 -2.976,-0.9 -5.999,-1.207 -9.062,-1.785 -2.896,-0.547 -5.705,-0.183 -8.596,0.19 -9.335,1.203 -16.128,6.284 -22.93,12.277 -3.016,-4.61 -9.186,3.913 -12.241,6.038 C 21.455,36.71 20.058,25.246 19.55,13.364 L 27.929,0.761 c 2.743,-4.124 5.109,-8.255 7.158,-12.775 2.12,-4.677 2.71,-9.559 2.28,-14.713 -0.617,-7.397 -2.114,-14.489 -3.772,-21.837 6.543,-1.612 13.144,-5.714 13.641,-12.842 0.167,-2.398 -0.686,-5.115 -3.101,-6.134 -6.806,-2.874 -17.802,-2.786 -25.006,-1.725 l -7.426,1.093 c -2.507,0.369 -5.104,1.004 -7.057,2.717 -1.482,1.299 -1.993,3.743 -1.865,5.769 0.603,9.612 2.841,18.904 3.577,29.433 0.136,1.95 -0.313,3.504 -1.278,5.112 -2.139,3.565 -4.234,7.002 -6.583,10.456 l -6.113,8.987 c -1.105,-0.101 -2.042,-0.186 -3.134,-0.453 l -3.077,-16.254 c -1.011,-5.339 -2.392,-10.262 -4.373,-15.324 l -6.42,-16.407 c 3.523,-3.549 5.139,-8.425 3.32,-13.003 -2.33,-5.862 -16.022,-5.31 -21.027,-5.116 -2.682,0.103 -5.034,0.695 -7.507,1.423 -3.524,1.037 -5.583,3.775 -5.184,7.528 0.391,3.675 1.079,7.218 2.344,10.766 z"
           style="fill:#080908;fill-opacity:1;fill-rule:nonzero;stroke:none"
           transform="matrix(1.3333333,0,0,-1.3333333,949.26613,866.04093)"
           clip-path="url(#clipPath2)"
           id="path32" />
        <path
           d="m 0,0 c 6.58,-2.077 11.097,2.1 11.95,-0.523 1.173,-3.611 -6.203,-4.552 -9.028,-4.341 -8.379,0.624 -15.608,6.11 -18.796,13.821 -0.544,1.315 -0.669,2.692 -0.191,3.916 0.192,0.49 0.815,0.58 1.151,0.588 0.506,0.011 1.034,-0.233 1.339,-0.763 l 3.001,-5.203 C -8.342,3.624 -4.276,1.35 0,0"
           style="fill:#080908;fill-opacity:1;fill-rule:nonzero;stroke:none"
           transform="matrix(1.3333333,0,0,-1.3333333,975.3708,731.6072)"
           clip-path="url(#clipPath3)"
           id="path33" />
        <path
           d="m 0,0 c -1.72,0.585 -2.717,1.848 -3.5,3.286 l -7.702,14.144 -2.965,6.251 c -0.922,1.946 -1.491,3.872 0.347,4.949 2.032,1.191 4.312,-4.13 5.377,-6.045 C -5.031,16.455 -1.64,10.454 1.055,4.006 1.681,2.508 1.629,0.774 0,0"
           style="fill:#0da375;fill-opacity:1;fill-rule:nonzero;stroke:none"
           transform="matrix(1.3333333,0,0,-1.3333333,841.01453,723.78933)"
           clip-path="url(#clipPath4)"
           id="path34" />
        <path
           d="m 0,0 c -0.905,-0.735 -2.025,-0.767 -2.72,-0.274 -0.898,0.637 -1.024,1.677 -0.658,2.756 0.374,1.104 1.063,1.648 1.839,2.433 l 2.295,2.319 3.716,3.477 c 2.284,2.138 4.55,4.108 6.942,6.163 1.228,1.056 2.462,2.419 4.189,2.51 0.765,0.04 1.699,-1.344 1.528,-2.068 C 16.878,16.251 16.4,15.009 15.609,14.335 14.265,13.191 13.24,11.943 11.972,10.76 L 3.331,2.704 Z"
           style="fill:#0da375;fill-opacity:1;fill-rule:nonzero;stroke:none"
           transform="matrix(1.3333333,0,0,-1.3333333,803.826,886.9656)"
           clip-path="url(#clipPath5)"
           id="path35" />
        <path
           d="m 0,0 -4.078,0.331 c -3.695,0.3 -7.334,0.197 -10.908,0.945 -1.166,0.245 -1.683,1.65 -1.583,2.529 0.144,1.269 1.348,1.817 2.679,1.823 C -6.772,5.655 0.163,5.634 7.173,4.729 8.171,4.6 8.816,3.922 9.125,3.259 9.509,2.435 9.407,1.112 8.411,0.682 5.822,-0.436 2.934,-0.238 0,0"
           style="fill:#0da375;fill-opacity:1;fill-rule:nonzero;stroke:none"
           transform="matrix(1.3333333,0,0,-1.3333333,799.95413,796.2948)"
           clip-path="url(#clipPath6)"
           id="path36" />
        <path
           d="m 0,0 c -1.281,-0.412 -2.527,-0.015 -2.94,0.741 -0.489,0.894 -0.199,2.536 0.915,3.125 6.551,3.462 13.382,6.268 20.518,8.528 1.255,0.398 2.341,-0.489 2.593,-1.411 C 21.402,9.825 20.758,8.707 19.546,8.035 13.427,4.647 6.876,2.213 0,0"
           style="fill:#0da375;fill-opacity:1;fill-rule:nonzero;stroke:none"
           transform="matrix(1.3333333,0,0,-1.3333333,788.6752,844.7616)"
           clip-path="url(#clipPath7)"
           id="path37" />
        <path
           d="m 0,0 c 1.994,-1.657 4.716,-3.271 2.977,-5.769 -1.35,-1.939 -7.565,3.126 -9.369,4.349 -3.067,2.081 -8.954,6.821 -11.223,9.644 -0.532,0.662 -0.382,1.692 0.03,2.394 1.429,2.439 6.169,-1.752 7.849,-3.004 C -6.392,5.122 -3.217,2.672 0,0"
           style="fill:#0da375;fill-opacity:1;fill-rule:nonzero;stroke:none"
           transform="matrix(1.3333333,0,0,-1.3333333,815.4504,737.30107)"
           clip-path="url(#clipPath8)"
           id="path38" />
        <path
           d="m 0,0 c -0.487,-0.765 -1.485,-0.868 -1.957,-0.7 -2.678,0.957 1.529,9.015 2.502,11.102 0.689,1.479 3.965,9.412 6.236,6.575 0.69,-0.861 0.666,-2.512 0.215,-3.623 C 5.089,8.66 2.76,4.336 0,0"
           style="fill:#0da375;fill-opacity:1;fill-rule:nonzero;stroke:none"
           transform="matrix(1.3333333,0,0,-1.3333333,833.34333,913.4732)"
           clip-path="url(#clipPath9)"
           id="path39" />
        <path
           d="m 0,0 c -1.233,-0.096 -2.113,1.446 -2.313,2.459 -0.909,4.603 -1.627,9.01 -1.988,13.742 -0.095,1.245 0.47,3.169 1.922,3.047 1.089,-0.092 1.661,-1.777 1.851,-2.766 C 0.337,11.965 1.072,7.673 1.555,3.094 1.672,1.986 1.389,0.108 0,0"
           style="fill:#0da375;fill-opacity:1;fill-rule:nonzero;stroke:none"
           transform="matrix(1.3333333,0,0,-1.3333333,861.88267,716.4412)"
           clip-path="url(#clipPath10)"
           id="path40" />
        <path
           d="M 0,0 C -0.686,-0.684 -2.018,-0.572 -2.717,-0.268 -6.074,1.194 -3.195,12.038 1.118,11.073 3.754,10.483 3.971,3.962 0,0"
           style="fill:#080908;fill-opacity:1;fill-rule:nonzero;stroke:none"
           transform="matrix(1.3333333,0,0,-1.3333333,974.44533,704.97413)"
           clip-path="url(#clipPath11)"
           id="path41" />
        <path
           d="m 0,0 c 4.145,-0.88 0.87,-11.522 -2.64,-11.484 -3.086,0.034 -3.706,6.571 0.064,10.81 C -1.868,0.121 -0.769,0.163 0,0"
           style="fill:#080908;fill-opacity:1;fill-rule:nonzero;stroke:none"
           transform="matrix(1.3333333,0,0,-1.3333333,1003.5991,700.0252)"
           clip-path="url(#clipPath12)"
           id="path42" />
        <path
           d="m 0,0 c -1.465,-3.043 -1.585,-6.547 -4.022,-5.251 l -7.628,4.057 -16.797,8.461 -16.285,8.397 c 0.563,2.19 1.422,3.911 2.273,5.864 1.313,-0.102 2.11,-1.076 3.187,-1.669 l 9.997,-5.517 17.985,-9.231 C -7.561,3.197 -3.958,1.604 0,0"
           style="fill:#0da375;fill-opacity:1;fill-rule:nonzero;stroke:none"
           transform="matrix(1.3333333,0,0,-1.3333333,1115.7101,788.36587)"
           clip-path="url(#clipPath18)"
           id="path48" />
        <path
           d="m 0,0 c 1.196,-0.717 0.961,-2.814 0.55,-3.814 -0.534,-1.3 -1.648,-2.042 -3.194,-2.516 -2.031,-0.623 -4.285,0.043 -5.828,1.462 -1.577,1.45 -2.532,3.48 -2.048,5.893 0.269,1.341 2.195,3.064 3.632,2.526 C -4.457,2.639 -2.327,1.395 0,0"
           style="fill:#0da375;fill-opacity:1;fill-rule:nonzero;stroke:none"
           transform="matrix(1.3333333,0,0,-1.3333333,1066.4019,838.7512)"
           clip-path="url(#clipPath19)"
           id="path49" />
        <path
           d="M 0,0 C 0.603,-0.51 1.192,-0.63 0.987,-1.334 0.838,-1.847 0.555,-2.831 -0.255,-2.435 l -5.304,2.591 c -0.031,1.293 0.416,2.447 1.207,3.522 z"
           style="fill:#0da375;fill-opacity:1;fill-rule:nonzero;stroke:none"
           transform="matrix(1.3333333,0,0,-1.3333333,1067.5712,829.6104)"
           clip-path="url(#clipPath23)"
           id="path53" />
        <path
           d="M 0,0 C -1.159,0.333 -2.041,1.529 -2.903,2.52 -3.433,3.131 -2.3,5.737 -1.744,5.762 -1.51,5.773 -1.021,5.535 -1.083,5.102 -1.336,3.322 -0.476,2.213 0,0"
           style="fill:#0da375;fill-opacity:1;fill-rule:nonzero;stroke:none"
           transform="matrix(1.3333333,0,0,-1.3333333,1067.4829,824.01653)"
           clip-path="url(#clipPath24)"
           id="path54" />
        <path
           d="m 0,0 c 0.193,-1.56 -2.223,-2.743 -2.333,-2.675 -1.165,0.72 0.45,3.7 1.115,4.442 C -0.109,2.095 -0.086,0.693 0,0"
           style="fill:#0da375;fill-opacity:1;fill-rule:nonzero;stroke:none"
           transform="matrix(1.3333333,0,0,-1.3333333,1070.5263,809.10707)"
           clip-path="url(#clipPath25)"
           id="path55" />
        <path
           d="m 0,0 c 12.346,6.774 22.317,16.112 29.589,27.652 5.543,9.332 9.157,19.192 11.613,29.747 1.745,7.014 2.658,13.934 3.716,21.122 L 33.092,86.235 C 24.639,91.748 17.995,99.285 11.357,107.231 1.273,100.825 -8.027,97.152 -19.74,95.068 c -0.494,-0.158 -1.344,-0.255 -1.446,-0.875 -1.332,-8.133 -1.725,-16.113 -2.025,-24.361 -0.347,-9.543 0.508,-18.791 2.296,-28.17 C -17.779,26.413 -10.066,11.935 0,0 m 0.017,-4.703 c -1.791,0.715 -3.035,1.959 -4.258,3.35 -5.334,6.067 -9.492,12.776 -13.085,20.059 -4.133,8.375 -6.925,16.957 -8.412,26.216 -1.732,10.787 -1.979,21.387 -1.259,32.294 0.422,6.404 0.945,12.453 2.1,18.704 0.197,1.065 0.722,2.175 1.765,2.541 3.19,1.116 6.354,1.582 9.628,2.49 8.133,2.256 15.535,5.649 22.74,9.99 0.804,0.485 1.537,0.999 2.397,0.94 0.706,-0.048 1.6,-0.516 2.21,-1.202 3.813,-4.295 7.408,-8.552 11.647,-12.481 5.665,-5.251 11.573,-9.674 18.17,-13.658 5.009,-3.025 5.351,-3.713 4.737,-9.249 C 47.333,65.693 45.633,56.496 42.736,47.283 36.596,27.758 27.691,13.969 11.168,1.834 7.659,-0.743 4.132,-2.686 0.017,-4.703"
           style="fill:#080908;fill-opacity:1;fill-rule:nonzero;stroke:none"
           transform="matrix(1.3333333,0,0,-1.3333333,875.35173,885.23987)"
           clip-path="url(#clipPath27)"
           id="path57" />
        <path
           d="m 0,0 c -0.688,-1.758 -1.946,-5.092 -3.448,-4.737 -1.662,0.392 0.227,5.58 0.716,6.827 l 7.478,19.097 19.031,47.74 c 0.469,1.176 2.16,4.734 3.236,4.579 1.378,-0.2 -1.05,-7.161 -1.503,-8.319 z"
           style="fill:#080908;fill-opacity:1;fill-rule:nonzero;stroke:none"
           transform="matrix(1.3333333,0,0,-1.3333333,1095.1024,759.06187)"
           clip-path="url(#clipPath28)"
           id="path58" />
        <path
           d="m 0,0 c 0.913,0.505 0.994,1.764 1.045,2.782 1.21,24.058 3.614,47.787 7.247,71.599 0.548,3.592 1.03,6.759 1.323,10.288 0.063,0.749 -0.22,1.524 -0.864,1.622 C 7.217,86.524 6.706,83.423 6.354,81.628 1.843,58.654 -0.594,35.529 -1.705,12.144 -1.877,8.521 -1.963,5.313 -1.852,1.696 -1.826,0.841 -1.006,-0.556 0,0 m -0.903,-10.286 c -10.066,11.935 -17.779,26.413 -20.915,41.661 -1.788,9.379 -2.643,18.628 -2.296,28.171 0.3,8.247 0.693,16.228 2.025,24.36 0.102,0.62 0.952,0.718 1.446,0.876 C -8.93,86.865 0.37,90.538 10.454,96.945 17.092,88.998 23.736,81.462 32.189,75.948 L 44.015,68.235 C 42.956,61.047 42.044,54.127 40.299,47.113 37.843,36.558 34.229,26.697 28.686,17.365 21.414,5.826 11.443,-3.512 -0.903,-10.286"
           style="fill:#0da375;fill-opacity:1;fill-rule:nonzero;stroke:none"
           transform="matrix(1.3333333,0,0,-1.3333333,876.55587,871.5248)"
           clip-path="url(#clipPath29)"
           id="path59" />
        <path
           d="m 0,0 c -1.006,-0.556 -1.826,0.841 -1.852,1.696 -0.111,3.617 -0.025,6.825 0.147,10.448 1.111,23.385 3.548,46.51 8.059,69.484 0.352,1.795 0.863,4.896 2.397,4.663 C 9.395,86.193 9.678,85.418 9.615,84.669 9.322,81.14 8.84,77.973 8.292,74.381 4.659,50.569 2.255,26.84 1.045,2.782 0.994,1.764 0.913,0.505 0,0"
           style="fill:#080908;fill-opacity:1;fill-rule:nonzero;stroke:none"
           transform="matrix(1.3333333,0,0,-1.3333333,876.55587,871.5248)"
           clip-path="url(#clipPath30)"
           id="path60" />
      </g>
    </g>
  </g>
</svg>
