<?xml version="1.0" encoding="UTF-8" standalone="no"?>
<!-- Created with Inkscape (http://www.inkscape.org/) -->

<svg
   width="115.65492mm"
   height="123.49644mm"
   viewBox="0 0 115.65492 123.49644"
   version="1.1"
   id="svg1"
   xmlns="http://www.w3.org/2000/svg"
   xmlns:svg="http://www.w3.org/2000/svg">
  <defs
     id="defs1">
    <clipPath
       clipPathUnits="userSpaceOnUse"
       id="clipPath140">
      <path
         d="M 0,1080 H 1920 V 0 H 0 Z"
         transform="matrix(1.3333333,0,0,-1.3333333,0,1440)"
         id="path140" />
    </clipPath>
    <clipPath
       clipPathUnits="userSpaceOnUse"
       id="clipPath63">
      <path
         d="M 147.058,1009.6 H 822.602 V 608.689 H 147.058 Z"
         transform="translate(-581.84971,-643.21252)"
         id="path63" />
    </clipPath>
    <clipPath
       clipPathUnits="userSpaceOnUse"
       id="clipPath64">
      <path
         d="M 147.058,1009.6 H 822.602 V 608.689 H 147.058 Z"
         transform="translate(-554.00401,-881.64112)"
         id="path64" />
    </clipPath>
    <clipPath
       clipPathUnits="userSpaceOnUse"
       id="clipPath65">
      <path
         d="M 147.058,1009.6 H 822.602 V 608.689 H 147.058 Z"
         transform="translate(-659.85941,-842.47442)"
         id="path65" />
    </clipPath>
    <clipPath
       clipPathUnits="userSpaceOnUse"
       id="clipPath66">
      <path
         d="M 147.058,1009.6 H 822.602 V 608.689 H 147.058 Z"
         transform="translate(-663.88931,-812.76862)"
         id="path66" />
    </clipPath>
    <clipPath
       clipPathUnits="userSpaceOnUse"
       id="clipPath67">
      <path
         d="M 147.058,1009.6 H 822.602 V 608.689 H 147.058 Z"
         transform="translate(-672.73282,-780.20562)"
         id="path67" />
    </clipPath>
    <clipPath
       clipPathUnits="userSpaceOnUse"
       id="clipPath68">
      <path
         d="M 147.058,1009.6 H 822.602 V 608.689 H 147.058 Z"
         transform="translate(-633.31961,-846.80912)"
         id="path68" />
    </clipPath>
    <clipPath
       clipPathUnits="userSpaceOnUse"
       id="clipPath69">
      <path
         d="M 147.058,1009.6 H 822.602 V 608.689 H 147.058 Z"
         transform="translate(-456.15221,-908.29382)"
         id="path69" />
    </clipPath>
    <clipPath
       clipPathUnits="userSpaceOnUse"
       id="clipPath70">
      <path
         d="M 147.058,1009.6 H 822.602 V 608.689 H 147.058 Z"
         transform="translate(-484.32901,-900.17292)"
         id="path70" />
    </clipPath>
    <clipPath
       clipPathUnits="userSpaceOnUse"
       id="clipPath73">
      <path
         d="M 147.058,1009.6 H 822.602 V 608.689 H 147.058 Z"
         transform="translate(-591.87922,-662.52232)"
         id="path73" />
    </clipPath>
    <clipPath
       clipPathUnits="userSpaceOnUse"
       id="clipPath74">
      <path
         d="M 147.058,1009.6 H 822.602 V 608.689 H 147.058 Z"
         transform="translate(-581.12951,-697.04711)"
         id="path74" />
    </clipPath>
    <clipPath
       clipPathUnits="userSpaceOnUse"
       id="clipPath76">
      <path
         d="M 147.058,1009.6 H 822.602 V 608.689 H 147.058 Z"
         transform="translate(-587.79751,-810.34062)"
         id="path76" />
    </clipPath>
    <clipPath
       clipPathUnits="userSpaceOnUse"
       id="clipPath78">
      <path
         d="M 147.058,1009.6 H 822.602 V 608.689 H 147.058 Z"
         transform="translate(-581.84971,-643.21252)"
         id="path78" />
    </clipPath>
    <clipPath
       clipPathUnits="userSpaceOnUse"
       id="clipPath79">
      <path
         d="M 147.058,1009.6 H 822.602 V 608.689 H 147.058 Z"
         transform="translate(-493.40261,-659.01221)"
         id="path79" />
    </clipPath>
    <clipPath
       clipPathUnits="userSpaceOnUse"
       id="clipPath80">
      <path
         d="M 147.058,1009.6 H 822.602 V 608.689 H 147.058 Z"
         transform="translate(-591.79091,-654.55631)"
         id="path80" />
    </clipPath>
    <clipPath
       clipPathUnits="userSpaceOnUse"
       id="clipPath81">
      <path
         d="M 147.058,1009.6 H 822.602 V 608.689 H 147.058 Z"
         transform="translate(-617.28881,-668.65192)"
         id="path81" />
    </clipPath>
    <clipPath
       clipPathUnits="userSpaceOnUse"
       id="clipPath82">
      <path
         d="M 147.058,1009.6 H 822.602 V 608.689 H 147.058 Z"
         transform="translate(-502.18301,-665.52461)"
         id="path82" />
    </clipPath>
    <clipPath
       clipPathUnits="userSpaceOnUse"
       id="clipPath84">
      <path
         d="M 147.058,1009.6 H 822.602 V 608.689 H 147.058 Z"
         transform="translate(-576.32011,-698.44012)"
         id="path84" />
    </clipPath>
    <clipPath
       clipPathUnits="userSpaceOnUse"
       id="clipPath85">
      <path
         d="M 147.058,1009.6 H 822.602 V 608.689 H 147.058 Z"
         transform="translate(-621.71912,-930.09422)"
         id="path85" />
    </clipPath>
    <clipPath
       clipPathUnits="userSpaceOnUse"
       id="clipPath86">
      <path
         d="M 147.058,1009.6 H 822.602 V 608.689 H 147.058 Z"
         transform="translate(-585.22691,-896.13972)"
         id="path86" />
    </clipPath>
    <clipPath
       clipPathUnits="userSpaceOnUse"
       id="clipPath87">
      <path
         d="M 147.058,1009.6 H 822.602 V 608.689 H 147.058 Z"
         transform="translate(-605.41382,-913.16562)"
         id="path87" />
    </clipPath>
    <clipPath
       clipPathUnits="userSpaceOnUse"
       id="clipPath88">
      <path
         d="M 147.058,1009.6 H 822.602 V 608.689 H 147.058 Z"
         transform="translate(-570.20401,-912.95513)"
         id="path88" />
    </clipPath>
    <clipPath
       clipPathUnits="userSpaceOnUse"
       id="clipPath89">
      <path
         d="M 147.058,1009.6 H 822.602 V 608.689 H 147.058 Z"
         transform="translate(-553.78162,-932.59373)"
         id="path89" />
    </clipPath>
    <clipPath
       clipPathUnits="userSpaceOnUse"
       id="clipPath90">
      <path
         d="M 147.058,1009.6 H 822.602 V 608.689 H 147.058 Z"
         transform="translate(-603.58462,-899.69922)"
         id="path90" />
    </clipPath>
    <clipPath
       clipPathUnits="userSpaceOnUse"
       id="clipPath91">
      <path
         d="M 147.058,1009.6 H 822.602 V 608.689 H 147.058 Z"
         transform="translate(-588.75052,-916.82012)"
         id="path91" />
    </clipPath>
    <clipPath
       clipPathUnits="userSpaceOnUse"
       id="clipPath92">
      <path
         d="M 147.058,1009.6 H 822.602 V 608.689 H 147.058 Z"
         transform="translate(-568.06061,-933.20342)"
         id="path92" />
    </clipPath>
    <clipPath
       clipPathUnits="userSpaceOnUse"
       id="clipPath93">
      <path
         d="M 147.058,1009.6 H 822.602 V 608.689 H 147.058 Z"
         transform="translate(-545.70151,-743.74722)"
         id="path93" />
    </clipPath>
    <clipPath
       clipPathUnits="userSpaceOnUse"
       id="clipPath94">
      <path
         d="M 147.058,1009.6 H 822.602 V 608.689 H 147.058 Z"
         transform="translate(-576.66121,-757.01302)"
         id="path94" />
    </clipPath>
    <clipPath
       clipPathUnits="userSpaceOnUse"
       id="clipPath95">
      <path
         d="M 147.058,1009.6 H 822.602 V 608.689 H 147.058 Z"
         transform="translate(-576.32011,-698.44012)"
         id="path95" />
    </clipPath>
    <clipPath
       clipPathUnits="userSpaceOnUse"
       id="clipPath96">
      <path
         d="M 147.058,1009.6 H 822.602 V 608.689 H 147.058 Z"
         transform="translate(-530.35891,-731.39402)"
         id="path96" />
    </clipPath>
    <clipPath
       clipPathUnits="userSpaceOnUse"
       id="clipPath97">
      <path
         d="M 147.058,1009.6 H 822.602 V 608.689 H 147.058 Z"
         transform="translate(-521.12231,-721.87412)"
         id="path97" />
    </clipPath>
    <clipPath
       clipPathUnits="userSpaceOnUse"
       id="clipPath98">
      <path
         d="M 147.058,1009.6 H 822.602 V 608.689 H 147.058 Z"
         transform="translate(-525.53231,-736.87572)"
         id="path98" />
    </clipPath>
    <clipPath
       clipPathUnits="userSpaceOnUse"
       id="clipPath99">
      <path
         d="M 147.058,1009.6 H 822.602 V 608.689 H 147.058 Z"
         transform="translate(-521.12231,-721.87412)"
         id="path99" />
    </clipPath>
    <clipPath
       clipPathUnits="userSpaceOnUse"
       id="clipPath100">
      <path
         d="M 147.058,1009.6 H 822.602 V 608.689 H 147.058 Z"
         transform="translate(-525.53231,-736.87572)"
         id="path100" />
    </clipPath>
    <clipPath
       clipPathUnits="userSpaceOnUse"
       id="clipPath183">
      <path
         d="M 0,1080 H 1920 V 0 H 0 Z"
         transform="matrix(1.3333333,0,0,-1.3333333,0,1440)"
         id="path183" />
    </clipPath>
    <clipPath
       clipPathUnits="userSpaceOnUse"
       id="clipPath142">
      <path
         d="M 26.406,587.919 H 556.067 V 273.585 H 26.406 Z"
         transform="translate(-293.50231,-318.02813)"
         id="path142" />
    </clipPath>
    <clipPath
       clipPathUnits="userSpaceOnUse"
       id="clipPath143">
      <path
         d="M 26.406,587.919 H 556.067 V 273.585 H 26.406 Z"
         transform="translate(-257.59251,-273.58501)"
         id="path143" />
    </clipPath>
    <clipPath
       clipPathUnits="userSpaceOnUse"
       id="clipPath144">
      <path
         d="M 26.406,587.919 H 556.067 V 273.585 H 26.406 Z"
         transform="translate(-206.6545,-316.38511)"
         id="path144" />
    </clipPath>
    <clipPath
       clipPathUnits="userSpaceOnUse"
       id="clipPath145">
      <path
         d="M 26.406,587.919 H 556.067 V 273.585 H 26.406 Z"
         transform="translate(-297.1555,-477.71551)"
         id="path145" />
    </clipPath>
    <clipPath
       clipPathUnits="userSpaceOnUse"
       id="clipPath146">
      <path
         d="M 26.406,587.919 H 556.067 V 273.585 H 26.406 Z"
         transform="translate(-192.1899,-375.89681)"
         id="path146" />
    </clipPath>
    <clipPath
       clipPathUnits="userSpaceOnUse"
       id="clipPath147">
      <path
         d="M 26.406,587.919 H 556.067 V 273.585 H 26.406 Z"
         transform="translate(-210.89481,-440.13341)"
         id="path147" />
    </clipPath>
    <clipPath
       clipPathUnits="userSpaceOnUse"
       id="clipPath148">
      <path
         d="M 26.406,587.919 H 556.067 V 273.585 H 26.406 Z"
         transform="translate(-208.72891,-412.19141)"
         id="path148" />
    </clipPath>
    <clipPath
       clipPathUnits="userSpaceOnUse"
       id="clipPath149">
      <path
         d="M 26.406,587.919 H 556.067 V 273.585 H 26.406 Z"
         transform="translate(-213.65781,-359.83681)"
         id="path149" />
    </clipPath>
    <clipPath
       clipPathUnits="userSpaceOnUse"
       id="clipPath150">
      <path
         d="M 26.406,587.919 H 556.067 V 273.585 H 26.406 Z"
         transform="translate(-240.4702,-330.51231)"
         id="path150" />
    </clipPath>
    <clipPath
       clipPathUnits="userSpaceOnUse"
       id="clipPath151">
      <path
         d="M 26.406,587.919 H 556.067 V 273.585 H 26.406 Z"
         transform="translate(-281.16751,-511.34362)"
         id="path151" />
    </clipPath>
    <clipPath
       clipPathUnits="userSpaceOnUse"
       id="clipPath152">
      <path
         d="M 26.406,587.919 H 556.067 V 273.585 H 26.406 Z"
         transform="translate(-306.08471,-513.41032)"
         id="path152" />
    </clipPath>
    <clipPath
       clipPathUnits="userSpaceOnUse"
       id="clipPath154">
      <path
         d="M 26.406,587.919 H 556.067 V 273.585 H 26.406 Z"
         transform="translate(-255.18391,-354.37441)"
         id="path154" />
    </clipPath>
    <clipPath
       clipPathUnits="userSpaceOnUse"
       id="clipPath157">
      <path
         d="M 26.406,587.919 H 556.067 V 273.585 H 26.406 Z"
         transform="translate(-265.8598,-464.59491)"
         id="path157" />
    </clipPath>
    <clipPath
       clipPathUnits="userSpaceOnUse"
       id="clipPath1606">
      <path
         d="M 0,1080 H 1920 V 0 H 0 Z"
         transform="matrix(1.3333333,0,0,-1.3333333,0,1440)"
         id="path1606" />
    </clipPath>
    <clipPath
       clipPathUnits="userSpaceOnUse"
       id="clipPath1543">
      <path
         d="M 46.9879,569.636 H 393.737 V 36.1759 H 46.9879 Z"
         transform="translate(-304.84891,-113.22083)"
         id="path1543" />
    </clipPath>
    <clipPath
       clipPathUnits="userSpaceOnUse"
       id="clipPath1544">
      <path
         d="M 46.9879,569.636 H 393.737 V 36.1759 H 46.9879 Z"
         transform="translate(-127.083,-314.62838)"
         id="path1544" />
    </clipPath>
    <clipPath
       clipPathUnits="userSpaceOnUse"
       id="clipPath1546">
      <path
         d="M 46.9879,569.636 H 393.737 V 36.1759 H 46.9879 Z"
         transform="translate(-218.7298,-405.32361)"
         id="path1546" />
    </clipPath>
    <clipPath
       clipPathUnits="userSpaceOnUse"
       id="clipPath1552">
      <path
         d="M 46.9879,569.636 H 393.737 V 36.1759 H 46.9879 Z"
         transform="translate(-197.98701,-264.40651)"
         id="path1552" />
    </clipPath>
    <clipPath
       clipPathUnits="userSpaceOnUse"
       id="clipPath1553">
      <path
         d="M 46.9879,569.636 H 393.737 V 36.1759 H 46.9879 Z"
         transform="translate(-241.65031,-261.18443)"
         id="path1553" />
    </clipPath>
    <clipPath
       clipPathUnits="userSpaceOnUse"
       id="clipPath1554">
      <path
         d="M 46.9879,569.636 H 393.737 V 36.1759 H 46.9879 Z"
         transform="translate(-126.3963,-352.13201)"
         id="path1554" />
    </clipPath>
    <clipPath
       clipPathUnits="userSpaceOnUse"
       id="clipPath1555">
      <path
         d="M 46.9879,569.636 H 393.737 V 36.1759 H 46.9879 Z"
         transform="translate(-155.04411,-344.26451)"
         id="path1555" />
    </clipPath>
    <clipPath
       clipPathUnits="userSpaceOnUse"
       id="clipPath1556">
      <path
         d="M 46.9879,569.636 H 393.737 V 36.1759 H 46.9879 Z"
         transform="translate(-236.00971,-399.67051)"
         id="path1556" />
    </clipPath>
    <clipPath
       clipPathUnits="userSpaceOnUse"
       id="clipPath1557">
      <path
         d="M 46.9879,569.636 H 393.737 V 36.1759 H 46.9879 Z"
         transform="translate(-205.6105,-392.51811)"
         id="path1557" />
    </clipPath>
    <clipPath
       clipPathUnits="userSpaceOnUse"
       id="clipPath1569">
      <path
         d="M 46.9879,569.636 H 393.737 V 36.1759 H 46.9879 Z"
         transform="translate(-171.86901,-308.13338)"
         id="path1569" />
    </clipPath>
    <clipPath
       clipPathUnits="userSpaceOnUse"
       id="clipPath1571">
      <path
         d="M 46.9879,569.636 H 393.737 V 36.1759 H 46.9879 Z"
         transform="translate(-312.41401,-314.55991)"
         id="path1571" />
    </clipPath>
    <clipPath
       clipPathUnits="userSpaceOnUse"
       id="clipPath1572">
      <path
         d="M 46.9879,569.636 H 393.737 V 36.1759 H 46.9879 Z"
         transform="translate(-313.41731,-336.43441)"
         id="path1572" />
    </clipPath>
    <clipPath
       clipPathUnits="userSpaceOnUse"
       id="clipPath1573">
      <path
         d="M 46.9879,569.636 H 393.737 V 36.1759 H 46.9879 Z"
         transform="translate(-285.77821,-341.70001)"
         id="path1573" />
    </clipPath>
  </defs>
  <g
     id="g1605"
     clip-path="url(#clipPath1606)"
     transform="matrix(0.26458333,0,0,0.26458333,-19.970648,-220.81577)">
    <path
       d="m 0,0 -1.481,23.767 c -0.706,10.638 -1.252,20.895 -0.926,31.652 -6.366,0.061 -12.305,0.887 -18.835,1.826 l 8.53,-44.672 C -12.063,6.464 -19.281,9.555 -26.426,1.239 -26.963,0.613 -28.199,-0.771 -27.675,-1.546 -25.469,-4.808 -4.822,-2.287 0,0 m 32.954,-1.848 c 2.723,-0.179 5.074,1.811 6.967,3.373 4.62,3.811 8.12,8.725 10.197,14.359 0.403,1.094 0.954,2.928 0.352,3.888 -2.187,3.483 -4.669,6.377 -7.117,9.63 -4.818,6.403 -9.025,12.925 -12.02,20.412 -1.158,2.897 -1.732,5.814 -3.004,8.56 L 11.708,55.866 14.84,48.456 C 18.248,40.393 22.77,33.232 28.413,26.58 30.57,24.037 32.202,21.325 34.538,18.958 38.723,14.715 32.417,11.418 31.787,2.13 31.712,1.024 31.541,-1.755 32.954,-1.848 M 11.812,171.488 c 14.863,3.994 25.604,15.583 29.765,29.942 0.836,2.883 1.734,5.361 1.505,8.425 -13.326,4.221 -24.798,11.833 -34.248,21.947 -6.924,7.222 -12.034,15.358 -15.146,25.278 -6.974,-10.682 -16.945,-18.633 -29.064,-22.681 -1.404,-3.841 -2.716,-7.292 -3.531,-11.242 -3.175,-15.387 1.533,-31.196 13.074,-41.867 10.074,-9.315 24.024,-13.462 37.645,-9.802 M 36.924,76.987 c -5.048,13.412 -9.56,26.507 -12.504,40.36 l -3.302,15.529 c -0.209,0.986 -3.3,3.944 -1.25,5.579 0.903,0.72 2.177,0.857 3.111,0.002 10.214,-9.347 22.172,-28.544 27.536,-41.518 -0.439,-3.057 -1.969,-13.733 0.883,-15.424 3.138,2.753 1.209,6.882 4.021,7.541 3.648,0.854 4.455,-4.835 9.801,-7.826 1.784,-0.997 3.937,-1.994 5.903,-1.01 2.378,1.189 3.074,3.999 2.577,6.639 -1.089,5.775 -4.716,10.75 -9.475,14.25 -2.31,1.699 -3.98,3.487 -4.86,6.334 -8.917,21.087 -22.641,44.803 -41.31,59.089 -14.494,-5.214 -30.505,-3.297 -42.921,5.77 -4.546,3.319 -8.611,6.556 -13.337,9.613 -7.758,6.177 -14.519,13.158 -20.273,21.233 -3.396,4.766 -6.505,9.315 -9.326,14.398 -1.033,1.861 -1.645,3.646 -1.707,5.841 -0.183,6.467 -1.317,12.603 -2.689,18.946 -0.891,4.121 -3.405,15.781 -6.394,18.014 -0.396,0.296 -1.323,0.393 -1.821,-0.169 -3.311,-3.744 -2.818,-13.611 -2.2,-18.59 2.828,1.277 6.027,0.656 7.419,-2.14 1.93,-3.877 3.23,-8.329 2.682,-12.653 -0.102,-0.804 -1.667,-0.648 -2.011,-0.265 -0.332,0.369 -0.981,0.794 -1.198,1.479 l -2.696,8.513 c -0.231,0.73 -0.866,1.337 -1.492,1.306 -1.796,-0.089 -1.807,-3.92 -1.642,-5.024 0.689,-4.615 -0.534,-8.796 -0.802,-13.248 -0.193,-3.21 2.659,-5.976 4.356,-8.303 1.258,-1.724 1.601,-3.523 2.582,-5.362 12.364,-23.19 25.373,-37.288 46.748,-52.38 0.695,1.94 1.541,5.826 3.575,5.108 1.777,-0.628 0.929,-6.843 0.682,-8.703 l -2.4,-18.049 -3.427,-20.722 -3.233,-17.536 -3.364,-16.621 -1.984,-8.889 c 20.389,-7.005 49.714,-8.66 69.792,-2.336 l 9.096,2.865 z M -227.835,0.131 c 8.085,-3.896 26.501,0.57 34.832,2.701 l 2.497,12.297 4.148,19.957 2.524,10.808 4.101,17.543 3.545,12.664 c 0.717,2.563 1.824,3.819 4.644,4.162 3.15,0.382 6.467,1.474 9.658,0.774 1.264,-0.277 1.794,-1.399 2.187,-2.114 0.686,-1.249 -1.406,-1.974 -1.405,-2.762 l 1.355,-16.628 0.746,-41.597 0.132,-15.995 c 10.348,-2.098 25.8,-4.045 36.047,-1.142 -0.37,6.673 -9.733,10.804 -14.976,12.622 -2.321,0.804 -2.858,2.227 -2.723,4.538 1.314,22.519 2.446,44.748 2.598,67.403 0.15,22.297 -1.534,44.066 -3.456,66.175 -0.168,1.934 -0.287,4.29 1.367,5.444 11.651,8.128 21.993,17.585 30.744,28.779 6.671,8.534 11.174,17.862 16.014,27.352 1.678,3.29 4.566,5.294 5.325,9.404 0.909,4.926 1.39,10.194 -0.106,15.241 -0.17,0.577 -0.637,1.051 -1.086,1.117 -3.523,0.524 -4.252,-12.702 -8.066,-11.203 -2.859,1.123 1.004,10.405 2.172,12.564 1.161,2.145 3.321,3.308 5.73,3.86 l -0.208,8.302 c -0.061,2.435 -1.515,9.506 -4.02,8.676 -0.442,-0.146 -1.361,-0.527 -1.673,-1.141 -2.39,-4.707 -3.524,-9.801 -4.615,-15.049 -1.3,-6.257 -2.488,-12.295 -3.409,-18.588 -0.362,-2.476 -1.365,-4.427 -2.559,-6.58 -5.117,-9.229 -10.941,-17.777 -18.459,-25.18 -4.265,-4.201 -8.877,-7.504 -13.81,-10.717 -2.976,-1.937 -6.297,-2.565 -9.287,-4.156 -5.266,-2.801 -10.036,-5.81 -15.936,-7.409 -9.999,-2.708 -20.301,-2.612 -30.314,0.27 -11.758,-8.873 -22.253,-23.281 -28.679,-36.24 -4.802,-9.682 -8.244,-19.554 -11.205,-29.92 -0.877,-3.071 -6.95,-7.935 -8.667,-16.819 -0.805,-4.164 -0.261,-10.222 3.901,-11.583 1.589,-0.52 3.142,-0.152 4.445,0.835 6.296,4.767 5.935,13.134 9.667,12.566 2.427,-0.37 1.799,-3.626 3.926,-6.194 0.482,-0.582 1.372,-0.739 1.873,-0.385 2.48,1.752 -0.504,12.575 -1.03,15.258 -0.49,2.495 0.96,4.815 1.829,7.154 4.791,12.9 11.291,24.938 20.124,35.459 1.064,1.268 2.792,2.61 4.243,1.552 2.002,-1.459 -0.718,-5.582 -2.033,-7.278 -0.014,-14.57 -1.262,-28.718 -3.151,-43.192 l -3.22,-24.667 -3.819,-24.923 -2.598,-16.696 c -0.54,-3.474 -1.193,-6.837 -1.627,-10.312 -0.608,-4.862 -6.534,-3.405 -13.828,-9.931 -2.12,-1.897 -4.176,-4.085 -4.409,-7.076 M 49.768,212.018 c 0.612,-0.438 0.553,-1.251 0.688,-1.831 0.134,-0.576 -1.067,-0.796 -1.384,-1.247 -1.496,-16.698 -10.71,-31.348 -25.274,-39.563 4.543,-3.589 8.264,-7.088 11.869,-11.083 10.445,-2.605 20.95,0.469 28.729,7.795 -2.797,0.707 -4.899,1.913 -6.597,3.913 -6.487,7.638 -4.455,18.737 -2.061,27.69 4.69,17.539 4.498,32.506 -5.192,48.341 -3.797,6.205 -8.787,11.234 -14.846,15.205 -16.27,10.663 -35.946,13.556 -53.925,5.461 -25.666,-11.557 -31.91,-40.156 -31.16,-65.848 2.665,-3.059 5.051,-5.818 7.956,-8.488 -4.057,9.751 -6.318,20.214 -3.7,30.384 l 2.764,10.738 c -0.006,0.543 -1.222,1.345 -0.862,2.05 0.218,0.427 0.263,1.105 0.91,1.474 1.898,1.083 3.789,1.705 5.922,2.542 11.829,4.64 21.874,12.949 28.598,23.735 0.663,1.064 1.106,1.76 2.429,1.518 0.654,-0.119 1.452,-0.819 1.726,-1.771 0.84,-2.923 2.073,-5.437 3.328,-8.201 3.884,-8.554 9.335,-15.768 16.172,-22.266 15.094,-14.347 29.293,-17.238 33.91,-20.548 M -132.98,194.913 c -0.565,-0.129 -1.162,-0.665 -1.125,-1.236 0.727,0.404 1.081,0.745 1.125,1.236 9.012,6.802 15.398,16.347 21.29,25.773 1.537,2.459 2.651,4.629 2.973,7.567 0.48,4.384 1.606,8.586 2.331,12.952 0.763,4.589 1.716,8.869 2.997,13.332 1.051,3.662 2.176,7.247 4.78,10.041 2.095,2.247 5.268,3.144 8.011,1.752 2.211,-1.121 3.658,-3.056 4.478,-5.331 1.244,2.462 2.876,4.115 5.004,4.686 4.786,1.283 8.811,-3.217 10.343,-7.699 3.909,-11.437 5.858,-23.103 6.926,-35.176 0.249,-2.824 7.433,-12.483 9.59,-15.632 0.051,18.988 4.021,39.503 17.271,53.299 19.395,20.195 51.197,21.514 74.08,6.735 12.308,-7.95 20.992,-19.57 24.95,-33.672 3.115,-11.098 2.75,-22.656 -0.062,-33.818 -1.954,-7.757 -5.269,-18.226 -0.512,-25.069 4.34,-6.242 9.099,-0.961 10.91,-3.925 1.941,-3.177 -3.326,-8.094 -5.715,-10.226 -6.857,-6.118 -15.562,-9.348 -24.859,-8.796 -0.428,0.025 -0.325,-0.555 -0.199,-0.728 l 4.067,-5.619 c 8.392,-11.591 14.458,-24.541 19.851,-37.894 1.513,-1.609 3.161,-2.616 4.746,-4.072 4.587,-4.213 8.02,-9.312 9.112,-15.549 0.729,-4.167 -0.332,-8.63 -3.693,-11.314 -4.592,-3.665 -11.067,-2.627 -15.225,1.194 -1.086,0.998 -1.871,1.968 -3.257,2.685 -1.368,-2.676 -3.706,-4.246 -6.363,-4.062 -7.171,0.495 -7.12,11.38 -6.186,16.751 0.322,1.853 -0.024,3.358 -0.845,5.061 -4.106,8.515 -8.837,16.454 -14.391,24.305 0.688,-4.176 1.69,-7.754 2.819,-11.737 4.007,-14.134 8.815,-27.692 14.35,-41.251 2.63,-6.442 -8.222,-7.995 -12.754,-9.704 2.503,-8.986 6.876,-16.978 12.471,-24.423 L 54.707,24.173 C 56.636,21.606 57.328,18.844 56.38,15.702 54.279,8.739 50.266,2.714 44.857,-2.174 40.59,-6.029 34.246,-10.245 29.045,-6.404 23.198,-2.086 26.742,9.801 30.143,15.512 18.762,27.962 11.316,39.044 6.371,55.233 5.167,55.515 4.09,55.524 2.803,55.118 L 5.096,11.296 c 0.191,-3.64 2.59,-13.935 -1.712,-16.044 -5.359,-2.627 -11.201,-3.474 -17.12,-4.106 -5.39,-0.575 -17.463,-1.315 -19.794,4.909 -2.856,7.627 8.184,14.749 14.666,17.237 l -5.287,28.855 c -0.995,5.435 -1.943,10.492 -2.221,15.979 -4.089,0.857 -7.603,2.024 -11.456,3.041 -2.342,0.619 -4.646,1.252 -6.336,3.102 -1.12,1.226 -1.38,3.149 -0.895,4.829 1.221,4.227 2.035,8.324 2.893,12.622 l 3.531,17.688 2.893,16.243 2.287,13.072 c 1.093,6.247 1.908,12.22 3.317,18.524 -37.872,24.575 -39.227,41.543 -52.424,60.47 l -3.697,5.302 c -0.862,-1.223 -1.805,-1.607 -2.266,-2.765 -8.523,-21.4 -22.786,-39.723 -41.308,-53.383 l -6.168,-4.548 2.445,-24.081 c 3.236,-31.866 1.114,-76.853 -0.882,-109.651 7.741,-2.826 15.902,-7.29 17.567,-16.105 0.649,-3.435 -0.971,-6.399 -4.349,-7.563 -10.355,-3.57 -26.926,-1.355 -37.717,0.823 -3.393,0.685 -5.686,3.296 -5.722,6.788 l -0.264,25.392 -1.318,47.023 c -1.608,0.279 -2.949,-0.118 -4.693,-0.541 l -4.909,-20.775 -6.96,-30.958 -3.976,-18.589 c -0.447,-2.088 -1.302,-4.998 -3.199,-6.068 -3.691,-2.083 -7.824,-2.597 -11.921,-3.525 -7.527,-1.705 -23.711,-3.991 -29.834,1.294 -1.269,1.095 -2.277,3.241 -2.108,4.923 0.872,8.661 10.705,15.121 18.149,17.809 1.655,7.39 2.524,14.561 3.665,21.971 l 3.06,19.879 4.689,34.337 c 1.481,10.846 2.318,21.339 3.116,32.692 -5.528,-8.86 -9.842,-17.922 -12.841,-27.458 1.743,-5.467 4.613,-18.633 -3.237,-20.743 -2.689,-0.723 -5.183,0.626 -6.992,3.08 -1.731,-3.186 -3.326,-6.084 -6.197,-8.023 -2.403,-1.625 -5.346,-2.677 -8.263,-2.089 -4.37,0.882 -7.406,4.393 -8.698,8.56 -2.997,9.673 2.447,19.664 8.395,27.051 6.112,25.353 18.215,49.889 38.968,67.249 -20.05,8.789 -33.106,27.145 -35.379,48.587 -1.176,11.099 0.564,21.651 5.42,31.728 9.328,19.358 27.982,32.608 49.355,35.051 4.58,0.523 8.81,0.365 13.193,-0.97 1.041,-0.316 2.156,-1.711 1.348,-2.738 -1.071,-1.361 -3.089,-1.542 -4.792,-1.707 -6.67,-0.647 -12.842,-1.669 -19.264,-3.721 -28.265,-9.031 -45.535,-38.429 -36.007,-67.925 5.472,-16.938 19.234,-29.913 36.643,-34.258 12.35,-3.082 25.398,-1.231 36.247,5.712 15.816,10.123 24.388,28.851 22.275,47.451 -2.264,19.933 -14.955,37.4 -34.84,42.273 -13.14,3.22 -24.44,-3.387 -22.811,2.457 0.132,0.473 0.722,0.937 1.39,1.287 4.051,2.122 8.478,2.734 13.048,2.929 12.256,0.524 24.747,-4.42 33.355,-13.103 12.491,-12.6 18.509,-30.478 16.535,-48.131 -1.037,-9.277 -4.466,-17.18 -8.669,-25.034"
       style="fill:#080908;fill-opacity:1;fill-rule:nonzero;stroke:none"
       transform="matrix(1.3333333,0,0,-1.3333333,406.4652,1289.0389)"
       clip-path="url(#clipPath1543)"
       id="path1575" />
    <path
       d="m 0,0 c -3.535,1.321 -14.144,7.543 -9.747,11.171 0.813,0.671 2.55,0.444 3.482,-0.497 C 0.984,3.352 11.689,1.659 20.824,6.536 29.429,11.131 28.403,17.424 32.051,16.642 36.239,15.745 31.112,6.208 23.908,1.88 16.691,-2.456 7.911,-2.957 0,0"
       style="fill:#080908;fill-opacity:1;fill-rule:nonzero;stroke:none"
       transform="matrix(1.3333333,0,0,-1.3333333,169.444,1020.4955)"
       clip-path="url(#clipPath1544)"
       id="path1576" />
    <path
       d="m 0,0 -0.26,-5.21 c -0.054,-1.081 -0.566,-1.749 -1.442,-1.736 -0.723,0.01 -1.396,0.757 -1.513,1.808 -1.577,14.125 -2.914,28.126 -3.343,42.41 -0.102,3.402 -0.468,6.432 0.006,9.704 0.156,1.075 0.639,1.597 1.624,1.747 0.932,0.141 1.699,-0.514 1.907,-1.694 0.854,-4.841 0.982,-9.615 1.268,-14.565 L -0.256,6.511 Z"
       style="fill:#1ba278;fill-opacity:1;fill-rule:nonzero;stroke:none"
       transform="matrix(1.3333333,0,0,-1.3333333,291.63973,899.56853)"
       clip-path="url(#clipPath1546)"
       id="path1578" />
    <path
       d="m 0,0 c -0.714,-1.092 -2.628,-2.233 -3.26,-1.348 -0.556,1.744 0.52,3.917 1.303,5.553 l 5.252,10.979 c 2.424,5.067 4.85,9.9 7.64,14.733 0.43,0.746 1.916,1.174 2.263,0.302 0.635,-1.598 0,-3.288 -0.573,-4.903 C 9.455,16.388 5.247,8.017 0,0"
       style="fill:#1ba278;fill-opacity:1;fill-rule:nonzero;stroke:none"
       transform="matrix(1.3333333,0,0,-1.3333333,263.98267,1087.458)"
       clip-path="url(#clipPath1552)"
       id="path1584" />
    <path
       d="m 0,0 c -1.438,0.884 -2.227,2.431 -2.914,3.833 -2.773,5.663 -9.026,18.936 -9.617,24.628 -0.064,0.612 1.579,0.784 1.922,0.458 0.342,-0.325 1.095,-0.609 1.488,-1.334 C -7.038,23.741 3.316,3.021 1.924,0.325 1.708,-0.093 0.754,-0.464 0,0"
       style="fill:#1ba278;fill-opacity:1;fill-rule:nonzero;stroke:none"
       transform="matrix(1.3333333,0,0,-1.3333333,322.2004,1091.7541)"
       clip-path="url(#clipPath1553)"
       id="path1585" />
    <path
       d="m 0,0 c 3.45,-4.592 3.968,-13.326 -0.143,-14.096 -1.817,-0.341 -3.225,0.328 -4.194,1.802 C -8.113,-6.547 -7.689,0.768 -3.775,1.643 -2.198,1.996 -0.949,1.263 0,0"
       style="fill:#080908;fill-opacity:1;fill-rule:nonzero;stroke:none"
       transform="matrix(1.3333333,0,0,-1.3333333,168.5284,970.49067)"
       clip-path="url(#clipPath1554)"
       id="path1586" />
    <path
       d="m 0,0 c -2.61,-1.42 -5.965,1.623 -6.798,6.362 -0.466,2.656 -1.045,7.587 2.133,8.714 C -0.413,16.585 3.524,8.54 1.79,2.122 1.483,0.985 0.626,0.341 0,0"
       style="fill:#080908;fill-opacity:1;fill-rule:nonzero;stroke:none"
       transform="matrix(1.3333333,0,0,-1.3333333,206.72547,980.98067)"
       clip-path="url(#clipPath1555)"
       id="path1587" />
    <path
       d="m 0,0 c -0.812,-1.984 -2.526,-7.532 -4.736,-6.973 -2.552,0.647 2.368,12.66 3.18,14.808 0.85,2.245 2.666,8.281 5.383,7.145 C 6.483,13.869 1.049,2.564 0,0"
       style="fill:#1ba278;fill-opacity:1;fill-rule:nonzero;stroke:none"
       transform="matrix(1.3333333,0,0,-1.3333333,314.6796,907.106)"
       clip-path="url(#clipPath1556)"
       id="path1588" />
    <path
       d="m 0,0 c 0.181,-0.808 -0.381,-1.44 -0.401,-1.833 -0.022,-0.44 -1.065,-0.814 -1.522,-0.324 -1.627,1.742 -2.378,4.012 -3.268,6.216 -0.652,1.612 -5.368,11.44 -1.885,11.26 C -4.008,15.16 -0.697,3.105 0,0"
       style="fill:#1ba278;fill-opacity:1;fill-rule:nonzero;stroke:none"
       transform="matrix(1.3333333,0,0,-1.3333333,274.14733,916.64253)"
       clip-path="url(#clipPath1557)"
       id="path1589" />
    <path
       d="M 0,0 C -0.045,-0.49 -0.398,-0.831 -1.125,-1.236 -1.162,-0.664 -0.565,-0.128 0,0"
       style="fill:#1ba278;fill-opacity:1;fill-rule:nonzero;stroke:none"
       transform="matrix(1.3333333,0,0,-1.3333333,229.15867,1029.1555)"
       clip-path="url(#clipPath1569)"
       id="path1601" />
    <path
       d="M 0,0 C 0.962,0.916 2.396,0.867 3.026,0.033 3.541,-0.648 3.47,-1.991 2.752,-2.895 -0.257,-6.682 -4.684,-8.91 -9.415,-10.109 -25.673,-14.23 -38.453,0.563 -33.652,2.508 c 2.7,1.094 4.456,-5.734 13.491,-8.075 C -12.933,-7.44 -5.433,-5.169 0,0"
       style="fill:#080908;fill-opacity:1;fill-rule:nonzero;stroke:none"
       transform="matrix(1.3333333,0,0,-1.3333333,416.552,1020.5868)"
       clip-path="url(#clipPath1571)"
       id="path1603" />
    <path
       d="m 0,0 c 0.972,-4.52 -1.852,-12.504 -6.249,-11.333 -1.207,0.322 -2.269,1.444 -2.582,2.988 C -9.832,-3.403 -6.93,3.984 -2.4,2.911 -1.452,2.686 -0.313,1.455 0,0"
       style="fill:#080908;fill-opacity:1;fill-rule:nonzero;stroke:none"
       transform="matrix(1.3333333,0,0,-1.3333333,417.88973,991.4208)"
       clip-path="url(#clipPath1572)"
       id="path1604" />
    <path
       d="m 0,0 c 1.246,-5.599 -2.064,-12.264 -5.452,-11.602 -4.787,0.936 -3.73,8.95 -0.372,13.057 0.932,1.141 2.218,1.448 3.593,1.156 C -1.336,2.42 -0.313,1.406 0,0"
       style="fill:#080908;fill-opacity:1;fill-rule:nonzero;stroke:none"
       transform="matrix(1.3333333,0,0,-1.3333333,381.0376,984.4)"
       clip-path="url(#clipPath1573)"
       id="path1605" />
  </g>
</svg>
